<svg width="194" height="407" viewBox="0 0 194 407" fill="none" xmlns="http://www.w3.org/2000/svg">
<rect width="174" height="407" fill="#D9D9D9"/>
<path d="M13.5 57.5H162.5V121.5H13.5V57.5Z" fill="#FF0000" stroke="black"/>
<path d="M33.3952 84.0881V81.0455H47.7305V84.0881H42.3867V98.5H38.739V84.0881H33.3952ZM50.0913 98.5V81.0455H61.8526V84.0881H53.7816V88.2472H61.2475V91.2898H53.7816V95.4574H61.8867V98.5H50.0913ZM68.2468 81.0455L71.7667 86.9943H71.9031L75.44 81.0455H79.6076L74.2809 89.7727L79.7269 98.5H75.4826L71.9031 92.5426H71.7667L68.1871 98.5H63.9599L69.4229 89.7727L64.0621 81.0455H68.2468ZM81.2781 84.0881V81.0455H95.6133V84.0881H90.2695V98.5H86.6218V84.0881H81.2781ZM97.945 88.42H105.745V90.916H97.945V88.42ZM99.769 84.436H105.865V86.836H99.769V84.436ZM99.913 89.884H102.457V100.612H99.913V89.884ZM104.473 88.42H106.969V95.092C106.969 96.172 106.825 96.892 106.129 97.3C105.433 97.708 104.569 97.732 103.369 97.732C103.321 96.988 103.057 95.98 102.745 95.308C103.393 95.332 103.993 95.332 104.209 95.308C104.425 95.308 104.473 95.236 104.473 95.044V88.42ZM107.185 79.06H119.449V81.484H107.185V79.06ZM110.641 88.684V90.22H115.993V88.684H110.641ZM110.641 92.188V93.724H115.993V92.188H110.641ZM110.641 85.204V86.716H115.993V85.204H110.641ZM108.001 83.092H118.753V95.836H108.001V83.092ZM111.865 80.38L115.153 80.74C114.697 82.252 114.193 83.764 113.785 84.796L111.289 84.34C111.529 83.188 111.793 81.556 111.865 80.38ZM110.353 95.86L112.705 97.396C111.385 98.668 109.105 100.012 107.233 100.732C106.777 100.204 105.937 99.34 105.313 98.86C107.185 98.188 109.297 96.892 110.353 95.86ZM113.833 97.468L115.969 96.028C117.313 96.892 119.137 98.212 120.073 99.124L117.817 100.732C116.977 99.844 115.201 98.428 113.833 97.468ZM101.281 78.124H102.865V78.676H103.705V79.444C102.697 81.556 101.065 84.46 98.281 87.028C97.969 86.38 97.225 85.276 96.697 84.844C98.953 82.876 100.465 80.26 101.281 78.124ZM101.497 78.124H103.561C105.145 79.396 107.233 81.316 108.193 82.684L106.417 85.228C105.529 83.836 103.561 81.508 102.025 80.308H101.497V78.124ZM121.297 83.86H127.969V86.572H121.297V83.86ZM123.457 78.46H126.121V94.54H123.457V78.46ZM121.081 94.9C122.761 94.156 125.329 92.86 127.777 91.564L128.617 94.108C126.481 95.38 124.129 96.724 122.161 97.78L121.081 94.9ZM128.329 81.436H143.473V84.028H128.329V81.436ZM127.585 95.38C129.697 94.996 132.865 94.276 135.913 93.58L136.177 95.98C133.441 96.724 130.537 97.492 128.257 98.068L127.585 95.38ZM135.985 78.148H138.721C138.553 87.796 139.873 97.948 141.457 97.948C141.769 97.948 141.985 97.084 142.033 94.948C142.585 95.596 143.401 96.196 143.977 96.508C143.593 99.724 142.897 100.66 141.073 100.66C136.897 100.66 136.033 88.9 135.985 78.148ZM139.177 79.516L140.785 78.124C141.721 78.796 142.897 79.78 143.449 80.476L141.745 82.036C141.217 81.316 140.113 80.26 139.177 79.516ZM140.569 85.612L143.137 86.092C141.625 92.5 138.841 97.468 134.593 100.516C134.185 100.036 133.105 99.1 132.529 98.692C136.753 96.028 139.321 91.468 140.569 85.612ZM131.137 87.844V90.772H132.985V87.844H131.137ZM129.025 85.636H135.217V93.004H129.025V85.636Z" fill="white"/>
<path d="M13.5 122.5H162.5V186.5H13.5V122.5Z" fill="#309601" stroke="black"/>
<path d="M40.1303 163.5H33.9428V146.045H40.1815C41.9371 146.045 43.4485 146.395 44.7156 147.094C45.9826 147.787 46.957 148.784 47.6389 150.085C48.3264 151.386 48.6701 152.943 48.6701 154.756C48.6701 156.574 48.3264 158.136 47.6389 159.443C46.957 160.75 45.9769 161.753 44.6985 162.452C43.4258 163.151 41.9031 163.5 40.1303 163.5ZM37.6332 160.338H39.9769C41.0678 160.338 41.9854 160.145 42.7298 159.759C43.4798 159.366 44.0423 158.761 44.4173 157.943C44.7979 157.119 44.9883 156.057 44.9883 154.756C44.9883 153.466 44.7979 152.412 44.4173 151.594C44.0423 150.776 43.4826 150.173 42.7383 149.787C41.994 149.401 41.0763 149.207 39.9854 149.207H37.6332V160.338ZM53.4279 163.5H49.4734L55.4989 146.045H60.2546L66.2717 163.5H62.3171L57.945 150.034H57.8086L53.4279 163.5ZM53.1808 156.639H62.5217V159.52H53.1808V156.639ZM65.5749 149.088V146.045H79.9102V149.088H74.5664V163.5H70.9187V149.088H65.5749ZM83.1467 163.5H79.1921L85.2177 146.045H89.9734L95.9904 163.5H92.0359L87.6637 150.034H87.5273L83.1467 163.5ZM82.8995 156.639H92.2404V159.52H82.8995V156.639ZM98.0622 153.42H105.862V155.916H98.0622V153.42ZM99.8862 149.436H105.982V151.836H99.8862V149.436ZM100.03 154.884H102.574V165.612H100.03V154.884ZM104.59 153.42H107.086V160.092C107.086 161.172 106.942 161.892 106.246 162.3C105.55 162.708 104.686 162.732 103.486 162.732C103.438 161.988 103.174 160.98 102.862 160.308C103.51 160.332 104.11 160.332 104.326 160.308C104.542 160.308 104.59 160.236 104.59 160.044V153.42ZM107.302 144.06H119.566V146.484H107.302V144.06ZM110.758 153.684V155.22H116.11V153.684H110.758ZM110.758 157.188V158.724H116.11V157.188H110.758ZM110.758 150.204V151.716H116.11V150.204H110.758ZM108.118 148.092H118.87V160.836H108.118V148.092ZM111.982 145.38L115.27 145.74C114.814 147.252 114.31 148.764 113.902 149.796L111.406 149.34C111.646 148.188 111.91 146.556 111.982 145.38ZM110.47 160.86L112.822 162.396C111.502 163.668 109.222 165.012 107.35 165.732C106.894 165.204 106.054 164.34 105.43 163.86C107.302 163.188 109.414 161.892 110.47 160.86ZM113.95 162.468L116.086 161.028C117.43 161.892 119.254 163.212 120.19 164.124L117.934 165.732C117.094 164.844 115.318 163.428 113.95 162.468ZM101.398 143.124H102.982V143.676H103.822V144.444C102.814 146.556 101.182 149.46 98.3982 152.028C98.0862 151.38 97.3422 150.276 96.8142 149.844C99.0702 147.876 100.582 145.26 101.398 143.124ZM101.614 143.124H103.678C105.262 144.396 107.35 146.316 108.31 147.684L106.534 150.228C105.646 148.836 103.678 146.508 102.142 145.308H101.614V143.124ZM121.414 148.86H128.086V151.572H121.414V148.86ZM123.574 143.46H126.238V159.54H123.574V143.46ZM121.198 159.9C122.878 159.156 125.446 157.86 127.894 156.564L128.734 159.108C126.598 160.38 124.246 161.724 122.278 162.78L121.198 159.9ZM128.446 146.436H143.59V149.028H128.446V146.436ZM127.702 160.38C129.814 159.996 132.982 159.276 136.03 158.58L136.294 160.98C133.558 161.724 130.654 162.492 128.374 163.068L127.702 160.38ZM136.102 143.148H138.838C138.67 152.796 139.99 162.948 141.574 162.948C141.886 162.948 142.102 162.084 142.15 159.948C142.702 160.596 143.518 161.196 144.094 161.508C143.71 164.724 143.014 165.66 141.19 165.66C137.014 165.66 136.15 153.9 136.102 143.148ZM139.294 144.516L140.902 143.124C141.838 143.796 143.014 144.78 143.566 145.476L141.862 147.036C141.334 146.316 140.23 145.26 139.294 144.516ZM140.686 150.612L143.254 151.092C141.742 157.5 138.958 162.468 134.71 165.516C134.302 165.036 133.222 164.1 132.646 163.692C136.87 161.028 139.438 156.468 140.686 150.612ZM131.254 152.844V155.772H133.102V152.844H131.254ZM129.142 150.636H135.334V158.004H129.142V150.636Z" fill="white"/>
<path d="M13.5 187.5H162.5V256.5H13.5V187.5Z" fill="#001AFF" stroke="black"/>
<path d="M32.9702 230.923V213.469H36.6605V220.67H44.152V213.469H47.8338V230.923H44.152V223.713H36.6605V230.923H32.9702ZM50.8764 230.923V213.469H62.6378V216.511H54.5668V220.67H62.0327V223.713H54.5668V227.88H62.6719V230.923H50.8764ZM68.5803 230.923H64.6257L70.6513 213.469H75.407L81.424 230.923H77.4695L73.0973 217.457H72.9609L68.5803 230.923ZM68.3331 224.062H77.674V226.943H68.3331V224.062ZM83.5249 230.923V213.469H90.4112C91.7351 213.469 92.8629 213.721 93.7947 214.227C94.7266 214.727 95.4368 215.423 95.9254 216.315C96.4197 217.201 96.6669 218.224 96.6669 219.383C96.6669 220.542 96.4169 221.565 95.9169 222.451C95.4169 223.338 94.6925 224.028 93.7436 224.522C92.8004 225.017 91.6584 225.264 90.3175 225.264H85.9283V222.307H89.7209C90.4311 222.307 91.0163 222.184 91.4766 221.94C91.9425 221.69 92.2891 221.346 92.5163 220.909C92.7493 220.466 92.8658 219.957 92.8658 219.383C92.8658 218.804 92.7493 218.298 92.5163 217.866C92.2891 217.429 91.9425 217.091 91.4766 216.852C91.0107 216.608 90.4197 216.486 89.7038 216.486H87.2152V230.923H83.5249ZM99.0349 220.843H106.835V223.339H99.0349V220.843ZM100.859 216.859H106.955V219.259H100.859V216.859ZM101.003 222.307H103.547V233.035H101.003V222.307ZM105.563 220.843H108.059V227.515C108.059 228.595 107.915 229.315 107.219 229.723C106.523 230.131 105.659 230.155 104.459 230.155C104.411 229.411 104.147 228.403 103.835 227.731C104.483 227.755 105.083 227.755 105.299 227.731C105.515 227.731 105.563 227.659 105.563 227.467V220.843ZM108.275 211.483H120.539V213.907H108.275V211.483ZM111.731 221.107V222.643H117.083V221.107H111.731ZM111.731 224.611V226.147H117.083V224.611H111.731ZM111.731 217.627V219.139H117.083V217.627H111.731ZM109.091 215.515H119.843V228.259H109.091V215.515ZM112.955 212.803L116.243 213.163C115.787 214.675 115.283 216.187 114.875 217.219L112.379 216.763C112.619 215.611 112.883 213.979 112.955 212.803ZM111.443 228.283L113.795 229.819C112.475 231.091 110.195 232.435 108.323 233.155C107.867 232.627 107.027 231.763 106.403 231.283C108.275 230.611 110.387 229.315 111.443 228.283ZM114.923 229.891L117.059 228.451C118.403 229.315 120.227 230.635 121.163 231.547L118.907 233.155C118.067 232.267 116.291 230.851 114.923 229.891ZM102.371 210.547H103.955V211.099H104.795V211.867C103.787 213.979 102.155 216.883 99.3709 219.451C99.0589 218.803 98.3149 217.699 97.7869 217.267C100.043 215.299 101.555 212.683 102.371 210.547ZM102.587 210.547H104.651C106.235 211.819 108.323 213.739 109.283 215.107L107.507 217.651C106.619 216.259 104.651 213.931 103.115 212.731H102.587V210.547ZM122.387 216.283H129.059V218.995H122.387V216.283ZM124.547 210.883H127.211V226.963H124.547V210.883ZM122.171 227.323C123.851 226.579 126.419 225.283 128.867 223.987L129.707 226.531C127.571 227.803 125.219 229.147 123.251 230.203L122.171 227.323ZM129.419 213.859H144.563V216.451H129.419V213.859ZM128.675 227.803C130.787 227.419 133.955 226.699 137.003 226.003L137.267 228.403C134.531 229.147 131.627 229.915 129.347 230.491L128.675 227.803ZM137.075 210.571H139.811C139.643 220.219 140.963 230.371 142.547 230.371C142.859 230.371 143.075 229.507 143.123 227.371C143.675 228.019 144.491 228.619 145.067 228.931C144.683 232.147 143.987 233.083 142.163 233.083C137.987 233.083 137.123 221.323 137.075 210.571ZM140.267 211.939L141.875 210.547C142.811 211.219 143.987 212.203 144.539 212.899L142.835 214.459C142.307 213.739 141.203 212.683 140.267 211.939ZM141.659 218.035L144.227 218.515C142.715 224.923 139.931 229.891 135.683 232.939C135.275 232.459 134.195 231.523 133.619 231.115C137.843 228.451 140.411 223.891 141.659 218.035ZM132.227 220.267V223.195H134.075V220.267H132.227ZM130.115 218.059H136.307V225.427H130.115V218.059Z" fill="white"/>
<path d="M13.5 304.5H162.5V396.5H13.5V304.5Z" fill="#CB09CF" stroke="black"/>
<path d="M35.31 347.565C35.2418 346.878 34.9492 346.344 34.4322 345.963C33.9151 345.582 33.2134 345.392 32.3271 345.392C31.7248 345.392 31.2163 345.477 30.8015 345.648C30.3867 345.812 30.0685 346.043 29.8469 346.338C29.631 346.634 29.5231 346.969 29.5231 347.344C29.5117 347.656 29.5771 347.929 29.7191 348.162C29.8668 348.395 30.0685 348.597 30.3242 348.767C30.5799 348.932 30.8754 349.077 31.2106 349.202C31.5458 349.321 31.9038 349.423 32.2844 349.509L33.8526 349.884C34.614 350.054 35.3129 350.281 35.9492 350.565C36.5856 350.849 37.1367 351.199 37.6026 351.614C38.0685 352.028 38.4293 352.517 38.685 353.08C38.9464 353.642 39.0799 354.287 39.0856 355.014C39.0799 356.082 38.8072 357.009 38.2674 357.793C37.7333 358.571 36.9606 359.176 35.9492 359.608C34.9435 360.034 33.7305 360.247 32.31 360.247C30.9009 360.247 29.6737 360.031 28.6282 359.599C27.5884 359.168 26.7759 358.528 26.1907 357.682C25.6112 356.83 25.3072 355.776 25.2788 354.52H28.8498C28.8896 355.105 29.0572 355.594 29.3526 355.986C29.6538 356.372 30.0543 356.665 30.5543 356.864C31.06 357.057 31.631 357.153 32.2674 357.153C32.8924 357.153 33.435 357.062 33.8952 356.881C34.3612 356.699 34.7219 356.446 34.9776 356.122C35.2333 355.798 35.3612 355.426 35.3612 355.006C35.3612 354.614 35.2447 354.284 35.0117 354.017C34.7844 353.75 34.4492 353.523 34.006 353.335C33.5685 353.148 33.0316 352.977 32.3952 352.824L30.4947 352.347C29.0231 351.989 27.8612 351.429 27.0089 350.668C26.1566 349.906 25.7333 348.881 25.739 347.591C25.7333 346.534 26.0146 345.611 26.5827 344.821C27.1566 344.031 27.9435 343.415 28.9435 342.972C29.9435 342.528 31.0799 342.307 32.3526 342.307C33.6481 342.307 34.7788 342.528 35.7447 342.972C36.7163 343.415 37.4719 344.031 38.0117 344.821C38.5515 345.611 38.8299 346.526 38.8469 347.565H35.31ZM40.9031 345.588V342.545H55.2383V345.588H49.8945V360H46.2468V345.588H40.9031ZM58.4748 360H54.5202L60.5458 342.545H65.3015L71.3185 360H67.364L62.9918 346.534H62.8555L58.4748 360ZM58.2276 353.139H67.5685V356.02H58.2276V353.139ZM87.9996 348.656H84.2667C84.1985 348.173 84.0593 347.744 83.8491 347.369C83.6389 346.989 83.369 346.665 83.0394 346.398C82.7099 346.131 82.3292 345.926 81.8974 345.784C81.4712 345.642 81.0082 345.571 80.5082 345.571C79.6048 345.571 78.8178 345.795 78.1474 346.244C77.4769 346.687 76.957 347.335 76.5877 348.188C76.2184 349.034 76.0337 350.062 76.0337 351.273C76.0337 352.517 76.2184 353.562 76.5877 354.409C76.9627 355.256 77.4854 355.895 78.1559 356.327C78.8263 356.759 79.6019 356.974 80.4826 356.974C80.9769 356.974 81.4343 356.909 81.8548 356.778C82.2809 356.648 82.6587 356.457 82.9883 356.207C83.3178 355.952 83.5906 355.642 83.8065 355.278C84.0281 354.915 84.1815 354.5 84.2667 354.034L87.9996 354.051C87.9031 354.852 87.6616 355.625 87.2752 356.369C86.8945 357.108 86.3803 357.77 85.7326 358.355C85.0906 358.935 84.3235 359.395 83.4315 359.736C82.5451 360.071 81.5423 360.239 80.4229 360.239C78.8661 360.239 77.4741 359.886 76.2468 359.182C75.0252 358.477 74.0593 357.457 73.3491 356.122C72.6445 354.787 72.2923 353.17 72.2923 351.273C72.2923 349.369 72.6502 347.75 73.3661 346.415C74.082 345.08 75.0536 344.062 76.2809 343.364C77.5082 342.659 78.8888 342.307 80.4229 342.307C81.4343 342.307 82.3718 342.449 83.2354 342.733C84.1048 343.017 84.8746 343.432 85.5451 343.977C86.2156 344.517 86.761 345.179 87.1815 345.963C87.6076 346.747 87.8803 347.645 87.9996 348.656ZM90.646 360V342.545H94.3363V350.241H94.5664L100.848 342.545H105.271L98.7937 350.361L105.348 360H100.933L96.1516 352.824L94.3363 355.04V360H90.646ZM107.164 349.92H114.964V352.416H107.164V349.92ZM108.988 345.936H115.084V348.336H108.988V345.936ZM109.132 351.384H111.676V362.112H109.132V351.384ZM113.692 349.92H116.188V356.592C116.188 357.672 116.044 358.392 115.348 358.8C114.652 359.208 113.788 359.232 112.588 359.232C112.54 358.488 112.276 357.48 111.964 356.808C112.612 356.832 113.212 356.832 113.428 356.808C113.644 356.808 113.692 356.736 113.692 356.544V349.92ZM116.404 340.56H128.668V342.984H116.404V340.56ZM119.86 350.184V351.72H125.212V350.184H119.86ZM119.86 353.688V355.224H125.212V353.688H119.86ZM119.86 346.704V348.216H125.212V346.704H119.86ZM117.22 344.592H127.972V357.336H117.22V344.592ZM121.084 341.88L124.372 342.24C123.916 343.752 123.412 345.264 123.004 346.296L120.508 345.84C120.748 344.688 121.012 343.056 121.084 341.88ZM119.572 357.36L121.924 358.896C120.604 360.168 118.324 361.512 116.452 362.232C115.996 361.704 115.156 360.84 114.532 360.36C116.404 359.688 118.516 358.392 119.572 357.36ZM123.052 358.968L125.188 357.528C126.532 358.392 128.356 359.712 129.292 360.624L127.036 362.232C126.196 361.344 124.42 359.928 123.052 358.968ZM110.5 339.624H112.084V340.176H112.924V340.944C111.916 343.056 110.284 345.96 107.5 348.528C107.188 347.88 106.444 346.776 105.916 346.344C108.172 344.376 109.684 341.76 110.5 339.624ZM110.716 339.624H112.78C114.364 340.896 116.452 342.816 117.412 344.184L115.636 346.728C114.748 345.336 112.78 343.008 111.244 341.808H110.716V339.624ZM130.516 345.36H137.188V348.072H130.516V345.36ZM132.676 339.96H135.34V356.04H132.676V339.96ZM130.3 356.4C131.98 355.656 134.548 354.36 136.996 353.064L137.836 355.608C135.7 356.88 133.348 358.224 131.38 359.28L130.3 356.4ZM137.548 342.936H152.692V345.528H137.548V342.936ZM136.804 356.88C138.916 356.496 142.084 355.776 145.132 355.08L145.396 357.48C142.66 358.224 139.756 358.992 137.476 359.568L136.804 356.88ZM145.204 339.648H147.94C147.772 349.296 149.092 359.448 150.676 359.448C150.988 359.448 151.204 358.584 151.252 356.448C151.804 357.096 152.62 357.696 153.196 358.008C152.812 361.224 152.116 362.16 150.292 362.16C146.116 362.16 145.252 350.4 145.204 339.648ZM148.396 341.016L150.004 339.624C150.94 340.296 152.116 341.28 152.668 341.976L150.964 343.536C150.436 342.816 149.332 341.76 148.396 341.016ZM149.788 347.112L152.356 347.592C150.844 354 148.06 358.968 143.812 362.016C143.404 361.536 142.324 360.6 141.748 360.192C145.972 357.528 148.54 352.968 149.788 347.112ZM140.356 349.344V352.272H142.204V349.344H140.356ZM138.244 347.136H144.436V354.504H138.244V347.136Z" fill="white"/>
<rect x="13.5" y="257.5" width="149" height="46" fill="white" stroke="black"/>
<path d="M47.232 19.36C46.896 19.912 46.44 20.968 46.224 21.544C45.312 23.92 43.848 27.088 41.856 29.68C39.624 32.56 36.672 35.656 32.016 38.224L29.352 35.776C33.72 33.688 36.72 31.024 39.264 27.712C41.16 25.216 42.24 22.744 43.08 20.344C43.296 19.72 43.536 18.736 43.656 18.136L47.232 19.36ZM34.032 21.688C36.408 23.176 39.696 25.456 41.712 27.04C44.28 29.032 46.8 31.288 48.744 33.352L46.272 36.112C44.184 33.664 42.072 31.696 39.528 29.584C37.8 28.144 34.992 25.984 31.968 24.136L34.032 21.688ZM55.104 19.384C55.8 19.432 56.568 19.48 57.432 19.48C59.496 19.48 66.864 19.48 69 19.48C69.792 19.48 70.584 19.432 71.136 19.384V22.36C70.512 22.336 69.864 22.312 69 22.312C66.864 22.312 58.608 22.312 57.432 22.312C56.568 22.312 55.8 22.336 55.104 22.36V19.384ZM63.36 27.832C63.36 28.936 63.36 32.128 63.36 32.968C63.36 34.264 64.152 34.744 66.096 34.744C68.232 34.744 70.344 34.624 72.288 34.408L72.072 37.672C70.512 37.768 67.776 37.84 65.544 37.84C61.152 37.84 60.072 36.352 60.072 33.928C60.072 32.344 60.072 29.128 60.072 27.712C60.072 26.8 60.072 22.384 60.072 21.592H63.36C63.36 22.336 63.36 27.592 63.36 27.832ZM53.52 26.248C54.192 26.296 55.416 26.392 56.136 26.392C58.344 26.392 69 26.392 70.584 26.392C71.088 26.392 72.312 26.32 72.936 26.272V29.368C72.288 29.272 71.208 29.296 70.68 29.296C68.952 29.296 58.32 29.296 56.136 29.296C55.464 29.296 54.24 29.344 53.52 29.392V26.248ZM94.248 18.376C94.2 19.048 94.176 19.816 94.176 20.8C94.176 22.024 94.176 24.352 94.176 25.528C94.176 30.712 93.168 32.92 91.368 34.888C89.784 36.64 87.312 37.792 85.56 38.368L83.04 35.704C85.44 35.152 87.36 34.24 88.824 32.68C90.456 30.88 90.792 29.08 90.792 25.336C90.792 24.136 90.792 21.832 90.792 20.8C90.792 19.816 90.72 19.048 90.624 18.376H94.248ZM83.136 18.592C83.088 19.144 83.04 19.672 83.04 20.416C83.04 21.472 83.04 27.184 83.04 28.528C83.04 29.128 83.088 30.064 83.136 30.616H79.632C79.68 30.184 79.752 29.248 79.752 28.504C79.752 27.136 79.752 21.472 79.752 20.416C79.752 19.984 79.728 19.144 79.656 18.592H83.136ZM109.44 16.624H112.416V20.536H109.44V16.624ZM109.44 30.856H112.416V37.264H109.44V30.856ZM106.872 21.136H109.848C109.416 25.288 108.216 27.928 101.904 29.296C101.664 28.576 100.968 27.424 100.368 26.848C105.792 25.912 106.536 24.16 106.872 21.136ZM112.128 21.088H114.984V25.216C114.984 25.864 115.128 25.936 115.848 25.936C116.184 25.936 117.576 25.936 118.008 25.936C118.608 25.936 118.728 25.696 118.824 24.208C119.376 24.616 120.528 25.024 121.296 25.192C120.984 27.712 120.24 28.384 118.296 28.384C117.72 28.384 115.968 28.384 115.44 28.384C112.728 28.384 112.128 27.64 112.128 25.216V21.088ZM100.704 18.784H121.344V23.776H118.368V21.376H103.536V24.208H100.704V18.784ZM102.984 29.728H119.52V32.296H102.984V29.728ZM100.44 35.92H121.536V38.512H100.44V35.92ZM131.688 31.264H138.264V33.328H131.688V31.264ZM131.52 27.712H139.608V36.928H131.52V34.816H136.92V29.824H131.52V27.712ZM130.344 27.712H132.936V38.152H130.344V27.712ZM126.312 20.872H132.336V22.816H126.312V20.872ZM137.448 20.872H143.52V22.816H137.448V20.872ZM142.344 17.536H145.248V35.752C145.248 37.312 144.936 38.152 143.976 38.632C143.016 39.112 141.624 39.16 139.56 39.16C139.44 38.344 139.008 37 138.624 36.232C139.872 36.304 141.336 36.28 141.768 36.28C142.2 36.28 142.344 36.136 142.344 35.728V17.536ZM126.552 17.536H134.136V26.248H126.552V24.184H131.448V19.624H126.552V17.536ZM143.88 17.536V19.624H138.504V24.256H143.88V26.32H135.768V17.536H143.88ZM124.896 17.536H127.752V39.16H124.896V17.536Z" fill="black"/>
<path d="M185.293 261.707C185.683 262.098 186.317 262.098 186.707 261.707L193.071 255.343C193.462 254.953 193.462 254.319 193.071 253.929C192.681 253.538 192.047 253.538 191.657 253.929L186 259.586L180.343 253.929C179.953 253.538 179.319 253.538 178.929 253.929C178.538 254.319 178.538 254.953 178.929 255.343L185.293 261.707ZM185 187L185 261L187 261L187 187L185 187Z" fill="black"/>
<path d="M186.707 304.293C186.317 303.902 185.683 303.902 185.293 304.293L178.929 310.657C178.538 311.047 178.538 311.681 178.929 312.071C179.319 312.462 179.953 312.462 180.343 312.071L186 306.414L191.657 312.071C192.047 312.462 192.681 312.462 193.071 312.071C193.462 311.681 193.462 311.047 193.071 310.657L186.707 304.293ZM187 397L187 305H185L185 397H187Z" fill="black"/>
</svg>
