<svg width="195" height="407" viewBox="0 0 195 407" fill="none" xmlns="http://www.w3.org/2000/svg">
<rect width="174" height="407" fill="#D9D9D9"/>
<path d="M13.5 57.5H162.5V121.5H13.5V57.5Z" fill="#FF0000" stroke="black"/>
<path d="M33.3952 84.0881V81.0455H47.7305V84.0881H42.3867V98.5H38.739V84.0881H33.3952ZM50.0913 98.5V81.0455H61.8526V84.0881H53.7816V88.2472H61.2475V91.2898H53.7816V95.4574H61.8867V98.5H50.0913ZM68.2468 81.0455L71.7667 86.9943H71.9031L75.44 81.0455H79.6076L74.2809 89.7727L79.7269 98.5H75.4826L71.9031 92.5426H71.7667L68.1871 98.5H63.9599L69.4229 89.7727L64.0621 81.0455H68.2468ZM81.2781 84.0881V81.0455H95.6133V84.0881H90.2695V98.5H86.6218V84.0881H81.2781ZM97.945 88.42H105.745V90.916H97.945V88.42ZM99.769 84.436H105.865V86.836H99.769V84.436ZM99.913 89.884H102.457V100.612H99.913V89.884ZM104.473 88.42H106.969V95.092C106.969 96.172 106.825 96.892 106.129 97.3C105.433 97.708 104.569 97.732 103.369 97.732C103.321 96.988 103.057 95.98 102.745 95.308C103.393 95.332 103.993 95.332 104.209 95.308C104.425 95.308 104.473 95.236 104.473 95.044V88.42ZM107.185 79.06H119.449V81.484H107.185V79.06ZM110.641 88.684V90.22H115.993V88.684H110.641ZM110.641 92.188V93.724H115.993V92.188H110.641ZM110.641 85.204V86.716H115.993V85.204H110.641ZM108.001 83.092H118.753V95.836H108.001V83.092ZM111.865 80.38L115.153 80.74C114.697 82.252 114.193 83.764 113.785 84.796L111.289 84.34C111.529 83.188 111.793 81.556 111.865 80.38ZM110.353 95.86L112.705 97.396C111.385 98.668 109.105 100.012 107.233 100.732C106.777 100.204 105.937 99.34 105.313 98.86C107.185 98.188 109.297 96.892 110.353 95.86ZM113.833 97.468L115.969 96.028C117.313 96.892 119.137 98.212 120.073 99.124L117.817 100.732C116.977 99.844 115.201 98.428 113.833 97.468ZM101.281 78.124H102.865V78.676H103.705V79.444C102.697 81.556 101.065 84.46 98.281 87.028C97.969 86.38 97.225 85.276 96.697 84.844C98.953 82.876 100.465 80.26 101.281 78.124ZM101.497 78.124H103.561C105.145 79.396 107.233 81.316 108.193 82.684L106.417 85.228C105.529 83.836 103.561 81.508 102.025 80.308H101.497V78.124ZM121.297 83.86H127.969V86.572H121.297V83.86ZM123.457 78.46H126.121V94.54H123.457V78.46ZM121.081 94.9C122.761 94.156 125.329 92.86 127.777 91.564L128.617 94.108C126.481 95.38 124.129 96.724 122.161 97.78L121.081 94.9ZM128.329 81.436H143.473V84.028H128.329V81.436ZM127.585 95.38C129.697 94.996 132.865 94.276 135.913 93.58L136.177 95.98C133.441 96.724 130.537 97.492 128.257 98.068L127.585 95.38ZM135.985 78.148H138.721C138.553 87.796 139.873 97.948 141.457 97.948C141.769 97.948 141.985 97.084 142.033 94.948C142.585 95.596 143.401 96.196 143.977 96.508C143.593 99.724 142.897 100.66 141.073 100.66C136.897 100.66 136.033 88.9 135.985 78.148ZM139.177 79.516L140.785 78.124C141.721 78.796 142.897 79.78 143.449 80.476L141.745 82.036C141.217 81.316 140.113 80.26 139.177 79.516ZM140.569 85.612L143.137 86.092C141.625 92.5 138.841 97.468 134.593 100.516C134.185 100.036 133.105 99.1 132.529 98.692C136.753 96.028 139.321 91.468 140.569 85.612ZM131.137 87.844V90.772H132.985V87.844H131.137ZM129.025 85.636H135.217V93.004H129.025V85.636Z" fill="white"/>
<path d="M13.5 122.5H162.5V186.5H13.5V122.5Z" fill="#309601" stroke="black"/>
<path d="M40.1303 163.5H33.9428V146.045H40.1815C41.9371 146.045 43.4485 146.395 44.7156 147.094C45.9826 147.787 46.957 148.784 47.6389 150.085C48.3264 151.386 48.6701 152.943 48.6701 154.756C48.6701 156.574 48.3264 158.136 47.6389 159.443C46.957 160.75 45.9769 161.753 44.6985 162.452C43.4258 163.151 41.9031 163.5 40.1303 163.5ZM37.6332 160.338H39.9769C41.0678 160.338 41.9854 160.145 42.7298 159.759C43.4798 159.366 44.0423 158.761 44.4173 157.943C44.7979 157.119 44.9883 156.057 44.9883 154.756C44.9883 153.466 44.7979 152.412 44.4173 151.594C44.0423 150.776 43.4826 150.173 42.7383 149.787C41.994 149.401 41.0763 149.207 39.9854 149.207H37.6332V160.338ZM53.4279 163.5H49.4734L55.4989 146.045H60.2546L66.2717 163.5H62.3171L57.945 150.034H57.8086L53.4279 163.5ZM53.1808 156.639H62.5217V159.52H53.1808V156.639ZM65.5749 149.088V146.045H79.9102V149.088H74.5664V163.5H70.9187V149.088H65.5749ZM83.1467 163.5H79.1921L85.2177 146.045H89.9734L95.9904 163.5H92.0359L87.6637 150.034H87.5273L83.1467 163.5ZM82.8995 156.639H92.2404V159.52H82.8995V156.639ZM98.0622 153.42H105.862V155.916H98.0622V153.42ZM99.8862 149.436H105.982V151.836H99.8862V149.436ZM100.03 154.884H102.574V165.612H100.03V154.884ZM104.59 153.42H107.086V160.092C107.086 161.172 106.942 161.892 106.246 162.3C105.55 162.708 104.686 162.732 103.486 162.732C103.438 161.988 103.174 160.98 102.862 160.308C103.51 160.332 104.11 160.332 104.326 160.308C104.542 160.308 104.59 160.236 104.59 160.044V153.42ZM107.302 144.06H119.566V146.484H107.302V144.06ZM110.758 153.684V155.22H116.11V153.684H110.758ZM110.758 157.188V158.724H116.11V157.188H110.758ZM110.758 150.204V151.716H116.11V150.204H110.758ZM108.118 148.092H118.87V160.836H108.118V148.092ZM111.982 145.38L115.27 145.74C114.814 147.252 114.31 148.764 113.902 149.796L111.406 149.34C111.646 148.188 111.91 146.556 111.982 145.38ZM110.47 160.86L112.822 162.396C111.502 163.668 109.222 165.012 107.35 165.732C106.894 165.204 106.054 164.34 105.43 163.86C107.302 163.188 109.414 161.892 110.47 160.86ZM113.95 162.468L116.086 161.028C117.43 161.892 119.254 163.212 120.19 164.124L117.934 165.732C117.094 164.844 115.318 163.428 113.95 162.468ZM101.398 143.124H102.982V143.676H103.822V144.444C102.814 146.556 101.182 149.46 98.3982 152.028C98.0862 151.38 97.3422 150.276 96.8142 149.844C99.0702 147.876 100.582 145.26 101.398 143.124ZM101.614 143.124H103.678C105.262 144.396 107.35 146.316 108.31 147.684L106.534 150.228C105.646 148.836 103.678 146.508 102.142 145.308H101.614V143.124ZM121.414 148.86H128.086V151.572H121.414V148.86ZM123.574 143.46H126.238V159.54H123.574V143.46ZM121.198 159.9C122.878 159.156 125.446 157.86 127.894 156.564L128.734 159.108C126.598 160.38 124.246 161.724 122.278 162.78L121.198 159.9ZM128.446 146.436H143.59V149.028H128.446V146.436ZM127.702 160.38C129.814 159.996 132.982 159.276 136.03 158.58L136.294 160.98C133.558 161.724 130.654 162.492 128.374 163.068L127.702 160.38ZM136.102 143.148H138.838C138.67 152.796 139.99 162.948 141.574 162.948C141.886 162.948 142.102 162.084 142.15 159.948C142.702 160.596 143.518 161.196 144.094 161.508C143.71 164.724 143.014 165.66 141.19 165.66C137.014 165.66 136.15 153.9 136.102 143.148ZM139.294 144.516L140.902 143.124C141.838 143.796 143.014 144.78 143.566 145.476L141.862 147.036C141.334 146.316 140.23 145.26 139.294 144.516ZM140.686 150.612L143.254 151.092C141.742 157.5 138.958 162.468 134.71 165.516C134.302 165.036 133.222 164.1 132.646 163.692C136.87 161.028 139.438 156.468 140.686 150.612ZM131.254 152.844V155.772H133.102V152.844H131.254ZM129.142 150.636H135.334V158.004H129.142V150.636Z" fill="white"/>
<path d="M13.5 187.5H162.5V244.365H13.5V187.5Z" fill="#001AFF" stroke="black"/>
<path d="M32.9702 225.469V208.015H36.6605V215.216H44.152V208.015H47.8338V225.469H44.152V218.259H36.6605V225.469H32.9702ZM50.8764 225.469V208.015H62.6378V211.057H54.5668V215.216H62.0327V218.259H54.5668V222.427H62.6719V225.469H50.8764ZM68.5803 225.469H64.6257L70.6513 208.015H75.407L81.424 225.469H77.4695L73.0973 212.003H72.9609L68.5803 225.469ZM68.3331 218.609H77.674V221.489H68.3331V218.609ZM83.5249 225.469V208.015H90.4112C91.7351 208.015 92.8629 208.268 93.7947 208.773C94.7266 209.273 95.4368 209.969 95.9254 210.861C96.4197 211.748 96.6669 212.77 96.6669 213.93C96.6669 215.089 96.4169 216.111 95.9169 216.998C95.4169 217.884 94.6925 218.574 93.7436 219.069C92.8004 219.563 91.6584 219.81 90.3175 219.81H85.9283V216.853H89.7209C90.4311 216.853 91.0163 216.731 91.4766 216.486C91.9425 216.236 92.2891 215.893 92.5163 215.455C92.7493 215.012 92.8658 214.503 92.8658 213.93C92.8658 213.35 92.7493 212.844 92.5163 212.412C92.2891 211.975 91.9425 211.637 91.4766 211.398C91.0107 211.154 90.4197 211.032 89.7038 211.032H87.2152V225.469H83.5249ZM99.0349 215.389H106.835V217.885H99.0349V215.389ZM100.859 211.405H106.955V213.805H100.859V211.405ZM101.003 216.853H103.547V227.581H101.003V216.853ZM105.563 215.389H108.059V222.061C108.059 223.141 107.915 223.861 107.219 224.269C106.523 224.677 105.659 224.701 104.459 224.701C104.411 223.957 104.147 222.949 103.835 222.277C104.483 222.301 105.083 222.301 105.299 222.277C105.515 222.277 105.563 222.205 105.563 222.013V215.389ZM108.275 206.029H120.539V208.453H108.275V206.029ZM111.731 215.653V217.189H117.083V215.653H111.731ZM111.731 219.157V220.693H117.083V219.157H111.731ZM111.731 212.173V213.685H117.083V212.173H111.731ZM109.091 210.061H119.843V222.805H109.091V210.061ZM112.955 207.349L116.243 207.709C115.787 209.221 115.283 210.733 114.875 211.765L112.379 211.309C112.619 210.157 112.883 208.525 112.955 207.349ZM111.443 222.829L113.795 224.365C112.475 225.637 110.195 226.981 108.323 227.701C107.867 227.173 107.027 226.309 106.403 225.829C108.275 225.157 110.387 223.861 111.443 222.829ZM114.923 224.437L117.059 222.997C118.403 223.861 120.227 225.181 121.163 226.093L118.907 227.701C118.067 226.813 116.291 225.397 114.923 224.437ZM102.371 205.093H103.955V205.645H104.795V206.413C103.787 208.525 102.155 211.429 99.3709 213.997C99.0589 213.349 98.3149 212.245 97.7869 211.813C100.043 209.845 101.555 207.229 102.371 205.093ZM102.587 205.093H104.651C106.235 206.365 108.323 208.285 109.283 209.653L107.507 212.197C106.619 210.805 104.651 208.477 103.115 207.277H102.587V205.093ZM122.387 210.829H129.059V213.541H122.387V210.829ZM124.547 205.429H127.211V221.509H124.547V205.429ZM122.171 221.869C123.851 221.125 126.419 219.829 128.867 218.533L129.707 221.077C127.571 222.349 125.219 223.693 123.251 224.749L122.171 221.869ZM129.419 208.405H144.563V210.997H129.419V208.405ZM128.675 222.349C130.787 221.965 133.955 221.245 137.003 220.549L137.267 222.949C134.531 223.693 131.627 224.461 129.347 225.037L128.675 222.349ZM137.075 205.117H139.811C139.643 214.765 140.963 224.917 142.547 224.917C142.859 224.917 143.075 224.053 143.123 221.917C143.675 222.565 144.491 223.165 145.067 223.477C144.683 226.693 143.987 227.629 142.163 227.629C137.987 227.629 137.123 215.869 137.075 205.117ZM140.267 206.485L141.875 205.093C142.811 205.765 143.987 206.749 144.539 207.445L142.835 209.005C142.307 208.285 141.203 207.229 140.267 206.485ZM141.659 212.581L144.227 213.061C142.715 219.469 139.931 224.437 135.683 227.485C135.275 227.005 134.195 226.069 133.619 225.661C137.843 222.997 140.411 218.437 141.659 212.581ZM132.227 214.813V217.741H134.075V214.813H132.227ZM130.115 212.605H136.307V219.973H130.115V212.605Z" fill="white"/>
<path d="M13.5 291.5H162.5V396.5H13.5V291.5Z" fill="#CB09CF" stroke="black"/>
<path d="M34.81 340.735C34.7418 340.047 34.4492 339.513 33.9322 339.132C33.4151 338.752 32.7134 338.561 31.8271 338.561C31.2248 338.561 30.7163 338.646 30.3015 338.817C29.8867 338.982 29.5685 339.212 29.3469 339.507C29.131 339.803 29.0231 340.138 29.0231 340.513C29.0117 340.825 29.0771 341.098 29.2191 341.331C29.3668 341.564 29.5685 341.766 29.8242 341.936C30.0799 342.101 30.3754 342.246 30.7106 342.371C31.0458 342.49 31.4038 342.592 31.7844 342.678L33.3526 343.053C34.114 343.223 34.8129 343.45 35.4492 343.735C36.0856 344.019 36.6367 344.368 37.1026 344.783C37.5685 345.198 37.9293 345.686 38.185 346.249C38.4464 346.811 38.5799 347.456 38.5856 348.183C38.5799 349.252 38.3072 350.178 37.7674 350.962C37.2333 351.74 36.4606 352.345 35.4492 352.777C34.4435 353.203 33.2305 353.416 31.81 353.416C30.4009 353.416 29.1737 353.2 28.1282 352.769C27.0884 352.337 26.2759 351.698 25.6907 350.851C25.1112 349.999 24.8072 348.945 24.7788 347.689H28.3498C28.3896 348.274 28.5572 348.763 28.8526 349.155C29.1538 349.541 29.5543 349.834 30.0543 350.033C30.56 350.226 31.131 350.323 31.7674 350.323C32.3924 350.323 32.935 350.232 33.3952 350.05C33.8612 349.868 34.2219 349.615 34.4776 349.291C34.7333 348.967 34.8612 348.595 34.8612 348.175C34.8612 347.783 34.7447 347.453 34.5117 347.186C34.2844 346.919 33.9492 346.692 33.506 346.504C33.0685 346.317 32.5316 346.146 31.8952 345.993L29.9947 345.516C28.5231 345.158 27.3612 344.598 26.5089 343.837C25.6566 343.075 25.2333 342.05 25.239 340.76C25.2333 339.703 25.5146 338.78 26.0827 337.99C26.6566 337.2 27.4435 336.584 28.4435 336.141C29.4435 335.698 30.5799 335.476 31.8526 335.476C33.1481 335.476 34.2788 335.698 35.2447 336.141C36.2163 336.584 36.9719 337.2 37.5117 337.99C38.0515 338.78 38.3299 339.695 38.3469 340.735H34.81ZM40.4031 338.757V335.715H54.7383V338.757H49.3945V353.169H45.7468V338.757H40.4031ZM57.9748 353.169H54.0202L60.0458 335.715H64.8015L70.8185 353.169H66.864L62.4918 339.703H62.3555L57.9748 353.169ZM57.7276 346.308H67.0685V349.189H57.7276V346.308ZM87.4996 341.825H83.7667C83.6985 341.342 83.5593 340.914 83.3491 340.539C83.1389 340.158 82.869 339.834 82.5394 339.567C82.2099 339.3 81.8292 339.095 81.3974 338.953C80.9712 338.811 80.5082 338.74 80.0082 338.74C79.1048 338.74 78.3178 338.965 77.6474 339.414C76.9769 339.857 76.457 340.504 76.0877 341.357C75.7184 342.203 75.5337 343.232 75.5337 344.442C75.5337 345.686 75.7184 346.732 76.0877 347.578C76.4627 348.425 76.9854 349.064 77.6559 349.496C78.3263 349.928 79.1019 350.144 79.9826 350.144C80.4769 350.144 80.9343 350.078 81.3548 349.948C81.7809 349.817 82.1587 349.627 82.4883 349.377C82.8178 349.121 83.0906 348.811 83.3065 348.448C83.5281 348.084 83.6815 347.669 83.7667 347.203L87.4996 347.22C87.4031 348.021 87.1616 348.794 86.7752 349.539C86.3945 350.277 85.8803 350.939 85.2326 351.524C84.5906 352.104 83.8235 352.564 82.9315 352.905C82.0451 353.24 81.0423 353.408 79.9229 353.408C78.3661 353.408 76.9741 353.056 75.7468 352.351C74.5252 351.646 73.5593 350.627 72.8491 349.291C72.1445 347.956 71.7923 346.34 71.7923 344.442C71.7923 342.539 72.1502 340.919 72.8661 339.584C73.582 338.249 74.5536 337.232 75.7809 336.533C77.0082 335.828 78.3888 335.476 79.9229 335.476C80.9343 335.476 81.8718 335.618 82.7354 335.902C83.6048 336.186 84.3746 336.601 85.0451 337.146C85.7156 337.686 86.261 338.348 86.6815 339.132C87.1076 339.916 87.3803 340.814 87.4996 341.825ZM90.146 353.169V335.715H93.8363V343.411H94.0664L100.348 335.715H104.771L98.2937 343.53L104.848 353.169H100.433L95.6516 345.993L93.8363 348.209V353.169H90.146ZM106.664 343.089H114.464V345.585H106.664V343.089ZM108.488 339.105H114.584V341.505H108.488V339.105ZM108.632 344.553H111.176V355.281H108.632V344.553ZM113.192 343.089H115.688V349.761C115.688 350.841 115.544 351.561 114.848 351.969C114.152 352.377 113.288 352.401 112.088 352.401C112.04 351.657 111.776 350.649 111.464 349.977C112.112 350.001 112.712 350.001 112.928 349.977C113.144 349.977 113.192 349.905 113.192 349.713V343.089ZM115.904 333.729H128.168V336.153H115.904V333.729ZM119.36 343.353V344.889H124.712V343.353H119.36ZM119.36 346.857V348.393H124.712V346.857H119.36ZM119.36 339.873V341.385H124.712V339.873H119.36ZM116.72 337.761H127.472V350.505H116.72V337.761ZM120.584 335.049L123.872 335.409C123.416 336.921 122.912 338.433 122.504 339.465L120.008 339.009C120.248 337.857 120.512 336.225 120.584 335.049ZM119.072 350.529L121.424 352.065C120.104 353.337 117.824 354.681 115.952 355.401C115.496 354.873 114.656 354.009 114.032 353.529C115.904 352.857 118.016 351.561 119.072 350.529ZM122.552 352.137L124.688 350.697C126.032 351.561 127.856 352.881 128.792 353.793L126.536 355.401C125.696 354.513 123.92 353.097 122.552 352.137ZM110 332.793H111.584V333.345H112.424V334.113C111.416 336.225 109.784 339.129 107 341.697C106.688 341.049 105.944 339.945 105.416 339.513C107.672 337.545 109.184 334.929 110 332.793ZM110.216 332.793H112.28C113.864 334.065 115.952 335.985 116.912 337.353L115.136 339.897C114.248 338.505 112.28 336.177 110.744 334.977H110.216V332.793ZM130.016 338.529H136.688V341.241H130.016V338.529ZM132.176 333.129H134.84V349.209H132.176V333.129ZM129.8 349.569C131.48 348.825 134.048 347.529 136.496 346.233L137.336 348.777C135.2 350.049 132.848 351.393 130.88 352.449L129.8 349.569ZM137.048 336.105H152.192V338.697H137.048V336.105ZM136.304 350.049C138.416 349.665 141.584 348.945 144.632 348.249L144.896 350.649C142.16 351.393 139.256 352.161 136.976 352.737L136.304 350.049ZM144.704 332.817H147.44C147.272 342.465 148.592 352.617 150.176 352.617C150.488 352.617 150.704 351.753 150.752 349.617C151.304 350.265 152.12 350.865 152.696 351.177C152.312 354.393 151.616 355.329 149.792 355.329C145.616 355.329 144.752 343.569 144.704 332.817ZM147.896 334.185L149.504 332.793C150.44 333.465 151.616 334.449 152.168 335.145L150.464 336.705C149.936 335.985 148.832 334.929 147.896 334.185ZM149.288 340.281L151.856 340.761C150.344 347.169 147.56 352.137 143.312 355.185C142.904 354.705 141.824 353.769 141.248 353.361C145.472 350.697 148.04 346.137 149.288 340.281ZM139.856 342.513V345.441H141.704V342.513H139.856ZM137.744 340.305H143.936V347.673H137.744V340.305Z" fill="white"/>
<rect x="13.5" y="245.5" width="149" height="45" fill="white" stroke="black"/>
<path d="M47.232 19.36C46.896 19.912 46.44 20.968 46.224 21.544C45.312 23.92 43.848 27.088 41.856 29.68C39.624 32.56 36.672 35.656 32.016 38.224L29.352 35.776C33.72 33.688 36.72 31.024 39.264 27.712C41.16 25.216 42.24 22.744 43.08 20.344C43.296 19.72 43.536 18.736 43.656 18.136L47.232 19.36ZM34.032 21.688C36.408 23.176 39.696 25.456 41.712 27.04C44.28 29.032 46.8 31.288 48.744 33.352L46.272 36.112C44.184 33.664 42.072 31.696 39.528 29.584C37.8 28.144 34.992 25.984 31.968 24.136L34.032 21.688ZM55.104 19.384C55.8 19.432 56.568 19.48 57.432 19.48C59.496 19.48 66.864 19.48 69 19.48C69.792 19.48 70.584 19.432 71.136 19.384V22.36C70.512 22.336 69.864 22.312 69 22.312C66.864 22.312 58.608 22.312 57.432 22.312C56.568 22.312 55.8 22.336 55.104 22.36V19.384ZM63.36 27.832C63.36 28.936 63.36 32.128 63.36 32.968C63.36 34.264 64.152 34.744 66.096 34.744C68.232 34.744 70.344 34.624 72.288 34.408L72.072 37.672C70.512 37.768 67.776 37.84 65.544 37.84C61.152 37.84 60.072 36.352 60.072 33.928C60.072 32.344 60.072 29.128 60.072 27.712C60.072 26.8 60.072 22.384 60.072 21.592H63.36C63.36 22.336 63.36 27.592 63.36 27.832ZM53.52 26.248C54.192 26.296 55.416 26.392 56.136 26.392C58.344 26.392 69 26.392 70.584 26.392C71.088 26.392 72.312 26.32 72.936 26.272V29.368C72.288 29.272 71.208 29.296 70.68 29.296C68.952 29.296 58.32 29.296 56.136 29.296C55.464 29.296 54.24 29.344 53.52 29.392V26.248ZM94.248 18.376C94.2 19.048 94.176 19.816 94.176 20.8C94.176 22.024 94.176 24.352 94.176 25.528C94.176 30.712 93.168 32.92 91.368 34.888C89.784 36.64 87.312 37.792 85.56 38.368L83.04 35.704C85.44 35.152 87.36 34.24 88.824 32.68C90.456 30.88 90.792 29.08 90.792 25.336C90.792 24.136 90.792 21.832 90.792 20.8C90.792 19.816 90.72 19.048 90.624 18.376H94.248ZM83.136 18.592C83.088 19.144 83.04 19.672 83.04 20.416C83.04 21.472 83.04 27.184 83.04 28.528C83.04 29.128 83.088 30.064 83.136 30.616H79.632C79.68 30.184 79.752 29.248 79.752 28.504C79.752 27.136 79.752 21.472 79.752 20.416C79.752 19.984 79.728 19.144 79.656 18.592H83.136ZM109.44 16.624H112.416V20.536H109.44V16.624ZM109.44 30.856H112.416V37.264H109.44V30.856ZM106.872 21.136H109.848C109.416 25.288 108.216 27.928 101.904 29.296C101.664 28.576 100.968 27.424 100.368 26.848C105.792 25.912 106.536 24.16 106.872 21.136ZM112.128 21.088H114.984V25.216C114.984 25.864 115.128 25.936 115.848 25.936C116.184 25.936 117.576 25.936 118.008 25.936C118.608 25.936 118.728 25.696 118.824 24.208C119.376 24.616 120.528 25.024 121.296 25.192C120.984 27.712 120.24 28.384 118.296 28.384C117.72 28.384 115.968 28.384 115.44 28.384C112.728 28.384 112.128 27.64 112.128 25.216V21.088ZM100.704 18.784H121.344V23.776H118.368V21.376H103.536V24.208H100.704V18.784ZM102.984 29.728H119.52V32.296H102.984V29.728ZM100.44 35.92H121.536V38.512H100.44V35.92ZM131.688 31.264H138.264V33.328H131.688V31.264ZM131.52 27.712H139.608V36.928H131.52V34.816H136.92V29.824H131.52V27.712ZM130.344 27.712H132.936V38.152H130.344V27.712ZM126.312 20.872H132.336V22.816H126.312V20.872ZM137.448 20.872H143.52V22.816H137.448V20.872ZM142.344 17.536H145.248V35.752C145.248 37.312 144.936 38.152 143.976 38.632C143.016 39.112 141.624 39.16 139.56 39.16C139.44 38.344 139.008 37 138.624 36.232C139.872 36.304 141.336 36.28 141.768 36.28C142.2 36.28 142.344 36.136 142.344 35.728V17.536ZM126.552 17.536H134.136V26.248H126.552V24.184H131.448V19.624H126.552V17.536ZM143.88 17.536V19.624H138.504V24.256H143.88V26.32H135.768V17.536H143.88ZM124.896 17.536H127.752V39.16H124.896V17.536Z" fill="black"/>
<path d="M186.293 253.707C186.683 254.098 187.317 254.098 187.707 253.707L194.071 247.343C194.462 246.953 194.462 246.319 194.071 245.929C193.681 245.538 193.047 245.538 192.657 245.929L187 251.586L181.343 245.929C180.953 245.538 180.319 245.538 179.929 245.929C179.538 246.319 179.538 246.953 179.929 247.343L186.293 253.707ZM186 193V253H188V193H186Z" fill="black"/>
<path d="M187.707 297.293C187.317 296.902 186.683 296.902 186.293 297.293L179.929 303.657C179.538 304.047 179.538 304.681 179.929 305.071C180.319 305.462 180.953 305.462 181.343 305.071L187 299.414L192.657 305.071C193.047 305.462 193.681 305.462 194.071 305.071C194.462 304.681 194.462 304.047 194.071 303.657L187.707 297.293ZM188 397V298H186V397H188Z" fill="black"/>
</svg>
