<svg width="194" height="407" viewBox="0 0 194 407" fill="none" xmlns="http://www.w3.org/2000/svg">
<rect width="174" height="407" fill="#D9D9D9"/>
<path d="M13.5 57.5H162.5V121.5H13.5V57.5Z" fill="#FF0000" stroke="black"/>
<path d="M33.3952 84.0881V81.0455H47.7305V84.0881H42.3867V98.5H38.739V84.0881H33.3952ZM50.0913 98.5V81.0455H61.8526V84.0881H53.7816V88.2472H61.2475V91.2898H53.7816V95.4574H61.8867V98.5H50.0913ZM68.2468 81.0455L71.7667 86.9943H71.9031L75.44 81.0455H79.6076L74.2809 89.7727L79.7269 98.5H75.4826L71.9031 92.5426H71.7667L68.1871 98.5H63.9599L69.4229 89.7727L64.0621 81.0455H68.2468ZM81.2781 84.0881V81.0455H95.6133V84.0881H90.2695V98.5H86.6218V84.0881H81.2781ZM97.945 88.42H105.745V90.916H97.945V88.42ZM99.769 84.436H105.865V86.836H99.769V84.436ZM99.913 89.884H102.457V100.612H99.913V89.884ZM104.473 88.42H106.969V95.092C106.969 96.172 106.825 96.892 106.129 97.3C105.433 97.708 104.569 97.732 103.369 97.732C103.321 96.988 103.057 95.98 102.745 95.308C103.393 95.332 103.993 95.332 104.209 95.308C104.425 95.308 104.473 95.236 104.473 95.044V88.42ZM107.185 79.06H119.449V81.484H107.185V79.06ZM110.641 88.684V90.22H115.993V88.684H110.641ZM110.641 92.188V93.724H115.993V92.188H110.641ZM110.641 85.204V86.716H115.993V85.204H110.641ZM108.001 83.092H118.753V95.836H108.001V83.092ZM111.865 80.38L115.153 80.74C114.697 82.252 114.193 83.764 113.785 84.796L111.289 84.34C111.529 83.188 111.793 81.556 111.865 80.38ZM110.353 95.86L112.705 97.396C111.385 98.668 109.105 100.012 107.233 100.732C106.777 100.204 105.937 99.34 105.313 98.86C107.185 98.188 109.297 96.892 110.353 95.86ZM113.833 97.468L115.969 96.028C117.313 96.892 119.137 98.212 120.073 99.124L117.817 100.732C116.977 99.844 115.201 98.428 113.833 97.468ZM101.281 78.124H102.865V78.676H103.705V79.444C102.697 81.556 101.065 84.46 98.281 87.028C97.969 86.38 97.225 85.276 96.697 84.844C98.953 82.876 100.465 80.26 101.281 78.124ZM101.497 78.124H103.561C105.145 79.396 107.233 81.316 108.193 82.684L106.417 85.228C105.529 83.836 103.561 81.508 102.025 80.308H101.497V78.124ZM121.297 83.86H127.969V86.572H121.297V83.86ZM123.457 78.46H126.121V94.54H123.457V78.46ZM121.081 94.9C122.761 94.156 125.329 92.86 127.777 91.564L128.617 94.108C126.481 95.38 124.129 96.724 122.161 97.78L121.081 94.9ZM128.329 81.436H143.473V84.028H128.329V81.436ZM127.585 95.38C129.697 94.996 132.865 94.276 135.913 93.58L136.177 95.98C133.441 96.724 130.537 97.492 128.257 98.068L127.585 95.38ZM135.985 78.148H138.721C138.553 87.796 139.873 97.948 141.457 97.948C141.769 97.948 141.985 97.084 142.033 94.948C142.585 95.596 143.401 96.196 143.977 96.508C143.593 99.724 142.897 100.66 141.073 100.66C136.897 100.66 136.033 88.9 135.985 78.148ZM139.177 79.516L140.785 78.124C141.721 78.796 142.897 79.78 143.449 80.476L141.745 82.036C141.217 81.316 140.113 80.26 139.177 79.516ZM140.569 85.612L143.137 86.092C141.625 92.5 138.841 97.468 134.593 100.516C134.185 100.036 133.105 99.1 132.529 98.692C136.753 96.028 139.321 91.468 140.569 85.612ZM131.137 87.844V90.772H132.985V87.844H131.137ZM129.025 85.636H135.217V93.004H129.025V85.636Z" fill="white"/>
<path d="M13.5 122.5H162.5V186.5H13.5V122.5Z" fill="#309601" stroke="black"/>
<path d="M40.1303 163.5H33.9428V146.045H40.1815C41.9371 146.045 43.4485 146.395 44.7156 147.094C45.9826 147.787 46.957 148.784 47.6389 150.085C48.3264 151.386 48.6701 152.943 48.6701 154.756C48.6701 156.574 48.3264 158.136 47.6389 159.443C46.957 160.75 45.9769 161.753 44.6985 162.452C43.4258 163.151 41.9031 163.5 40.1303 163.5ZM37.6332 160.338H39.9769C41.0678 160.338 41.9854 160.145 42.7298 159.759C43.4798 159.366 44.0423 158.761 44.4173 157.943C44.7979 157.119 44.9883 156.057 44.9883 154.756C44.9883 153.466 44.7979 152.412 44.4173 151.594C44.0423 150.776 43.4826 150.173 42.7383 149.787C41.994 149.401 41.0763 149.207 39.9854 149.207H37.6332V160.338ZM53.4279 163.5H49.4734L55.4989 146.045H60.2546L66.2717 163.5H62.3171L57.945 150.034H57.8086L53.4279 163.5ZM53.1808 156.639H62.5217V159.52H53.1808V156.639ZM65.5749 149.088V146.045H79.9102V149.088H74.5664V163.5H70.9187V149.088H65.5749ZM83.1467 163.5H79.1921L85.2177 146.045H89.9734L95.9904 163.5H92.0359L87.6637 150.034H87.5273L83.1467 163.5ZM82.8995 156.639H92.2404V159.52H82.8995V156.639ZM98.0622 153.42H105.862V155.916H98.0622V153.42ZM99.8862 149.436H105.982V151.836H99.8862V149.436ZM100.03 154.884H102.574V165.612H100.03V154.884ZM104.59 153.42H107.086V160.092C107.086 161.172 106.942 161.892 106.246 162.3C105.55 162.708 104.686 162.732 103.486 162.732C103.438 161.988 103.174 160.98 102.862 160.308C103.51 160.332 104.11 160.332 104.326 160.308C104.542 160.308 104.59 160.236 104.59 160.044V153.42ZM107.302 144.06H119.566V146.484H107.302V144.06ZM110.758 153.684V155.22H116.11V153.684H110.758ZM110.758 157.188V158.724H116.11V157.188H110.758ZM110.758 150.204V151.716H116.11V150.204H110.758ZM108.118 148.092H118.87V160.836H108.118V148.092ZM111.982 145.38L115.27 145.74C114.814 147.252 114.31 148.764 113.902 149.796L111.406 149.34C111.646 148.188 111.91 146.556 111.982 145.38ZM110.47 160.86L112.822 162.396C111.502 163.668 109.222 165.012 107.35 165.732C106.894 165.204 106.054 164.34 105.43 163.86C107.302 163.188 109.414 161.892 110.47 160.86ZM113.95 162.468L116.086 161.028C117.43 161.892 119.254 163.212 120.19 164.124L117.934 165.732C117.094 164.844 115.318 163.428 113.95 162.468ZM101.398 143.124H102.982V143.676H103.822V144.444C102.814 146.556 101.182 149.46 98.3982 152.028C98.0862 151.38 97.3422 150.276 96.8142 149.844C99.0702 147.876 100.582 145.26 101.398 143.124ZM101.614 143.124H103.678C105.262 144.396 107.35 146.316 108.31 147.684L106.534 150.228C105.646 148.836 103.678 146.508 102.142 145.308H101.614V143.124ZM121.414 148.86H128.086V151.572H121.414V148.86ZM123.574 143.46H126.238V159.54H123.574V143.46ZM121.198 159.9C122.878 159.156 125.446 157.86 127.894 156.564L128.734 159.108C126.598 160.38 124.246 161.724 122.278 162.78L121.198 159.9ZM128.446 146.436H143.59V149.028H128.446V146.436ZM127.702 160.38C129.814 159.996 132.982 159.276 136.03 158.58L136.294 160.98C133.558 161.724 130.654 162.492 128.374 163.068L127.702 160.38ZM136.102 143.148H138.838C138.67 152.796 139.99 162.948 141.574 162.948C141.886 162.948 142.102 162.084 142.15 159.948C142.702 160.596 143.518 161.196 144.094 161.508C143.71 164.724 143.014 165.66 141.19 165.66C137.014 165.66 136.15 153.9 136.102 143.148ZM139.294 144.516L140.902 143.124C141.838 143.796 143.014 144.78 143.566 145.476L141.862 147.036C141.334 146.316 140.23 145.26 139.294 144.516ZM140.686 150.612L143.254 151.092C141.742 157.5 138.958 162.468 134.71 165.516C134.302 165.036 133.222 164.1 132.646 163.692C136.87 161.028 139.438 156.468 140.686 150.612ZM131.254 152.844V155.772H133.102V152.844H131.254ZM129.142 150.636H135.334V158.004H129.142V150.636Z" fill="white"/>
<path d="M13.5 187.5H162.5V287.5H13.5V187.5Z" fill="#001AFF" stroke="black"/>
<path d="M32.9702 246.746V229.292H36.6605V236.493H44.152V229.292H47.8338V246.746H44.152V239.536H36.6605V246.746H32.9702ZM50.8764 246.746V229.292H62.6378V232.334H54.5668V236.493H62.0327V239.536H54.5668V243.704H62.6719V246.746H50.8764ZM68.5803 246.746H64.6257L70.6513 229.292H75.407L81.424 246.746H77.4695L73.0973 233.28H72.9609L68.5803 246.746ZM68.3331 239.885H77.674V242.766H68.3331V239.885ZM83.5249 246.746V229.292H90.4112C91.7351 229.292 92.8629 229.544 93.7947 230.05C94.7266 230.55 95.4368 231.246 95.9254 232.138C96.4197 233.025 96.6669 234.047 96.6669 235.206C96.6669 236.365 96.4169 237.388 95.9169 238.275C95.4169 239.161 94.6925 239.851 93.7436 240.346C92.8004 240.84 91.6584 241.087 90.3175 241.087H85.9283V238.13H89.7209C90.4311 238.13 91.0163 238.008 91.4766 237.763C91.9425 237.513 92.2891 237.169 92.5163 236.732C92.7493 236.289 92.8658 235.78 92.8658 235.206C92.8658 234.627 92.7493 234.121 92.5163 233.689C92.2891 233.252 91.9425 232.914 91.4766 232.675C91.0107 232.431 90.4197 232.309 89.7038 232.309H87.2152V246.746H83.5249ZM99.0349 236.666H106.835V239.162H99.0349V236.666ZM100.859 232.682H106.955V235.082H100.859V232.682ZM101.003 238.13H103.547V248.858H101.003V238.13ZM105.563 236.666H108.059V243.338C108.059 244.418 107.915 245.138 107.219 245.546C106.523 245.954 105.659 245.978 104.459 245.978C104.411 245.234 104.147 244.226 103.835 243.554C104.483 243.578 105.083 243.578 105.299 243.554C105.515 243.554 105.563 243.482 105.563 243.29V236.666ZM108.275 227.306H120.539V229.73H108.275V227.306ZM111.731 236.93V238.466H117.083V236.93H111.731ZM111.731 240.434V241.97H117.083V240.434H111.731ZM111.731 233.45V234.962H117.083V233.45H111.731ZM109.091 231.338H119.843V244.082H109.091V231.338ZM112.955 228.626L116.243 228.986C115.787 230.498 115.283 232.01 114.875 233.042L112.379 232.586C112.619 231.434 112.883 229.802 112.955 228.626ZM111.443 244.106L113.795 245.642C112.475 246.914 110.195 248.258 108.323 248.978C107.867 248.45 107.027 247.586 106.403 247.106C108.275 246.434 110.387 245.138 111.443 244.106ZM114.923 245.714L117.059 244.274C118.403 245.138 120.227 246.458 121.163 247.37L118.907 248.978C118.067 248.09 116.291 246.674 114.923 245.714ZM102.371 226.37H103.955V226.922H104.795V227.69C103.787 229.802 102.155 232.706 99.3709 235.274C99.0589 234.626 98.3149 233.522 97.7869 233.09C100.043 231.122 101.555 228.506 102.371 226.37ZM102.587 226.37H104.651C106.235 227.642 108.323 229.562 109.283 230.93L107.507 233.474C106.619 232.082 104.651 229.754 103.115 228.554H102.587V226.37ZM122.387 232.106H129.059V234.818H122.387V232.106ZM124.547 226.706H127.211V242.786H124.547V226.706ZM122.171 243.146C123.851 242.402 126.419 241.106 128.867 239.81L129.707 242.354C127.571 243.626 125.219 244.97 123.251 246.026L122.171 243.146ZM129.419 229.682H144.563V232.274H129.419V229.682ZM128.675 243.626C130.787 243.242 133.955 242.522 137.003 241.826L137.267 244.226C134.531 244.97 131.627 245.738 129.347 246.314L128.675 243.626ZM137.075 226.394H139.811C139.643 236.042 140.963 246.194 142.547 246.194C142.859 246.194 143.075 245.33 143.123 243.194C143.675 243.842 144.491 244.442 145.067 244.754C144.683 247.97 143.987 248.906 142.163 248.906C137.987 248.906 137.123 237.146 137.075 226.394ZM140.267 227.762L141.875 226.37C142.811 227.042 143.987 228.026 144.539 228.722L142.835 230.282C142.307 229.562 141.203 228.506 140.267 227.762ZM141.659 233.858L144.227 234.338C142.715 240.746 139.931 245.714 135.683 248.762C135.275 248.282 134.195 247.346 133.619 246.938C137.843 244.274 140.411 239.714 141.659 233.858ZM132.227 236.09V239.018H134.075V236.09H132.227ZM130.115 233.882H136.307V241.25H130.115V233.882Z" fill="white"/>
<path d="M13.5 330.5H162.5V396.5H13.5V330.5Z" fill="#CB09CF" stroke="black"/>
<path d="M34.81 360.635C34.7418 359.947 34.4492 359.413 33.9322 359.032C33.4151 358.652 32.7134 358.461 31.8271 358.461C31.2248 358.461 30.7163 358.546 30.3015 358.717C29.8867 358.882 29.5685 359.112 29.3469 359.407C29.131 359.703 29.0231 360.038 29.0231 360.413C29.0117 360.725 29.0771 360.998 29.2191 361.231C29.3668 361.464 29.5685 361.666 29.8242 361.836C30.0799 362.001 30.3754 362.146 30.7106 362.271C31.0458 362.39 31.4038 362.493 31.7844 362.578L33.3526 362.953C34.114 363.123 34.8129 363.35 35.4492 363.635C36.0856 363.919 36.6367 364.268 37.1026 364.683C37.5685 365.098 37.9293 365.586 38.185 366.149C38.4464 366.711 38.5799 367.356 38.5856 368.083C38.5799 369.152 38.3072 370.078 37.7674 370.862C37.2333 371.64 36.4606 372.245 35.4492 372.677C34.4435 373.103 33.2305 373.316 31.81 373.316C30.4009 373.316 29.1737 373.1 28.1282 372.669C27.0884 372.237 26.2759 371.598 25.6907 370.751C25.1112 369.899 24.8072 368.845 24.7788 367.589H28.3498C28.3896 368.174 28.5572 368.663 28.8526 369.055C29.1538 369.441 29.5543 369.734 30.0543 369.933C30.56 370.126 31.131 370.223 31.7674 370.223C32.3924 370.223 32.935 370.132 33.3952 369.95C33.8612 369.768 34.2219 369.515 34.4776 369.191C34.7333 368.868 34.8612 368.495 34.8612 368.075C34.8612 367.683 34.7447 367.353 34.5117 367.086C34.2844 366.819 33.9492 366.592 33.506 366.404C33.0685 366.217 32.5316 366.046 31.8952 365.893L29.9947 365.416C28.5231 365.058 27.3612 364.498 26.5089 363.737C25.6566 362.975 25.2333 361.95 25.239 360.66C25.2333 359.603 25.5146 358.68 26.0827 357.89C26.6566 357.1 27.4435 356.484 28.4435 356.041C29.4435 355.598 30.5799 355.376 31.8526 355.376C33.1481 355.376 34.2788 355.598 35.2447 356.041C36.2163 356.484 36.9719 357.1 37.5117 357.89C38.0515 358.68 38.3299 359.595 38.3469 360.635H34.81ZM40.4031 358.657V355.615H54.7383V358.657H49.3945V373.069H45.7468V358.657H40.4031ZM57.9748 373.069H54.0202L60.0458 355.615H64.8015L70.8185 373.069H66.864L62.4918 359.603H62.3555L57.9748 373.069ZM57.7276 366.208H67.0685V369.089H57.7276V366.208ZM87.4996 361.725H83.7667C83.6985 361.243 83.5593 360.814 83.3491 360.439C83.1389 360.058 82.869 359.734 82.5394 359.467C82.2099 359.2 81.8292 358.995 81.3974 358.853C80.9712 358.711 80.5082 358.64 80.0082 358.64C79.1048 358.64 78.3178 358.865 77.6474 359.314C76.9769 359.757 76.457 360.404 76.0877 361.257C75.7184 362.103 75.5337 363.132 75.5337 364.342C75.5337 365.586 75.7184 366.632 76.0877 367.478C76.4627 368.325 76.9854 368.964 77.6559 369.396C78.3263 369.828 79.1019 370.044 79.9826 370.044C80.4769 370.044 80.9343 369.978 81.3548 369.848C81.7809 369.717 82.1587 369.527 82.4883 369.277C82.8178 369.021 83.0906 368.711 83.3065 368.348C83.5281 367.984 83.6815 367.569 83.7667 367.103L87.4996 367.12C87.4031 367.921 87.1616 368.694 86.7752 369.439C86.3945 370.177 85.8803 370.839 85.2326 371.424C84.5906 372.004 83.8235 372.464 82.9315 372.805C82.0451 373.14 81.0423 373.308 79.9229 373.308C78.3661 373.308 76.9741 372.956 75.7468 372.251C74.5252 371.546 73.5593 370.527 72.8491 369.191C72.1445 367.856 71.7923 366.24 71.7923 364.342C71.7923 362.439 72.1502 360.819 72.8661 359.484C73.582 358.149 74.5536 357.132 75.7809 356.433C77.0082 355.728 78.3888 355.376 79.9229 355.376C80.9343 355.376 81.8718 355.518 82.7354 355.802C83.6048 356.086 84.3746 356.501 85.0451 357.046C85.7156 357.586 86.261 358.248 86.6815 359.032C87.1076 359.816 87.3803 360.714 87.4996 361.725ZM90.146 373.069V355.615H93.8363V363.311H94.0664L100.348 355.615H104.771L98.2937 363.43L104.848 373.069H100.433L95.6516 365.893L93.8363 368.109V373.069H90.146ZM106.664 362.989H114.464V365.485H106.664V362.989ZM108.488 359.005H114.584V361.405H108.488V359.005ZM108.632 364.453H111.176V375.181H108.632V364.453ZM113.192 362.989H115.688V369.661C115.688 370.741 115.544 371.461 114.848 371.869C114.152 372.277 113.288 372.301 112.088 372.301C112.04 371.557 111.776 370.549 111.464 369.877C112.112 369.901 112.712 369.901 112.928 369.877C113.144 369.877 113.192 369.805 113.192 369.613V362.989ZM115.904 353.629H128.168V356.053H115.904V353.629ZM119.36 363.253V364.789H124.712V363.253H119.36ZM119.36 366.757V368.293H124.712V366.757H119.36ZM119.36 359.773V361.285H124.712V359.773H119.36ZM116.72 357.661H127.472V370.405H116.72V357.661ZM120.584 354.949L123.872 355.309C123.416 356.821 122.912 358.333 122.504 359.365L120.008 358.909C120.248 357.757 120.512 356.125 120.584 354.949ZM119.072 370.429L121.424 371.965C120.104 373.237 117.824 374.581 115.952 375.301C115.496 374.773 114.656 373.909 114.032 373.429C115.904 372.757 118.016 371.461 119.072 370.429ZM122.552 372.037L124.688 370.597C126.032 371.461 127.856 372.781 128.792 373.693L126.536 375.301C125.696 374.413 123.92 372.997 122.552 372.037ZM110 352.693H111.584V353.245H112.424V354.013C111.416 356.125 109.784 359.029 107 361.597C106.688 360.949 105.944 359.845 105.416 359.413C107.672 357.445 109.184 354.829 110 352.693ZM110.216 352.693H112.28C113.864 353.965 115.952 355.885 116.912 357.253L115.136 359.797C114.248 358.405 112.28 356.077 110.744 354.877H110.216V352.693ZM130.016 358.429H136.688V361.141H130.016V358.429ZM132.176 353.029H134.84V369.109H132.176V353.029ZM129.8 369.469C131.48 368.725 134.048 367.429 136.496 366.133L137.336 368.677C135.2 369.949 132.848 371.293 130.88 372.349L129.8 369.469ZM137.048 356.005H152.192V358.597H137.048V356.005ZM136.304 369.949C138.416 369.565 141.584 368.845 144.632 368.149L144.896 370.549C142.16 371.293 139.256 372.061 136.976 372.637L136.304 369.949ZM144.704 352.717H147.44C147.272 362.365 148.592 372.517 150.176 372.517C150.488 372.517 150.704 371.653 150.752 369.517C151.304 370.165 152.12 370.765 152.696 371.077C152.312 374.293 151.616 375.229 149.792 375.229C145.616 375.229 144.752 363.469 144.704 352.717ZM147.896 354.085L149.504 352.693C150.44 353.365 151.616 354.349 152.168 355.045L150.464 356.605C149.936 355.885 148.832 354.829 147.896 354.085ZM149.288 360.181L151.856 360.661C150.344 367.069 147.56 372.037 143.312 375.085C142.904 374.605 141.824 373.669 141.248 373.261C145.472 370.597 148.04 366.037 149.288 360.181ZM139.856 362.413V365.341H141.704V362.413H139.856ZM137.744 360.205H143.936V367.573H137.744V360.205Z" fill="white"/>
<rect x="13.5" y="288.5" width="149" height="41" fill="white" stroke="black"/>
<path d="M47.232 19.36C46.896 19.912 46.44 20.968 46.224 21.544C45.312 23.92 43.848 27.088 41.856 29.68C39.624 32.56 36.672 35.656 32.016 38.224L29.352 35.776C33.72 33.688 36.72 31.024 39.264 27.712C41.16 25.216 42.24 22.744 43.08 20.344C43.296 19.72 43.536 18.736 43.656 18.136L47.232 19.36ZM34.032 21.688C36.408 23.176 39.696 25.456 41.712 27.04C44.28 29.032 46.8 31.288 48.744 33.352L46.272 36.112C44.184 33.664 42.072 31.696 39.528 29.584C37.8 28.144 34.992 25.984 31.968 24.136L34.032 21.688ZM55.104 19.384C55.8 19.432 56.568 19.48 57.432 19.48C59.496 19.48 66.864 19.48 69 19.48C69.792 19.48 70.584 19.432 71.136 19.384V22.36C70.512 22.336 69.864 22.312 69 22.312C66.864 22.312 58.608 22.312 57.432 22.312C56.568 22.312 55.8 22.336 55.104 22.36V19.384ZM63.36 27.832C63.36 28.936 63.36 32.128 63.36 32.968C63.36 34.264 64.152 34.744 66.096 34.744C68.232 34.744 70.344 34.624 72.288 34.408L72.072 37.672C70.512 37.768 67.776 37.84 65.544 37.84C61.152 37.84 60.072 36.352 60.072 33.928C60.072 32.344 60.072 29.128 60.072 27.712C60.072 26.8 60.072 22.384 60.072 21.592H63.36C63.36 22.336 63.36 27.592 63.36 27.832ZM53.52 26.248C54.192 26.296 55.416 26.392 56.136 26.392C58.344 26.392 69 26.392 70.584 26.392C71.088 26.392 72.312 26.32 72.936 26.272V29.368C72.288 29.272 71.208 29.296 70.68 29.296C68.952 29.296 58.32 29.296 56.136 29.296C55.464 29.296 54.24 29.344 53.52 29.392V26.248ZM94.248 18.376C94.2 19.048 94.176 19.816 94.176 20.8C94.176 22.024 94.176 24.352 94.176 25.528C94.176 30.712 93.168 32.92 91.368 34.888C89.784 36.64 87.312 37.792 85.56 38.368L83.04 35.704C85.44 35.152 87.36 34.24 88.824 32.68C90.456 30.88 90.792 29.08 90.792 25.336C90.792 24.136 90.792 21.832 90.792 20.8C90.792 19.816 90.72 19.048 90.624 18.376H94.248ZM83.136 18.592C83.088 19.144 83.04 19.672 83.04 20.416C83.04 21.472 83.04 27.184 83.04 28.528C83.04 29.128 83.088 30.064 83.136 30.616H79.632C79.68 30.184 79.752 29.248 79.752 28.504C79.752 27.136 79.752 21.472 79.752 20.416C79.752 19.984 79.728 19.144 79.656 18.592H83.136ZM109.44 16.624H112.416V20.536H109.44V16.624ZM109.44 30.856H112.416V37.264H109.44V30.856ZM106.872 21.136H109.848C109.416 25.288 108.216 27.928 101.904 29.296C101.664 28.576 100.968 27.424 100.368 26.848C105.792 25.912 106.536 24.16 106.872 21.136ZM112.128 21.088H114.984V25.216C114.984 25.864 115.128 25.936 115.848 25.936C116.184 25.936 117.576 25.936 118.008 25.936C118.608 25.936 118.728 25.696 118.824 24.208C119.376 24.616 120.528 25.024 121.296 25.192C120.984 27.712 120.24 28.384 118.296 28.384C117.72 28.384 115.968 28.384 115.44 28.384C112.728 28.384 112.128 27.64 112.128 25.216V21.088ZM100.704 18.784H121.344V23.776H118.368V21.376H103.536V24.208H100.704V18.784ZM102.984 29.728H119.52V32.296H102.984V29.728ZM100.44 35.92H121.536V38.512H100.44V35.92ZM131.688 31.264H138.264V33.328H131.688V31.264ZM131.52 27.712H139.608V36.928H131.52V34.816H136.92V29.824H131.52V27.712ZM130.344 27.712H132.936V38.152H130.344V27.712ZM126.312 20.872H132.336V22.816H126.312V20.872ZM137.448 20.872H143.52V22.816H137.448V20.872ZM142.344 17.536H145.248V35.752C145.248 37.312 144.936 38.152 143.976 38.632C143.016 39.112 141.624 39.16 139.56 39.16C139.44 38.344 139.008 37 138.624 36.232C139.872 36.304 141.336 36.28 141.768 36.28C142.2 36.28 142.344 36.136 142.344 35.728V17.536ZM126.552 17.536H134.136V26.248H126.552V24.184H131.448V19.624H126.552V17.536ZM143.88 17.536V19.624H138.504V24.256H143.88V26.32H135.768V17.536H143.88ZM124.896 17.536H127.752V39.16H124.896V17.536Z" fill="black"/>
<path d="M185.293 297.707C185.683 298.098 186.317 298.098 186.707 297.707L193.071 291.343C193.462 290.953 193.462 290.319 193.071 289.929C192.681 289.538 192.047 289.538 191.657 289.929L186 295.586L180.343 289.929C179.953 289.538 179.319 289.538 178.929 289.929C178.538 290.319 178.538 290.953 178.929 291.343L185.293 297.707ZM185 187L185 297L187 297L187 187L185 187Z" fill="black"/>
<path d="M186.707 322.293C186.317 321.902 185.683 321.902 185.293 322.293L178.929 328.657C178.538 329.047 178.538 329.681 178.929 330.071C179.319 330.462 179.953 330.462 180.343 330.071L186 324.414L191.657 330.071C192.047 330.462 192.681 330.462 193.071 330.071C193.462 329.681 193.462 329.047 193.071 328.657L186.707 322.293ZM187 397L187 323L185 323L185 397L187 397Z" fill="black"/>
</svg>
