<svg width="983" height="384" viewBox="0 0 983 384" fill="none" xmlns="http://www.w3.org/2000/svg">
<ellipse cx="750.5" cy="193" rx="232.5" ry="135" fill="#D9D9D9"/>
<rect x="615" y="159" width="265" height="49" fill="white"/>
<path d="M623.196 184.511V193H622.156V175.545H623.196V181.98H623.298C623.605 181.298 624.094 180.756 624.764 180.352C625.44 179.943 626.25 179.739 627.193 179.739C628.074 179.739 628.849 179.926 629.52 180.301C630.19 180.67 630.713 181.202 631.088 181.895C631.469 182.582 631.659 183.406 631.659 184.366V193H630.628V184.409C630.628 183.29 630.295 182.392 629.631 181.716C628.966 181.04 628.088 180.702 626.997 180.702C626.264 180.702 625.611 180.861 625.037 181.179C624.463 181.497 624.011 181.943 623.682 182.517C623.358 183.085 623.196 183.75 623.196 184.511ZM641.066 193.273C639.884 193.273 638.856 192.98 637.981 192.395C637.106 191.81 636.43 191.009 635.952 189.991C635.475 188.974 635.237 187.815 635.237 186.514C635.237 185.207 635.475 184.043 635.952 183.02C636.435 181.997 637.097 181.19 637.938 180.599C638.779 180.009 639.739 179.713 640.819 179.713C641.552 179.713 642.245 179.861 642.898 180.156C643.558 180.446 644.137 180.866 644.637 181.418C645.143 181.969 645.538 182.634 645.822 183.412C646.112 184.19 646.256 185.065 646.256 186.037V186.685H635.893V185.739H645.217C645.217 184.79 645.023 183.935 644.637 183.173C644.251 182.412 643.725 181.807 643.06 181.358C642.396 180.909 641.648 180.685 640.819 180.685C639.95 180.685 639.174 180.929 638.492 181.418C637.816 181.901 637.279 182.554 636.881 183.378C636.489 184.202 636.285 185.122 636.268 186.139V186.565C636.268 187.656 636.458 188.636 636.839 189.506C637.225 190.369 637.776 191.054 638.492 191.56C639.208 192.06 640.066 192.31 641.066 192.31C641.782 192.31 642.393 192.19 642.898 191.952C643.41 191.707 643.827 191.412 644.151 191.065C644.475 190.719 644.719 190.384 644.884 190.06L645.83 190.443C645.631 190.881 645.322 191.318 644.901 191.756C644.487 192.187 643.958 192.548 643.316 192.838C642.68 193.128 641.93 193.273 641.066 193.273ZM650.876 175.545V193H649.836V175.545H650.876ZM656.219 175.545V193H655.18V175.545H656.219ZM665.39 193.273C664.31 193.273 663.35 192.983 662.509 192.403C661.668 191.818 661.006 191.014 660.523 189.991C660.04 188.969 659.799 187.804 659.799 186.497C659.799 185.185 660.04 184.02 660.523 183.003C661.006 181.98 661.668 181.176 662.509 180.591C663.35 180.006 664.31 179.713 665.39 179.713C666.469 179.713 667.43 180.006 668.271 180.591C669.112 181.176 669.773 181.98 670.256 183.003C670.739 184.026 670.981 185.19 670.981 186.497C670.981 187.804 670.739 188.969 670.256 189.991C669.773 191.014 669.112 191.818 668.271 192.403C667.43 192.983 666.469 193.273 665.39 193.273ZM665.39 192.31C666.305 192.31 667.103 192.051 667.785 191.534C668.472 191.017 669.004 190.318 669.379 189.438C669.759 188.557 669.95 187.577 669.95 186.497C669.95 185.418 669.759 184.44 669.379 183.565C668.998 182.685 668.467 181.986 667.785 181.469C667.103 180.946 666.305 180.685 665.39 180.685C664.475 180.685 663.677 180.946 662.995 181.469C662.313 181.986 661.782 182.685 661.401 183.565C661.021 184.44 660.83 185.418 660.83 186.497C660.83 187.577 661.018 188.557 661.393 189.438C661.773 190.318 662.305 191.017 662.987 191.534C663.674 192.051 664.475 192.31 665.39 192.31ZM684.168 193L680.247 179.909H681.338L684.713 191.474H684.807L688.19 179.909H689.273L692.648 191.466H692.733L696.108 179.909H697.199L693.278 193H692.119L688.778 181.605H688.668L685.327 193H684.168ZM704.859 193.273C703.779 193.273 702.819 192.983 701.978 192.403C701.137 191.818 700.475 191.014 699.992 189.991C699.509 188.969 699.268 187.804 699.268 186.497C699.268 185.185 699.509 184.02 699.992 183.003C700.475 181.98 701.137 181.176 701.978 180.591C702.819 180.006 703.779 179.713 704.859 179.713C705.938 179.713 706.898 180.006 707.739 180.591C708.58 181.176 709.242 181.98 709.725 183.003C710.208 184.026 710.45 185.19 710.45 186.497C710.45 187.804 710.208 188.969 709.725 189.991C709.242 191.014 708.58 191.818 707.739 192.403C706.898 192.983 705.938 193.273 704.859 193.273ZM704.859 192.31C705.773 192.31 706.572 192.051 707.254 191.534C707.941 191.017 708.472 190.318 708.847 189.438C709.228 188.557 709.418 187.577 709.418 186.497C709.418 185.418 709.228 184.44 708.847 183.565C708.467 182.685 707.935 181.986 707.254 181.469C706.572 180.946 705.773 180.685 704.859 180.685C703.944 180.685 703.146 180.946 702.464 181.469C701.782 181.986 701.251 182.685 700.87 183.565C700.489 184.44 700.299 185.418 700.299 186.497C700.299 187.577 700.487 188.557 700.862 189.438C701.242 190.318 701.773 191.017 702.455 191.534C703.143 192.051 703.944 192.31 704.859 192.31ZM714.031 193V179.909H715.045V181.955H715.139C715.423 181.284 715.903 180.747 716.58 180.344C717.256 179.935 718.026 179.73 718.889 179.73C718.98 179.73 719.071 179.73 719.162 179.73C719.253 179.73 719.338 179.733 719.418 179.739V180.787C719.349 180.781 719.267 180.773 719.17 180.761C719.08 180.744 718.966 180.736 718.83 180.736C718.102 180.736 717.455 180.892 716.886 181.205C716.324 181.517 715.881 181.949 715.557 182.5C715.233 183.045 715.071 183.67 715.071 184.375V193H714.031ZM723.251 175.545V193H722.211V175.545H723.251ZM732.046 193.273C730.995 193.273 730.077 192.983 729.293 192.403C728.509 191.824 727.901 191.026 727.469 190.009C727.043 188.986 726.83 187.812 726.83 186.489C726.83 185.176 727.046 184.011 727.478 182.994C727.915 181.972 728.526 181.17 729.31 180.591C730.094 180.006 731.009 179.713 732.055 179.713C732.805 179.713 733.455 179.858 734.006 180.148C734.563 180.432 735.029 180.81 735.404 181.281C735.785 181.753 736.075 182.27 736.273 182.832H736.376V175.545H737.407V193H736.401V190.145H736.273C736.063 190.707 735.771 191.227 735.396 191.705C735.021 192.176 734.555 192.557 733.998 192.847C733.441 193.131 732.79 193.273 732.046 193.273ZM732.14 192.31C733.026 192.31 733.785 192.057 734.415 191.551C735.052 191.04 735.538 190.347 735.873 189.472C736.214 188.591 736.384 187.594 736.384 186.48C736.384 185.366 736.214 184.375 735.873 183.506C735.538 182.631 735.052 181.943 734.415 181.443C733.785 180.937 733.026 180.685 732.14 180.685C731.242 180.685 730.472 180.94 729.83 181.452C729.194 181.957 728.705 182.648 728.364 183.523C728.029 184.398 727.862 185.384 727.862 186.48C727.862 187.577 728.029 188.565 728.364 189.446C728.705 190.327 729.194 191.026 729.83 191.543C730.472 192.054 731.242 192.31 732.14 192.31Z" fill="black"/>
<path d="M688.47 103V85.5455H692.161V92.7472H699.652V85.5455H703.334V103H699.652V95.7898H692.161V103H688.47ZM706.376 103V85.5455H718.138V88.5881H710.067V92.7472H717.533V95.7898H710.067V99.9574H718.172V103H706.376ZM724.08 103H720.126L726.151 85.5455H730.907L736.924 103H732.969L728.597 89.5341H728.461L724.08 103ZM723.833 96.1392H733.174V99.0199H723.833V96.1392ZM739.025 103V85.5455H745.911C747.235 85.5455 748.363 85.7983 749.295 86.304C750.227 86.804 750.937 87.5 751.425 88.392C751.92 89.2784 752.167 90.3011 752.167 91.4602C752.167 92.6193 751.917 93.642 751.417 94.5284C750.917 95.4148 750.192 96.1051 749.244 96.5994C748.3 97.0937 747.158 97.3409 745.817 97.3409H741.428V94.3835H745.221C745.931 94.3835 746.516 94.2614 746.977 94.017C747.442 93.767 747.789 93.4233 748.016 92.9858C748.249 92.5426 748.366 92.0341 748.366 91.4602C748.366 90.8807 748.249 90.375 748.016 89.9432C747.789 89.5057 747.442 89.1676 746.977 88.929C746.511 88.6847 745.92 88.5625 745.204 88.5625H742.715V103H739.025ZM754.535 92.92H762.335V95.416H754.535V92.92ZM756.359 88.936H762.455V91.336H756.359V88.936ZM756.503 94.384H759.047V105.112H756.503V94.384ZM761.063 92.92H763.559V99.592C763.559 100.672 763.415 101.392 762.719 101.8C762.023 102.208 761.159 102.232 759.959 102.232C759.911 101.488 759.647 100.48 759.335 99.808C759.983 99.832 760.583 99.832 760.799 99.808C761.015 99.808 761.063 99.736 761.063 99.544V92.92ZM763.775 83.56H776.039V85.984H763.775V83.56ZM767.231 93.184V94.72H772.583V93.184H767.231ZM767.231 96.688V98.224H772.583V96.688H767.231ZM767.231 89.704V91.216H772.583V89.704H767.231ZM764.591 87.592H775.343V100.336H764.591V87.592ZM768.455 84.88L771.743 85.24C771.287 86.752 770.783 88.264 770.375 89.296L767.879 88.84C768.119 87.688 768.383 86.056 768.455 84.88ZM766.943 100.36L769.295 101.896C767.975 103.168 765.695 104.512 763.823 105.232C763.367 104.704 762.527 103.84 761.903 103.36C763.775 102.688 765.887 101.392 766.943 100.36ZM770.423 101.968L772.559 100.528C773.903 101.392 775.727 102.712 776.663 103.624L774.407 105.232C773.567 104.344 771.791 102.928 770.423 101.968ZM757.871 82.624H759.455V83.176H760.295V83.944C759.287 86.056 757.655 88.96 754.871 91.528C754.559 90.88 753.815 89.776 753.287 89.344C755.543 87.376 757.055 84.76 757.871 82.624ZM758.087 82.624H760.151C761.735 83.896 763.823 85.816 764.783 87.184L763.007 89.728C762.119 88.336 760.151 86.008 758.615 84.808H758.087V82.624ZM777.887 88.36H784.559V91.072H777.887V88.36ZM780.047 82.96H782.711V99.04H780.047V82.96ZM777.671 99.4C779.351 98.656 781.919 97.36 784.367 96.064L785.207 98.608C783.071 99.88 780.719 101.224 778.751 102.28L777.671 99.4ZM784.919 85.936H800.063V88.528H784.919V85.936ZM784.175 99.88C786.287 99.496 789.455 98.776 792.503 98.08L792.767 100.48C790.031 101.224 787.127 101.992 784.847 102.568L784.175 99.88ZM792.575 82.648H795.311C795.143 92.296 796.463 102.448 798.047 102.448C798.359 102.448 798.575 101.584 798.623 99.448C799.175 100.096 799.991 100.696 800.567 101.008C800.183 104.224 799.487 105.16 797.663 105.16C793.487 105.16 792.623 93.4 792.575 82.648ZM795.767 84.016L797.375 82.624C798.311 83.296 799.487 84.28 800.039 84.976L798.335 86.536C797.807 85.816 796.703 84.76 795.767 84.016ZM797.159 90.112L799.727 90.592C798.215 97 795.431 101.968 791.183 105.016C790.775 104.536 789.695 103.6 789.119 103.192C793.343 100.528 795.911 95.968 797.159 90.112ZM787.727 92.344V95.272H789.575V92.344H787.727ZM785.615 90.136H791.807V97.504H785.615V90.136Z" fill="black"/>
<rect x="187" y="1" width="181" height="383" fill="#D9D9D9"/>
<path d="M223.31 18.5653C223.242 17.8778 222.949 17.3437 222.432 16.9631C221.915 16.5824 221.213 16.392 220.327 16.392C219.725 16.392 219.216 16.4773 218.801 16.6477C218.387 16.8125 218.069 17.0426 217.847 17.3381C217.631 17.6335 217.523 17.9688 217.523 18.3438C217.512 18.6562 217.577 18.929 217.719 19.1619C217.867 19.3949 218.069 19.5966 218.324 19.767C218.58 19.9318 218.875 20.0767 219.211 20.2017C219.546 20.321 219.904 20.4233 220.284 20.5085L221.853 20.8835C222.614 21.054 223.313 21.2812 223.949 21.5653C224.586 21.8494 225.137 22.1989 225.603 22.6136C226.069 23.0284 226.429 23.517 226.685 24.0795C226.946 24.642 227.08 25.2869 227.086 26.0142C227.08 27.0824 226.807 28.0085 226.267 28.7926C225.733 29.571 224.961 30.1761 223.949 30.608C222.944 31.0341 221.73 31.2472 220.31 31.2472C218.901 31.2472 217.674 31.0312 216.628 30.5994C215.588 30.1676 214.776 29.5284 214.191 28.6818C213.611 27.8295 213.307 26.7756 213.279 25.5199H216.85C216.89 26.1051 217.057 26.5937 217.353 26.9858C217.654 27.3722 218.054 27.6648 218.554 27.8636C219.06 28.0568 219.631 28.1534 220.267 28.1534C220.892 28.1534 221.435 28.0625 221.895 27.8807C222.361 27.6989 222.722 27.446 222.978 27.1222C223.233 26.7983 223.361 26.4261 223.361 26.0057C223.361 25.6136 223.245 25.2841 223.012 25.017C222.784 24.75 222.449 24.5227 222.006 24.3352C221.569 24.1477 221.032 23.9773 220.395 23.8239L218.495 23.3466C217.023 22.9886 215.861 22.429 215.009 21.6676C214.157 20.9062 213.733 19.8807 213.739 18.5909C213.733 17.5341 214.015 16.6108 214.583 15.821C215.157 15.0312 215.944 14.4148 216.944 13.9716C217.944 13.5284 219.08 13.3068 220.353 13.3068C221.648 13.3068 222.779 13.5284 223.745 13.9716C224.716 14.4148 225.472 15.0312 226.012 15.821C226.551 16.6108 226.83 17.5256 226.847 18.5653H223.31ZM228.903 16.5881V13.5455H243.238V16.5881H237.895V31H234.247V16.5881H228.903ZM246.475 31H242.52L248.546 13.5455H253.301L259.319 31H255.364L250.992 17.5341H250.855L246.475 31ZM246.228 24.1392H255.569V27.0199H246.228V24.1392ZM276 19.6562H272.267C272.199 19.1733 272.059 18.7443 271.849 18.3693C271.639 17.9886 271.369 17.6648 271.039 17.3977C270.71 17.1307 270.329 16.9261 269.897 16.7841C269.471 16.642 269.008 16.571 268.508 16.571C267.605 16.571 266.818 16.7955 266.147 17.2443C265.477 17.6875 264.957 18.3352 264.588 19.1875C264.218 20.0341 264.034 21.0625 264.034 22.2727C264.034 23.517 264.218 24.5625 264.588 25.4091C264.963 26.2557 265.485 26.8949 266.156 27.3267C266.826 27.7585 267.602 27.9744 268.483 27.9744C268.977 27.9744 269.434 27.9091 269.855 27.7784C270.281 27.6477 270.659 27.4574 270.988 27.2074C271.318 26.9517 271.591 26.642 271.806 26.2784C272.028 25.9148 272.181 25.5 272.267 25.0341L276 25.0511C275.903 25.8523 275.662 26.625 275.275 27.3693C274.895 28.108 274.38 28.7699 273.733 29.3551C273.091 29.9347 272.324 30.3949 271.431 30.7358C270.545 31.071 269.542 31.2386 268.423 31.2386C266.866 31.2386 265.474 30.8864 264.247 30.1818C263.025 29.4773 262.059 28.4574 261.349 27.1222C260.645 25.7869 260.292 24.1705 260.292 22.2727C260.292 20.3693 260.65 18.75 261.366 17.4148C262.082 16.0795 263.054 15.0625 264.281 14.3636C265.508 13.6591 266.889 13.3068 268.423 13.3068C269.434 13.3068 270.372 13.4489 271.235 13.733C272.105 14.017 272.875 14.4318 273.545 14.9773C274.216 15.517 274.761 16.179 275.181 16.9631C275.608 17.7472 275.88 18.6449 276 19.6562ZM278.646 31V13.5455H282.336V21.2415H282.566L288.848 13.5455H293.271L286.794 21.3608L293.348 31H288.933L284.152 23.8239L282.336 26.0398V31H278.646ZM295.164 20.92H302.964V23.416H295.164V20.92ZM296.988 16.936H303.084V19.336H296.988V16.936ZM297.132 22.384H299.676V33.112H297.132V22.384ZM301.692 20.92H304.188V27.592C304.188 28.672 304.044 29.392 303.348 29.8C302.652 30.208 301.788 30.232 300.588 30.232C300.54 29.488 300.276 28.48 299.964 27.808C300.612 27.832 301.212 27.832 301.428 27.808C301.644 27.808 301.692 27.736 301.692 27.544V20.92ZM304.404 11.56H316.668V13.984H304.404V11.56ZM307.86 21.184V22.72H313.212V21.184H307.86ZM307.86 24.688V26.224H313.212V24.688H307.86ZM307.86 17.704V19.216H313.212V17.704H307.86ZM305.22 15.592H315.972V28.336H305.22V15.592ZM309.084 12.88L312.372 13.24C311.916 14.752 311.412 16.264 311.004 17.296L308.508 16.84C308.748 15.688 309.012 14.056 309.084 12.88ZM307.572 28.36L309.924 29.896C308.604 31.168 306.324 32.512 304.452 33.232C303.996 32.704 303.156 31.84 302.532 31.36C304.404 30.688 306.516 29.392 307.572 28.36ZM311.052 29.968L313.188 28.528C314.532 29.392 316.356 30.712 317.292 31.624L315.036 33.232C314.196 32.344 312.42 30.928 311.052 29.968ZM298.5 10.624H300.084V11.176H300.924V11.944C299.916 14.056 298.284 16.96 295.5 19.528C295.188 18.88 294.444 17.776 293.916 17.344C296.172 15.376 297.684 12.76 298.5 10.624ZM298.716 10.624H300.78C302.364 11.896 304.452 13.816 305.412 15.184L303.636 17.728C302.748 16.336 300.78 14.008 299.244 12.808H298.716V10.624ZM318.516 16.36H325.188V19.072H318.516V16.36ZM320.676 10.96H323.34V27.04H320.676V10.96ZM318.3 27.4C319.98 26.656 322.548 25.36 324.996 24.064L325.836 26.608C323.7 27.88 321.348 29.224 319.38 30.28L318.3 27.4ZM325.548 13.936H340.692V16.528H325.548V13.936ZM324.804 27.88C326.916 27.496 330.084 26.776 333.132 26.08L333.396 28.48C330.66 29.224 327.756 29.992 325.476 30.568L324.804 27.88ZM333.204 10.648H335.94C335.772 20.296 337.092 30.448 338.676 30.448C338.988 30.448 339.204 29.584 339.252 27.448C339.804 28.096 340.62 28.696 341.196 29.008C340.812 32.224 340.116 33.16 338.292 33.16C334.116 33.16 333.252 21.4 333.204 10.648ZM336.396 12.016L338.004 10.624C338.94 11.296 340.116 12.28 340.668 12.976L338.964 14.536C338.436 13.816 337.332 12.76 336.396 12.016ZM337.788 18.112L340.356 18.592C338.844 25 336.06 29.968 331.812 33.016C331.404 32.536 330.324 31.6 329.748 31.192C333.972 28.528 336.54 23.968 337.788 18.112ZM328.356 20.344V23.272H330.204V20.344H328.356ZM326.244 18.136H332.436V25.504H326.244V18.136Z" fill="black"/>
<rect x="197.5" y="285.5" width="160" height="87" fill="white" stroke="black"/>
<path d="M205.156 312.909V294.909H206.17V297.832H206.298C206.503 297.27 206.79 296.753 207.159 296.281C207.534 295.81 207.997 295.432 208.548 295.148C209.105 294.858 209.759 294.713 210.509 294.713C211.565 294.713 212.486 295.003 213.27 295.582C214.054 296.162 214.662 296.963 215.094 297.986C215.526 299.003 215.741 300.17 215.741 301.489C215.741 302.807 215.523 303.977 215.085 305C214.653 306.017 214.045 306.818 213.261 307.403C212.483 307.983 211.571 308.273 210.526 308.273C209.781 308.273 209.128 308.131 208.565 307.847C208.009 307.562 207.54 307.185 207.159 306.713C206.784 306.236 206.497 305.713 206.298 305.145H206.196V312.909H205.156ZM206.179 301.48C206.179 302.594 206.349 303.591 206.69 304.472C207.031 305.347 207.52 306.04 208.156 306.551C208.793 307.057 209.551 307.31 210.432 307.31C211.324 307.31 212.088 307.054 212.724 306.543C213.366 306.026 213.855 305.327 214.19 304.446C214.531 303.565 214.702 302.577 214.702 301.48C214.702 300.384 214.534 299.398 214.199 298.523C213.864 297.648 213.378 296.957 212.741 296.452C212.105 295.94 211.335 295.685 210.432 295.685C209.54 295.685 208.776 295.937 208.139 296.443C207.509 296.943 207.023 297.631 206.682 298.506C206.347 299.375 206.179 300.366 206.179 301.48ZM223.964 294.909V295.838H218.245V294.909H223.964ZM220.18 291.773H221.211V304.906C221.211 305.44 221.313 305.878 221.518 306.219C221.728 306.554 222.001 306.804 222.336 306.969C222.677 307.128 223.04 307.207 223.427 307.207C223.614 307.207 223.776 307.193 223.913 307.165C224.055 307.136 224.188 307.099 224.313 307.054L224.569 308C224.41 308.057 224.234 308.105 224.04 308.145C223.847 308.19 223.62 308.213 223.359 308.213C222.813 308.213 222.296 308.091 221.808 307.847C221.325 307.602 220.933 307.247 220.631 306.781C220.33 306.315 220.18 305.753 220.18 305.094V291.773ZM227.82 308V294.909H228.835V296.955H228.928C229.212 296.284 229.692 295.747 230.369 295.344C231.045 294.935 231.815 294.73 232.678 294.73C232.769 294.73 232.86 294.73 232.951 294.73C233.042 294.73 233.127 294.733 233.207 294.739V295.787C233.138 295.781 233.056 295.773 232.96 295.761C232.869 295.744 232.755 295.736 232.619 295.736C231.891 295.736 231.244 295.892 230.675 296.205C230.113 296.517 229.67 296.949 229.346 297.5C229.022 298.045 228.86 298.67 228.86 299.375V308H227.82ZM236.972 307.207C236.716 307.207 236.497 307.116 236.315 306.935C236.139 306.753 236.051 306.537 236.051 306.287C236.051 306.031 236.139 305.815 236.315 305.639C236.497 305.457 236.716 305.366 236.972 305.366C237.222 305.366 237.438 305.457 237.619 305.639C237.801 305.815 237.892 306.031 237.892 306.287C237.892 306.452 237.849 306.605 237.764 306.747C237.685 306.889 237.574 307.003 237.432 307.088C237.295 307.168 237.142 307.207 236.972 307.207ZM236.972 298.037C236.716 298.037 236.497 297.946 236.315 297.764C236.139 297.582 236.051 297.366 236.051 297.116C236.051 296.861 236.139 296.645 236.315 296.469C236.497 296.287 236.716 296.196 236.972 296.196C237.222 296.196 237.438 296.287 237.619 296.469C237.801 296.645 237.892 296.861 237.892 297.116C237.892 297.281 237.849 297.435 237.764 297.577C237.685 297.719 237.574 297.832 237.432 297.918C237.295 297.997 237.142 298.037 236.972 298.037Z" fill="black"/>
<path d="M206.196 319.545V337H205.156V319.545H206.196ZM215.605 337.273C214.423 337.273 213.395 336.98 212.52 336.395C211.645 335.81 210.969 335.009 210.491 333.991C210.014 332.974 209.776 331.815 209.776 330.514C209.776 329.207 210.014 328.043 210.491 327.02C210.974 325.997 211.636 325.19 212.477 324.599C213.318 324.009 214.278 323.713 215.358 323.713C216.091 323.713 216.784 323.861 217.438 324.156C218.097 324.446 218.676 324.866 219.176 325.418C219.682 325.969 220.077 326.634 220.361 327.412C220.651 328.19 220.795 329.065 220.795 330.037V330.685H210.432V329.739H219.756C219.756 328.79 219.563 327.935 219.176 327.173C218.79 326.412 218.264 325.807 217.599 325.358C216.935 324.909 216.188 324.685 215.358 324.685C214.489 324.685 213.713 324.929 213.031 325.418C212.355 325.901 211.818 326.554 211.42 327.378C211.028 328.202 210.824 329.122 210.807 330.139V330.565C210.807 331.656 210.997 332.636 211.378 333.506C211.764 334.369 212.315 335.054 213.031 335.56C213.747 336.06 214.605 336.31 215.605 336.31C216.321 336.31 216.932 336.19 217.438 335.952C217.949 335.707 218.366 335.412 218.69 335.065C219.014 334.719 219.259 334.384 219.423 334.06L220.369 334.443C220.17 334.881 219.861 335.318 219.44 335.756C219.026 336.187 218.497 336.548 217.855 336.838C217.219 337.128 216.469 337.273 215.605 337.273ZM225.415 328.511V337H224.375V323.909H225.389V325.98H225.491C225.798 325.304 226.29 324.761 226.966 324.352C227.642 323.943 228.446 323.739 229.378 323.739C230.259 323.739 231.031 323.926 231.696 324.301C232.366 324.676 232.889 325.21 233.264 325.903C233.645 326.591 233.835 327.412 233.835 328.366V337H232.795V328.409C232.795 327.295 232.463 326.401 231.798 325.724C231.139 325.043 230.267 324.702 229.182 324.702C228.455 324.702 227.807 324.861 227.239 325.179C226.67 325.497 226.224 325.943 225.901 326.517C225.577 327.085 225.415 327.75 225.415 328.511ZM239.128 336.207C238.872 336.207 238.653 336.116 238.472 335.935C238.295 335.753 238.207 335.537 238.207 335.287C238.207 335.031 238.295 334.815 238.472 334.639C238.653 334.457 238.872 334.366 239.128 334.366C239.378 334.366 239.594 334.457 239.776 334.639C239.957 334.815 240.048 335.031 240.048 335.287C240.048 335.452 240.006 335.605 239.92 335.747C239.841 335.889 239.73 336.003 239.588 336.088C239.452 336.168 239.298 336.207 239.128 336.207ZM239.128 327.037C238.872 327.037 238.653 326.946 238.472 326.764C238.295 326.582 238.207 326.366 238.207 326.116C238.207 325.861 238.295 325.645 238.472 325.469C238.653 325.287 238.872 325.196 239.128 325.196C239.378 325.196 239.594 325.287 239.776 325.469C239.957 325.645 240.048 325.861 240.048 326.116C240.048 326.281 240.006 326.435 239.92 326.577C239.841 326.719 239.73 326.832 239.588 326.918C239.452 326.997 239.298 327.037 239.128 327.037ZM255.724 319.545V337H254.658V320.67H254.556L250.636 323.27V322.128L254.522 319.545H255.724ZM265.966 319.545V337H264.901V320.67H264.798L260.878 323.27V322.128L264.764 319.545H265.966Z" fill="black"/>
<path d="M210.065 366.273C208.952 366.273 207.972 365.98 207.125 365.395C206.278 364.804 205.616 363.997 205.139 362.974C204.668 361.952 204.432 360.793 204.432 359.497C204.432 358.202 204.67 357.043 205.148 356.02C205.625 354.997 206.287 354.19 207.134 353.599C207.98 353.009 208.955 352.713 210.057 352.713C210.886 352.713 211.642 352.884 212.324 353.224C213.011 353.565 213.58 354.04 214.028 354.648C214.483 355.256 214.773 355.96 214.898 356.761H213.841C213.67 355.875 213.244 355.142 212.562 354.562C211.886 353.977 211.054 353.685 210.065 353.685C209.179 353.685 208.389 353.935 207.696 354.435C207.003 354.929 206.457 355.614 206.06 356.489C205.662 357.358 205.463 358.355 205.463 359.48C205.463 360.588 205.656 361.582 206.043 362.463C206.429 363.338 206.969 364.031 207.662 364.543C208.355 365.054 209.156 365.31 210.065 365.31C210.707 365.31 211.293 365.182 211.821 364.926C212.355 364.67 212.801 364.307 213.159 363.835C213.517 363.364 213.753 362.812 213.866 362.182H214.923C214.798 362.989 214.514 363.699 214.071 364.312C213.628 364.926 213.062 365.406 212.375 365.753C211.688 366.099 210.918 366.273 210.065 366.273ZM221.938 366.281C221.182 366.281 220.489 366.131 219.858 365.83C219.233 365.528 218.73 365.088 218.349 364.509C217.974 363.929 217.787 363.224 217.787 362.395C217.787 361.849 217.884 361.369 218.077 360.955C218.27 360.54 218.568 360.182 218.972 359.881C219.375 359.58 219.892 359.332 220.523 359.139C221.153 358.94 221.906 358.787 222.781 358.679C223.446 358.599 224.04 358.523 224.562 358.449C225.085 358.369 225.494 358.247 225.79 358.082C226.091 357.918 226.241 357.668 226.241 357.332V356.787C226.241 355.832 225.94 355.074 225.338 354.511C224.736 353.949 223.906 353.668 222.849 353.668C221.912 353.668 221.122 353.875 220.48 354.29C219.844 354.699 219.398 355.227 219.142 355.875L218.162 355.509C218.412 354.884 218.773 354.364 219.244 353.949C219.722 353.534 220.267 353.224 220.881 353.02C221.5 352.815 222.148 352.713 222.824 352.713C223.409 352.713 223.966 352.795 224.494 352.96C225.028 353.125 225.503 353.375 225.918 353.71C226.338 354.045 226.67 354.474 226.915 354.997C227.159 355.514 227.281 356.134 227.281 356.855V366H226.241V363.639H226.165C225.938 364.128 225.625 364.574 225.227 364.977C224.835 365.375 224.361 365.693 223.804 365.932C223.253 366.165 222.631 366.281 221.938 366.281ZM222.04 365.318C222.858 365.318 223.582 365.119 224.213 364.722C224.849 364.318 225.347 363.767 225.705 363.068C226.063 362.369 226.241 361.577 226.241 360.69V358.764C226.111 358.878 225.92 358.98 225.67 359.071C225.426 359.156 225.148 359.233 224.835 359.301C224.528 359.364 224.205 359.42 223.864 359.472C223.528 359.517 223.202 359.56 222.884 359.599C221.929 359.713 221.151 359.889 220.548 360.128C219.952 360.361 219.514 360.668 219.236 361.048C218.963 361.429 218.827 361.889 218.827 362.429C218.827 363.321 219.134 364.026 219.747 364.543C220.361 365.06 221.125 365.318 222.04 365.318ZM231.641 370.909V352.909H232.655V355.832H232.783C232.987 355.27 233.274 354.753 233.643 354.281C234.018 353.81 234.482 353.432 235.033 353.148C235.589 352.858 236.243 352.713 236.993 352.713C238.05 352.713 238.97 353.003 239.754 353.582C240.538 354.162 241.146 354.963 241.578 355.986C242.01 357.003 242.226 358.17 242.226 359.489C242.226 360.807 242.007 361.977 241.57 363C241.138 364.017 240.53 364.818 239.746 365.403C238.967 365.983 238.055 366.273 237.01 366.273C236.266 366.273 235.612 366.131 235.05 365.847C234.493 365.562 234.024 365.185 233.643 364.713C233.268 364.236 232.982 363.713 232.783 363.145H232.68V370.909H231.641ZM232.663 359.48C232.663 360.594 232.834 361.591 233.175 362.472C233.516 363.347 234.004 364.04 234.641 364.551C235.277 365.057 236.036 365.31 236.916 365.31C237.808 365.31 238.572 365.054 239.209 364.543C239.851 364.026 240.339 363.327 240.675 362.446C241.016 361.565 241.186 360.577 241.186 359.48C241.186 358.384 241.018 357.398 240.683 356.523C240.348 355.648 239.862 354.957 239.226 354.452C238.589 353.94 237.82 353.685 236.916 353.685C236.024 353.685 235.26 353.937 234.624 354.443C233.993 354.943 233.507 355.631 233.166 356.506C232.831 357.375 232.663 358.366 232.663 359.48ZM246.792 365.207C246.536 365.207 246.317 365.116 246.136 364.935C245.96 364.753 245.871 364.537 245.871 364.287C245.871 364.031 245.96 363.815 246.136 363.639C246.317 363.457 246.536 363.366 246.792 363.366C247.042 363.366 247.258 363.457 247.44 363.639C247.621 363.815 247.712 364.031 247.712 364.287C247.712 364.452 247.67 364.605 247.585 364.747C247.505 364.889 247.394 365.003 247.252 365.088C247.116 365.168 246.962 365.207 246.792 365.207ZM246.792 356.037C246.536 356.037 246.317 355.946 246.136 355.764C245.96 355.582 245.871 355.366 245.871 355.116C245.871 354.861 245.96 354.645 246.136 354.469C246.317 354.287 246.536 354.196 246.792 354.196C247.042 354.196 247.258 354.287 247.44 354.469C247.621 354.645 247.712 354.861 247.712 355.116C247.712 355.281 247.67 355.435 247.585 355.577C247.505 355.719 247.394 355.832 247.252 355.918C247.116 355.997 246.962 356.037 246.792 356.037ZM263.388 348.545V366H262.322V349.67H262.22L258.3 352.27V351.128L262.186 348.545H263.388ZM274.141 366.239C272.977 366.239 271.977 365.881 271.141 365.165C270.306 364.449 269.664 363.423 269.215 362.088C268.772 360.747 268.55 359.142 268.55 357.273C268.55 355.409 268.775 353.807 269.224 352.466C269.673 351.125 270.312 350.097 271.141 349.381C271.977 348.665 272.977 348.307 274.141 348.307C275.306 348.307 276.303 348.665 277.133 349.381C277.968 350.097 278.61 351.125 279.059 352.466C279.508 353.807 279.732 355.409 279.732 357.273C279.732 359.142 279.508 360.747 279.059 362.088C278.616 363.423 277.977 364.449 277.141 365.165C276.306 365.881 275.306 366.239 274.141 366.239ZM274.141 365.25C275.556 365.25 276.667 364.548 277.474 363.145C278.281 361.736 278.684 359.778 278.684 357.273C278.684 355.602 278.499 354.17 278.13 352.977C277.766 351.784 277.246 350.872 276.57 350.241C275.894 349.605 275.085 349.287 274.141 349.287C272.727 349.287 271.616 349.991 270.809 351.401C270.002 352.81 269.599 354.767 269.599 357.273C269.599 358.943 269.781 360.375 270.144 361.568C270.508 362.756 271.028 363.668 271.704 364.304C272.386 364.935 273.198 365.25 274.141 365.25ZM288.602 366.239C287.438 366.239 286.438 365.881 285.602 365.165C284.767 364.449 284.125 363.423 283.676 362.088C283.233 360.747 283.011 359.142 283.011 357.273C283.011 355.409 283.236 353.807 283.685 352.466C284.134 351.125 284.773 350.097 285.602 349.381C286.438 348.665 287.438 348.307 288.602 348.307C289.767 348.307 290.764 348.665 291.594 349.381C292.429 350.097 293.071 351.125 293.52 352.466C293.969 353.807 294.193 355.409 294.193 357.273C294.193 359.142 293.969 360.747 293.52 362.088C293.077 363.423 292.438 364.449 291.602 365.165C290.767 365.881 289.767 366.239 288.602 366.239ZM288.602 365.25C290.017 365.25 291.128 364.548 291.935 363.145C292.741 361.736 293.145 359.778 293.145 357.273C293.145 355.602 292.96 354.17 292.591 352.977C292.227 351.784 291.707 350.872 291.031 350.241C290.355 349.605 289.545 349.287 288.602 349.287C287.188 349.287 286.077 349.991 285.27 351.401C284.463 352.81 284.06 354.767 284.06 357.273C284.06 358.943 284.241 360.375 284.605 361.568C284.969 362.756 285.489 363.668 286.165 364.304C286.847 364.935 287.659 365.25 288.602 365.25Z" fill="black"/>
<path d="M609.881 197.473C610.142 196.986 609.96 196.38 609.473 196.119L601.543 191.862C601.057 191.601 600.45 191.784 600.189 192.27C599.928 192.757 600.111 193.363 600.597 193.624L607.646 197.408L603.862 204.457C603.601 204.943 603.784 205.55 604.27 205.811C604.757 206.072 605.363 205.889 605.624 205.403L609.881 197.473ZM254.289 304.957L609.289 197.957L608.711 196.043L253.711 303.043L254.289 304.957Z" fill="black"/>
<path d="M24.7071 49.2929C24.3166 48.9024 23.6834 48.9024 23.2929 49.2929L16.9289 55.6569C16.5384 56.0474 16.5384 56.6805 16.9289 57.0711C17.3195 57.4616 17.9526 57.4616 18.3432 57.0711L24 51.4142L29.6569 57.0711C30.0474 57.4616 30.6806 57.4616 31.0711 57.0711C31.4616 56.6805 31.4616 56.0474 31.0711 55.6569L24.7071 49.2929ZM25 324L25 50L23 50L23 324L25 324Z" fill="black"/>
<path d="M10.56 11.896H22.8V13.576H10.56V11.896ZM9.504 30.736H23.016V32.416H9.504V30.736ZM12.24 25L13.8 24.64C14.4 26.248 14.952 28.36 15.12 29.728L13.464 30.16C13.344 28.768 12.816 26.632 12.24 25ZM19.224 24.496L21.048 24.904C20.424 26.728 19.704 28.96 19.08 30.304L17.568 29.896C18.168 28.504 18.888 26.128 19.224 24.496ZM13.224 17.824V22.048H20.04V17.824H13.224ZM11.52 16.216H21.792V23.656H11.52V16.216ZM5.448 14.92H7.176V19.648C7.176 23.632 6.456 29.2 2.112 32.848C1.896 32.464 1.224 31.792 0.888 31.576C4.968 28.144 5.448 23.296 5.448 19.624V14.92ZM3.264 13.984H10.344V15.64H3.264V13.984ZM1.032 20.488H10.632V22.168H1.032V20.488ZM6.648 23.608C7.416 24.328 10.152 27.472 10.776 28.24L9.6 29.728C8.784 28.432 6.504 25.624 5.568 24.592L6.648 23.608ZM3.456 10.96L5.184 11.272C4.608 14.392 3.624 17.416 2.328 19.408C1.992 19.144 1.2 18.712 0.768 18.544C2.088 16.696 2.976 13.84 3.456 10.96ZM35.904 12.496C33.816 15.16 29.736 18.304 25.536 20.344C25.32 19.912 24.84 19.24 24.456 18.856C28.728 16.912 32.88 13.624 34.872 10.792H36.72C39.408 14.008 43.752 17.032 47.616 18.568C47.184 19.024 46.752 19.648 46.44 20.176C42.672 18.424 38.256 15.304 35.904 12.496ZM31.176 17.032H41.016V18.664H31.176V17.032ZM27.984 20.824H34.704V29.056H27.984V27.448H33.048V22.408H27.984V20.824ZM36.768 20.8H43.896V22.408H38.472V32.968H36.768V20.8ZM43.32 20.8H45.072V28.336C45.072 29.224 44.88 29.752 44.184 30.016C43.512 30.304 42.384 30.328 40.56 30.328C40.512 29.824 40.248 29.128 40.032 28.672C41.376 28.72 42.528 28.72 42.888 28.696C43.224 28.672 43.32 28.6 43.32 28.288V20.8ZM27.24 20.824H28.872V31.096H27.24V20.824Z" fill="black"/>
<path d="M1.248 351.36H22.728V352.968H1.248V351.36ZM6.48 344.352H19.632V345.816H6.48V344.352ZM6.48 347.832H19.632V349.296H6.48V347.832ZM2.4 360.096C5.16 359.712 9.528 358.968 13.632 358.296L13.704 359.88C9.864 360.576 5.736 361.272 2.856 361.776L2.4 360.096ZM12.096 351.792C13.776 356.304 17.568 359.328 23.112 360.408C22.728 360.768 22.224 361.488 21.984 361.992C16.176 360.648 12.408 357.36 10.464 352.224L12.096 351.792ZM20.208 353.184L21.648 354.168C19.848 355.512 17.448 356.904 15.576 357.792L14.352 356.832C16.176 355.92 18.72 354.36 20.208 353.184ZM5.496 340.8H20.4V342.336H7.32V352.032H5.496V340.8ZM5.472 351.864H7.32V360.12L5.472 360.336V351.864ZM26.664 341.904H45.432V343.464H26.664V341.904ZM27.624 345.432H44.496V346.944H27.624V345.432ZM25.248 349.056H46.728V350.64H25.248V349.056ZM25.656 353.064H46.344V354.648H25.656V353.064ZM40.512 350.424H42.336V359.664C42.336 360.72 42.096 361.248 41.328 361.536C40.512 361.824 39.192 361.824 37.176 361.824C37.08 361.32 36.792 360.6 36.552 360.072C38.16 360.12 39.576 360.12 39.984 360.096C40.416 360.096 40.512 359.976 40.512 359.64V350.424ZM34.68 339.816L36.648 340.032C35.352 349.992 32.88 356.736 26.592 360.84C26.304 360.456 25.488 359.712 25.008 359.376C31.248 355.752 33.552 349.248 34.68 339.816ZM31.656 356.544L33.144 355.608C34.32 356.688 35.76 358.224 36.456 359.208L34.896 360.264C34.248 359.256 32.832 357.672 31.656 356.544Z" fill="black"/>
<path d="M81.1154 341V327.909H83.5614V330.04H83.7234C83.9961 329.318 84.4421 328.756 85.0614 328.352C85.6808 327.943 86.4222 327.739 87.2859 327.739C88.1609 327.739 88.8938 327.943 89.4847 328.352C90.0813 328.761 90.5217 329.324 90.8058 330.04H90.9421C91.2546 329.341 91.7518 328.784 92.4336 328.369C93.1154 327.949 93.9279 327.739 94.8711 327.739C96.0586 327.739 97.0273 328.111 97.7773 328.855C98.533 329.599 98.9109 330.722 98.9109 332.222V341H96.3626V332.46C96.3626 331.574 96.1211 330.932 95.6381 330.534C95.1552 330.136 94.5785 329.938 93.908 329.938C93.0785 329.938 92.4336 330.193 91.9734 330.705C91.5131 331.21 91.283 331.861 91.283 332.656V341H88.7433V332.298C88.7433 331.588 88.5217 331.017 88.0785 330.585C87.6353 330.153 87.0586 329.938 86.3484 329.938C85.8654 329.938 85.4194 330.065 85.0103 330.321C84.6069 330.571 84.2802 330.92 84.0302 331.369C83.7859 331.818 83.6637 332.338 83.6637 332.929V341H81.1154ZM106.136 341.29C105.306 341.29 104.556 341.136 103.886 340.83C103.216 340.517 102.684 340.065 102.292 339.474C101.906 338.884 101.713 338.159 101.713 337.301C101.713 336.562 101.855 335.955 102.139 335.477C102.423 335 102.806 334.622 103.289 334.344C103.772 334.065 104.312 333.855 104.909 333.713C105.505 333.571 106.113 333.463 106.733 333.389C107.517 333.298 108.153 333.224 108.642 333.168C109.13 333.105 109.485 333.006 109.707 332.869C109.929 332.733 110.039 332.511 110.039 332.205V332.145C110.039 331.401 109.829 330.824 109.409 330.415C108.994 330.006 108.375 329.801 107.551 329.801C106.693 329.801 106.017 329.991 105.522 330.372C105.034 330.747 104.696 331.165 104.508 331.625L102.113 331.08C102.397 330.284 102.812 329.642 103.358 329.153C103.909 328.659 104.542 328.301 105.258 328.08C105.974 327.852 106.727 327.739 107.517 327.739C108.039 327.739 108.593 327.801 109.179 327.926C109.77 328.045 110.321 328.267 110.832 328.591C111.349 328.915 111.772 329.378 112.102 329.98C112.431 330.577 112.596 331.352 112.596 332.307V341H110.108V339.21H110.005C109.841 339.54 109.593 339.864 109.264 340.182C108.934 340.5 108.511 340.764 107.994 340.974C107.477 341.185 106.858 341.29 106.136 341.29ZM106.69 339.244C107.395 339.244 107.997 339.105 108.497 338.827C109.002 338.548 109.386 338.185 109.647 337.736C109.914 337.281 110.048 336.795 110.048 336.278V334.591C109.957 334.682 109.781 334.767 109.52 334.847C109.264 334.92 108.971 334.986 108.642 335.043C108.312 335.094 107.991 335.142 107.679 335.188C107.366 335.227 107.105 335.261 106.895 335.29C106.4 335.352 105.949 335.457 105.539 335.605C105.136 335.753 104.812 335.966 104.568 336.244C104.329 336.517 104.21 336.881 104.21 337.335C104.21 337.966 104.443 338.443 104.909 338.767C105.375 339.085 105.968 339.244 106.69 339.244ZM115.99 341V327.909H118.539V341H115.99ZM117.277 325.889C116.834 325.889 116.453 325.741 116.135 325.446C115.823 325.145 115.667 324.787 115.667 324.372C115.667 323.952 115.823 323.594 116.135 323.298C116.453 322.997 116.834 322.847 117.277 322.847C117.721 322.847 118.098 322.997 118.411 323.298C118.729 323.594 118.888 323.952 118.888 324.372C118.888 324.787 118.729 325.145 118.411 325.446C118.098 325.741 117.721 325.889 117.277 325.889ZM124.515 333.227V341H121.967V327.909H124.413V330.04H124.575C124.876 329.347 125.348 328.79 125.99 328.369C126.637 327.949 127.453 327.739 128.436 327.739C129.328 327.739 130.109 327.926 130.779 328.301C131.45 328.67 131.97 329.222 132.339 329.955C132.708 330.687 132.893 331.594 132.893 332.673V341H130.345V332.98C130.345 332.031 130.098 331.29 129.603 330.756C129.109 330.216 128.43 329.946 127.566 329.946C126.975 329.946 126.45 330.074 125.99 330.33C125.535 330.585 125.174 330.96 124.907 331.455C124.646 331.943 124.515 332.534 124.515 333.227Z" fill="black"/>
<path d="M169.115 327.909L172.004 333.006L174.919 327.909H177.706L173.624 334.455L177.74 341H174.953L172.004 336.108L169.064 341H166.268L170.342 334.455L166.32 327.909H169.115Z" fill="black"/>
<path d="M729 329V331H731V329H729ZM730.414 210.586C729.633 209.805 728.367 209.805 727.586 210.586L714.858 223.314C714.077 224.095 714.077 225.361 714.858 226.142C715.639 226.923 716.905 226.923 717.686 226.142L729 214.828L740.314 226.142C741.095 226.923 742.361 226.923 743.142 226.142C743.923 225.361 743.923 224.095 743.142 223.314L730.414 210.586ZM358 331H729V327H358V331ZM731 329V212H727V329H731Z" fill="#FF0000"/>
<rect x="70" y="285" width="298" height="88" fill="#FF0000" fill-opacity="0.2"/>
</svg>
