<svg width="983" height="384" viewBox="0 0 983 384" fill="none" xmlns="http://www.w3.org/2000/svg">
<ellipse cx="750.5" cy="193" rx="232.5" ry="135" fill="#D9D9D9"/>
<path d="M688.47 103V85.5455H692.161V92.7472H699.652V85.5455H703.334V103H699.652V95.7898H692.161V103H688.47ZM706.376 103V85.5455H718.138V88.5881H710.067V92.7472H717.533V95.7898H710.067V99.9574H718.172V103H706.376ZM724.08 103H720.126L726.151 85.5455H730.907L736.924 103H732.969L728.597 89.5341H728.461L724.08 103ZM723.833 96.1392H733.174V99.0199H723.833V96.1392ZM739.025 103V85.5455H745.911C747.235 85.5455 748.363 85.7983 749.295 86.304C750.227 86.804 750.937 87.5 751.425 88.392C751.92 89.2784 752.167 90.3011 752.167 91.4602C752.167 92.6193 751.917 93.642 751.417 94.5284C750.917 95.4148 750.192 96.1051 749.244 96.5994C748.3 97.0937 747.158 97.3409 745.817 97.3409H741.428V94.3835H745.221C745.931 94.3835 746.516 94.2614 746.977 94.017C747.442 93.767 747.789 93.4233 748.016 92.9858C748.249 92.5426 748.366 92.0341 748.366 91.4602C748.366 90.8807 748.249 90.375 748.016 89.9432C747.789 89.5057 747.442 89.1676 746.977 88.929C746.511 88.6847 745.92 88.5625 745.204 88.5625H742.715V103H739.025ZM754.535 92.92H762.335V95.416H754.535V92.92ZM756.359 88.936H762.455V91.336H756.359V88.936ZM756.503 94.384H759.047V105.112H756.503V94.384ZM761.063 92.92H763.559V99.592C763.559 100.672 763.415 101.392 762.719 101.8C762.023 102.208 761.159 102.232 759.959 102.232C759.911 101.488 759.647 100.48 759.335 99.808C759.983 99.832 760.583 99.832 760.799 99.808C761.015 99.808 761.063 99.736 761.063 99.544V92.92ZM763.775 83.56H776.039V85.984H763.775V83.56ZM767.231 93.184V94.72H772.583V93.184H767.231ZM767.231 96.688V98.224H772.583V96.688H767.231ZM767.231 89.704V91.216H772.583V89.704H767.231ZM764.591 87.592H775.343V100.336H764.591V87.592ZM768.455 84.88L771.743 85.24C771.287 86.752 770.783 88.264 770.375 89.296L767.879 88.84C768.119 87.688 768.383 86.056 768.455 84.88ZM766.943 100.36L769.295 101.896C767.975 103.168 765.695 104.512 763.823 105.232C763.367 104.704 762.527 103.84 761.903 103.36C763.775 102.688 765.887 101.392 766.943 100.36ZM770.423 101.968L772.559 100.528C773.903 101.392 775.727 102.712 776.663 103.624L774.407 105.232C773.567 104.344 771.791 102.928 770.423 101.968ZM757.871 82.624H759.455V83.176H760.295V83.944C759.287 86.056 757.655 88.96 754.871 91.528C754.559 90.88 753.815 89.776 753.287 89.344C755.543 87.376 757.055 84.76 757.871 82.624ZM758.087 82.624H760.151C761.735 83.896 763.823 85.816 764.783 87.184L763.007 89.728C762.119 88.336 760.151 86.008 758.615 84.808H758.087V82.624ZM777.887 88.36H784.559V91.072H777.887V88.36ZM780.047 82.96H782.711V99.04H780.047V82.96ZM777.671 99.4C779.351 98.656 781.919 97.36 784.367 96.064L785.207 98.608C783.071 99.88 780.719 101.224 778.751 102.28L777.671 99.4ZM784.919 85.936H800.063V88.528H784.919V85.936ZM784.175 99.88C786.287 99.496 789.455 98.776 792.503 98.08L792.767 100.48C790.031 101.224 787.127 101.992 784.847 102.568L784.175 99.88ZM792.575 82.648H795.311C795.143 92.296 796.463 102.448 798.047 102.448C798.359 102.448 798.575 101.584 798.623 99.448C799.175 100.096 799.991 100.696 800.567 101.008C800.183 104.224 799.487 105.16 797.663 105.16C793.487 105.16 792.623 93.4 792.575 82.648ZM795.767 84.016L797.375 82.624C798.311 83.296 799.487 84.28 800.039 84.976L798.335 86.536C797.807 85.816 796.703 84.76 795.767 84.016ZM797.159 90.112L799.727 90.592C798.215 97 795.431 101.968 791.183 105.016C790.775 104.536 789.695 103.6 789.119 103.192C793.343 100.528 795.911 95.968 797.159 90.112ZM787.727 92.344V95.272H789.575V92.344H787.727ZM785.615 90.136H791.807V97.504H785.615V90.136Z" fill="black"/>
<rect x="187" y="1" width="181" height="383" fill="#D9D9D9"/>
<path d="M223.31 18.5653C223.242 17.8778 222.949 17.3437 222.432 16.9631C221.915 16.5824 221.213 16.392 220.327 16.392C219.725 16.392 219.216 16.4773 218.801 16.6477C218.387 16.8125 218.069 17.0426 217.847 17.3381C217.631 17.6335 217.523 17.9688 217.523 18.3438C217.512 18.6562 217.577 18.929 217.719 19.1619C217.867 19.3949 218.069 19.5966 218.324 19.767C218.58 19.9318 218.875 20.0767 219.211 20.2017C219.546 20.321 219.904 20.4233 220.284 20.5085L221.853 20.8835C222.614 21.054 223.313 21.2812 223.949 21.5653C224.586 21.8494 225.137 22.1989 225.603 22.6136C226.069 23.0284 226.429 23.517 226.685 24.0795C226.946 24.642 227.08 25.2869 227.086 26.0142C227.08 27.0824 226.807 28.0085 226.267 28.7926C225.733 29.571 224.961 30.1761 223.949 30.608C222.944 31.0341 221.73 31.2472 220.31 31.2472C218.901 31.2472 217.674 31.0312 216.628 30.5994C215.588 30.1676 214.776 29.5284 214.191 28.6818C213.611 27.8295 213.307 26.7756 213.279 25.5199H216.85C216.89 26.1051 217.057 26.5937 217.353 26.9858C217.654 27.3722 218.054 27.6648 218.554 27.8636C219.06 28.0568 219.631 28.1534 220.267 28.1534C220.892 28.1534 221.435 28.0625 221.895 27.8807C222.361 27.6989 222.722 27.446 222.978 27.1222C223.233 26.7983 223.361 26.4261 223.361 26.0057C223.361 25.6136 223.245 25.2841 223.012 25.017C222.784 24.75 222.449 24.5227 222.006 24.3352C221.569 24.1477 221.032 23.9773 220.395 23.8239L218.495 23.3466C217.023 22.9886 215.861 22.429 215.009 21.6676C214.157 20.9062 213.733 19.8807 213.739 18.5909C213.733 17.5341 214.015 16.6108 214.583 15.821C215.157 15.0312 215.944 14.4148 216.944 13.9716C217.944 13.5284 219.08 13.3068 220.353 13.3068C221.648 13.3068 222.779 13.5284 223.745 13.9716C224.716 14.4148 225.472 15.0312 226.012 15.821C226.551 16.6108 226.83 17.5256 226.847 18.5653H223.31ZM228.903 16.5881V13.5455H243.238V16.5881H237.895V31H234.247V16.5881H228.903ZM246.475 31H242.52L248.546 13.5455H253.301L259.319 31H255.364L250.992 17.5341H250.855L246.475 31ZM246.228 24.1392H255.569V27.0199H246.228V24.1392ZM276 19.6562H272.267C272.199 19.1733 272.059 18.7443 271.849 18.3693C271.639 17.9886 271.369 17.6648 271.039 17.3977C270.71 17.1307 270.329 16.9261 269.897 16.7841C269.471 16.642 269.008 16.571 268.508 16.571C267.605 16.571 266.818 16.7955 266.147 17.2443C265.477 17.6875 264.957 18.3352 264.588 19.1875C264.218 20.0341 264.034 21.0625 264.034 22.2727C264.034 23.517 264.218 24.5625 264.588 25.4091C264.963 26.2557 265.485 26.8949 266.156 27.3267C266.826 27.7585 267.602 27.9744 268.483 27.9744C268.977 27.9744 269.434 27.9091 269.855 27.7784C270.281 27.6477 270.659 27.4574 270.988 27.2074C271.318 26.9517 271.591 26.642 271.806 26.2784C272.028 25.9148 272.181 25.5 272.267 25.0341L276 25.0511C275.903 25.8523 275.662 26.625 275.275 27.3693C274.895 28.108 274.38 28.7699 273.733 29.3551C273.091 29.9347 272.324 30.3949 271.431 30.7358C270.545 31.071 269.542 31.2386 268.423 31.2386C266.866 31.2386 265.474 30.8864 264.247 30.1818C263.025 29.4773 262.059 28.4574 261.349 27.1222C260.645 25.7869 260.292 24.1705 260.292 22.2727C260.292 20.3693 260.65 18.75 261.366 17.4148C262.082 16.0795 263.054 15.0625 264.281 14.3636C265.508 13.6591 266.889 13.3068 268.423 13.3068C269.434 13.3068 270.372 13.4489 271.235 13.733C272.105 14.017 272.875 14.4318 273.545 14.9773C274.216 15.517 274.761 16.179 275.181 16.9631C275.608 17.7472 275.88 18.6449 276 19.6562ZM278.646 31V13.5455H282.336V21.2415H282.566L288.848 13.5455H293.271L286.794 21.3608L293.348 31H288.933L284.152 23.8239L282.336 26.0398V31H278.646ZM295.164 20.92H302.964V23.416H295.164V20.92ZM296.988 16.936H303.084V19.336H296.988V16.936ZM297.132 22.384H299.676V33.112H297.132V22.384ZM301.692 20.92H304.188V27.592C304.188 28.672 304.044 29.392 303.348 29.8C302.652 30.208 301.788 30.232 300.588 30.232C300.54 29.488 300.276 28.48 299.964 27.808C300.612 27.832 301.212 27.832 301.428 27.808C301.644 27.808 301.692 27.736 301.692 27.544V20.92ZM304.404 11.56H316.668V13.984H304.404V11.56ZM307.86 21.184V22.72H313.212V21.184H307.86ZM307.86 24.688V26.224H313.212V24.688H307.86ZM307.86 17.704V19.216H313.212V17.704H307.86ZM305.22 15.592H315.972V28.336H305.22V15.592ZM309.084 12.88L312.372 13.24C311.916 14.752 311.412 16.264 311.004 17.296L308.508 16.84C308.748 15.688 309.012 14.056 309.084 12.88ZM307.572 28.36L309.924 29.896C308.604 31.168 306.324 32.512 304.452 33.232C303.996 32.704 303.156 31.84 302.532 31.36C304.404 30.688 306.516 29.392 307.572 28.36ZM311.052 29.968L313.188 28.528C314.532 29.392 316.356 30.712 317.292 31.624L315.036 33.232C314.196 32.344 312.42 30.928 311.052 29.968ZM298.5 10.624H300.084V11.176H300.924V11.944C299.916 14.056 298.284 16.96 295.5 19.528C295.188 18.88 294.444 17.776 293.916 17.344C296.172 15.376 297.684 12.76 298.5 10.624ZM298.716 10.624H300.78C302.364 11.896 304.452 13.816 305.412 15.184L303.636 17.728C302.748 16.336 300.78 14.008 299.244 12.808H298.716V10.624ZM318.516 16.36H325.188V19.072H318.516V16.36ZM320.676 10.96H323.34V27.04H320.676V10.96ZM318.3 27.4C319.98 26.656 322.548 25.36 324.996 24.064L325.836 26.608C323.7 27.88 321.348 29.224 319.38 30.28L318.3 27.4ZM325.548 13.936H340.692V16.528H325.548V13.936ZM324.804 27.88C326.916 27.496 330.084 26.776 333.132 26.08L333.396 28.48C330.66 29.224 327.756 29.992 325.476 30.568L324.804 27.88ZM333.204 10.648H335.94C335.772 20.296 337.092 30.448 338.676 30.448C338.988 30.448 339.204 29.584 339.252 27.448C339.804 28.096 340.62 28.696 341.196 29.008C340.812 32.224 340.116 33.16 338.292 33.16C334.116 33.16 333.252 21.4 333.204 10.648ZM336.396 12.016L338.004 10.624C338.94 11.296 340.116 12.28 340.668 12.976L338.964 14.536C338.436 13.816 337.332 12.76 336.396 12.016ZM337.788 18.112L340.356 18.592C338.844 25 336.06 29.968 331.812 33.016C331.404 32.536 330.324 31.6 329.748 31.192C333.972 28.528 336.54 23.968 337.788 18.112ZM328.356 20.344V23.272H330.204V20.344H328.356ZM326.244 18.136H332.436V25.504H326.244V18.136Z" fill="black"/>
<path d="M24.7071 49.2929C24.3166 48.9024 23.6834 48.9024 23.2929 49.2929L16.9289 55.6569C16.5384 56.0474 16.5384 56.6805 16.9289 57.0711C17.3195 57.4616 17.9526 57.4616 18.3432 57.0711L24 51.4142L29.6569 57.0711C30.0474 57.4616 30.6806 57.4616 31.0711 57.0711C31.4616 56.6805 31.4616 56.0474 31.0711 55.6569L24.7071 49.2929ZM25 324L25 50L23 50L23 324L25 324Z" fill="black"/>
<path d="M10.56 11.896H22.8V13.576H10.56V11.896ZM9.504 30.736H23.016V32.416H9.504V30.736ZM12.24 25L13.8 24.64C14.4 26.248 14.952 28.36 15.12 29.728L13.464 30.16C13.344 28.768 12.816 26.632 12.24 25ZM19.224 24.496L21.048 24.904C20.424 26.728 19.704 28.96 19.08 30.304L17.568 29.896C18.168 28.504 18.888 26.128 19.224 24.496ZM13.224 17.824V22.048H20.04V17.824H13.224ZM11.52 16.216H21.792V23.656H11.52V16.216ZM5.448 14.92H7.176V19.648C7.176 23.632 6.456 29.2 2.112 32.848C1.896 32.464 1.224 31.792 0.888 31.576C4.968 28.144 5.448 23.296 5.448 19.624V14.92ZM3.264 13.984H10.344V15.64H3.264V13.984ZM1.032 20.488H10.632V22.168H1.032V20.488ZM6.648 23.608C7.416 24.328 10.152 27.472 10.776 28.24L9.6 29.728C8.784 28.432 6.504 25.624 5.568 24.592L6.648 23.608ZM3.456 10.96L5.184 11.272C4.608 14.392 3.624 17.416 2.328 19.408C1.992 19.144 1.2 18.712 0.768 18.544C2.088 16.696 2.976 13.84 3.456 10.96ZM35.904 12.496C33.816 15.16 29.736 18.304 25.536 20.344C25.32 19.912 24.84 19.24 24.456 18.856C28.728 16.912 32.88 13.624 34.872 10.792H36.72C39.408 14.008 43.752 17.032 47.616 18.568C47.184 19.024 46.752 19.648 46.44 20.176C42.672 18.424 38.256 15.304 35.904 12.496ZM31.176 17.032H41.016V18.664H31.176V17.032ZM27.984 20.824H34.704V29.056H27.984V27.448H33.048V22.408H27.984V20.824ZM36.768 20.8H43.896V22.408H38.472V32.968H36.768V20.8ZM43.32 20.8H45.072V28.336C45.072 29.224 44.88 29.752 44.184 30.016C43.512 30.304 42.384 30.328 40.56 30.328C40.512 29.824 40.248 29.128 40.032 28.672C41.376 28.72 42.528 28.72 42.888 28.696C43.224 28.672 43.32 28.6 43.32 28.288V20.8ZM27.24 20.824H28.872V31.096H27.24V20.824Z" fill="black"/>
<path d="M1.248 351.36H22.728V352.968H1.248V351.36ZM6.48 344.352H19.632V345.816H6.48V344.352ZM6.48 347.832H19.632V349.296H6.48V347.832ZM2.4 360.096C5.16 359.712 9.528 358.968 13.632 358.296L13.704 359.88C9.864 360.576 5.736 361.272 2.856 361.776L2.4 360.096ZM12.096 351.792C13.776 356.304 17.568 359.328 23.112 360.408C22.728 360.768 22.224 361.488 21.984 361.992C16.176 360.648 12.408 357.36 10.464 352.224L12.096 351.792ZM20.208 353.184L21.648 354.168C19.848 355.512 17.448 356.904 15.576 357.792L14.352 356.832C16.176 355.92 18.72 354.36 20.208 353.184ZM5.496 340.8H20.4V342.336H7.32V352.032H5.496V340.8ZM5.472 351.864H7.32V360.12L5.472 360.336V351.864ZM26.664 341.904H45.432V343.464H26.664V341.904ZM27.624 345.432H44.496V346.944H27.624V345.432ZM25.248 349.056H46.728V350.64H25.248V349.056ZM25.656 353.064H46.344V354.648H25.656V353.064ZM40.512 350.424H42.336V359.664C42.336 360.72 42.096 361.248 41.328 361.536C40.512 361.824 39.192 361.824 37.176 361.824C37.08 361.32 36.792 360.6 36.552 360.072C38.16 360.12 39.576 360.12 39.984 360.096C40.416 360.096 40.512 359.976 40.512 359.64V350.424ZM34.68 339.816L36.648 340.032C35.352 349.992 32.88 356.736 26.592 360.84C26.304 360.456 25.488 359.712 25.008 359.376C31.248 355.752 33.552 349.248 34.68 339.816ZM31.656 356.544L33.144 355.608C34.32 356.688 35.76 358.224 36.456 359.208L34.896 360.264C34.248 359.256 32.832 357.672 31.656 356.544Z" fill="black"/>
<path d="M716.253 186.455V189.352H705.773V186.455H716.253ZM708.646 205V184.305C708.646 183.146 708.9 182.184 709.407 181.42C709.914 180.647 710.586 180.071 711.423 179.693C712.26 179.307 713.17 179.114 714.152 179.114C714.876 179.114 715.496 179.174 716.011 179.295C716.527 179.407 716.909 179.512 717.158 179.609L716.313 182.531C716.144 182.482 715.927 182.426 715.661 182.362C715.396 182.289 715.074 182.253 714.695 182.253C713.818 182.253 713.19 182.47 712.812 182.905C712.442 183.339 712.256 183.967 712.256 184.788V205H708.646ZM719.978 205V186.455H723.467V189.401H723.66C723.998 188.402 724.594 187.618 725.447 187.046C726.308 186.467 727.282 186.177 728.369 186.177C728.594 186.177 728.86 186.185 729.166 186.201C729.48 186.217 729.725 186.237 729.902 186.261V189.714C729.757 189.674 729.5 189.63 729.13 189.582C728.759 189.525 728.389 189.497 728.019 189.497C727.166 189.497 726.405 189.678 725.737 190.04C725.077 190.395 724.554 190.89 724.167 191.526C723.781 192.153 723.588 192.87 723.588 193.675V205H719.978ZM740.355 205.374C738.528 205.374 736.954 204.984 735.634 204.203C734.322 203.414 733.308 202.308 732.592 200.883C731.883 199.45 731.529 197.772 731.529 195.848C731.529 193.948 731.883 192.274 732.592 190.825C733.308 189.376 734.306 188.246 735.586 187.433C736.874 186.62 738.379 186.213 740.102 186.213C741.148 186.213 742.162 186.386 743.144 186.732C744.126 187.078 745.008 187.622 745.789 188.362C746.569 189.103 747.185 190.065 747.636 191.248C748.087 192.423 748.312 193.852 748.312 195.534V196.814H733.57V194.109H744.774C744.774 193.16 744.581 192.318 744.195 191.586C743.808 190.845 743.265 190.262 742.565 189.835C741.873 189.409 741.06 189.195 740.126 189.195C739.112 189.195 738.226 189.445 737.47 189.944C736.721 190.435 736.142 191.079 735.731 191.876C735.329 192.665 735.127 193.522 735.127 194.447V196.56C735.127 197.8 735.345 198.854 735.779 199.724C736.222 200.593 736.838 201.257 737.627 201.716C738.415 202.167 739.337 202.392 740.392 202.392C741.076 202.392 741.7 202.295 742.263 202.102C742.826 201.901 743.313 201.603 743.724 201.209C744.134 200.814 744.448 200.327 744.666 199.748L748.083 200.364C747.809 201.37 747.318 202.251 746.61 203.008C745.909 203.756 745.028 204.34 743.965 204.759C742.911 205.169 741.708 205.374 740.355 205.374ZM760.31 205.374C758.483 205.374 756.91 204.984 755.589 204.203C754.277 203.414 753.263 202.308 752.547 200.883C751.839 199.45 751.484 197.772 751.484 195.848C751.484 193.948 751.839 192.274 752.547 190.825C753.263 189.376 754.261 188.246 755.541 187.433C756.829 186.62 758.334 186.213 760.057 186.213C761.103 186.213 762.117 186.386 763.099 186.732C764.081 187.078 764.963 187.622 765.744 188.362C766.524 189.103 767.14 190.065 767.591 191.248C768.042 192.423 768.267 193.852 768.267 195.534V196.814H753.525V194.109H764.729C764.729 193.16 764.536 192.318 764.15 191.586C763.763 190.845 763.22 190.262 762.52 189.835C761.828 189.409 761.015 189.195 760.081 189.195C759.067 189.195 758.181 189.445 757.425 189.944C756.676 190.435 756.097 191.079 755.686 191.876C755.284 192.665 755.082 193.522 755.082 194.447V196.56C755.082 197.8 755.3 198.854 755.734 199.724C756.177 200.593 756.793 201.257 757.582 201.716C758.371 202.167 759.292 202.392 760.347 202.392C761.031 202.392 761.655 202.295 762.218 202.102C762.781 201.901 763.268 201.603 763.679 201.209C764.089 200.814 764.403 200.327 764.621 199.748L768.038 200.364C767.764 201.37 767.273 202.251 766.565 203.008C765.864 203.756 764.983 204.34 763.92 204.759C762.866 205.169 761.663 205.374 760.31 205.374Z" fill="#FF0000"/>
</svg>
