<svg width="984" height="384" viewBox="0 0 984 384" fill="none" xmlns="http://www.w3.org/2000/svg">
<ellipse cx="751.5" cy="193" rx="232.5" ry="135" fill="#D9D9D9"/>
<rect x="588" y="208" width="265" height="49" fill="white"/>
<path d="M596.196 233.511V242H595.156V224.545H596.196V230.98H596.298C596.605 230.298 597.094 229.756 597.764 229.352C598.44 228.943 599.25 228.739 600.193 228.739C601.074 228.739 601.849 228.926 602.52 229.301C603.19 229.67 603.713 230.202 604.088 230.895C604.469 231.582 604.659 232.406 604.659 233.366V242H603.628V233.409C603.628 232.29 603.295 231.392 602.631 230.716C601.966 230.04 601.088 229.702 599.997 229.702C599.264 229.702 598.611 229.861 598.037 230.179C597.463 230.497 597.011 230.943 596.682 231.517C596.358 232.085 596.196 232.75 596.196 233.511ZM614.066 242.273C612.884 242.273 611.856 241.98 610.981 241.395C610.106 240.81 609.43 240.009 608.952 238.991C608.475 237.974 608.237 236.815 608.237 235.514C608.237 234.207 608.475 233.043 608.952 232.02C609.435 230.997 610.097 230.19 610.938 229.599C611.779 229.009 612.739 228.713 613.819 228.713C614.552 228.713 615.245 228.861 615.898 229.156C616.558 229.446 617.137 229.866 617.637 230.418C618.143 230.969 618.538 231.634 618.822 232.412C619.112 233.19 619.256 234.065 619.256 235.037V235.685H608.893V234.739H618.217C618.217 233.79 618.023 232.935 617.637 232.173C617.251 231.412 616.725 230.807 616.06 230.358C615.396 229.909 614.648 229.685 613.819 229.685C612.95 229.685 612.174 229.929 611.492 230.418C610.816 230.901 610.279 231.554 609.881 232.378C609.489 233.202 609.285 234.122 609.268 235.139V235.565C609.268 236.656 609.458 237.636 609.839 238.506C610.225 239.369 610.776 240.054 611.492 240.56C612.208 241.06 613.066 241.31 614.066 241.31C614.782 241.31 615.393 241.19 615.898 240.952C616.41 240.707 616.827 240.412 617.151 240.065C617.475 239.719 617.719 239.384 617.884 239.06L618.83 239.443C618.631 239.881 618.322 240.318 617.901 240.756C617.487 241.187 616.958 241.548 616.316 241.838C615.68 242.128 614.93 242.273 614.066 242.273ZM623.876 224.545V242H622.836V224.545H623.876ZM629.219 224.545V242H628.18V224.545H629.219ZM638.39 242.273C637.31 242.273 636.35 241.983 635.509 241.403C634.668 240.818 634.006 240.014 633.523 238.991C633.04 237.969 632.799 236.804 632.799 235.497C632.799 234.185 633.04 233.02 633.523 232.003C634.006 230.98 634.668 230.176 635.509 229.591C636.35 229.006 637.31 228.713 638.39 228.713C639.469 228.713 640.43 229.006 641.271 229.591C642.112 230.176 642.773 230.98 643.256 232.003C643.739 233.026 643.981 234.19 643.981 235.497C643.981 236.804 643.739 237.969 643.256 238.991C642.773 240.014 642.112 240.818 641.271 241.403C640.43 241.983 639.469 242.273 638.39 242.273ZM638.39 241.31C639.305 241.31 640.103 241.051 640.785 240.534C641.472 240.017 642.004 239.318 642.379 238.438C642.759 237.557 642.95 236.577 642.95 235.497C642.95 234.418 642.759 233.44 642.379 232.565C641.998 231.685 641.467 230.986 640.785 230.469C640.103 229.946 639.305 229.685 638.39 229.685C637.475 229.685 636.677 229.946 635.995 230.469C635.313 230.986 634.782 231.685 634.401 232.565C634.021 233.44 633.83 234.418 633.83 235.497C633.83 236.577 634.018 237.557 634.393 238.438C634.773 239.318 635.305 240.017 635.987 240.534C636.674 241.051 637.475 241.31 638.39 241.31ZM657.168 242L653.247 228.909H654.338L657.713 240.474H657.807L661.19 228.909H662.273L665.648 240.466H665.733L669.108 228.909H670.199L666.278 242H665.119L661.778 230.605H661.668L658.327 242H657.168ZM677.859 242.273C676.779 242.273 675.819 241.983 674.978 241.403C674.137 240.818 673.475 240.014 672.992 238.991C672.509 237.969 672.268 236.804 672.268 235.497C672.268 234.185 672.509 233.02 672.992 232.003C673.475 230.98 674.137 230.176 674.978 229.591C675.819 229.006 676.779 228.713 677.859 228.713C678.938 228.713 679.898 229.006 680.739 229.591C681.58 230.176 682.242 230.98 682.725 232.003C683.208 233.026 683.45 234.19 683.45 235.497C683.45 236.804 683.208 237.969 682.725 238.991C682.242 240.014 681.58 240.818 680.739 241.403C679.898 241.983 678.938 242.273 677.859 242.273ZM677.859 241.31C678.773 241.31 679.572 241.051 680.254 240.534C680.941 240.017 681.472 239.318 681.847 238.438C682.228 237.557 682.418 236.577 682.418 235.497C682.418 234.418 682.228 233.44 681.847 232.565C681.467 231.685 680.935 230.986 680.254 230.469C679.572 229.946 678.773 229.685 677.859 229.685C676.944 229.685 676.146 229.946 675.464 230.469C674.782 230.986 674.251 231.685 673.87 232.565C673.489 233.44 673.299 234.418 673.299 235.497C673.299 236.577 673.487 237.557 673.862 238.438C674.242 239.318 674.773 240.017 675.455 240.534C676.143 241.051 676.944 241.31 677.859 241.31ZM687.031 242V228.909H688.045V230.955H688.139C688.423 230.284 688.903 229.747 689.58 229.344C690.256 228.935 691.026 228.73 691.889 228.73C691.98 228.73 692.071 228.73 692.162 228.73C692.253 228.73 692.338 228.733 692.418 228.739V229.787C692.349 229.781 692.267 229.773 692.17 229.761C692.08 229.744 691.966 229.736 691.83 229.736C691.102 229.736 690.455 229.892 689.886 230.205C689.324 230.517 688.881 230.949 688.557 231.5C688.233 232.045 688.071 232.67 688.071 233.375V242H687.031ZM696.251 224.545V242H695.211V224.545H696.251ZM705.046 242.273C703.995 242.273 703.077 241.983 702.293 241.403C701.509 240.824 700.901 240.026 700.469 239.009C700.043 237.986 699.83 236.812 699.83 235.489C699.83 234.176 700.046 233.011 700.478 231.994C700.915 230.972 701.526 230.17 702.31 229.591C703.094 229.006 704.009 228.713 705.055 228.713C705.805 228.713 706.455 228.858 707.006 229.148C707.563 229.432 708.029 229.81 708.404 230.281C708.785 230.753 709.075 231.27 709.273 231.832H709.376V224.545H710.407V242H709.401V239.145H709.273C709.063 239.707 708.771 240.227 708.396 240.705C708.021 241.176 707.555 241.557 706.998 241.847C706.441 242.131 705.79 242.273 705.046 242.273ZM705.14 241.31C706.026 241.31 706.785 241.057 707.415 240.551C708.052 240.04 708.538 239.347 708.873 238.472C709.214 237.591 709.384 236.594 709.384 235.48C709.384 234.366 709.214 233.375 708.873 232.506C708.538 231.631 708.052 230.943 707.415 230.443C706.785 229.937 706.026 229.685 705.14 229.685C704.242 229.685 703.472 229.94 702.83 230.452C702.194 230.957 701.705 231.648 701.364 232.523C701.029 233.398 700.862 234.384 700.862 235.48C700.862 236.577 701.029 237.565 701.364 238.446C701.705 239.327 702.194 240.026 702.83 240.543C703.472 241.054 704.242 241.31 705.14 241.31Z" fill="black"/>
<path d="M689.47 103V85.5455H693.161V92.7472H700.652V85.5455H704.334V103H700.652V95.7898H693.161V103H689.47ZM707.376 103V85.5455H719.138V88.5881H711.067V92.7472H718.533V95.7898H711.067V99.9574H719.172V103H707.376ZM725.08 103H721.126L727.151 85.5455H731.907L737.924 103H733.969L729.597 89.5341H729.461L725.08 103ZM724.833 96.1392H734.174V99.0199H724.833V96.1392ZM740.025 103V85.5455H746.911C748.235 85.5455 749.363 85.7983 750.295 86.304C751.227 86.804 751.937 87.5 752.425 88.392C752.92 89.2784 753.167 90.3011 753.167 91.4602C753.167 92.6193 752.917 93.642 752.417 94.5284C751.917 95.4148 751.192 96.1051 750.244 96.5994C749.3 97.0937 748.158 97.3409 746.817 97.3409H742.428V94.3835H746.221C746.931 94.3835 747.516 94.2614 747.977 94.017C748.442 93.767 748.789 93.4233 749.016 92.9858C749.249 92.5426 749.366 92.0341 749.366 91.4602C749.366 90.8807 749.249 90.375 749.016 89.9432C748.789 89.5057 748.442 89.1676 747.977 88.929C747.511 88.6847 746.92 88.5625 746.204 88.5625H743.715V103H740.025ZM755.535 92.92H763.335V95.416H755.535V92.92ZM757.359 88.936H763.455V91.336H757.359V88.936ZM757.503 94.384H760.047V105.112H757.503V94.384ZM762.063 92.92H764.559V99.592C764.559 100.672 764.415 101.392 763.719 101.8C763.023 102.208 762.159 102.232 760.959 102.232C760.911 101.488 760.647 100.48 760.335 99.808C760.983 99.832 761.583 99.832 761.799 99.808C762.015 99.808 762.063 99.736 762.063 99.544V92.92ZM764.775 83.56H777.039V85.984H764.775V83.56ZM768.231 93.184V94.72H773.583V93.184H768.231ZM768.231 96.688V98.224H773.583V96.688H768.231ZM768.231 89.704V91.216H773.583V89.704H768.231ZM765.591 87.592H776.343V100.336H765.591V87.592ZM769.455 84.88L772.743 85.24C772.287 86.752 771.783 88.264 771.375 89.296L768.879 88.84C769.119 87.688 769.383 86.056 769.455 84.88ZM767.943 100.36L770.295 101.896C768.975 103.168 766.695 104.512 764.823 105.232C764.367 104.704 763.527 103.84 762.903 103.36C764.775 102.688 766.887 101.392 767.943 100.36ZM771.423 101.968L773.559 100.528C774.903 101.392 776.727 102.712 777.663 103.624L775.407 105.232C774.567 104.344 772.791 102.928 771.423 101.968ZM758.871 82.624H760.455V83.176H761.295V83.944C760.287 86.056 758.655 88.96 755.871 91.528C755.559 90.88 754.815 89.776 754.287 89.344C756.543 87.376 758.055 84.76 758.871 82.624ZM759.087 82.624H761.151C762.735 83.896 764.823 85.816 765.783 87.184L764.007 89.728C763.119 88.336 761.151 86.008 759.615 84.808H759.087V82.624ZM778.887 88.36H785.559V91.072H778.887V88.36ZM781.047 82.96H783.711V99.04H781.047V82.96ZM778.671 99.4C780.351 98.656 782.919 97.36 785.367 96.064L786.207 98.608C784.071 99.88 781.719 101.224 779.751 102.28L778.671 99.4ZM785.919 85.936H801.063V88.528H785.919V85.936ZM785.175 99.88C787.287 99.496 790.455 98.776 793.503 98.08L793.767 100.48C791.031 101.224 788.127 101.992 785.847 102.568L785.175 99.88ZM793.575 82.648H796.311C796.143 92.296 797.463 102.448 799.047 102.448C799.359 102.448 799.575 101.584 799.623 99.448C800.175 100.096 800.991 100.696 801.567 101.008C801.183 104.224 800.487 105.16 798.663 105.16C794.487 105.16 793.623 93.4 793.575 82.648ZM796.767 84.016L798.375 82.624C799.311 83.296 800.487 84.28 801.039 84.976L799.335 86.536C798.807 85.816 797.703 84.76 796.767 84.016ZM798.159 90.112L800.727 90.592C799.215 97 796.431 101.968 792.183 105.016C791.775 104.536 790.695 103.6 790.119 103.192C794.343 100.528 796.911 95.968 798.159 90.112ZM788.727 92.344V95.272H790.575V92.344H788.727ZM786.615 90.136H792.807V97.504H786.615V90.136Z" fill="black"/>
<rect x="188" y="1" width="181" height="383" fill="#D9D9D9"/>
<path d="M224.31 18.5653C224.242 17.8778 223.949 17.3437 223.432 16.9631C222.915 16.5824 222.213 16.392 221.327 16.392C220.725 16.392 220.216 16.4773 219.801 16.6477C219.387 16.8125 219.069 17.0426 218.847 17.3381C218.631 17.6335 218.523 17.9688 218.523 18.3438C218.512 18.6562 218.577 18.929 218.719 19.1619C218.867 19.3949 219.069 19.5966 219.324 19.767C219.58 19.9318 219.875 20.0767 220.211 20.2017C220.546 20.321 220.904 20.4233 221.284 20.5085L222.853 20.8835C223.614 21.054 224.313 21.2812 224.949 21.5653C225.586 21.8494 226.137 22.1989 226.603 22.6136C227.069 23.0284 227.429 23.517 227.685 24.0795C227.946 24.642 228.08 25.2869 228.086 26.0142C228.08 27.0824 227.807 28.0085 227.267 28.7926C226.733 29.571 225.961 30.1761 224.949 30.608C223.944 31.0341 222.73 31.2472 221.31 31.2472C219.901 31.2472 218.674 31.0312 217.628 30.5994C216.588 30.1676 215.776 29.5284 215.191 28.6818C214.611 27.8295 214.307 26.7756 214.279 25.5199H217.85C217.89 26.1051 218.057 26.5937 218.353 26.9858C218.654 27.3722 219.054 27.6648 219.554 27.8636C220.06 28.0568 220.631 28.1534 221.267 28.1534C221.892 28.1534 222.435 28.0625 222.895 27.8807C223.361 27.6989 223.722 27.446 223.978 27.1222C224.233 26.7983 224.361 26.4261 224.361 26.0057C224.361 25.6136 224.245 25.2841 224.012 25.017C223.784 24.75 223.449 24.5227 223.006 24.3352C222.569 24.1477 222.032 23.9773 221.395 23.8239L219.495 23.3466C218.023 22.9886 216.861 22.429 216.009 21.6676C215.157 20.9062 214.733 19.8807 214.739 18.5909C214.733 17.5341 215.015 16.6108 215.583 15.821C216.157 15.0312 216.944 14.4148 217.944 13.9716C218.944 13.5284 220.08 13.3068 221.353 13.3068C222.648 13.3068 223.779 13.5284 224.745 13.9716C225.716 14.4148 226.472 15.0312 227.012 15.821C227.551 16.6108 227.83 17.5256 227.847 18.5653H224.31ZM229.903 16.5881V13.5455H244.238V16.5881H238.895V31H235.247V16.5881H229.903ZM247.475 31H243.52L249.546 13.5455H254.301L260.319 31H256.364L251.992 17.5341H251.855L247.475 31ZM247.228 24.1392H256.569V27.0199H247.228V24.1392ZM277 19.6562H273.267C273.199 19.1733 273.059 18.7443 272.849 18.3693C272.639 17.9886 272.369 17.6648 272.039 17.3977C271.71 17.1307 271.329 16.9261 270.897 16.7841C270.471 16.642 270.008 16.571 269.508 16.571C268.605 16.571 267.818 16.7955 267.147 17.2443C266.477 17.6875 265.957 18.3352 265.588 19.1875C265.218 20.0341 265.034 21.0625 265.034 22.2727C265.034 23.517 265.218 24.5625 265.588 25.4091C265.963 26.2557 266.485 26.8949 267.156 27.3267C267.826 27.7585 268.602 27.9744 269.483 27.9744C269.977 27.9744 270.434 27.9091 270.855 27.7784C271.281 27.6477 271.659 27.4574 271.988 27.2074C272.318 26.9517 272.591 26.642 272.806 26.2784C273.028 25.9148 273.181 25.5 273.267 25.0341L277 25.0511C276.903 25.8523 276.662 26.625 276.275 27.3693C275.895 28.108 275.38 28.7699 274.733 29.3551C274.091 29.9347 273.324 30.3949 272.431 30.7358C271.545 31.071 270.542 31.2386 269.423 31.2386C267.866 31.2386 266.474 30.8864 265.247 30.1818C264.025 29.4773 263.059 28.4574 262.349 27.1222C261.645 25.7869 261.292 24.1705 261.292 22.2727C261.292 20.3693 261.65 18.75 262.366 17.4148C263.082 16.0795 264.054 15.0625 265.281 14.3636C266.508 13.6591 267.889 13.3068 269.423 13.3068C270.434 13.3068 271.372 13.4489 272.235 13.733C273.105 14.017 273.875 14.4318 274.545 14.9773C275.216 15.517 275.761 16.179 276.181 16.9631C276.608 17.7472 276.88 18.6449 277 19.6562ZM279.646 31V13.5455H283.336V21.2415H283.566L289.848 13.5455H294.271L287.794 21.3608L294.348 31H289.933L285.152 23.8239L283.336 26.0398V31H279.646ZM296.164 20.92H303.964V23.416H296.164V20.92ZM297.988 16.936H304.084V19.336H297.988V16.936ZM298.132 22.384H300.676V33.112H298.132V22.384ZM302.692 20.92H305.188V27.592C305.188 28.672 305.044 29.392 304.348 29.8C303.652 30.208 302.788 30.232 301.588 30.232C301.54 29.488 301.276 28.48 300.964 27.808C301.612 27.832 302.212 27.832 302.428 27.808C302.644 27.808 302.692 27.736 302.692 27.544V20.92ZM305.404 11.56H317.668V13.984H305.404V11.56ZM308.86 21.184V22.72H314.212V21.184H308.86ZM308.86 24.688V26.224H314.212V24.688H308.86ZM308.86 17.704V19.216H314.212V17.704H308.86ZM306.22 15.592H316.972V28.336H306.22V15.592ZM310.084 12.88L313.372 13.24C312.916 14.752 312.412 16.264 312.004 17.296L309.508 16.84C309.748 15.688 310.012 14.056 310.084 12.88ZM308.572 28.36L310.924 29.896C309.604 31.168 307.324 32.512 305.452 33.232C304.996 32.704 304.156 31.84 303.532 31.36C305.404 30.688 307.516 29.392 308.572 28.36ZM312.052 29.968L314.188 28.528C315.532 29.392 317.356 30.712 318.292 31.624L316.036 33.232C315.196 32.344 313.42 30.928 312.052 29.968ZM299.5 10.624H301.084V11.176H301.924V11.944C300.916 14.056 299.284 16.96 296.5 19.528C296.188 18.88 295.444 17.776 294.916 17.344C297.172 15.376 298.684 12.76 299.5 10.624ZM299.716 10.624H301.78C303.364 11.896 305.452 13.816 306.412 15.184L304.636 17.728C303.748 16.336 301.78 14.008 300.244 12.808H299.716V10.624ZM319.516 16.36H326.188V19.072H319.516V16.36ZM321.676 10.96H324.34V27.04H321.676V10.96ZM319.3 27.4C320.98 26.656 323.548 25.36 325.996 24.064L326.836 26.608C324.7 27.88 322.348 29.224 320.38 30.28L319.3 27.4ZM326.548 13.936H341.692V16.528H326.548V13.936ZM325.804 27.88C327.916 27.496 331.084 26.776 334.132 26.08L334.396 28.48C331.66 29.224 328.756 29.992 326.476 30.568L325.804 27.88ZM334.204 10.648H336.94C336.772 20.296 338.092 30.448 339.676 30.448C339.988 30.448 340.204 29.584 340.252 27.448C340.804 28.096 341.62 28.696 342.196 29.008C341.812 32.224 341.116 33.16 339.292 33.16C335.116 33.16 334.252 21.4 334.204 10.648ZM337.396 12.016L339.004 10.624C339.94 11.296 341.116 12.28 341.668 12.976L339.964 14.536C339.436 13.816 338.332 12.76 337.396 12.016ZM338.788 18.112L341.356 18.592C339.844 25 337.06 29.968 332.812 33.016C332.404 32.536 331.324 31.6 330.748 31.192C334.972 28.528 337.54 23.968 338.788 18.112ZM329.356 20.344V23.272H331.204V20.344H329.356ZM327.244 18.136H333.436V25.504H327.244V18.136Z" fill="black"/>
<rect x="198.5" y="228.5" width="160" height="56" fill="white" stroke="black"/>
<path d="M206.156 254.909V236.909H207.17V239.832H207.298C207.503 239.27 207.79 238.753 208.159 238.281C208.534 237.81 208.997 237.432 209.548 237.148C210.105 236.858 210.759 236.713 211.509 236.713C212.565 236.713 213.486 237.003 214.27 237.582C215.054 238.162 215.662 238.963 216.094 239.986C216.526 241.003 216.741 242.17 216.741 243.489C216.741 244.807 216.523 245.977 216.085 247C215.653 248.017 215.045 248.818 214.261 249.403C213.483 249.983 212.571 250.273 211.526 250.273C210.781 250.273 210.128 250.131 209.565 249.847C209.009 249.562 208.54 249.185 208.159 248.713C207.784 248.236 207.497 247.713 207.298 247.145H207.196V254.909H206.156ZM207.179 243.48C207.179 244.594 207.349 245.591 207.69 246.472C208.031 247.347 208.52 248.04 209.156 248.551C209.793 249.057 210.551 249.31 211.432 249.31C212.324 249.31 213.088 249.054 213.724 248.543C214.366 248.026 214.855 247.327 215.19 246.446C215.531 245.565 215.702 244.577 215.702 243.48C215.702 242.384 215.534 241.398 215.199 240.523C214.864 239.648 214.378 238.957 213.741 238.452C213.105 237.94 212.335 237.685 211.432 237.685C210.54 237.685 209.776 237.937 209.139 238.443C208.509 238.943 208.023 239.631 207.682 240.506C207.347 241.375 207.179 242.366 207.179 243.48ZM224.964 236.909V237.838H219.245V236.909H224.964ZM221.18 233.773H222.211V246.906C222.211 247.44 222.313 247.878 222.518 248.219C222.728 248.554 223.001 248.804 223.336 248.969C223.677 249.128 224.04 249.207 224.427 249.207C224.614 249.207 224.776 249.193 224.913 249.165C225.055 249.136 225.188 249.099 225.313 249.054L225.569 250C225.41 250.057 225.234 250.105 225.04 250.145C224.847 250.19 224.62 250.213 224.359 250.213C223.813 250.213 223.296 250.091 222.808 249.847C222.325 249.602 221.933 249.247 221.631 248.781C221.33 248.315 221.18 247.753 221.18 247.094V233.773ZM228.82 250V236.909H229.835V238.955H229.928C230.212 238.284 230.692 237.747 231.369 237.344C232.045 236.935 232.815 236.73 233.678 236.73C233.769 236.73 233.86 236.73 233.951 236.73C234.042 236.73 234.127 236.733 234.207 236.739V237.787C234.138 237.781 234.056 237.773 233.96 237.761C233.869 237.744 233.755 237.736 233.619 237.736C232.891 237.736 232.244 237.892 231.675 238.205C231.113 238.517 230.67 238.949 230.346 239.5C230.022 240.045 229.86 240.67 229.86 241.375V250H228.82ZM237.972 249.207C237.716 249.207 237.497 249.116 237.315 248.935C237.139 248.753 237.051 248.537 237.051 248.287C237.051 248.031 237.139 247.815 237.315 247.639C237.497 247.457 237.716 247.366 237.972 247.366C238.222 247.366 238.438 247.457 238.619 247.639C238.801 247.815 238.892 248.031 238.892 248.287C238.892 248.452 238.849 248.605 238.764 248.747C238.685 248.889 238.574 249.003 238.432 249.088C238.295 249.168 238.142 249.207 237.972 249.207ZM237.972 240.037C237.716 240.037 237.497 239.946 237.315 239.764C237.139 239.582 237.051 239.366 237.051 239.116C237.051 238.861 237.139 238.645 237.315 238.469C237.497 238.287 237.716 238.196 237.972 238.196C238.222 238.196 238.438 238.287 238.619 238.469C238.801 238.645 238.892 238.861 238.892 239.116C238.892 239.281 238.849 239.435 238.764 239.577C238.685 239.719 238.574 239.832 238.432 239.918C238.295 239.997 238.142 240.037 237.972 240.037Z" fill="black"/>
<path d="M207.196 262.545V280H206.156V262.545H207.196ZM216.605 280.273C215.423 280.273 214.395 279.98 213.52 279.395C212.645 278.81 211.969 278.009 211.491 276.991C211.014 275.974 210.776 274.815 210.776 273.514C210.776 272.207 211.014 271.043 211.491 270.02C211.974 268.997 212.636 268.19 213.477 267.599C214.318 267.009 215.278 266.713 216.358 266.713C217.091 266.713 217.784 266.861 218.438 267.156C219.097 267.446 219.676 267.866 220.176 268.418C220.682 268.969 221.077 269.634 221.361 270.412C221.651 271.19 221.795 272.065 221.795 273.037V273.685H211.432V272.739H220.756C220.756 271.79 220.563 270.935 220.176 270.173C219.79 269.412 219.264 268.807 218.599 268.358C217.935 267.909 217.188 267.685 216.358 267.685C215.489 267.685 214.713 267.929 214.031 268.418C213.355 268.901 212.818 269.554 212.42 270.378C212.028 271.202 211.824 272.122 211.807 273.139V273.565C211.807 274.656 211.997 275.636 212.378 276.506C212.764 277.369 213.315 278.054 214.031 278.56C214.747 279.06 215.605 279.31 216.605 279.31C217.321 279.31 217.932 279.19 218.438 278.952C218.949 278.707 219.366 278.412 219.69 278.065C220.014 277.719 220.259 277.384 220.423 277.06L221.369 277.443C221.17 277.881 220.861 278.318 220.44 278.756C220.026 279.187 219.497 279.548 218.855 279.838C218.219 280.128 217.469 280.273 216.605 280.273ZM226.415 271.511V280H225.375V266.909H226.389V268.98H226.491C226.798 268.304 227.29 267.761 227.966 267.352C228.642 266.943 229.446 266.739 230.378 266.739C231.259 266.739 232.031 266.926 232.696 267.301C233.366 267.676 233.889 268.21 234.264 268.903C234.645 269.591 234.835 270.412 234.835 271.366V280H233.795V271.409C233.795 270.295 233.463 269.401 232.798 268.724C232.139 268.043 231.267 267.702 230.182 267.702C229.455 267.702 228.807 267.861 228.239 268.179C227.67 268.497 227.224 268.943 226.901 269.517C226.577 270.085 226.415 270.75 226.415 271.511ZM240.128 279.207C239.872 279.207 239.653 279.116 239.472 278.935C239.295 278.753 239.207 278.537 239.207 278.287C239.207 278.031 239.295 277.815 239.472 277.639C239.653 277.457 239.872 277.366 240.128 277.366C240.378 277.366 240.594 277.457 240.776 277.639C240.957 277.815 241.048 278.031 241.048 278.287C241.048 278.452 241.006 278.605 240.92 278.747C240.841 278.889 240.73 279.003 240.588 279.088C240.452 279.168 240.298 279.207 240.128 279.207ZM240.128 270.037C239.872 270.037 239.653 269.946 239.472 269.764C239.295 269.582 239.207 269.366 239.207 269.116C239.207 268.861 239.295 268.645 239.472 268.469C239.653 268.287 239.872 268.196 240.128 268.196C240.378 268.196 240.594 268.287 240.776 268.469C240.957 268.645 241.048 268.861 241.048 269.116C241.048 269.281 241.006 269.435 240.92 269.577C240.841 269.719 240.73 269.832 240.588 269.918C240.452 269.997 240.298 270.037 240.128 270.037ZM256.724 262.545V280H255.658V263.67H255.556L251.636 266.27V265.128L255.522 262.545H256.724ZM266.966 262.545V280H265.901V263.67H265.798L261.878 266.27V265.128L265.764 262.545H266.966Z" fill="black"/>
<path d="M588.736 228.677C589.11 228.27 589.083 227.638 588.677 227.264L582.051 221.173C581.645 220.799 581.012 220.826 580.638 221.232C580.264 221.639 580.291 222.271 580.698 222.645L586.587 228.059L581.173 233.949C580.799 234.355 580.826 234.988 581.232 235.362C581.639 235.736 582.271 235.709 582.645 235.302L588.736 228.677ZM255.042 242.999L588.042 228.999L587.958 227.001L254.958 241.001L255.042 242.999Z" fill="black"/>
<rect x="198.5" y="285.5" width="160" height="87" fill="white" stroke="black"/>
<path d="M206.156 312.909V294.909H207.17V297.832H207.298C207.503 297.27 207.79 296.753 208.159 296.281C208.534 295.81 208.997 295.432 209.548 295.148C210.105 294.858 210.759 294.713 211.509 294.713C212.565 294.713 213.486 295.003 214.27 295.582C215.054 296.162 215.662 296.963 216.094 297.986C216.526 299.003 216.741 300.17 216.741 301.489C216.741 302.807 216.523 303.977 216.085 305C215.653 306.017 215.045 306.818 214.261 307.403C213.483 307.983 212.571 308.273 211.526 308.273C210.781 308.273 210.128 308.131 209.565 307.847C209.009 307.562 208.54 307.185 208.159 306.713C207.784 306.236 207.497 305.713 207.298 305.145H207.196V312.909H206.156ZM207.179 301.48C207.179 302.594 207.349 303.591 207.69 304.472C208.031 305.347 208.52 306.04 209.156 306.551C209.793 307.057 210.551 307.31 211.432 307.31C212.324 307.31 213.088 307.054 213.724 306.543C214.366 306.026 214.855 305.327 215.19 304.446C215.531 303.565 215.702 302.577 215.702 301.48C215.702 300.384 215.534 299.398 215.199 298.523C214.864 297.648 214.378 296.957 213.741 296.452C213.105 295.94 212.335 295.685 211.432 295.685C210.54 295.685 209.776 295.937 209.139 296.443C208.509 296.943 208.023 297.631 207.682 298.506C207.347 299.375 207.179 300.366 207.179 301.48ZM224.964 294.909V295.838H219.245V294.909H224.964ZM221.18 291.773H222.211V304.906C222.211 305.44 222.313 305.878 222.518 306.219C222.728 306.554 223.001 306.804 223.336 306.969C223.677 307.128 224.04 307.207 224.427 307.207C224.614 307.207 224.776 307.193 224.913 307.165C225.055 307.136 225.188 307.099 225.313 307.054L225.569 308C225.41 308.057 225.234 308.105 225.04 308.145C224.847 308.19 224.62 308.213 224.359 308.213C223.813 308.213 223.296 308.091 222.808 307.847C222.325 307.602 221.933 307.247 221.631 306.781C221.33 306.315 221.18 305.753 221.18 305.094V291.773ZM228.82 308V294.909H229.835V296.955H229.928C230.212 296.284 230.692 295.747 231.369 295.344C232.045 294.935 232.815 294.73 233.678 294.73C233.769 294.73 233.86 294.73 233.951 294.73C234.042 294.73 234.127 294.733 234.207 294.739V295.787C234.138 295.781 234.056 295.773 233.96 295.761C233.869 295.744 233.755 295.736 233.619 295.736C232.891 295.736 232.244 295.892 231.675 296.205C231.113 296.517 230.67 296.949 230.346 297.5C230.022 298.045 229.86 298.67 229.86 299.375V308H228.82ZM237.972 307.207C237.716 307.207 237.497 307.116 237.315 306.935C237.139 306.753 237.051 306.537 237.051 306.287C237.051 306.031 237.139 305.815 237.315 305.639C237.497 305.457 237.716 305.366 237.972 305.366C238.222 305.366 238.438 305.457 238.619 305.639C238.801 305.815 238.892 306.031 238.892 306.287C238.892 306.452 238.849 306.605 238.764 306.747C238.685 306.889 238.574 307.003 238.432 307.088C238.295 307.168 238.142 307.207 237.972 307.207ZM237.972 298.037C237.716 298.037 237.497 297.946 237.315 297.764C237.139 297.582 237.051 297.366 237.051 297.116C237.051 296.861 237.139 296.645 237.315 296.469C237.497 296.287 237.716 296.196 237.972 296.196C238.222 296.196 238.438 296.287 238.619 296.469C238.801 296.645 238.892 296.861 238.892 297.116C238.892 297.281 238.849 297.435 238.764 297.577C238.685 297.719 238.574 297.832 238.432 297.918C238.295 297.997 238.142 298.037 237.972 298.037Z" fill="black"/>
<path d="M207.196 319.545V337H206.156V319.545H207.196ZM216.605 337.273C215.423 337.273 214.395 336.98 213.52 336.395C212.645 335.81 211.969 335.009 211.491 333.991C211.014 332.974 210.776 331.815 210.776 330.514C210.776 329.207 211.014 328.043 211.491 327.02C211.974 325.997 212.636 325.19 213.477 324.599C214.318 324.009 215.278 323.713 216.358 323.713C217.091 323.713 217.784 323.861 218.438 324.156C219.097 324.446 219.676 324.866 220.176 325.418C220.682 325.969 221.077 326.634 221.361 327.412C221.651 328.19 221.795 329.065 221.795 330.037V330.685H211.432V329.739H220.756C220.756 328.79 220.563 327.935 220.176 327.173C219.79 326.412 219.264 325.807 218.599 325.358C217.935 324.909 217.188 324.685 216.358 324.685C215.489 324.685 214.713 324.929 214.031 325.418C213.355 325.901 212.818 326.554 212.42 327.378C212.028 328.202 211.824 329.122 211.807 330.139V330.565C211.807 331.656 211.997 332.636 212.378 333.506C212.764 334.369 213.315 335.054 214.031 335.56C214.747 336.06 215.605 336.31 216.605 336.31C217.321 336.31 217.932 336.19 218.438 335.952C218.949 335.707 219.366 335.412 219.69 335.065C220.014 334.719 220.259 334.384 220.423 334.06L221.369 334.443C221.17 334.881 220.861 335.318 220.44 335.756C220.026 336.187 219.497 336.548 218.855 336.838C218.219 337.128 217.469 337.273 216.605 337.273ZM226.415 328.511V337H225.375V323.909H226.389V325.98H226.491C226.798 325.304 227.29 324.761 227.966 324.352C228.642 323.943 229.446 323.739 230.378 323.739C231.259 323.739 232.031 323.926 232.696 324.301C233.366 324.676 233.889 325.21 234.264 325.903C234.645 326.591 234.835 327.412 234.835 328.366V337H233.795V328.409C233.795 327.295 233.463 326.401 232.798 325.724C232.139 325.043 231.267 324.702 230.182 324.702C229.455 324.702 228.807 324.861 228.239 325.179C227.67 325.497 227.224 325.943 226.901 326.517C226.577 327.085 226.415 327.75 226.415 328.511ZM240.128 336.207C239.872 336.207 239.653 336.116 239.472 335.935C239.295 335.753 239.207 335.537 239.207 335.287C239.207 335.031 239.295 334.815 239.472 334.639C239.653 334.457 239.872 334.366 240.128 334.366C240.378 334.366 240.594 334.457 240.776 334.639C240.957 334.815 241.048 335.031 241.048 335.287C241.048 335.452 241.006 335.605 240.92 335.747C240.841 335.889 240.73 336.003 240.588 336.088C240.452 336.168 240.298 336.207 240.128 336.207ZM240.128 327.037C239.872 327.037 239.653 326.946 239.472 326.764C239.295 326.582 239.207 326.366 239.207 326.116C239.207 325.861 239.295 325.645 239.472 325.469C239.653 325.287 239.872 325.196 240.128 325.196C240.378 325.196 240.594 325.287 240.776 325.469C240.957 325.645 241.048 325.861 241.048 326.116C241.048 326.281 241.006 326.435 240.92 326.577C240.841 326.719 240.73 326.832 240.588 326.918C240.452 326.997 240.298 327.037 240.128 327.037ZM256.724 319.545V337H255.658V320.67H255.556L251.636 323.27V322.128L255.522 319.545H256.724ZM266.966 319.545V337H265.901V320.67H265.798L261.878 323.27V322.128L265.764 319.545H266.966Z" fill="black"/>
<path d="M211.065 366.273C209.952 366.273 208.972 365.98 208.125 365.395C207.278 364.804 206.616 363.997 206.139 362.974C205.668 361.952 205.432 360.793 205.432 359.497C205.432 358.202 205.67 357.043 206.148 356.02C206.625 354.997 207.287 354.19 208.134 353.599C208.98 353.009 209.955 352.713 211.057 352.713C211.886 352.713 212.642 352.884 213.324 353.224C214.011 353.565 214.58 354.04 215.028 354.648C215.483 355.256 215.773 355.96 215.898 356.761H214.841C214.67 355.875 214.244 355.142 213.562 354.562C212.886 353.977 212.054 353.685 211.065 353.685C210.179 353.685 209.389 353.935 208.696 354.435C208.003 354.929 207.457 355.614 207.06 356.489C206.662 357.358 206.463 358.355 206.463 359.48C206.463 360.588 206.656 361.582 207.043 362.463C207.429 363.338 207.969 364.031 208.662 364.543C209.355 365.054 210.156 365.31 211.065 365.31C211.707 365.31 212.293 365.182 212.821 364.926C213.355 364.67 213.801 364.307 214.159 363.835C214.517 363.364 214.753 362.812 214.866 362.182H215.923C215.798 362.989 215.514 363.699 215.071 364.312C214.628 364.926 214.062 365.406 213.375 365.753C212.688 366.099 211.918 366.273 211.065 366.273ZM222.938 366.281C222.182 366.281 221.489 366.131 220.858 365.83C220.233 365.528 219.73 365.088 219.349 364.509C218.974 363.929 218.787 363.224 218.787 362.395C218.787 361.849 218.884 361.369 219.077 360.955C219.27 360.54 219.568 360.182 219.972 359.881C220.375 359.58 220.892 359.332 221.523 359.139C222.153 358.94 222.906 358.787 223.781 358.679C224.446 358.599 225.04 358.523 225.562 358.449C226.085 358.369 226.494 358.247 226.79 358.082C227.091 357.918 227.241 357.668 227.241 357.332V356.787C227.241 355.832 226.94 355.074 226.338 354.511C225.736 353.949 224.906 353.668 223.849 353.668C222.912 353.668 222.122 353.875 221.48 354.29C220.844 354.699 220.398 355.227 220.142 355.875L219.162 355.509C219.412 354.884 219.773 354.364 220.244 353.949C220.722 353.534 221.267 353.224 221.881 353.02C222.5 352.815 223.148 352.713 223.824 352.713C224.409 352.713 224.966 352.795 225.494 352.96C226.028 353.125 226.503 353.375 226.918 353.71C227.338 354.045 227.67 354.474 227.915 354.997C228.159 355.514 228.281 356.134 228.281 356.855V366H227.241V363.639H227.165C226.938 364.128 226.625 364.574 226.227 364.977C225.835 365.375 225.361 365.693 224.804 365.932C224.253 366.165 223.631 366.281 222.938 366.281ZM223.04 365.318C223.858 365.318 224.582 365.119 225.213 364.722C225.849 364.318 226.347 363.767 226.705 363.068C227.063 362.369 227.241 361.577 227.241 360.69V358.764C227.111 358.878 226.92 358.98 226.67 359.071C226.426 359.156 226.148 359.233 225.835 359.301C225.528 359.364 225.205 359.42 224.864 359.472C224.528 359.517 224.202 359.56 223.884 359.599C222.929 359.713 222.151 359.889 221.548 360.128C220.952 360.361 220.514 360.668 220.236 361.048C219.963 361.429 219.827 361.889 219.827 362.429C219.827 363.321 220.134 364.026 220.747 364.543C221.361 365.06 222.125 365.318 223.04 365.318ZM232.641 370.909V352.909H233.655V355.832H233.783C233.987 355.27 234.274 354.753 234.643 354.281C235.018 353.81 235.482 353.432 236.033 353.148C236.589 352.858 237.243 352.713 237.993 352.713C239.05 352.713 239.97 353.003 240.754 353.582C241.538 354.162 242.146 354.963 242.578 355.986C243.01 357.003 243.226 358.17 243.226 359.489C243.226 360.807 243.007 361.977 242.57 363C242.138 364.017 241.53 364.818 240.746 365.403C239.967 365.983 239.055 366.273 238.01 366.273C237.266 366.273 236.612 366.131 236.05 365.847C235.493 365.562 235.024 365.185 234.643 364.713C234.268 364.236 233.982 363.713 233.783 363.145H233.68V370.909H232.641ZM233.663 359.48C233.663 360.594 233.834 361.591 234.175 362.472C234.516 363.347 235.004 364.04 235.641 364.551C236.277 365.057 237.036 365.31 237.916 365.31C238.808 365.31 239.572 365.054 240.209 364.543C240.851 364.026 241.339 363.327 241.675 362.446C242.016 361.565 242.186 360.577 242.186 359.48C242.186 358.384 242.018 357.398 241.683 356.523C241.348 355.648 240.862 354.957 240.226 354.452C239.589 353.94 238.82 353.685 237.916 353.685C237.024 353.685 236.26 353.937 235.624 354.443C234.993 354.943 234.507 355.631 234.166 356.506C233.831 357.375 233.663 358.366 233.663 359.48ZM247.792 365.207C247.536 365.207 247.317 365.116 247.136 364.935C246.96 364.753 246.871 364.537 246.871 364.287C246.871 364.031 246.96 363.815 247.136 363.639C247.317 363.457 247.536 363.366 247.792 363.366C248.042 363.366 248.258 363.457 248.44 363.639C248.621 363.815 248.712 364.031 248.712 364.287C248.712 364.452 248.67 364.605 248.585 364.747C248.505 364.889 248.394 365.003 248.252 365.088C248.116 365.168 247.962 365.207 247.792 365.207ZM247.792 356.037C247.536 356.037 247.317 355.946 247.136 355.764C246.96 355.582 246.871 355.366 246.871 355.116C246.871 354.861 246.96 354.645 247.136 354.469C247.317 354.287 247.536 354.196 247.792 354.196C248.042 354.196 248.258 354.287 248.44 354.469C248.621 354.645 248.712 354.861 248.712 355.116C248.712 355.281 248.67 355.435 248.585 355.577C248.505 355.719 248.394 355.832 248.252 355.918C248.116 355.997 247.962 356.037 247.792 356.037ZM264.388 348.545V366H263.322V349.67H263.22L259.3 352.27V351.128L263.186 348.545H264.388ZM275.141 366.239C273.977 366.239 272.977 365.881 272.141 365.165C271.306 364.449 270.664 363.423 270.215 362.088C269.772 360.747 269.55 359.142 269.55 357.273C269.55 355.409 269.775 353.807 270.224 352.466C270.673 351.125 271.312 350.097 272.141 349.381C272.977 348.665 273.977 348.307 275.141 348.307C276.306 348.307 277.303 348.665 278.133 349.381C278.968 350.097 279.61 351.125 280.059 352.466C280.508 353.807 280.732 355.409 280.732 357.273C280.732 359.142 280.508 360.747 280.059 362.088C279.616 363.423 278.977 364.449 278.141 365.165C277.306 365.881 276.306 366.239 275.141 366.239ZM275.141 365.25C276.556 365.25 277.667 364.548 278.474 363.145C279.281 361.736 279.684 359.778 279.684 357.273C279.684 355.602 279.499 354.17 279.13 352.977C278.766 351.784 278.246 350.872 277.57 350.241C276.894 349.605 276.085 349.287 275.141 349.287C273.727 349.287 272.616 349.991 271.809 351.401C271.002 352.81 270.599 354.767 270.599 357.273C270.599 358.943 270.781 360.375 271.144 361.568C271.508 362.756 272.028 363.668 272.704 364.304C273.386 364.935 274.198 365.25 275.141 365.25ZM289.602 366.239C288.438 366.239 287.438 365.881 286.602 365.165C285.767 364.449 285.125 363.423 284.676 362.088C284.233 360.747 284.011 359.142 284.011 357.273C284.011 355.409 284.236 353.807 284.685 352.466C285.134 351.125 285.773 350.097 286.602 349.381C287.438 348.665 288.438 348.307 289.602 348.307C290.767 348.307 291.764 348.665 292.594 349.381C293.429 350.097 294.071 351.125 294.52 352.466C294.969 353.807 295.193 355.409 295.193 357.273C295.193 359.142 294.969 360.747 294.52 362.088C294.077 363.423 293.438 364.449 292.602 365.165C291.767 365.881 290.767 366.239 289.602 366.239ZM289.602 365.25C291.017 365.25 292.128 364.548 292.935 363.145C293.741 361.736 294.145 359.778 294.145 357.273C294.145 355.602 293.96 354.17 293.591 352.977C293.227 351.784 292.707 350.872 292.031 350.241C291.355 349.605 290.545 349.287 289.602 349.287C288.188 349.287 287.077 349.991 286.27 351.401C285.463 352.81 285.06 354.767 285.06 357.273C285.06 358.943 285.241 360.375 285.605 361.568C285.969 362.756 286.489 363.668 287.165 364.304C287.847 364.935 288.659 365.25 289.602 365.25Z" fill="black"/>
<path d="M588.816 243.578C589.135 243.127 589.028 242.503 588.578 242.184L581.231 236.985C580.78 236.666 580.156 236.772 579.837 237.223C579.518 237.674 579.625 238.298 580.076 238.617L586.606 243.239L581.985 249.769C581.666 250.22 581.772 250.844 582.223 251.163C582.674 251.482 583.298 251.375 583.617 250.924L588.816 243.578ZM255.169 300.986L588.169 243.986L587.831 242.014L254.831 299.014L255.169 300.986Z" fill="black"/>
<path d="M24.7071 53.2929C24.3166 52.9024 23.6834 52.9024 23.2929 53.2929L16.9289 59.6569C16.5384 60.0474 16.5384 60.6805 16.9289 61.0711C17.3195 61.4616 17.9526 61.4616 18.3432 61.0711L24 55.4142L29.6569 61.0711C30.0474 61.4616 30.6806 61.4616 31.0711 61.0711C31.4616 60.6805 31.4616 60.0474 31.0711 59.6569L24.7071 53.2929ZM25 328L25 54L23 54L23 328L25 328Z" fill="black"/>
<path d="M10.56 19.896H22.8V21.576H10.56V19.896ZM9.504 38.736H23.016V40.416H9.504V38.736ZM12.24 33L13.8 32.64C14.4 34.248 14.952 36.36 15.12 37.728L13.464 38.16C13.344 36.768 12.816 34.632 12.24 33ZM19.224 32.496L21.048 32.904C20.424 34.728 19.704 36.96 19.08 38.304L17.568 37.896C18.168 36.504 18.888 34.128 19.224 32.496ZM13.224 25.824V30.048H20.04V25.824H13.224ZM11.52 24.216H21.792V31.656H11.52V24.216ZM5.448 22.92H7.176V27.648C7.176 31.632 6.456 37.2 2.112 40.848C1.896 40.464 1.224 39.792 0.888 39.576C4.968 36.144 5.448 31.296 5.448 27.624V22.92ZM3.264 21.984H10.344V23.64H3.264V21.984ZM1.032 28.488H10.632V30.168H1.032V28.488ZM6.648 31.608C7.416 32.328 10.152 35.472 10.776 36.24L9.6 37.728C8.784 36.432 6.504 33.624 5.568 32.592L6.648 31.608ZM3.456 18.96L5.184 19.272C4.608 22.392 3.624 25.416 2.328 27.408C1.992 27.144 1.2 26.712 0.768 26.544C2.088 24.696 2.976 21.84 3.456 18.96ZM35.904 20.496C33.816 23.16 29.736 26.304 25.536 28.344C25.32 27.912 24.84 27.24 24.456 26.856C28.728 24.912 32.88 21.624 34.872 18.792H36.72C39.408 22.008 43.752 25.032 47.616 26.568C47.184 27.024 46.752 27.648 46.44 28.176C42.672 26.424 38.256 23.304 35.904 20.496ZM31.176 25.032H41.016V26.664H31.176V25.032ZM27.984 28.824H34.704V37.056H27.984V35.448H33.048V30.408H27.984V28.824ZM36.768 28.8H43.896V30.408H38.472V40.968H36.768V28.8ZM43.32 28.8H45.072V36.336C45.072 37.224 44.88 37.752 44.184 38.016C43.512 38.304 42.384 38.328 40.56 38.328C40.512 37.824 40.248 37.128 40.032 36.672C41.376 36.72 42.528 36.72 42.888 36.696C43.224 36.672 43.32 36.6 43.32 36.288V28.8ZM27.24 28.824H28.872V39.096H27.24V28.824Z" fill="black"/>
<path d="M1.248 355.36H22.728V356.968H1.248V355.36ZM6.48 348.352H19.632V349.816H6.48V348.352ZM6.48 351.832H19.632V353.296H6.48V351.832ZM2.4 364.096C5.16 363.712 9.528 362.968 13.632 362.296L13.704 363.88C9.864 364.576 5.736 365.272 2.856 365.776L2.4 364.096ZM12.096 355.792C13.776 360.304 17.568 363.328 23.112 364.408C22.728 364.768 22.224 365.488 21.984 365.992C16.176 364.648 12.408 361.36 10.464 356.224L12.096 355.792ZM20.208 357.184L21.648 358.168C19.848 359.512 17.448 360.904 15.576 361.792L14.352 360.832C16.176 359.92 18.72 358.36 20.208 357.184ZM5.496 344.8H20.4V346.336H7.32V356.032H5.496V344.8ZM5.472 355.864H7.32V364.12L5.472 364.336V355.864ZM26.664 345.904H45.432V347.464H26.664V345.904ZM27.624 349.432H44.496V350.944H27.624V349.432ZM25.248 353.056H46.728V354.64H25.248V353.056ZM25.656 357.064H46.344V358.648H25.656V357.064ZM40.512 354.424H42.336V363.664C42.336 364.72 42.096 365.248 41.328 365.536C40.512 365.824 39.192 365.824 37.176 365.824C37.08 365.32 36.792 364.6 36.552 364.072C38.16 364.12 39.576 364.12 39.984 364.096C40.416 364.096 40.512 363.976 40.512 363.64V354.424ZM34.68 343.816L36.648 344.032C35.352 353.992 32.88 360.736 26.592 364.84C26.304 364.456 25.488 363.712 25.008 363.376C31.248 359.752 33.552 353.248 34.68 343.816ZM31.656 360.544L33.144 359.608C34.32 360.688 35.76 362.224 36.456 363.208L34.896 364.264C34.248 363.256 32.832 361.672 31.656 360.544Z" fill="black"/>
<path d="M170.115 327.909L173.004 333.006L175.919 327.909H178.706L174.624 334.455L178.74 341H175.953L173.004 336.108L170.064 341H167.268L171.342 334.455L167.32 327.909H170.115Z" fill="black"/>
<path d="M176.013 256.909V258.955H168.616V256.909H176.013ZM170.644 270V255.392C170.644 254.574 170.823 253.895 171.181 253.355C171.539 252.81 172.013 252.403 172.604 252.136C173.195 251.864 173.837 251.727 174.531 251.727C175.042 251.727 175.479 251.77 175.843 251.855C176.207 251.935 176.477 252.009 176.653 252.077L176.056 254.139C175.937 254.105 175.783 254.065 175.596 254.02C175.408 253.969 175.181 253.943 174.914 253.943C174.295 253.943 173.852 254.097 173.585 254.403C173.323 254.71 173.192 255.153 173.192 255.733V270H170.644Z" fill="black"/>
<path d="M628 329V331H630V329H628ZM629.414 262.086C628.633 261.305 627.367 261.305 626.586 262.086L613.858 274.814C613.077 275.595 613.077 276.861 613.858 277.642C614.639 278.423 615.905 278.423 616.686 277.642L628 266.328L639.314 277.642C640.095 278.423 641.361 278.423 642.142 277.642C642.923 276.861 642.923 275.595 642.142 274.814L629.414 262.086ZM359 331H628V327H359V331ZM630 329V263.5H626V329H630Z" fill="#FF0000"/>
<path d="M494.464 348.184H504.808V349.84H494.464V348.184ZM506.512 355.024H516.16V356.752H506.512V355.024ZM511.72 356.152H513.496V368.944H511.72V356.152ZM505.816 349.216L508.072 349.816C508.048 349.984 507.928 350.08 507.592 350.128V355.624C507.592 359.512 507.088 365.008 503.488 368.872C503.224 368.488 502.576 367.888 502.144 367.672C505.48 364.12 505.816 359.296 505.816 355.624V349.216ZM495.352 352.336H497.056V358.816C497.056 361.888 496.768 366.136 494.92 368.968C494.632 368.632 493.888 368.08 493.504 367.864C495.184 365.272 495.352 361.576 495.352 358.816V352.336ZM514.096 347.128L515.68 348.496C513.304 349.648 509.824 350.632 506.824 351.328C506.728 350.92 506.44 350.272 506.2 349.864C509.056 349.192 512.296 348.16 514.096 347.128ZM496.336 352.336H504.208V359.824H496.336V358.192H502.456V353.992H496.336V352.336ZM518.512 349.96H539.536V351.664H518.512V349.96ZM524.368 358.528H535.648V360.088H524.368V358.528ZM523.096 354.448H535.36V356.056H524.872V368.92H523.096V354.448ZM534.952 354.448H536.704V366.688C536.704 367.744 536.488 368.296 535.672 368.584C534.904 368.872 533.56 368.872 531.496 368.872C531.424 368.368 531.16 367.624 530.896 367.12C532.504 367.192 533.968 367.168 534.4 367.168C534.808 367.144 534.952 367.024 534.952 366.664V354.448ZM526.36 346.84L528.184 347.272C526.552 352.552 523.672 357.88 519.088 361.096C518.848 360.688 518.296 360.064 517.936 359.704C522.232 356.752 525.064 351.664 526.36 346.84ZM524.368 362.584H535.648V364.144H524.368V362.584ZM552.952 349.264H563.272V350.824H552.952V349.264ZM553.672 360.328H563.176V361.6H553.672V360.328ZM553.696 363.472H563.2V364.72H553.696V363.472ZM553.528 366.664H564.04V368.08H553.528V366.664ZM550.312 353.344H564.016V354.928H550.312V353.344ZM558.664 354.952L560.488 355.336C559.936 356.368 559.336 357.448 558.856 358.168L557.344 357.832C557.824 357.016 558.376 355.792 558.664 354.952ZM557.536 358.048H559.168V367.312H557.536V358.048ZM554.248 357.16H563.632V358.528H554.248V368.896H552.568V358.384L553.72 357.16H554.248ZM553.336 346.744L555.016 347.128C554.296 349.432 553.12 351.712 551.848 353.2C551.536 352.936 550.816 352.48 550.384 352.288C551.68 350.896 552.736 348.832 553.336 346.744ZM555.928 349.888L557.608 350.296C556.144 355.144 553.624 359.32 550.48 362.008C550.24 361.672 549.592 361 549.208 360.688C552.304 358.264 554.656 354.376 555.928 349.888ZM542.224 352.048H550.024V353.752H542.224V352.048ZM545.608 346.84H547.264V368.896H545.608V346.84ZM545.56 353.056L546.664 353.44C545.92 357.232 544.336 361.96 542.656 364.36C542.464 363.904 542.032 363.208 541.744 362.824C543.328 360.664 544.888 356.488 545.56 353.056ZM547.096 354.328C547.648 354.952 549.736 357.736 550.192 358.408L549.208 359.752C548.632 358.624 546.928 355.96 546.28 355.072L547.096 354.328Z" fill="#FF0000"/>
<path d="M154.985 325.617L155.863 325.139L155.863 325.139L154.985 325.617ZM158.717 333.959C159.246 334.116 159.803 333.813 159.959 333.283L162.509 324.652C162.666 324.123 162.363 323.566 161.834 323.41C161.304 323.253 160.748 323.556 160.591 324.086L158.324 331.758L150.652 329.491C150.123 329.334 149.566 329.637 149.41 330.166C149.253 330.696 149.556 331.252 150.086 331.409L158.717 333.959ZM154.106 326.094L158.122 333.478L159.878 332.522L155.863 325.139L154.106 326.094ZM158.189 261.416C144.515 280.401 142.928 305.541 154.106 326.094L155.863 325.139C145.053 305.26 146.587 280.946 159.811 262.584L158.189 261.416Z" fill="#FF0000"/>
<path d="M102.784 279.84L104.728 280.392C103.648 282 102.304 283.848 101.224 285.048L99.76 284.496C100.792 283.248 102.088 281.256 102.784 279.84ZM108.544 281.712L109.936 280.848C112.12 282.216 114.784 284.304 116.08 285.792L114.568 286.776C113.344 285.312 110.752 283.152 108.544 281.712ZM96.16 284.016C100.408 283.944 107.224 283.8 113.56 283.608L113.488 285.12C107.344 285.36 100.744 285.576 96.376 285.672L96.16 284.016ZM95.248 287.64H116.776V289.2H95.248V287.64ZM106.696 290.352L108.112 291.048C106.312 292.416 103.456 293.568 101.032 294.24C100.792 293.904 100.36 293.424 99.976 293.136C102.28 292.56 105.16 291.48 106.696 290.352ZM109.192 293.136L110.632 293.832C108.304 295.752 104.416 297.168 100.864 297.984C100.648 297.6 100.24 297.024 99.856 296.688C103.24 296.016 107.128 294.72 109.192 293.136ZM112.312 295.848L113.872 296.592C110.944 299.64 105.448 301.272 99.352 302.064C99.16 301.608 98.824 300.984 98.488 300.576C104.32 299.928 109.672 298.464 112.312 295.848ZM103.768 284.832L105.544 285.288C103.624 289.992 100.072 293.304 95.752 295.344C95.512 295.008 94.84 294.288 94.432 293.952C98.728 292.176 102.112 289.08 103.768 284.832ZM109.816 287.976C111.352 290.4 114.424 292.704 117.304 293.808C116.896 294.144 116.368 294.816 116.104 295.224C113.152 293.904 110.032 291.336 108.304 288.576L109.816 287.976ZM120.208 280.896H121.912V295.848H120.208V280.896ZM121.12 280.896H127.216V294.648H121.12V292.992H125.536V282.504H121.12V280.896ZM121.096 286.704H126.4V288.312H121.096V286.704ZM128.248 280.848H139V282.456H128.248V280.848ZM138.424 280.848H140.152C140.152 280.848 140.152 281.304 140.128 281.544C139.888 285.024 139.672 286.464 139.144 287.016C138.784 287.4 138.352 287.52 137.728 287.568C137.176 287.616 136.12 287.616 135.016 287.568C134.968 287.112 134.8 286.488 134.56 286.056C135.592 286.152 136.576 286.176 136.96 286.176C137.32 286.176 137.536 286.128 137.704 285.96C138.064 285.6 138.256 284.376 138.424 281.088V280.848ZM132.424 281.352H134.224C133.792 284.856 132.616 287.16 128.488 288.408C128.32 288 127.864 287.376 127.48 287.064C131.152 286.056 132.112 284.184 132.424 281.352ZM130.672 290.256V293.904H137.68V290.256H130.672ZM128.968 288.744H139.456V295.416H128.968V288.744ZM126.16 297.024L127.816 296.832C128.128 298.392 128.392 300.384 128.416 301.584L126.64 301.848C126.64 300.624 126.448 298.584 126.16 297.024ZM131.296 296.952L132.976 296.64C133.624 298.128 134.272 300.144 134.512 301.392L132.736 301.776C132.52 300.552 131.92 298.488 131.296 296.952ZM136.192 296.808L137.8 296.16C138.952 297.72 140.344 299.856 140.944 301.2L139.216 301.968C138.664 300.624 137.32 298.416 136.192 296.808ZM122.176 296.328L123.88 296.808C123.04 298.608 121.84 300.672 120.736 302.04L119.008 301.296C120.112 300.072 121.36 298.08 122.176 296.328Z" fill="#FF0000"/>
<path d="M76 285H369V372H76V285Z" fill="#FF0000" fill-opacity="0.2"/>
<path d="M76 228H369V285H76V228Z" fill="#0500FF" fill-opacity="0.2"/>
</svg>
