<svg width="983" height="384" viewBox="0 0 983 384" fill="none" xmlns="http://www.w3.org/2000/svg">
<ellipse cx="750.5" cy="193" rx="232.5" ry="135" fill="#D9D9D9"/>
<rect x="615" y="159" width="265" height="49" fill="white"/>
<path d="M625.011 193L621.091 179.909H622.182L625.557 191.474H625.651L629.034 179.909H630.116L633.491 191.466H633.577L636.952 179.909H638.043L634.122 193H632.963L629.622 181.605H629.511L626.17 193H625.011ZM645.702 193.273C644.623 193.273 643.663 192.983 642.822 192.403C641.981 191.818 641.319 191.014 640.836 189.991C640.353 188.969 640.112 187.804 640.112 186.497C640.112 185.185 640.353 184.02 640.836 183.003C641.319 181.98 641.981 181.176 642.822 180.591C643.663 180.006 644.623 179.713 645.702 179.713C646.782 179.713 647.742 180.006 648.583 180.591C649.424 181.176 650.086 181.98 650.569 183.003C651.052 184.026 651.293 185.19 651.293 186.497C651.293 187.804 651.052 188.969 650.569 189.991C650.086 191.014 649.424 191.818 648.583 192.403C647.742 192.983 646.782 193.273 645.702 193.273ZM645.702 192.31C646.617 192.31 647.415 192.051 648.097 191.534C648.785 191.017 649.316 190.318 649.691 189.438C650.072 188.557 650.262 187.577 650.262 186.497C650.262 185.418 650.072 184.44 649.691 183.565C649.31 182.685 648.779 181.986 648.097 181.469C647.415 180.946 646.617 180.685 645.702 180.685C644.788 180.685 643.989 180.946 643.308 181.469C642.626 181.986 642.094 182.685 641.714 183.565C641.333 184.44 641.143 185.418 641.143 186.497C641.143 187.577 641.33 188.557 641.705 189.438C642.086 190.318 642.617 191.017 643.299 191.534C643.987 192.051 644.788 192.31 645.702 192.31ZM654.875 193V179.909H655.889V181.955H655.983C656.267 181.284 656.747 180.747 657.423 180.344C658.099 179.935 658.869 179.73 659.733 179.73C659.824 179.73 659.915 179.73 660.006 179.73C660.097 179.73 660.182 179.733 660.261 179.739V180.787C660.193 180.781 660.111 180.773 660.014 180.761C659.923 180.744 659.81 180.736 659.673 180.736C658.946 180.736 658.298 180.892 657.73 181.205C657.168 181.517 656.724 181.949 656.401 182.5C656.077 183.045 655.915 183.67 655.915 184.375V193H654.875ZM664.094 175.545V193H663.055V175.545H664.094ZM672.89 193.273C671.839 193.273 670.921 192.983 670.137 192.403C669.353 191.824 668.745 191.026 668.313 190.009C667.887 188.986 667.674 187.812 667.674 186.489C667.674 185.176 667.89 184.011 668.322 182.994C668.759 181.972 669.37 181.17 670.154 180.591C670.938 180.006 671.853 179.713 672.898 179.713C673.648 179.713 674.299 179.858 674.85 180.148C675.407 180.432 675.873 180.81 676.248 181.281C676.629 181.753 676.918 182.27 677.117 182.832H677.219V175.545H678.251V193H677.245V190.145H677.117C676.907 190.707 676.614 191.227 676.239 191.705C675.864 192.176 675.398 192.557 674.842 192.847C674.285 193.131 673.634 193.273 672.89 193.273ZM672.984 192.31C673.87 192.31 674.629 192.057 675.259 191.551C675.896 191.04 676.381 190.347 676.717 189.472C677.058 188.591 677.228 187.594 677.228 186.48C677.228 185.366 677.058 184.375 676.717 183.506C676.381 182.631 675.896 181.943 675.259 181.443C674.629 180.937 673.87 180.685 672.984 180.685C672.086 180.685 671.316 180.94 670.674 181.452C670.038 181.957 669.549 182.648 669.208 183.523C668.873 184.398 668.705 185.384 668.705 186.48C668.705 187.577 668.873 188.565 669.208 189.446C669.549 190.327 670.038 191.026 670.674 191.543C671.316 192.054 672.086 192.31 672.984 192.31Z" fill="black"/>
<rect x="656" y="232" width="265" height="49" fill="white"/>
<path d="M664.196 257.511V266H663.156V248.545H664.196V254.98H664.298C664.605 254.298 665.094 253.756 665.764 253.352C666.44 252.943 667.25 252.739 668.193 252.739C669.074 252.739 669.849 252.926 670.52 253.301C671.19 253.67 671.713 254.202 672.088 254.895C672.469 255.582 672.659 256.406 672.659 257.366V266H671.628V257.409C671.628 256.29 671.295 255.392 670.631 254.716C669.966 254.04 669.088 253.702 667.997 253.702C667.264 253.702 666.611 253.861 666.037 254.179C665.463 254.497 665.011 254.943 664.682 255.517C664.358 256.085 664.196 256.75 664.196 257.511ZM682.066 266.273C680.884 266.273 679.856 265.98 678.981 265.395C678.106 264.81 677.43 264.009 676.952 262.991C676.475 261.974 676.237 260.815 676.237 259.514C676.237 258.207 676.475 257.043 676.952 256.02C677.435 254.997 678.097 254.19 678.938 253.599C679.779 253.009 680.739 252.713 681.819 252.713C682.552 252.713 683.245 252.861 683.898 253.156C684.558 253.446 685.137 253.866 685.637 254.418C686.143 254.969 686.538 255.634 686.822 256.412C687.112 257.19 687.256 258.065 687.256 259.037V259.685H676.893V258.739H686.217C686.217 257.79 686.023 256.935 685.637 256.173C685.251 255.412 684.725 254.807 684.06 254.358C683.396 253.909 682.648 253.685 681.819 253.685C680.95 253.685 680.174 253.929 679.492 254.418C678.816 254.901 678.279 255.554 677.881 256.378C677.489 257.202 677.285 258.122 677.268 259.139V259.565C677.268 260.656 677.458 261.636 677.839 262.506C678.225 263.369 678.776 264.054 679.492 264.56C680.208 265.06 681.066 265.31 682.066 265.31C682.782 265.31 683.393 265.19 683.898 264.952C684.41 264.707 684.827 264.412 685.151 264.065C685.475 263.719 685.719 263.384 685.884 263.06L686.83 263.443C686.631 263.881 686.322 264.318 685.901 264.756C685.487 265.187 684.958 265.548 684.316 265.838C683.68 266.128 682.93 266.273 682.066 266.273ZM691.876 248.545V266H690.836V248.545H691.876ZM697.219 248.545V266H696.18V248.545H697.219ZM706.39 266.273C705.31 266.273 704.35 265.983 703.509 265.403C702.668 264.818 702.006 264.014 701.523 262.991C701.04 261.969 700.799 260.804 700.799 259.497C700.799 258.185 701.04 257.02 701.523 256.003C702.006 254.98 702.668 254.176 703.509 253.591C704.35 253.006 705.31 252.713 706.39 252.713C707.469 252.713 708.43 253.006 709.271 253.591C710.112 254.176 710.773 254.98 711.256 256.003C711.739 257.026 711.981 258.19 711.981 259.497C711.981 260.804 711.739 261.969 711.256 262.991C710.773 264.014 710.112 264.818 709.271 265.403C708.43 265.983 707.469 266.273 706.39 266.273ZM706.39 265.31C707.305 265.31 708.103 265.051 708.785 264.534C709.472 264.017 710.004 263.318 710.379 262.438C710.759 261.557 710.95 260.577 710.95 259.497C710.95 258.418 710.759 257.44 710.379 256.565C709.998 255.685 709.467 254.986 708.785 254.469C708.103 253.946 707.305 253.685 706.39 253.685C705.475 253.685 704.677 253.946 703.995 254.469C703.313 254.986 702.782 255.685 702.401 256.565C702.021 257.44 701.83 258.418 701.83 259.497C701.83 260.577 702.018 261.557 702.393 262.438C702.773 263.318 703.305 264.017 703.987 264.534C704.674 265.051 705.475 265.31 706.39 265.31Z" fill="black"/>
<path d="M688.47 103V85.5455H692.161V92.7472H699.652V85.5455H703.334V103H699.652V95.7898H692.161V103H688.47ZM706.376 103V85.5455H718.138V88.5881H710.067V92.7472H717.533V95.7898H710.067V99.9574H718.172V103H706.376ZM724.08 103H720.126L726.151 85.5455H730.907L736.924 103H732.969L728.597 89.5341H728.461L724.08 103ZM723.833 96.1392H733.174V99.0199H723.833V96.1392ZM739.025 103V85.5455H745.911C747.235 85.5455 748.363 85.7983 749.295 86.304C750.227 86.804 750.937 87.5 751.425 88.392C751.92 89.2784 752.167 90.3011 752.167 91.4602C752.167 92.6193 751.917 93.642 751.417 94.5284C750.917 95.4148 750.192 96.1051 749.244 96.5994C748.3 97.0937 747.158 97.3409 745.817 97.3409H741.428V94.3835H745.221C745.931 94.3835 746.516 94.2614 746.977 94.017C747.442 93.767 747.789 93.4233 748.016 92.9858C748.249 92.5426 748.366 92.0341 748.366 91.4602C748.366 90.8807 748.249 90.375 748.016 89.9432C747.789 89.5057 747.442 89.1676 746.977 88.929C746.511 88.6847 745.92 88.5625 745.204 88.5625H742.715V103H739.025ZM754.535 92.92H762.335V95.416H754.535V92.92ZM756.359 88.936H762.455V91.336H756.359V88.936ZM756.503 94.384H759.047V105.112H756.503V94.384ZM761.063 92.92H763.559V99.592C763.559 100.672 763.415 101.392 762.719 101.8C762.023 102.208 761.159 102.232 759.959 102.232C759.911 101.488 759.647 100.48 759.335 99.808C759.983 99.832 760.583 99.832 760.799 99.808C761.015 99.808 761.063 99.736 761.063 99.544V92.92ZM763.775 83.56H776.039V85.984H763.775V83.56ZM767.231 93.184V94.72H772.583V93.184H767.231ZM767.231 96.688V98.224H772.583V96.688H767.231ZM767.231 89.704V91.216H772.583V89.704H767.231ZM764.591 87.592H775.343V100.336H764.591V87.592ZM768.455 84.88L771.743 85.24C771.287 86.752 770.783 88.264 770.375 89.296L767.879 88.84C768.119 87.688 768.383 86.056 768.455 84.88ZM766.943 100.36L769.295 101.896C767.975 103.168 765.695 104.512 763.823 105.232C763.367 104.704 762.527 103.84 761.903 103.36C763.775 102.688 765.887 101.392 766.943 100.36ZM770.423 101.968L772.559 100.528C773.903 101.392 775.727 102.712 776.663 103.624L774.407 105.232C773.567 104.344 771.791 102.928 770.423 101.968ZM757.871 82.624H759.455V83.176H760.295V83.944C759.287 86.056 757.655 88.96 754.871 91.528C754.559 90.88 753.815 89.776 753.287 89.344C755.543 87.376 757.055 84.76 757.871 82.624ZM758.087 82.624H760.151C761.735 83.896 763.823 85.816 764.783 87.184L763.007 89.728C762.119 88.336 760.151 86.008 758.615 84.808H758.087V82.624ZM777.887 88.36H784.559V91.072H777.887V88.36ZM780.047 82.96H782.711V99.04H780.047V82.96ZM777.671 99.4C779.351 98.656 781.919 97.36 784.367 96.064L785.207 98.608C783.071 99.88 780.719 101.224 778.751 102.28L777.671 99.4ZM784.919 85.936H800.063V88.528H784.919V85.936ZM784.175 99.88C786.287 99.496 789.455 98.776 792.503 98.08L792.767 100.48C790.031 101.224 787.127 101.992 784.847 102.568L784.175 99.88ZM792.575 82.648H795.311C795.143 92.296 796.463 102.448 798.047 102.448C798.359 102.448 798.575 101.584 798.623 99.448C799.175 100.096 799.991 100.696 800.567 101.008C800.183 104.224 799.487 105.16 797.663 105.16C793.487 105.16 792.623 93.4 792.575 82.648ZM795.767 84.016L797.375 82.624C798.311 83.296 799.487 84.28 800.039 84.976L798.335 86.536C797.807 85.816 796.703 84.76 795.767 84.016ZM797.159 90.112L799.727 90.592C798.215 97 795.431 101.968 791.183 105.016C790.775 104.536 789.695 103.6 789.119 103.192C793.343 100.528 795.911 95.968 797.159 90.112ZM787.727 92.344V95.272H789.575V92.344H787.727ZM785.615 90.136H791.807V97.504H785.615V90.136Z" fill="black"/>
<rect x="187" y="1" width="181" height="383" fill="#D9D9D9"/>
<path d="M223.31 18.5653C223.242 17.8778 222.949 17.3437 222.432 16.9631C221.915 16.5824 221.213 16.392 220.327 16.392C219.725 16.392 219.216 16.4773 218.801 16.6477C218.387 16.8125 218.069 17.0426 217.847 17.3381C217.631 17.6335 217.523 17.9688 217.523 18.3438C217.512 18.6562 217.577 18.929 217.719 19.1619C217.867 19.3949 218.069 19.5966 218.324 19.767C218.58 19.9318 218.875 20.0767 219.211 20.2017C219.546 20.321 219.904 20.4233 220.284 20.5085L221.853 20.8835C222.614 21.054 223.313 21.2812 223.949 21.5653C224.586 21.8494 225.137 22.1989 225.603 22.6136C226.069 23.0284 226.429 23.517 226.685 24.0795C226.946 24.642 227.08 25.2869 227.086 26.0142C227.08 27.0824 226.807 28.0085 226.267 28.7926C225.733 29.571 224.961 30.1761 223.949 30.608C222.944 31.0341 221.73 31.2472 220.31 31.2472C218.901 31.2472 217.674 31.0312 216.628 30.5994C215.588 30.1676 214.776 29.5284 214.191 28.6818C213.611 27.8295 213.307 26.7756 213.279 25.5199H216.85C216.89 26.1051 217.057 26.5937 217.353 26.9858C217.654 27.3722 218.054 27.6648 218.554 27.8636C219.06 28.0568 219.631 28.1534 220.267 28.1534C220.892 28.1534 221.435 28.0625 221.895 27.8807C222.361 27.6989 222.722 27.446 222.978 27.1222C223.233 26.7983 223.361 26.4261 223.361 26.0057C223.361 25.6136 223.245 25.2841 223.012 25.017C222.784 24.75 222.449 24.5227 222.006 24.3352C221.569 24.1477 221.032 23.9773 220.395 23.8239L218.495 23.3466C217.023 22.9886 215.861 22.429 215.009 21.6676C214.157 20.9062 213.733 19.8807 213.739 18.5909C213.733 17.5341 214.015 16.6108 214.583 15.821C215.157 15.0312 215.944 14.4148 216.944 13.9716C217.944 13.5284 219.08 13.3068 220.353 13.3068C221.648 13.3068 222.779 13.5284 223.745 13.9716C224.716 14.4148 225.472 15.0312 226.012 15.821C226.551 16.6108 226.83 17.5256 226.847 18.5653H223.31ZM228.903 16.5881V13.5455H243.238V16.5881H237.895V31H234.247V16.5881H228.903ZM246.475 31H242.52L248.546 13.5455H253.301L259.319 31H255.364L250.992 17.5341H250.855L246.475 31ZM246.228 24.1392H255.569V27.0199H246.228V24.1392ZM276 19.6562H272.267C272.199 19.1733 272.059 18.7443 271.849 18.3693C271.639 17.9886 271.369 17.6648 271.039 17.3977C270.71 17.1307 270.329 16.9261 269.897 16.7841C269.471 16.642 269.008 16.571 268.508 16.571C267.605 16.571 266.818 16.7955 266.147 17.2443C265.477 17.6875 264.957 18.3352 264.588 19.1875C264.218 20.0341 264.034 21.0625 264.034 22.2727C264.034 23.517 264.218 24.5625 264.588 25.4091C264.963 26.2557 265.485 26.8949 266.156 27.3267C266.826 27.7585 267.602 27.9744 268.483 27.9744C268.977 27.9744 269.434 27.9091 269.855 27.7784C270.281 27.6477 270.659 27.4574 270.988 27.2074C271.318 26.9517 271.591 26.642 271.806 26.2784C272.028 25.9148 272.181 25.5 272.267 25.0341L276 25.0511C275.903 25.8523 275.662 26.625 275.275 27.3693C274.895 28.108 274.38 28.7699 273.733 29.3551C273.091 29.9347 272.324 30.3949 271.431 30.7358C270.545 31.071 269.542 31.2386 268.423 31.2386C266.866 31.2386 265.474 30.8864 264.247 30.1818C263.025 29.4773 262.059 28.4574 261.349 27.1222C260.645 25.7869 260.292 24.1705 260.292 22.2727C260.292 20.3693 260.65 18.75 261.366 17.4148C262.082 16.0795 263.054 15.0625 264.281 14.3636C265.508 13.6591 266.889 13.3068 268.423 13.3068C269.434 13.3068 270.372 13.4489 271.235 13.733C272.105 14.017 272.875 14.4318 273.545 14.9773C274.216 15.517 274.761 16.179 275.181 16.9631C275.608 17.7472 275.88 18.6449 276 19.6562ZM278.646 31V13.5455H282.336V21.2415H282.566L288.848 13.5455H293.271L286.794 21.3608L293.348 31H288.933L284.152 23.8239L282.336 26.0398V31H278.646ZM295.164 20.92H302.964V23.416H295.164V20.92ZM296.988 16.936H303.084V19.336H296.988V16.936ZM297.132 22.384H299.676V33.112H297.132V22.384ZM301.692 20.92H304.188V27.592C304.188 28.672 304.044 29.392 303.348 29.8C302.652 30.208 301.788 30.232 300.588 30.232C300.54 29.488 300.276 28.48 299.964 27.808C300.612 27.832 301.212 27.832 301.428 27.808C301.644 27.808 301.692 27.736 301.692 27.544V20.92ZM304.404 11.56H316.668V13.984H304.404V11.56ZM307.86 21.184V22.72H313.212V21.184H307.86ZM307.86 24.688V26.224H313.212V24.688H307.86ZM307.86 17.704V19.216H313.212V17.704H307.86ZM305.22 15.592H315.972V28.336H305.22V15.592ZM309.084 12.88L312.372 13.24C311.916 14.752 311.412 16.264 311.004 17.296L308.508 16.84C308.748 15.688 309.012 14.056 309.084 12.88ZM307.572 28.36L309.924 29.896C308.604 31.168 306.324 32.512 304.452 33.232C303.996 32.704 303.156 31.84 302.532 31.36C304.404 30.688 306.516 29.392 307.572 28.36ZM311.052 29.968L313.188 28.528C314.532 29.392 316.356 30.712 317.292 31.624L315.036 33.232C314.196 32.344 312.42 30.928 311.052 29.968ZM298.5 10.624H300.084V11.176H300.924V11.944C299.916 14.056 298.284 16.96 295.5 19.528C295.188 18.88 294.444 17.776 293.916 17.344C296.172 15.376 297.684 12.76 298.5 10.624ZM298.716 10.624H300.78C302.364 11.896 304.452 13.816 305.412 15.184L303.636 17.728C302.748 16.336 300.78 14.008 299.244 12.808H298.716V10.624ZM318.516 16.36H325.188V19.072H318.516V16.36ZM320.676 10.96H323.34V27.04H320.676V10.96ZM318.3 27.4C319.98 26.656 322.548 25.36 324.996 24.064L325.836 26.608C323.7 27.88 321.348 29.224 319.38 30.28L318.3 27.4ZM325.548 13.936H340.692V16.528H325.548V13.936ZM324.804 27.88C326.916 27.496 330.084 26.776 333.132 26.08L333.396 28.48C330.66 29.224 327.756 29.992 325.476 30.568L324.804 27.88ZM333.204 10.648H335.94C335.772 20.296 337.092 30.448 338.676 30.448C338.988 30.448 339.204 29.584 339.252 27.448C339.804 28.096 340.62 28.696 341.196 29.008C340.812 32.224 340.116 33.16 338.292 33.16C334.116 33.16 333.252 21.4 333.204 10.648ZM336.396 12.016L338.004 10.624C338.94 11.296 340.116 12.28 340.668 12.976L338.964 14.536C338.436 13.816 337.332 12.76 336.396 12.016ZM337.788 18.112L340.356 18.592C338.844 25 336.06 29.968 331.812 33.016C331.404 32.536 330.324 31.6 329.748 31.192C333.972 28.528 336.54 23.968 337.788 18.112ZM328.356 20.344V23.272H330.204V20.344H328.356ZM326.244 18.136H332.436V25.504H326.244V18.136Z" fill="black"/>
<rect x="197.5" y="197.5" width="160" height="87" fill="white" stroke="black"/>
<path d="M205.156 224.909V206.909H206.17V209.832H206.298C206.503 209.27 206.79 208.753 207.159 208.281C207.534 207.81 207.997 207.432 208.548 207.148C209.105 206.858 209.759 206.713 210.509 206.713C211.565 206.713 212.486 207.003 213.27 207.582C214.054 208.162 214.662 208.963 215.094 209.986C215.526 211.003 215.741 212.17 215.741 213.489C215.741 214.807 215.523 215.977 215.085 217C214.653 218.017 214.045 218.818 213.261 219.403C212.483 219.983 211.571 220.273 210.526 220.273C209.781 220.273 209.128 220.131 208.565 219.847C208.009 219.562 207.54 219.185 207.159 218.713C206.784 218.236 206.497 217.713 206.298 217.145H206.196V224.909H205.156ZM206.179 213.48C206.179 214.594 206.349 215.591 206.69 216.472C207.031 217.347 207.52 218.04 208.156 218.551C208.793 219.057 209.551 219.31 210.432 219.31C211.324 219.31 212.088 219.054 212.724 218.543C213.366 218.026 213.855 217.327 214.19 216.446C214.531 215.565 214.702 214.577 214.702 213.48C214.702 212.384 214.534 211.398 214.199 210.523C213.864 209.648 213.378 208.957 212.741 208.452C212.105 207.94 211.335 207.685 210.432 207.685C209.54 207.685 208.776 207.937 208.139 208.443C207.509 208.943 207.023 209.631 206.682 210.506C206.347 211.375 206.179 212.366 206.179 213.48ZM223.964 206.909V207.838H218.245V206.909H223.964ZM220.18 203.773H221.211V216.906C221.211 217.44 221.313 217.878 221.518 218.219C221.728 218.554 222.001 218.804 222.336 218.969C222.677 219.128 223.04 219.207 223.427 219.207C223.614 219.207 223.776 219.193 223.913 219.165C224.055 219.136 224.188 219.099 224.313 219.054L224.569 220C224.41 220.057 224.234 220.105 224.04 220.145C223.847 220.19 223.62 220.213 223.359 220.213C222.813 220.213 222.296 220.091 221.808 219.847C221.325 219.602 220.933 219.247 220.631 218.781C220.33 218.315 220.18 217.753 220.18 217.094V203.773ZM227.82 220V206.909H228.835V208.955H228.928C229.212 208.284 229.692 207.747 230.369 207.344C231.045 206.935 231.815 206.73 232.678 206.73C232.769 206.73 232.86 206.73 232.951 206.73C233.042 206.73 233.127 206.733 233.207 206.739V207.787C233.138 207.781 233.056 207.773 232.96 207.761C232.869 207.744 232.755 207.736 232.619 207.736C231.891 207.736 231.244 207.892 230.675 208.205C230.113 208.517 229.67 208.949 229.346 209.5C229.022 210.045 228.86 210.67 228.86 211.375V220H227.82ZM236.972 219.207C236.716 219.207 236.497 219.116 236.315 218.935C236.139 218.753 236.051 218.537 236.051 218.287C236.051 218.031 236.139 217.815 236.315 217.639C236.497 217.457 236.716 217.366 236.972 217.366C237.222 217.366 237.438 217.457 237.619 217.639C237.801 217.815 237.892 218.031 237.892 218.287C237.892 218.452 237.849 218.605 237.764 218.747C237.685 218.889 237.574 219.003 237.432 219.088C237.295 219.168 237.142 219.207 236.972 219.207ZM236.972 210.037C236.716 210.037 236.497 209.946 236.315 209.764C236.139 209.582 236.051 209.366 236.051 209.116C236.051 208.861 236.139 208.645 236.315 208.469C236.497 208.287 236.716 208.196 236.972 208.196C237.222 208.196 237.438 208.287 237.619 208.469C237.801 208.645 237.892 208.861 237.892 209.116C237.892 209.281 237.849 209.435 237.764 209.577C237.685 209.719 237.574 209.832 237.432 209.918C237.295 209.997 237.142 210.037 236.972 210.037Z" fill="black"/>
<path d="M206.196 231.545V249H205.156V231.545H206.196ZM215.605 249.273C214.423 249.273 213.395 248.98 212.52 248.395C211.645 247.81 210.969 247.009 210.491 245.991C210.014 244.974 209.776 243.815 209.776 242.514C209.776 241.207 210.014 240.043 210.491 239.02C210.974 237.997 211.636 237.19 212.477 236.599C213.318 236.009 214.278 235.713 215.358 235.713C216.091 235.713 216.784 235.861 217.438 236.156C218.097 236.446 218.676 236.866 219.176 237.418C219.682 237.969 220.077 238.634 220.361 239.412C220.651 240.19 220.795 241.065 220.795 242.037V242.685H210.432V241.739H219.756C219.756 240.79 219.563 239.935 219.176 239.173C218.79 238.412 218.264 237.807 217.599 237.358C216.935 236.909 216.188 236.685 215.358 236.685C214.489 236.685 213.713 236.929 213.031 237.418C212.355 237.901 211.818 238.554 211.42 239.378C211.028 240.202 210.824 241.122 210.807 242.139V242.565C210.807 243.656 210.997 244.636 211.378 245.506C211.764 246.369 212.315 247.054 213.031 247.56C213.747 248.06 214.605 248.31 215.605 248.31C216.321 248.31 216.932 248.19 217.438 247.952C217.949 247.707 218.366 247.412 218.69 247.065C219.014 246.719 219.259 246.384 219.423 246.06L220.369 246.443C220.17 246.881 219.861 247.318 219.44 247.756C219.026 248.187 218.497 248.548 217.855 248.838C217.219 249.128 216.469 249.273 215.605 249.273ZM225.415 240.511V249H224.375V235.909H225.389V237.98H225.491C225.798 237.304 226.29 236.761 226.966 236.352C227.642 235.943 228.446 235.739 229.378 235.739C230.259 235.739 231.031 235.926 231.696 236.301C232.366 236.676 232.889 237.21 233.264 237.903C233.645 238.591 233.835 239.412 233.835 240.366V249H232.795V240.409C232.795 239.295 232.463 238.401 231.798 237.724C231.139 237.043 230.267 236.702 229.182 236.702C228.455 236.702 227.807 236.861 227.239 237.179C226.67 237.497 226.224 237.943 225.901 238.517C225.577 239.085 225.415 239.75 225.415 240.511ZM239.128 248.207C238.872 248.207 238.653 248.116 238.472 247.935C238.295 247.753 238.207 247.537 238.207 247.287C238.207 247.031 238.295 246.815 238.472 246.639C238.653 246.457 238.872 246.366 239.128 246.366C239.378 246.366 239.594 246.457 239.776 246.639C239.957 246.815 240.048 247.031 240.048 247.287C240.048 247.452 240.006 247.605 239.92 247.747C239.841 247.889 239.73 248.003 239.588 248.088C239.452 248.168 239.298 248.207 239.128 248.207ZM239.128 239.037C238.872 239.037 238.653 238.946 238.472 238.764C238.295 238.582 238.207 238.366 238.207 238.116C238.207 237.861 238.295 237.645 238.472 237.469C238.653 237.287 238.872 237.196 239.128 237.196C239.378 237.196 239.594 237.287 239.776 237.469C239.957 237.645 240.048 237.861 240.048 238.116C240.048 238.281 240.006 238.435 239.92 238.577C239.841 238.719 239.73 238.832 239.588 238.918C239.452 238.997 239.298 239.037 239.128 239.037ZM255.835 249.239C254.903 249.239 254.07 249.043 253.337 248.651C252.61 248.253 252.033 247.707 251.607 247.014C251.187 246.321 250.971 245.528 250.96 244.636H252.008C252.031 245.693 252.397 246.56 253.107 247.236C253.817 247.912 254.727 248.25 255.835 248.25C256.687 248.25 257.437 248.045 258.085 247.636C258.738 247.222 259.249 246.659 259.619 245.949C259.988 245.239 260.17 244.437 260.164 243.545C260.164 242.602 259.965 241.778 259.567 241.074C259.17 240.369 258.638 239.824 257.974 239.438C257.309 239.051 256.573 238.855 255.766 238.849C255.13 238.849 254.533 238.966 253.977 239.199C253.42 239.426 252.945 239.719 252.553 240.077L251.352 239.906L252.383 231.545H260.565V232.534H253.295L252.494 239.071H252.579C252.988 238.707 253.474 238.415 254.036 238.193C254.604 237.966 255.221 237.852 255.886 237.852C256.863 237.852 257.755 238.091 258.562 238.568C259.374 239.045 260.019 239.71 260.496 240.562C260.979 241.415 261.218 242.406 261.212 243.537C261.207 244.628 260.974 245.602 260.513 246.46C260.053 247.318 259.417 247.997 258.604 248.497C257.798 248.991 256.874 249.239 255.835 249.239Z" fill="black"/>
<path d="M210.065 278.273C208.952 278.273 207.972 277.98 207.125 277.395C206.278 276.804 205.616 275.997 205.139 274.974C204.668 273.952 204.432 272.793 204.432 271.497C204.432 270.202 204.67 269.043 205.148 268.02C205.625 266.997 206.287 266.19 207.134 265.599C207.98 265.009 208.955 264.713 210.057 264.713C210.886 264.713 211.642 264.884 212.324 265.224C213.011 265.565 213.58 266.04 214.028 266.648C214.483 267.256 214.773 267.96 214.898 268.761H213.841C213.67 267.875 213.244 267.142 212.562 266.562C211.886 265.977 211.054 265.685 210.065 265.685C209.179 265.685 208.389 265.935 207.696 266.435C207.003 266.929 206.457 267.614 206.06 268.489C205.662 269.358 205.463 270.355 205.463 271.48C205.463 272.588 205.656 273.582 206.043 274.463C206.429 275.338 206.969 276.031 207.662 276.543C208.355 277.054 209.156 277.31 210.065 277.31C210.707 277.31 211.293 277.182 211.821 276.926C212.355 276.67 212.801 276.307 213.159 275.835C213.517 275.364 213.753 274.812 213.866 274.182H214.923C214.798 274.989 214.514 275.699 214.071 276.312C213.628 276.926 213.062 277.406 212.375 277.753C211.688 278.099 210.918 278.273 210.065 278.273ZM221.938 278.281C221.182 278.281 220.489 278.131 219.858 277.83C219.233 277.528 218.73 277.088 218.349 276.509C217.974 275.929 217.787 275.224 217.787 274.395C217.787 273.849 217.884 273.369 218.077 272.955C218.27 272.54 218.568 272.182 218.972 271.881C219.375 271.58 219.892 271.332 220.523 271.139C221.153 270.94 221.906 270.787 222.781 270.679C223.446 270.599 224.04 270.523 224.562 270.449C225.085 270.369 225.494 270.247 225.79 270.082C226.091 269.918 226.241 269.668 226.241 269.332V268.787C226.241 267.832 225.94 267.074 225.338 266.511C224.736 265.949 223.906 265.668 222.849 265.668C221.912 265.668 221.122 265.875 220.48 266.29C219.844 266.699 219.398 267.227 219.142 267.875L218.162 267.509C218.412 266.884 218.773 266.364 219.244 265.949C219.722 265.534 220.267 265.224 220.881 265.02C221.5 264.815 222.148 264.713 222.824 264.713C223.409 264.713 223.966 264.795 224.494 264.96C225.028 265.125 225.503 265.375 225.918 265.71C226.338 266.045 226.67 266.474 226.915 266.997C227.159 267.514 227.281 268.134 227.281 268.855V278H226.241V275.639H226.165C225.938 276.128 225.625 276.574 225.227 276.977C224.835 277.375 224.361 277.693 223.804 277.932C223.253 278.165 222.631 278.281 221.938 278.281ZM222.04 277.318C222.858 277.318 223.582 277.119 224.213 276.722C224.849 276.318 225.347 275.767 225.705 275.068C226.063 274.369 226.241 273.577 226.241 272.69V270.764C226.111 270.878 225.92 270.98 225.67 271.071C225.426 271.156 225.148 271.233 224.835 271.301C224.528 271.364 224.205 271.42 223.864 271.472C223.528 271.517 223.202 271.56 222.884 271.599C221.929 271.713 221.151 271.889 220.548 272.128C219.952 272.361 219.514 272.668 219.236 273.048C218.963 273.429 218.827 273.889 218.827 274.429C218.827 275.321 219.134 276.026 219.747 276.543C220.361 277.06 221.125 277.318 222.04 277.318ZM231.641 282.909V264.909H232.655V267.832H232.783C232.987 267.27 233.274 266.753 233.643 266.281C234.018 265.81 234.482 265.432 235.033 265.148C235.589 264.858 236.243 264.713 236.993 264.713C238.05 264.713 238.97 265.003 239.754 265.582C240.538 266.162 241.146 266.963 241.578 267.986C242.01 269.003 242.226 270.17 242.226 271.489C242.226 272.807 242.007 273.977 241.57 275C241.138 276.017 240.53 276.818 239.746 277.403C238.967 277.983 238.055 278.273 237.01 278.273C236.266 278.273 235.612 278.131 235.05 277.847C234.493 277.562 234.024 277.185 233.643 276.713C233.268 276.236 232.982 275.713 232.783 275.145H232.68V282.909H231.641ZM232.663 271.48C232.663 272.594 232.834 273.591 233.175 274.472C233.516 275.347 234.004 276.04 234.641 276.551C235.277 277.057 236.036 277.31 236.916 277.31C237.808 277.31 238.572 277.054 239.209 276.543C239.851 276.026 240.339 275.327 240.675 274.446C241.016 273.565 241.186 272.577 241.186 271.48C241.186 270.384 241.018 269.398 240.683 268.523C240.348 267.648 239.862 266.957 239.226 266.452C238.589 265.94 237.82 265.685 236.916 265.685C236.024 265.685 235.26 265.937 234.624 266.443C233.993 266.943 233.507 267.631 233.166 268.506C232.831 269.375 232.663 270.366 232.663 271.48ZM246.792 277.207C246.536 277.207 246.317 277.116 246.136 276.935C245.96 276.753 245.871 276.537 245.871 276.287C245.871 276.031 245.96 275.815 246.136 275.639C246.317 275.457 246.536 275.366 246.792 275.366C247.042 275.366 247.258 275.457 247.44 275.639C247.621 275.815 247.712 276.031 247.712 276.287C247.712 276.452 247.67 276.605 247.585 276.747C247.505 276.889 247.394 277.003 247.252 277.088C247.116 277.168 246.962 277.207 246.792 277.207ZM246.792 268.037C246.536 268.037 246.317 267.946 246.136 267.764C245.96 267.582 245.871 267.366 245.871 267.116C245.871 266.861 245.96 266.645 246.136 266.469C246.317 266.287 246.536 266.196 246.792 266.196C247.042 266.196 247.258 266.287 247.44 266.469C247.621 266.645 247.712 266.861 247.712 267.116C247.712 267.281 247.67 267.435 247.585 267.577C247.505 267.719 247.394 267.832 247.252 267.918C247.116 267.997 246.962 268.037 246.792 268.037ZM263.388 260.545V278H262.322V261.67H262.22L258.3 264.27V263.128L262.186 260.545H263.388ZM274.141 278.239C272.977 278.239 271.977 277.881 271.141 277.165C270.306 276.449 269.664 275.423 269.215 274.088C268.772 272.747 268.55 271.142 268.55 269.273C268.55 267.409 268.775 265.807 269.224 264.466C269.673 263.125 270.312 262.097 271.141 261.381C271.977 260.665 272.977 260.307 274.141 260.307C275.306 260.307 276.303 260.665 277.133 261.381C277.968 262.097 278.61 263.125 279.059 264.466C279.508 265.807 279.732 267.409 279.732 269.273C279.732 271.142 279.508 272.747 279.059 274.088C278.616 275.423 277.977 276.449 277.141 277.165C276.306 277.881 275.306 278.239 274.141 278.239ZM274.141 277.25C275.556 277.25 276.667 276.548 277.474 275.145C278.281 273.736 278.684 271.778 278.684 269.273C278.684 267.602 278.499 266.17 278.13 264.977C277.766 263.784 277.246 262.872 276.57 262.241C275.894 261.605 275.085 261.287 274.141 261.287C272.727 261.287 271.616 261.991 270.809 263.401C270.002 264.81 269.599 266.767 269.599 269.273C269.599 270.943 269.781 272.375 270.144 273.568C270.508 274.756 271.028 275.668 271.704 276.304C272.386 276.935 273.198 277.25 274.141 277.25ZM288.602 278.239C287.438 278.239 286.438 277.881 285.602 277.165C284.767 276.449 284.125 275.423 283.676 274.088C283.233 272.747 283.011 271.142 283.011 269.273C283.011 267.409 283.236 265.807 283.685 264.466C284.134 263.125 284.773 262.097 285.602 261.381C286.438 260.665 287.438 260.307 288.602 260.307C289.767 260.307 290.764 260.665 291.594 261.381C292.429 262.097 293.071 263.125 293.52 264.466C293.969 265.807 294.193 267.409 294.193 269.273C294.193 271.142 293.969 272.747 293.52 274.088C293.077 275.423 292.438 276.449 291.602 277.165C290.767 277.881 289.767 278.239 288.602 278.239ZM288.602 277.25C290.017 277.25 291.128 276.548 291.935 275.145C292.741 273.736 293.145 271.778 293.145 269.273C293.145 267.602 292.96 266.17 292.591 264.977C292.227 263.784 291.707 262.872 291.031 262.241C290.355 261.605 289.545 261.287 288.602 261.287C287.188 261.287 286.077 261.991 285.27 263.401C284.463 264.81 284.06 266.767 284.06 269.273C284.06 270.943 284.241 272.375 284.605 273.568C284.969 274.756 285.489 275.668 286.165 276.304C286.847 276.935 287.659 277.25 288.602 277.25Z" fill="black"/>
<rect x="197.5" y="285.5" width="160" height="87" fill="white" stroke="black"/>
<path d="M205.156 312.909V294.909H206.17V297.832H206.298C206.503 297.27 206.79 296.753 207.159 296.281C207.534 295.81 207.997 295.432 208.548 295.148C209.105 294.858 209.759 294.713 210.509 294.713C211.565 294.713 212.486 295.003 213.27 295.582C214.054 296.162 214.662 296.963 215.094 297.986C215.526 299.003 215.741 300.17 215.741 301.489C215.741 302.807 215.523 303.977 215.085 305C214.653 306.017 214.045 306.818 213.261 307.403C212.483 307.983 211.571 308.273 210.526 308.273C209.781 308.273 209.128 308.131 208.565 307.847C208.009 307.562 207.54 307.185 207.159 306.713C206.784 306.236 206.497 305.713 206.298 305.145H206.196V312.909H205.156ZM206.179 301.48C206.179 302.594 206.349 303.591 206.69 304.472C207.031 305.347 207.52 306.04 208.156 306.551C208.793 307.057 209.551 307.31 210.432 307.31C211.324 307.31 212.088 307.054 212.724 306.543C213.366 306.026 213.855 305.327 214.19 304.446C214.531 303.565 214.702 302.577 214.702 301.48C214.702 300.384 214.534 299.398 214.199 298.523C213.864 297.648 213.378 296.957 212.741 296.452C212.105 295.94 211.335 295.685 210.432 295.685C209.54 295.685 208.776 295.937 208.139 296.443C207.509 296.943 207.023 297.631 206.682 298.506C206.347 299.375 206.179 300.366 206.179 301.48ZM223.964 294.909V295.838H218.245V294.909H223.964ZM220.18 291.773H221.211V304.906C221.211 305.44 221.313 305.878 221.518 306.219C221.728 306.554 222.001 306.804 222.336 306.969C222.677 307.128 223.04 307.207 223.427 307.207C223.614 307.207 223.776 307.193 223.913 307.165C224.055 307.136 224.188 307.099 224.313 307.054L224.569 308C224.41 308.057 224.234 308.105 224.04 308.145C223.847 308.19 223.62 308.213 223.359 308.213C222.813 308.213 222.296 308.091 221.808 307.847C221.325 307.602 220.933 307.247 220.631 306.781C220.33 306.315 220.18 305.753 220.18 305.094V291.773ZM227.82 308V294.909H228.835V296.955H228.928C229.212 296.284 229.692 295.747 230.369 295.344C231.045 294.935 231.815 294.73 232.678 294.73C232.769 294.73 232.86 294.73 232.951 294.73C233.042 294.73 233.127 294.733 233.207 294.739V295.787C233.138 295.781 233.056 295.773 232.96 295.761C232.869 295.744 232.755 295.736 232.619 295.736C231.891 295.736 231.244 295.892 230.675 296.205C230.113 296.517 229.67 296.949 229.346 297.5C229.022 298.045 228.86 298.67 228.86 299.375V308H227.82ZM236.972 307.207C236.716 307.207 236.497 307.116 236.315 306.935C236.139 306.753 236.051 306.537 236.051 306.287C236.051 306.031 236.139 305.815 236.315 305.639C236.497 305.457 236.716 305.366 236.972 305.366C237.222 305.366 237.438 305.457 237.619 305.639C237.801 305.815 237.892 306.031 237.892 306.287C237.892 306.452 237.849 306.605 237.764 306.747C237.685 306.889 237.574 307.003 237.432 307.088C237.295 307.168 237.142 307.207 236.972 307.207ZM236.972 298.037C236.716 298.037 236.497 297.946 236.315 297.764C236.139 297.582 236.051 297.366 236.051 297.116C236.051 296.861 236.139 296.645 236.315 296.469C236.497 296.287 236.716 296.196 236.972 296.196C237.222 296.196 237.438 296.287 237.619 296.469C237.801 296.645 237.892 296.861 237.892 297.116C237.892 297.281 237.849 297.435 237.764 297.577C237.685 297.719 237.574 297.832 237.432 297.918C237.295 297.997 237.142 298.037 236.972 298.037Z" fill="black"/>
<path d="M206.196 319.545V337H205.156V319.545H206.196ZM215.605 337.273C214.423 337.273 213.395 336.98 212.52 336.395C211.645 335.81 210.969 335.009 210.491 333.991C210.014 332.974 209.776 331.815 209.776 330.514C209.776 329.207 210.014 328.043 210.491 327.02C210.974 325.997 211.636 325.19 212.477 324.599C213.318 324.009 214.278 323.713 215.358 323.713C216.091 323.713 216.784 323.861 217.438 324.156C218.097 324.446 218.676 324.866 219.176 325.418C219.682 325.969 220.077 326.634 220.361 327.412C220.651 328.19 220.795 329.065 220.795 330.037V330.685H210.432V329.739H219.756C219.756 328.79 219.563 327.935 219.176 327.173C218.79 326.412 218.264 325.807 217.599 325.358C216.935 324.909 216.188 324.685 215.358 324.685C214.489 324.685 213.713 324.929 213.031 325.418C212.355 325.901 211.818 326.554 211.42 327.378C211.028 328.202 210.824 329.122 210.807 330.139V330.565C210.807 331.656 210.997 332.636 211.378 333.506C211.764 334.369 212.315 335.054 213.031 335.56C213.747 336.06 214.605 336.31 215.605 336.31C216.321 336.31 216.932 336.19 217.438 335.952C217.949 335.707 218.366 335.412 218.69 335.065C219.014 334.719 219.259 334.384 219.423 334.06L220.369 334.443C220.17 334.881 219.861 335.318 219.44 335.756C219.026 336.187 218.497 336.548 217.855 336.838C217.219 337.128 216.469 337.273 215.605 337.273ZM225.415 328.511V337H224.375V323.909H225.389V325.98H225.491C225.798 325.304 226.29 324.761 226.966 324.352C227.642 323.943 228.446 323.739 229.378 323.739C230.259 323.739 231.031 323.926 231.696 324.301C232.366 324.676 232.889 325.21 233.264 325.903C233.645 326.591 233.835 327.412 233.835 328.366V337H232.795V328.409C232.795 327.295 232.463 326.401 231.798 325.724C231.139 325.043 230.267 324.702 229.182 324.702C228.455 324.702 227.807 324.861 227.239 325.179C226.67 325.497 226.224 325.943 225.901 326.517C225.577 327.085 225.415 327.75 225.415 328.511ZM239.128 336.207C238.872 336.207 238.653 336.116 238.472 335.935C238.295 335.753 238.207 335.537 238.207 335.287C238.207 335.031 238.295 334.815 238.472 334.639C238.653 334.457 238.872 334.366 239.128 334.366C239.378 334.366 239.594 334.457 239.776 334.639C239.957 334.815 240.048 335.031 240.048 335.287C240.048 335.452 240.006 335.605 239.92 335.747C239.841 335.889 239.73 336.003 239.588 336.088C239.452 336.168 239.298 336.207 239.128 336.207ZM239.128 327.037C238.872 327.037 238.653 326.946 238.472 326.764C238.295 326.582 238.207 326.366 238.207 326.116C238.207 325.861 238.295 325.645 238.472 325.469C238.653 325.287 238.872 325.196 239.128 325.196C239.378 325.196 239.594 325.287 239.776 325.469C239.957 325.645 240.048 325.861 240.048 326.116C240.048 326.281 240.006 326.435 239.92 326.577C239.841 326.719 239.73 326.832 239.588 326.918C239.452 326.997 239.298 327.037 239.128 327.037ZM255.835 337.239C254.903 337.239 254.07 337.043 253.337 336.651C252.61 336.253 252.033 335.707 251.607 335.014C251.187 334.321 250.971 333.528 250.96 332.636H252.008C252.031 333.693 252.397 334.56 253.107 335.236C253.817 335.912 254.727 336.25 255.835 336.25C256.687 336.25 257.437 336.045 258.085 335.636C258.738 335.222 259.249 334.659 259.619 333.949C259.988 333.239 260.17 332.437 260.164 331.545C260.164 330.602 259.965 329.778 259.567 329.074C259.17 328.369 258.638 327.824 257.974 327.438C257.309 327.051 256.573 326.855 255.766 326.849C255.13 326.849 254.533 326.966 253.977 327.199C253.42 327.426 252.945 327.719 252.553 328.077L251.352 327.906L252.383 319.545H260.565V320.534H253.295L252.494 327.071H252.579C252.988 326.707 253.474 326.415 254.036 326.193C254.604 325.966 255.221 325.852 255.886 325.852C256.863 325.852 257.755 326.091 258.562 326.568C259.374 327.045 260.019 327.71 260.496 328.562C260.979 329.415 261.218 330.406 261.212 331.537C261.207 332.628 260.974 333.602 260.513 334.46C260.053 335.318 259.417 335.997 258.604 336.497C257.798 336.991 256.874 337.239 255.835 337.239Z" fill="black"/>
<path d="M210.065 366.273C208.952 366.273 207.972 365.98 207.125 365.395C206.278 364.804 205.616 363.997 205.139 362.974C204.668 361.952 204.432 360.793 204.432 359.497C204.432 358.202 204.67 357.043 205.148 356.02C205.625 354.997 206.287 354.19 207.134 353.599C207.98 353.009 208.955 352.713 210.057 352.713C210.886 352.713 211.642 352.884 212.324 353.224C213.011 353.565 213.58 354.04 214.028 354.648C214.483 355.256 214.773 355.96 214.898 356.761H213.841C213.67 355.875 213.244 355.142 212.562 354.562C211.886 353.977 211.054 353.685 210.065 353.685C209.179 353.685 208.389 353.935 207.696 354.435C207.003 354.929 206.457 355.614 206.06 356.489C205.662 357.358 205.463 358.355 205.463 359.48C205.463 360.588 205.656 361.582 206.043 362.463C206.429 363.338 206.969 364.031 207.662 364.543C208.355 365.054 209.156 365.31 210.065 365.31C210.707 365.31 211.293 365.182 211.821 364.926C212.355 364.67 212.801 364.307 213.159 363.835C213.517 363.364 213.753 362.812 213.866 362.182H214.923C214.798 362.989 214.514 363.699 214.071 364.312C213.628 364.926 213.062 365.406 212.375 365.753C211.688 366.099 210.918 366.273 210.065 366.273ZM221.938 366.281C221.182 366.281 220.489 366.131 219.858 365.83C219.233 365.528 218.73 365.088 218.349 364.509C217.974 363.929 217.787 363.224 217.787 362.395C217.787 361.849 217.884 361.369 218.077 360.955C218.27 360.54 218.568 360.182 218.972 359.881C219.375 359.58 219.892 359.332 220.523 359.139C221.153 358.94 221.906 358.787 222.781 358.679C223.446 358.599 224.04 358.523 224.562 358.449C225.085 358.369 225.494 358.247 225.79 358.082C226.091 357.918 226.241 357.668 226.241 357.332V356.787C226.241 355.832 225.94 355.074 225.338 354.511C224.736 353.949 223.906 353.668 222.849 353.668C221.912 353.668 221.122 353.875 220.48 354.29C219.844 354.699 219.398 355.227 219.142 355.875L218.162 355.509C218.412 354.884 218.773 354.364 219.244 353.949C219.722 353.534 220.267 353.224 220.881 353.02C221.5 352.815 222.148 352.713 222.824 352.713C223.409 352.713 223.966 352.795 224.494 352.96C225.028 353.125 225.503 353.375 225.918 353.71C226.338 354.045 226.67 354.474 226.915 354.997C227.159 355.514 227.281 356.134 227.281 356.855V366H226.241V363.639H226.165C225.938 364.128 225.625 364.574 225.227 364.977C224.835 365.375 224.361 365.693 223.804 365.932C223.253 366.165 222.631 366.281 221.938 366.281ZM222.04 365.318C222.858 365.318 223.582 365.119 224.213 364.722C224.849 364.318 225.347 363.767 225.705 363.068C226.063 362.369 226.241 361.577 226.241 360.69V358.764C226.111 358.878 225.92 358.98 225.67 359.071C225.426 359.156 225.148 359.233 224.835 359.301C224.528 359.364 224.205 359.42 223.864 359.472C223.528 359.517 223.202 359.56 222.884 359.599C221.929 359.713 221.151 359.889 220.548 360.128C219.952 360.361 219.514 360.668 219.236 361.048C218.963 361.429 218.827 361.889 218.827 362.429C218.827 363.321 219.134 364.026 219.747 364.543C220.361 365.06 221.125 365.318 222.04 365.318ZM231.641 370.909V352.909H232.655V355.832H232.783C232.987 355.27 233.274 354.753 233.643 354.281C234.018 353.81 234.482 353.432 235.033 353.148C235.589 352.858 236.243 352.713 236.993 352.713C238.05 352.713 238.97 353.003 239.754 353.582C240.538 354.162 241.146 354.963 241.578 355.986C242.01 357.003 242.226 358.17 242.226 359.489C242.226 360.807 242.007 361.977 241.57 363C241.138 364.017 240.53 364.818 239.746 365.403C238.967 365.983 238.055 366.273 237.01 366.273C236.266 366.273 235.612 366.131 235.05 365.847C234.493 365.562 234.024 365.185 233.643 364.713C233.268 364.236 232.982 363.713 232.783 363.145H232.68V370.909H231.641ZM232.663 359.48C232.663 360.594 232.834 361.591 233.175 362.472C233.516 363.347 234.004 364.04 234.641 364.551C235.277 365.057 236.036 365.31 236.916 365.31C237.808 365.31 238.572 365.054 239.209 364.543C239.851 364.026 240.339 363.327 240.675 362.446C241.016 361.565 241.186 360.577 241.186 359.48C241.186 358.384 241.018 357.398 240.683 356.523C240.348 355.648 239.862 354.957 239.226 354.452C238.589 353.94 237.82 353.685 236.916 353.685C236.024 353.685 235.26 353.937 234.624 354.443C233.993 354.943 233.507 355.631 233.166 356.506C232.831 357.375 232.663 358.366 232.663 359.48ZM246.792 365.207C246.536 365.207 246.317 365.116 246.136 364.935C245.96 364.753 245.871 364.537 245.871 364.287C245.871 364.031 245.96 363.815 246.136 363.639C246.317 363.457 246.536 363.366 246.792 363.366C247.042 363.366 247.258 363.457 247.44 363.639C247.621 363.815 247.712 364.031 247.712 364.287C247.712 364.452 247.67 364.605 247.585 364.747C247.505 364.889 247.394 365.003 247.252 365.088C247.116 365.168 246.962 365.207 246.792 365.207ZM246.792 356.037C246.536 356.037 246.317 355.946 246.136 355.764C245.96 355.582 245.871 355.366 245.871 355.116C245.871 354.861 245.96 354.645 246.136 354.469C246.317 354.287 246.536 354.196 246.792 354.196C247.042 354.196 247.258 354.287 247.44 354.469C247.621 354.645 247.712 354.861 247.712 355.116C247.712 355.281 247.67 355.435 247.585 355.577C247.505 355.719 247.394 355.832 247.252 355.918C247.116 355.997 246.962 356.037 246.792 356.037ZM263.388 348.545V366H262.322V349.67H262.22L258.3 352.27V351.128L262.186 348.545H263.388ZM274.141 366.239C272.977 366.239 271.977 365.881 271.141 365.165C270.306 364.449 269.664 363.423 269.215 362.088C268.772 360.747 268.55 359.142 268.55 357.273C268.55 355.409 268.775 353.807 269.224 352.466C269.673 351.125 270.312 350.097 271.141 349.381C271.977 348.665 272.977 348.307 274.141 348.307C275.306 348.307 276.303 348.665 277.133 349.381C277.968 350.097 278.61 351.125 279.059 352.466C279.508 353.807 279.732 355.409 279.732 357.273C279.732 359.142 279.508 360.747 279.059 362.088C278.616 363.423 277.977 364.449 277.141 365.165C276.306 365.881 275.306 366.239 274.141 366.239ZM274.141 365.25C275.556 365.25 276.667 364.548 277.474 363.145C278.281 361.736 278.684 359.778 278.684 357.273C278.684 355.602 278.499 354.17 278.13 352.977C277.766 351.784 277.246 350.872 276.57 350.241C275.894 349.605 275.085 349.287 274.141 349.287C272.727 349.287 271.616 349.991 270.809 351.401C270.002 352.81 269.599 354.767 269.599 357.273C269.599 358.943 269.781 360.375 270.144 361.568C270.508 362.756 271.028 363.668 271.704 364.304C272.386 364.935 273.198 365.25 274.141 365.25ZM288.602 366.239C287.438 366.239 286.438 365.881 285.602 365.165C284.767 364.449 284.125 363.423 283.676 362.088C283.233 360.747 283.011 359.142 283.011 357.273C283.011 355.409 283.236 353.807 283.685 352.466C284.134 351.125 284.773 350.097 285.602 349.381C286.438 348.665 287.438 348.307 288.602 348.307C289.767 348.307 290.764 348.665 291.594 349.381C292.429 350.097 293.071 351.125 293.52 352.466C293.969 353.807 294.193 355.409 294.193 357.273C294.193 359.142 293.969 360.747 293.52 362.088C293.077 363.423 292.438 364.449 291.602 365.165C290.767 365.881 289.767 366.239 288.602 366.239ZM288.602 365.25C290.017 365.25 291.128 364.548 291.935 363.145C292.741 361.736 293.145 359.778 293.145 357.273C293.145 355.602 292.96 354.17 292.591 352.977C292.227 351.784 291.707 350.872 291.031 350.241C290.355 349.605 289.545 349.287 288.602 349.287C287.188 349.287 286.077 349.991 285.27 351.401C284.463 352.81 284.06 354.767 284.06 357.273C284.06 358.943 284.241 360.375 284.605 361.568C284.969 362.756 285.489 363.668 286.165 364.304C286.847 364.935 287.659 365.25 288.602 365.25Z" fill="black"/>
<path d="M656.276 259.131C656.624 258.703 656.559 258.073 656.131 257.724L649.149 252.045C648.721 251.696 648.091 251.761 647.743 252.19C647.394 252.618 647.459 253.248 647.887 253.596L654.093 258.645L649.045 264.851C648.696 265.279 648.761 265.909 649.189 266.257C649.618 266.606 650.248 266.541 650.596 266.113L656.276 259.131ZM252.102 300.995L655.602 259.495L655.398 257.505L251.898 299.005L252.102 300.995Z" fill="black"/>
<path d="M615.758 185.652C616.118 185.234 616.071 184.602 615.652 184.242L608.832 178.371C608.413 178.01 607.782 178.057 607.421 178.476C607.061 178.895 607.108 179.526 607.527 179.886L613.59 185.105L608.371 191.168C608.01 191.587 608.057 192.218 608.476 192.579C608.895 192.939 609.526 192.892 609.886 192.473L615.758 185.652ZM254.075 212.997L615.075 185.997L614.925 184.003L253.925 211.003L254.075 212.997Z" fill="black"/>
<path d="M24.7071 49.2929C24.3166 48.9024 23.6834 48.9024 23.2929 49.2929L16.9289 55.6569C16.5384 56.0474 16.5384 56.6805 16.9289 57.0711C17.3195 57.4616 17.9526 57.4616 18.3432 57.0711L24 51.4142L29.6569 57.0711C30.0474 57.4616 30.6806 57.4616 31.0711 57.0711C31.4616 56.6805 31.4616 56.0474 31.0711 55.6569L24.7071 49.2929ZM25 324L25 50L23 50L23 324L25 324Z" fill="black"/>
<path d="M10.56 11.896H22.8V13.576H10.56V11.896ZM9.504 30.736H23.016V32.416H9.504V30.736ZM12.24 25L13.8 24.64C14.4 26.248 14.952 28.36 15.12 29.728L13.464 30.16C13.344 28.768 12.816 26.632 12.24 25ZM19.224 24.496L21.048 24.904C20.424 26.728 19.704 28.96 19.08 30.304L17.568 29.896C18.168 28.504 18.888 26.128 19.224 24.496ZM13.224 17.824V22.048H20.04V17.824H13.224ZM11.52 16.216H21.792V23.656H11.52V16.216ZM5.448 14.92H7.176V19.648C7.176 23.632 6.456 29.2 2.112 32.848C1.896 32.464 1.224 31.792 0.888 31.576C4.968 28.144 5.448 23.296 5.448 19.624V14.92ZM3.264 13.984H10.344V15.64H3.264V13.984ZM1.032 20.488H10.632V22.168H1.032V20.488ZM6.648 23.608C7.416 24.328 10.152 27.472 10.776 28.24L9.6 29.728C8.784 28.432 6.504 25.624 5.568 24.592L6.648 23.608ZM3.456 10.96L5.184 11.272C4.608 14.392 3.624 17.416 2.328 19.408C1.992 19.144 1.2 18.712 0.768 18.544C2.088 16.696 2.976 13.84 3.456 10.96ZM35.904 12.496C33.816 15.16 29.736 18.304 25.536 20.344C25.32 19.912 24.84 19.24 24.456 18.856C28.728 16.912 32.88 13.624 34.872 10.792H36.72C39.408 14.008 43.752 17.032 47.616 18.568C47.184 19.024 46.752 19.648 46.44 20.176C42.672 18.424 38.256 15.304 35.904 12.496ZM31.176 17.032H41.016V18.664H31.176V17.032ZM27.984 20.824H34.704V29.056H27.984V27.448H33.048V22.408H27.984V20.824ZM36.768 20.8H43.896V22.408H38.472V32.968H36.768V20.8ZM43.32 20.8H45.072V28.336C45.072 29.224 44.88 29.752 44.184 30.016C43.512 30.304 42.384 30.328 40.56 30.328C40.512 29.824 40.248 29.128 40.032 28.672C41.376 28.72 42.528 28.72 42.888 28.696C43.224 28.672 43.32 28.6 43.32 28.288V20.8ZM27.24 20.824H28.872V31.096H27.24V20.824Z" fill="black"/>
<path d="M1.248 351.36H22.728V352.968H1.248V351.36ZM6.48 344.352H19.632V345.816H6.48V344.352ZM6.48 347.832H19.632V349.296H6.48V347.832ZM2.4 360.096C5.16 359.712 9.528 358.968 13.632 358.296L13.704 359.88C9.864 360.576 5.736 361.272 2.856 361.776L2.4 360.096ZM12.096 351.792C13.776 356.304 17.568 359.328 23.112 360.408C22.728 360.768 22.224 361.488 21.984 361.992C16.176 360.648 12.408 357.36 10.464 352.224L12.096 351.792ZM20.208 353.184L21.648 354.168C19.848 355.512 17.448 356.904 15.576 357.792L14.352 356.832C16.176 355.92 18.72 354.36 20.208 353.184ZM5.496 340.8H20.4V342.336H7.32V352.032H5.496V340.8ZM5.472 351.864H7.32V360.12L5.472 360.336V351.864ZM26.664 341.904H45.432V343.464H26.664V341.904ZM27.624 345.432H44.496V346.944H27.624V345.432ZM25.248 349.056H46.728V350.64H25.248V349.056ZM25.656 353.064H46.344V354.648H25.656V353.064ZM40.512 350.424H42.336V359.664C42.336 360.72 42.096 361.248 41.328 361.536C40.512 361.824 39.192 361.824 37.176 361.824C37.08 361.32 36.792 360.6 36.552 360.072C38.16 360.12 39.576 360.12 39.984 360.096C40.416 360.096 40.512 359.976 40.512 359.64V350.424ZM34.68 339.816L36.648 340.032C35.352 349.992 32.88 356.736 26.592 360.84C26.304 360.456 25.488 359.712 25.008 359.376C31.248 355.752 33.552 349.248 34.68 339.816ZM31.656 356.544L33.144 355.608C34.32 356.688 35.76 358.224 36.456 359.208L34.896 360.264C34.248 359.256 32.832 357.672 31.656 356.544Z" fill="black"/>
<path d="M92.3963 238.909V240.955H84.9986V238.909H92.3963ZM87.027 252V237.392C87.027 236.574 87.206 235.895 87.5639 235.355C87.9219 234.81 88.3963 234.403 88.9872 234.136C89.5781 233.864 90.2202 233.727 90.9134 233.727C91.4247 233.727 91.8622 233.77 92.2259 233.855C92.5895 233.935 92.8594 234.009 93.0355 234.077L92.4389 236.139C92.3196 236.105 92.1662 236.065 91.9787 236.02C91.7912 235.969 91.5639 235.943 91.2969 235.943C90.6776 235.943 90.2344 236.097 89.9673 236.403C89.706 236.71 89.5753 237.153 89.5753 237.733V252H87.027ZM103.318 246.571V238.909H105.875V252H103.369V249.733H103.233C102.932 250.432 102.449 251.014 101.784 251.48C101.125 251.94 100.304 252.17 99.321 252.17C98.4801 252.17 97.7358 251.986 97.0881 251.616C96.446 251.241 95.9403 250.688 95.571 249.955C95.2074 249.222 95.0256 248.315 95.0256 247.236V238.909H97.5739V246.929C97.5739 247.821 97.821 248.531 98.3153 249.06C98.8097 249.588 99.4517 249.852 100.241 249.852C100.719 249.852 101.193 249.733 101.665 249.494C102.142 249.256 102.537 248.895 102.849 248.412C103.168 247.929 103.324 247.315 103.318 246.571ZM111.847 244.227V252H109.299V238.909H111.745V241.04H111.907C112.208 240.347 112.68 239.79 113.322 239.369C113.969 238.949 114.785 238.739 115.768 238.739C116.66 238.739 117.441 238.926 118.112 239.301C118.782 239.67 119.302 240.222 119.671 240.955C120.04 241.687 120.225 242.594 120.225 243.673V252H117.677V243.98C117.677 243.031 117.43 242.29 116.935 241.756C116.441 241.216 115.762 240.946 114.898 240.946C114.308 240.946 113.782 241.074 113.322 241.33C112.867 241.585 112.506 241.96 112.239 242.455C111.978 242.943 111.847 243.534 111.847 244.227ZM129.157 252.264C127.89 252.264 126.799 251.977 125.884 251.403C124.975 250.824 124.276 250.026 123.788 249.009C123.299 247.991 123.055 246.827 123.055 245.514C123.055 244.185 123.305 243.011 123.805 241.994C124.305 240.972 125.009 240.173 125.918 239.599C126.827 239.026 127.898 238.739 129.131 238.739C130.126 238.739 131.012 238.923 131.79 239.293C132.569 239.656 133.197 240.168 133.674 240.827C134.157 241.486 134.444 242.256 134.535 243.136H132.055C131.918 242.523 131.606 241.994 131.117 241.551C130.634 241.108 129.987 240.886 129.174 240.886C128.464 240.886 127.842 241.074 127.308 241.449C126.779 241.818 126.367 242.347 126.072 243.034C125.776 243.716 125.629 244.523 125.629 245.455C125.629 246.409 125.773 247.233 126.063 247.926C126.353 248.619 126.762 249.156 127.29 249.537C127.825 249.918 128.452 250.108 129.174 250.108C129.657 250.108 130.094 250.02 130.487 249.844C130.884 249.662 131.217 249.403 131.484 249.068C131.756 248.733 131.947 248.33 132.055 247.858H134.535C134.444 248.705 134.168 249.46 133.708 250.125C133.248 250.79 132.631 251.312 131.859 251.693C131.092 252.074 130.191 252.264 129.157 252.264Z" fill="black"/>
<path d="M86.1154 341V327.909H88.5614V330.04H88.7234C88.9961 329.318 89.4421 328.756 90.0614 328.352C90.6808 327.943 91.4222 327.739 92.2859 327.739C93.1609 327.739 93.8938 327.943 94.4847 328.352C95.0813 328.761 95.5217 329.324 95.8058 330.04H95.9421C96.2546 329.341 96.7518 328.784 97.4336 328.369C98.1154 327.949 98.9279 327.739 99.8711 327.739C101.059 327.739 102.027 328.111 102.777 328.855C103.533 329.599 103.911 330.722 103.911 332.222V341H101.363V332.46C101.363 331.574 101.121 330.932 100.638 330.534C100.155 330.136 99.5785 329.938 98.908 329.938C98.0785 329.938 97.4336 330.193 96.9734 330.705C96.5131 331.21 96.283 331.861 96.283 332.656V341H93.7433V332.298C93.7433 331.588 93.5217 331.017 93.0785 330.585C92.6353 330.153 92.0586 329.938 91.3484 329.938C90.8654 329.938 90.4194 330.065 90.0103 330.321C89.6069 330.571 89.2802 330.92 89.0302 331.369C88.7859 331.818 88.6637 332.338 88.6637 332.929V341H86.1154ZM111.136 341.29C110.306 341.29 109.556 341.136 108.886 340.83C108.216 340.517 107.684 340.065 107.292 339.474C106.906 338.884 106.713 338.159 106.713 337.301C106.713 336.562 106.855 335.955 107.139 335.477C107.423 335 107.806 334.622 108.289 334.344C108.772 334.065 109.312 333.855 109.909 333.713C110.505 333.571 111.113 333.463 111.733 333.389C112.517 333.298 113.153 333.224 113.642 333.168C114.13 333.105 114.485 333.006 114.707 332.869C114.929 332.733 115.039 332.511 115.039 332.205V332.145C115.039 331.401 114.829 330.824 114.409 330.415C113.994 330.006 113.375 329.801 112.551 329.801C111.693 329.801 111.017 329.991 110.522 330.372C110.034 330.747 109.696 331.165 109.508 331.625L107.113 331.08C107.397 330.284 107.812 329.642 108.358 329.153C108.909 328.659 109.542 328.301 110.258 328.08C110.974 327.852 111.727 327.739 112.517 327.739C113.039 327.739 113.593 327.801 114.179 327.926C114.77 328.045 115.321 328.267 115.832 328.591C116.349 328.915 116.772 329.378 117.102 329.98C117.431 330.577 117.596 331.352 117.596 332.307V341H115.108V339.21H115.005C114.841 339.54 114.593 339.864 114.264 340.182C113.934 340.5 113.511 340.764 112.994 340.974C112.477 341.185 111.858 341.29 111.136 341.29ZM111.69 339.244C112.395 339.244 112.997 339.105 113.497 338.827C114.002 338.548 114.386 338.185 114.647 337.736C114.914 337.281 115.048 336.795 115.048 336.278V334.591C114.957 334.682 114.781 334.767 114.52 334.847C114.264 334.92 113.971 334.986 113.642 335.043C113.312 335.094 112.991 335.142 112.679 335.188C112.366 335.227 112.105 335.261 111.895 335.29C111.4 335.352 110.949 335.457 110.539 335.605C110.136 335.753 109.812 335.966 109.568 336.244C109.329 336.517 109.21 336.881 109.21 337.335C109.21 337.966 109.443 338.443 109.909 338.767C110.375 339.085 110.968 339.244 111.69 339.244ZM120.99 341V327.909H123.539V341H120.99ZM122.277 325.889C121.834 325.889 121.453 325.741 121.135 325.446C120.823 325.145 120.667 324.787 120.667 324.372C120.667 323.952 120.823 323.594 121.135 323.298C121.453 322.997 121.834 322.847 122.277 322.847C122.721 322.847 123.098 322.997 123.411 323.298C123.729 323.594 123.888 323.952 123.888 324.372C123.888 324.787 123.729 325.145 123.411 325.446C123.098 325.741 122.721 325.889 122.277 325.889ZM129.515 333.227V341H126.967V327.909H129.413V330.04H129.575C129.876 329.347 130.348 328.79 130.99 328.369C131.637 327.949 132.453 327.739 133.436 327.739C134.328 327.739 135.109 327.926 135.779 328.301C136.45 328.67 136.97 329.222 137.339 329.955C137.708 330.687 137.893 331.594 137.893 332.673V341H135.345V332.98C135.345 332.031 135.098 331.29 134.603 330.756C134.109 330.216 133.43 329.946 132.566 329.946C131.975 329.946 131.45 330.074 130.99 330.33C130.535 330.585 130.174 330.96 129.907 331.455C129.646 331.943 129.515 332.534 129.515 333.227Z" fill="black"/>
<path d="M169.115 327.909L172.004 333.006L174.919 327.909H177.706L173.624 334.455L177.74 341H174.953L172.004 336.108L169.064 341H166.268L170.342 334.455L166.32 327.909H169.115Z" fill="black"/>
<path d="M171.917 241.105L169.608 241.514C169.511 241.219 169.358 240.937 169.147 240.67C168.943 240.403 168.664 240.185 168.312 240.014C167.96 239.844 167.52 239.759 166.991 239.759C166.27 239.759 165.667 239.92 165.184 240.244C164.701 240.562 164.46 240.974 164.46 241.48C164.46 241.918 164.622 242.27 164.946 242.537C165.27 242.804 165.792 243.023 166.514 243.193L168.593 243.67C169.798 243.949 170.696 244.378 171.287 244.957C171.877 245.537 172.173 246.29 172.173 247.216C172.173 248 171.946 248.699 171.491 249.312C171.042 249.92 170.414 250.398 169.608 250.744C168.806 251.091 167.877 251.264 166.821 251.264C165.355 251.264 164.159 250.952 163.233 250.327C162.306 249.696 161.738 248.801 161.528 247.642L163.991 247.267C164.145 247.909 164.46 248.395 164.937 248.724C165.414 249.048 166.037 249.21 166.804 249.21C167.639 249.21 168.306 249.037 168.806 248.69C169.306 248.338 169.556 247.909 169.556 247.403C169.556 246.994 169.403 246.651 169.096 246.372C168.795 246.094 168.332 245.884 167.707 245.741L165.491 245.256C164.27 244.977 163.366 244.534 162.781 243.926C162.201 243.318 161.912 242.548 161.912 241.616C161.912 240.844 162.127 240.168 162.559 239.588C162.991 239.009 163.588 238.557 164.349 238.233C165.11 237.903 165.983 237.739 166.966 237.739C168.38 237.739 169.494 238.045 170.306 238.659C171.119 239.267 171.656 240.082 171.917 241.105ZM181.563 233.545V251H178.921V236.188H178.819L174.642 238.915V236.392L178.998 233.545H181.563Z" fill="black"/>
<path d="M729 329V331H731V329H729ZM730.414 282.086C729.633 281.305 728.367 281.305 727.586 282.086L714.858 294.814C714.077 295.595 714.077 296.861 714.858 297.642C715.639 298.423 716.905 298.423 717.686 297.642L729 286.328L740.314 297.642C741.095 298.423 742.361 298.423 743.142 297.642C743.923 296.861 743.923 295.595 743.142 294.814L730.414 282.086ZM358 331H729V327H358V331ZM731 329V283.5H727V329H731Z" fill="#FF0000"/>
<path d="M626 245V247H628V245H626ZM627.414 210.586C626.633 209.805 625.367 209.805 624.586 210.586L611.858 223.314C611.077 224.095 611.077 225.361 611.858 226.142C612.639 226.923 613.905 226.923 614.686 226.142L626 214.828L637.314 226.142C638.095 226.923 639.361 226.923 640.142 226.142C640.923 225.361 640.923 224.095 640.142 223.314L627.414 210.586ZM358 247H626V243H358V247ZM628 245V212H624V245H628Z" fill="#FF0000"/>
<rect x="73" y="285" width="295" height="88" fill="#FF0000" fill-opacity="0.2"/>
<rect x="73" y="197" width="295" height="88" fill="#0500FF" fill-opacity="0.2"/>
<path d="M553.427 150V131.455H556.892V134.473H557.121C557.508 133.451 558.14 132.654 559.017 132.082C559.894 131.503 560.945 131.213 562.168 131.213C563.408 131.213 564.446 131.503 565.283 132.082C566.129 132.662 566.752 133.459 567.155 134.473H567.348C567.791 133.483 568.495 132.694 569.461 132.107C570.427 131.511 571.578 131.213 572.914 131.213C574.596 131.213 575.969 131.74 577.031 132.795C578.102 133.849 578.637 135.439 578.637 137.564V150H575.027V137.902C575.027 136.646 574.685 135.737 574.001 135.173C573.317 134.61 572.5 134.328 571.55 134.328C570.375 134.328 569.461 134.69 568.809 135.415C568.157 136.131 567.831 137.053 567.831 138.18V150H564.233V137.673C564.233 136.666 563.919 135.857 563.291 135.246C562.663 134.634 561.846 134.328 560.84 134.328C560.156 134.328 559.524 134.509 558.945 134.871C558.373 135.226 557.91 135.721 557.556 136.357C557.21 136.992 557.037 137.729 557.037 138.566V150H553.427ZM588.873 150.411C587.698 150.411 586.635 150.193 585.685 149.759C584.735 149.316 583.983 148.676 583.427 147.839C582.88 147.002 582.606 145.975 582.606 144.76C582.606 143.714 582.808 142.852 583.21 142.176C583.613 141.5 584.156 140.965 584.84 140.57C585.524 140.176 586.289 139.878 587.134 139.677C587.979 139.476 588.84 139.323 589.718 139.218C590.829 139.089 591.73 138.985 592.422 138.904C593.115 138.816 593.618 138.675 593.932 138.482C594.246 138.288 594.403 137.974 594.403 137.54V137.455C594.403 136.401 594.105 135.584 593.509 135.004C592.921 134.425 592.044 134.135 590.877 134.135C589.662 134.135 588.704 134.405 588.003 134.944C587.311 135.475 586.832 136.067 586.567 136.719L583.174 135.946C583.576 134.819 584.164 133.91 584.937 133.217C585.717 132.517 586.615 132.01 587.629 131.696C588.643 131.374 589.71 131.213 590.829 131.213C591.569 131.213 592.354 131.302 593.183 131.479C594.02 131.648 594.801 131.962 595.525 132.42C596.258 132.879 596.858 133.535 597.324 134.388C597.791 135.234 598.025 136.332 598.025 137.685V150H594.499V147.464H594.354C594.121 147.931 593.771 148.39 593.304 148.841C592.837 149.292 592.237 149.666 591.505 149.964C590.772 150.262 589.895 150.411 588.873 150.411ZM589.657 147.513C590.656 147.513 591.509 147.316 592.217 146.921C592.934 146.527 593.477 146.012 593.847 145.376C594.225 144.732 594.415 144.044 594.415 143.311V140.92C594.286 141.049 594.036 141.17 593.666 141.283C593.304 141.387 592.889 141.48 592.422 141.56C591.956 141.633 591.501 141.701 591.058 141.766C590.615 141.822 590.245 141.87 589.947 141.911C589.247 141.999 588.607 142.148 588.028 142.357C587.456 142.567 586.997 142.868 586.651 143.263C586.313 143.649 586.144 144.164 586.144 144.808C586.144 145.702 586.474 146.378 587.134 146.837C587.794 147.287 588.635 147.513 589.657 147.513ZM606.443 125.273V150H602.833V125.273H606.443ZM614.91 125.273V150H611.3V125.273H614.91ZM627.578 150.374C625.84 150.374 624.323 149.976 623.027 149.179C621.731 148.382 620.725 147.267 620.008 145.835C619.292 144.402 618.934 142.728 618.934 140.812C618.934 138.888 619.292 137.206 620.008 135.765C620.725 134.324 621.731 133.205 623.027 132.408C624.323 131.612 625.84 131.213 627.578 131.213C629.317 131.213 630.834 131.612 632.13 132.408C633.426 133.205 634.432 134.324 635.149 135.765C635.865 137.206 636.223 138.888 636.223 140.812C636.223 142.728 635.865 144.402 635.149 145.835C634.432 147.267 633.426 148.382 632.13 149.179C630.834 149.976 629.317 150.374 627.578 150.374ZM627.591 147.344C628.717 147.344 629.651 147.046 630.392 146.45C631.132 145.855 631.68 145.062 632.034 144.072C632.396 143.082 632.577 141.991 632.577 140.8C632.577 139.616 632.396 138.53 632.034 137.54C631.68 136.542 631.132 135.741 630.392 135.137C629.651 134.533 628.717 134.232 627.591 134.232C626.456 134.232 625.514 134.533 624.765 135.137C624.025 135.741 623.473 136.542 623.111 137.54C622.757 138.53 622.58 139.616 622.58 140.8C622.58 141.991 622.757 143.082 623.111 144.072C623.473 145.062 624.025 145.855 624.765 146.45C625.514 147.046 626.456 147.344 627.591 147.344ZM648.065 150.374C646.27 150.374 644.724 149.968 643.428 149.155C642.141 148.334 641.151 147.203 640.458 145.762C639.766 144.321 639.42 142.671 639.42 140.812C639.42 138.928 639.774 137.266 640.482 135.825C641.191 134.376 642.189 133.246 643.477 132.433C644.765 131.62 646.282 131.213 648.029 131.213C649.437 131.213 650.693 131.475 651.796 131.998C652.898 132.513 653.788 133.237 654.464 134.171C655.148 135.105 655.555 136.196 655.683 137.443H652.17C651.977 136.574 651.534 135.825 650.842 135.197C650.158 134.57 649.24 134.256 648.089 134.256C647.083 134.256 646.201 134.521 645.445 135.053C644.696 135.576 644.113 136.324 643.694 137.298C643.276 138.264 643.066 139.407 643.066 140.727C643.066 142.08 643.271 143.247 643.682 144.229C644.093 145.211 644.672 145.971 645.421 146.511C646.177 147.05 647.067 147.32 648.089 147.32C648.773 147.32 649.393 147.195 649.948 146.945C650.512 146.688 650.983 146.321 651.361 145.847C651.747 145.372 652.017 144.8 652.17 144.132H655.683C655.555 145.331 655.164 146.402 654.512 147.344C653.86 148.286 652.987 149.026 651.892 149.565C650.806 150.105 649.53 150.374 648.065 150.374Z" fill="#FF0000"/>
</svg>
