<svg width="972" height="384" viewBox="0 0 972 384" fill="none" xmlns="http://www.w3.org/2000/svg">
<ellipse cx="739.5" cy="193" rx="232.5" ry="135" fill="#D9D9D9"/>
<rect x="604" y="159" width="265" height="49" fill="white"/>
<path d="M612.196 184.511V193H611.156V175.545H612.196V181.98H612.298C612.605 181.298 613.094 180.756 613.764 180.352C614.44 179.943 615.25 179.739 616.193 179.739C617.074 179.739 617.849 179.926 618.52 180.301C619.19 180.67 619.713 181.202 620.088 181.895C620.469 182.582 620.659 183.406 620.659 184.366V193H619.628V184.409C619.628 183.29 619.295 182.392 618.631 181.716C617.966 181.04 617.088 180.702 615.997 180.702C615.264 180.702 614.611 180.861 614.037 181.179C613.463 181.497 613.011 181.943 612.682 182.517C612.358 183.085 612.196 183.75 612.196 184.511ZM630.066 193.273C628.884 193.273 627.856 192.98 626.981 192.395C626.106 191.81 625.43 191.009 624.952 189.991C624.475 188.974 624.237 187.815 624.237 186.514C624.237 185.207 624.475 184.043 624.952 183.02C625.435 181.997 626.097 181.19 626.938 180.599C627.779 180.009 628.739 179.713 629.819 179.713C630.552 179.713 631.245 179.861 631.898 180.156C632.558 180.446 633.137 180.866 633.637 181.418C634.143 181.969 634.538 182.634 634.822 183.412C635.112 184.19 635.256 185.065 635.256 186.037V186.685H624.893V185.739H634.217C634.217 184.79 634.023 183.935 633.637 183.173C633.251 182.412 632.725 181.807 632.06 181.358C631.396 180.909 630.648 180.685 629.819 180.685C628.95 180.685 628.174 180.929 627.492 181.418C626.816 181.901 626.279 182.554 625.881 183.378C625.489 184.202 625.285 185.122 625.268 186.139V186.565C625.268 187.656 625.458 188.636 625.839 189.506C626.225 190.369 626.776 191.054 627.492 191.56C628.208 192.06 629.066 192.31 630.066 192.31C630.782 192.31 631.393 192.19 631.898 191.952C632.41 191.707 632.827 191.412 633.151 191.065C633.475 190.719 633.719 190.384 633.884 190.06L634.83 190.443C634.631 190.881 634.322 191.318 633.901 191.756C633.487 192.187 632.958 192.548 632.316 192.838C631.68 193.128 630.93 193.273 630.066 193.273ZM639.876 175.545V193H638.836V175.545H639.876ZM645.219 175.545V193H644.18V175.545H645.219ZM654.39 193.273C653.31 193.273 652.35 192.983 651.509 192.403C650.668 191.818 650.006 191.014 649.523 189.991C649.04 188.969 648.799 187.804 648.799 186.497C648.799 185.185 649.04 184.02 649.523 183.003C650.006 181.98 650.668 181.176 651.509 180.591C652.35 180.006 653.31 179.713 654.39 179.713C655.469 179.713 656.43 180.006 657.271 180.591C658.112 181.176 658.773 181.98 659.256 183.003C659.739 184.026 659.981 185.19 659.981 186.497C659.981 187.804 659.739 188.969 659.256 189.991C658.773 191.014 658.112 191.818 657.271 192.403C656.43 192.983 655.469 193.273 654.39 193.273ZM654.39 192.31C655.305 192.31 656.103 192.051 656.785 191.534C657.472 191.017 658.004 190.318 658.379 189.438C658.759 188.557 658.95 187.577 658.95 186.497C658.95 185.418 658.759 184.44 658.379 183.565C657.998 182.685 657.467 181.986 656.785 181.469C656.103 180.946 655.305 180.685 654.39 180.685C653.475 180.685 652.677 180.946 651.995 181.469C651.313 181.986 650.782 182.685 650.401 183.565C650.021 184.44 649.83 185.418 649.83 186.497C649.83 187.577 650.018 188.557 650.393 189.438C650.773 190.318 651.305 191.017 651.987 191.534C652.674 192.051 653.475 192.31 654.39 192.31ZM673.168 193L669.247 179.909H670.338L673.713 191.474H673.807L677.19 179.909H678.273L681.648 191.466H681.733L685.108 179.909H686.199L682.278 193H681.119L677.778 181.605H677.668L674.327 193H673.168ZM693.859 193.273C692.779 193.273 691.819 192.983 690.978 192.403C690.137 191.818 689.475 191.014 688.992 189.991C688.509 188.969 688.268 187.804 688.268 186.497C688.268 185.185 688.509 184.02 688.992 183.003C689.475 181.98 690.137 181.176 690.978 180.591C691.819 180.006 692.779 179.713 693.859 179.713C694.938 179.713 695.898 180.006 696.739 180.591C697.58 181.176 698.242 181.98 698.725 183.003C699.208 184.026 699.45 185.19 699.45 186.497C699.45 187.804 699.208 188.969 698.725 189.991C698.242 191.014 697.58 191.818 696.739 192.403C695.898 192.983 694.938 193.273 693.859 193.273ZM693.859 192.31C694.773 192.31 695.572 192.051 696.254 191.534C696.941 191.017 697.472 190.318 697.847 189.438C698.228 188.557 698.418 187.577 698.418 186.497C698.418 185.418 698.228 184.44 697.847 183.565C697.467 182.685 696.935 181.986 696.254 181.469C695.572 180.946 694.773 180.685 693.859 180.685C692.944 180.685 692.146 180.946 691.464 181.469C690.782 181.986 690.251 182.685 689.87 183.565C689.489 184.44 689.299 185.418 689.299 186.497C689.299 187.577 689.487 188.557 689.862 189.438C690.242 190.318 690.773 191.017 691.455 191.534C692.143 192.051 692.944 192.31 693.859 192.31ZM703.031 193V179.909H704.045V181.955H704.139C704.423 181.284 704.903 180.747 705.58 180.344C706.256 179.935 707.026 179.73 707.889 179.73C707.98 179.73 708.071 179.73 708.162 179.73C708.253 179.73 708.338 179.733 708.418 179.739V180.787C708.349 180.781 708.267 180.773 708.17 180.761C708.08 180.744 707.966 180.736 707.83 180.736C707.102 180.736 706.455 180.892 705.886 181.205C705.324 181.517 704.881 181.949 704.557 182.5C704.233 183.045 704.071 183.67 704.071 184.375V193H703.031ZM712.251 175.545V193H711.211V175.545H712.251ZM721.046 193.273C719.995 193.273 719.077 192.983 718.293 192.403C717.509 191.824 716.901 191.026 716.469 190.009C716.043 188.986 715.83 187.812 715.83 186.489C715.83 185.176 716.046 184.011 716.478 182.994C716.915 181.972 717.526 181.17 718.31 180.591C719.094 180.006 720.009 179.713 721.055 179.713C721.805 179.713 722.455 179.858 723.006 180.148C723.563 180.432 724.029 180.81 724.404 181.281C724.785 181.753 725.075 182.27 725.273 182.832H725.376V175.545H726.407V193H725.401V190.145H725.273C725.063 190.707 724.771 191.227 724.396 191.705C724.021 192.176 723.555 192.557 722.998 192.847C722.441 193.131 721.79 193.273 721.046 193.273ZM721.14 192.31C722.026 192.31 722.785 192.057 723.415 191.551C724.052 191.04 724.538 190.347 724.873 189.472C725.214 188.591 725.384 187.594 725.384 186.48C725.384 185.366 725.214 184.375 724.873 183.506C724.538 182.631 724.052 181.943 723.415 181.443C722.785 180.937 722.026 180.685 721.14 180.685C720.242 180.685 719.472 180.94 718.83 181.452C718.194 181.957 717.705 182.648 717.364 183.523C717.029 184.398 716.862 185.384 716.862 186.48C716.862 187.577 717.029 188.565 717.364 189.446C717.705 190.327 718.194 191.026 718.83 191.543C719.472 192.054 720.242 192.31 721.14 192.31Z" fill="black"/>
<path d="M677.47 103V85.5455H681.161V92.7472H688.652V85.5455H692.334V103H688.652V95.7898H681.161V103H677.47ZM695.376 103V85.5455H707.138V88.5881H699.067V92.7472H706.533V95.7898H699.067V99.9574H707.172V103H695.376ZM713.08 103H709.126L715.151 85.5455H719.907L725.924 103H721.969L717.597 89.5341H717.461L713.08 103ZM712.833 96.1392H722.174V99.0199H712.833V96.1392ZM728.025 103V85.5455H734.911C736.235 85.5455 737.363 85.7983 738.295 86.304C739.227 86.804 739.937 87.5 740.425 88.392C740.92 89.2784 741.167 90.3011 741.167 91.4602C741.167 92.6193 740.917 93.642 740.417 94.5284C739.917 95.4148 739.192 96.1051 738.244 96.5994C737.3 97.0937 736.158 97.3409 734.817 97.3409H730.428V94.3835H734.221C734.931 94.3835 735.516 94.2614 735.977 94.017C736.442 93.767 736.789 93.4233 737.016 92.9858C737.249 92.5426 737.366 92.0341 737.366 91.4602C737.366 90.8807 737.249 90.375 737.016 89.9432C736.789 89.5057 736.442 89.1676 735.977 88.929C735.511 88.6847 734.92 88.5625 734.204 88.5625H731.715V103H728.025ZM743.535 92.92H751.335V95.416H743.535V92.92ZM745.359 88.936H751.455V91.336H745.359V88.936ZM745.503 94.384H748.047V105.112H745.503V94.384ZM750.063 92.92H752.559V99.592C752.559 100.672 752.415 101.392 751.719 101.8C751.023 102.208 750.159 102.232 748.959 102.232C748.911 101.488 748.647 100.48 748.335 99.808C748.983 99.832 749.583 99.832 749.799 99.808C750.015 99.808 750.063 99.736 750.063 99.544V92.92ZM752.775 83.56H765.039V85.984H752.775V83.56ZM756.231 93.184V94.72H761.583V93.184H756.231ZM756.231 96.688V98.224H761.583V96.688H756.231ZM756.231 89.704V91.216H761.583V89.704H756.231ZM753.591 87.592H764.343V100.336H753.591V87.592ZM757.455 84.88L760.743 85.24C760.287 86.752 759.783 88.264 759.375 89.296L756.879 88.84C757.119 87.688 757.383 86.056 757.455 84.88ZM755.943 100.36L758.295 101.896C756.975 103.168 754.695 104.512 752.823 105.232C752.367 104.704 751.527 103.84 750.903 103.36C752.775 102.688 754.887 101.392 755.943 100.36ZM759.423 101.968L761.559 100.528C762.903 101.392 764.727 102.712 765.663 103.624L763.407 105.232C762.567 104.344 760.791 102.928 759.423 101.968ZM746.871 82.624H748.455V83.176H749.295V83.944C748.287 86.056 746.655 88.96 743.871 91.528C743.559 90.88 742.815 89.776 742.287 89.344C744.543 87.376 746.055 84.76 746.871 82.624ZM747.087 82.624H749.151C750.735 83.896 752.823 85.816 753.783 87.184L752.007 89.728C751.119 88.336 749.151 86.008 747.615 84.808H747.087V82.624ZM766.887 88.36H773.559V91.072H766.887V88.36ZM769.047 82.96H771.711V99.04H769.047V82.96ZM766.671 99.4C768.351 98.656 770.919 97.36 773.367 96.064L774.207 98.608C772.071 99.88 769.719 101.224 767.751 102.28L766.671 99.4ZM773.919 85.936H789.063V88.528H773.919V85.936ZM773.175 99.88C775.287 99.496 778.455 98.776 781.503 98.08L781.767 100.48C779.031 101.224 776.127 101.992 773.847 102.568L773.175 99.88ZM781.575 82.648H784.311C784.143 92.296 785.463 102.448 787.047 102.448C787.359 102.448 787.575 101.584 787.623 99.448C788.175 100.096 788.991 100.696 789.567 101.008C789.183 104.224 788.487 105.16 786.663 105.16C782.487 105.16 781.623 93.4 781.575 82.648ZM784.767 84.016L786.375 82.624C787.311 83.296 788.487 84.28 789.039 84.976L787.335 86.536C786.807 85.816 785.703 84.76 784.767 84.016ZM786.159 90.112L788.727 90.592C787.215 97 784.431 101.968 780.183 105.016C779.775 104.536 778.695 103.6 778.119 103.192C782.343 100.528 784.911 95.968 786.159 90.112ZM776.727 92.344V95.272H778.575V92.344H776.727ZM774.615 90.136H780.807V97.504H774.615V90.136Z" fill="black"/>
<rect x="176" y="1" width="181" height="383" fill="#D9D9D9"/>
<path d="M212.31 18.5653C212.242 17.8778 211.949 17.3437 211.432 16.9631C210.915 16.5824 210.213 16.392 209.327 16.392C208.725 16.392 208.216 16.4773 207.801 16.6477C207.387 16.8125 207.069 17.0426 206.847 17.3381C206.631 17.6335 206.523 17.9688 206.523 18.3438C206.512 18.6562 206.577 18.929 206.719 19.1619C206.867 19.3949 207.069 19.5966 207.324 19.767C207.58 19.9318 207.875 20.0767 208.211 20.2017C208.546 20.321 208.904 20.4233 209.284 20.5085L210.853 20.8835C211.614 21.054 212.313 21.2812 212.949 21.5653C213.586 21.8494 214.137 22.1989 214.603 22.6136C215.069 23.0284 215.429 23.517 215.685 24.0795C215.946 24.642 216.08 25.2869 216.086 26.0142C216.08 27.0824 215.807 28.0085 215.267 28.7926C214.733 29.571 213.961 30.1761 212.949 30.608C211.944 31.0341 210.73 31.2472 209.31 31.2472C207.901 31.2472 206.674 31.0312 205.628 30.5994C204.588 30.1676 203.776 29.5284 203.191 28.6818C202.611 27.8295 202.307 26.7756 202.279 25.5199H205.85C205.89 26.1051 206.057 26.5937 206.353 26.9858C206.654 27.3722 207.054 27.6648 207.554 27.8636C208.06 28.0568 208.631 28.1534 209.267 28.1534C209.892 28.1534 210.435 28.0625 210.895 27.8807C211.361 27.6989 211.722 27.446 211.978 27.1222C212.233 26.7983 212.361 26.4261 212.361 26.0057C212.361 25.6136 212.245 25.2841 212.012 25.017C211.784 24.75 211.449 24.5227 211.006 24.3352C210.569 24.1477 210.032 23.9773 209.395 23.8239L207.495 23.3466C206.023 22.9886 204.861 22.429 204.009 21.6676C203.157 20.9062 202.733 19.8807 202.739 18.5909C202.733 17.5341 203.015 16.6108 203.583 15.821C204.157 15.0312 204.944 14.4148 205.944 13.9716C206.944 13.5284 208.08 13.3068 209.353 13.3068C210.648 13.3068 211.779 13.5284 212.745 13.9716C213.716 14.4148 214.472 15.0312 215.012 15.821C215.551 16.6108 215.83 17.5256 215.847 18.5653H212.31ZM217.903 16.5881V13.5455H232.238V16.5881H226.895V31H223.247V16.5881H217.903ZM235.475 31H231.52L237.546 13.5455H242.301L248.319 31H244.364L239.992 17.5341H239.855L235.475 31ZM235.228 24.1392H244.569V27.0199H235.228V24.1392ZM265 19.6562H261.267C261.199 19.1733 261.059 18.7443 260.849 18.3693C260.639 17.9886 260.369 17.6648 260.039 17.3977C259.71 17.1307 259.329 16.9261 258.897 16.7841C258.471 16.642 258.008 16.571 257.508 16.571C256.605 16.571 255.818 16.7955 255.147 17.2443C254.477 17.6875 253.957 18.3352 253.588 19.1875C253.218 20.0341 253.034 21.0625 253.034 22.2727C253.034 23.517 253.218 24.5625 253.588 25.4091C253.963 26.2557 254.485 26.8949 255.156 27.3267C255.826 27.7585 256.602 27.9744 257.483 27.9744C257.977 27.9744 258.434 27.9091 258.855 27.7784C259.281 27.6477 259.659 27.4574 259.988 27.2074C260.318 26.9517 260.591 26.642 260.806 26.2784C261.028 25.9148 261.181 25.5 261.267 25.0341L265 25.0511C264.903 25.8523 264.662 26.625 264.275 27.3693C263.895 28.108 263.38 28.7699 262.733 29.3551C262.091 29.9347 261.324 30.3949 260.431 30.7358C259.545 31.071 258.542 31.2386 257.423 31.2386C255.866 31.2386 254.474 30.8864 253.247 30.1818C252.025 29.4773 251.059 28.4574 250.349 27.1222C249.645 25.7869 249.292 24.1705 249.292 22.2727C249.292 20.3693 249.65 18.75 250.366 17.4148C251.082 16.0795 252.054 15.0625 253.281 14.3636C254.508 13.6591 255.889 13.3068 257.423 13.3068C258.434 13.3068 259.372 13.4489 260.235 13.733C261.105 14.017 261.875 14.4318 262.545 14.9773C263.216 15.517 263.761 16.179 264.181 16.9631C264.608 17.7472 264.88 18.6449 265 19.6562ZM267.646 31V13.5455H271.336V21.2415H271.566L277.848 13.5455H282.271L275.794 21.3608L282.348 31H277.933L273.152 23.8239L271.336 26.0398V31H267.646ZM284.164 20.92H291.964V23.416H284.164V20.92ZM285.988 16.936H292.084V19.336H285.988V16.936ZM286.132 22.384H288.676V33.112H286.132V22.384ZM290.692 20.92H293.188V27.592C293.188 28.672 293.044 29.392 292.348 29.8C291.652 30.208 290.788 30.232 289.588 30.232C289.54 29.488 289.276 28.48 288.964 27.808C289.612 27.832 290.212 27.832 290.428 27.808C290.644 27.808 290.692 27.736 290.692 27.544V20.92ZM293.404 11.56H305.668V13.984H293.404V11.56ZM296.86 21.184V22.72H302.212V21.184H296.86ZM296.86 24.688V26.224H302.212V24.688H296.86ZM296.86 17.704V19.216H302.212V17.704H296.86ZM294.22 15.592H304.972V28.336H294.22V15.592ZM298.084 12.88L301.372 13.24C300.916 14.752 300.412 16.264 300.004 17.296L297.508 16.84C297.748 15.688 298.012 14.056 298.084 12.88ZM296.572 28.36L298.924 29.896C297.604 31.168 295.324 32.512 293.452 33.232C292.996 32.704 292.156 31.84 291.532 31.36C293.404 30.688 295.516 29.392 296.572 28.36ZM300.052 29.968L302.188 28.528C303.532 29.392 305.356 30.712 306.292 31.624L304.036 33.232C303.196 32.344 301.42 30.928 300.052 29.968ZM287.5 10.624H289.084V11.176H289.924V11.944C288.916 14.056 287.284 16.96 284.5 19.528C284.188 18.88 283.444 17.776 282.916 17.344C285.172 15.376 286.684 12.76 287.5 10.624ZM287.716 10.624H289.78C291.364 11.896 293.452 13.816 294.412 15.184L292.636 17.728C291.748 16.336 289.78 14.008 288.244 12.808H287.716V10.624ZM307.516 16.36H314.188V19.072H307.516V16.36ZM309.676 10.96H312.34V27.04H309.676V10.96ZM307.3 27.4C308.98 26.656 311.548 25.36 313.996 24.064L314.836 26.608C312.7 27.88 310.348 29.224 308.38 30.28L307.3 27.4ZM314.548 13.936H329.692V16.528H314.548V13.936ZM313.804 27.88C315.916 27.496 319.084 26.776 322.132 26.08L322.396 28.48C319.66 29.224 316.756 29.992 314.476 30.568L313.804 27.88ZM322.204 10.648H324.94C324.772 20.296 326.092 30.448 327.676 30.448C327.988 30.448 328.204 29.584 328.252 27.448C328.804 28.096 329.62 28.696 330.196 29.008C329.812 32.224 329.116 33.16 327.292 33.16C323.116 33.16 322.252 21.4 322.204 10.648ZM325.396 12.016L327.004 10.624C327.94 11.296 329.116 12.28 329.668 12.976L327.964 14.536C327.436 13.816 326.332 12.76 325.396 12.016ZM326.788 18.112L329.356 18.592C327.844 25 325.06 29.968 320.812 33.016C320.404 32.536 319.324 31.6 318.748 31.192C322.972 28.528 325.54 23.968 326.788 18.112ZM317.356 20.344V23.272H319.204V20.344H317.356ZM315.244 18.136H321.436V25.504H315.244V18.136Z" fill="black"/>
<rect x="186.5" y="285.5" width="160" height="87" fill="white" stroke="black"/>
<path d="M194.156 312.909V294.909H195.17V297.832H195.298C195.503 297.27 195.79 296.753 196.159 296.281C196.534 295.81 196.997 295.432 197.548 295.148C198.105 294.858 198.759 294.713 199.509 294.713C200.565 294.713 201.486 295.003 202.27 295.582C203.054 296.162 203.662 296.963 204.094 297.986C204.526 299.003 204.741 300.17 204.741 301.489C204.741 302.807 204.523 303.977 204.085 305C203.653 306.017 203.045 306.818 202.261 307.403C201.483 307.983 200.571 308.273 199.526 308.273C198.781 308.273 198.128 308.131 197.565 307.847C197.009 307.562 196.54 307.185 196.159 306.713C195.784 306.236 195.497 305.713 195.298 305.145H195.196V312.909H194.156ZM195.179 301.48C195.179 302.594 195.349 303.591 195.69 304.472C196.031 305.347 196.52 306.04 197.156 306.551C197.793 307.057 198.551 307.31 199.432 307.31C200.324 307.31 201.088 307.054 201.724 306.543C202.366 306.026 202.855 305.327 203.19 304.446C203.531 303.565 203.702 302.577 203.702 301.48C203.702 300.384 203.534 299.398 203.199 298.523C202.864 297.648 202.378 296.957 201.741 296.452C201.105 295.94 200.335 295.685 199.432 295.685C198.54 295.685 197.776 295.937 197.139 296.443C196.509 296.943 196.023 297.631 195.682 298.506C195.347 299.375 195.179 300.366 195.179 301.48ZM212.964 294.909V295.838H207.245V294.909H212.964ZM209.18 291.773H210.211V304.906C210.211 305.44 210.313 305.878 210.518 306.219C210.728 306.554 211.001 306.804 211.336 306.969C211.677 307.128 212.04 307.207 212.427 307.207C212.614 307.207 212.776 307.193 212.913 307.165C213.055 307.136 213.188 307.099 213.313 307.054L213.569 308C213.41 308.057 213.234 308.105 213.04 308.145C212.847 308.19 212.62 308.213 212.359 308.213C211.813 308.213 211.296 308.091 210.808 307.847C210.325 307.602 209.933 307.247 209.631 306.781C209.33 306.315 209.18 305.753 209.18 305.094V291.773ZM216.82 308V294.909H217.835V296.955H217.928C218.212 296.284 218.692 295.747 219.369 295.344C220.045 294.935 220.815 294.73 221.678 294.73C221.769 294.73 221.86 294.73 221.951 294.73C222.042 294.73 222.127 294.733 222.207 294.739V295.787C222.138 295.781 222.056 295.773 221.96 295.761C221.869 295.744 221.755 295.736 221.619 295.736C220.891 295.736 220.244 295.892 219.675 296.205C219.113 296.517 218.67 296.949 218.346 297.5C218.022 298.045 217.86 298.67 217.86 299.375V308H216.82ZM225.972 307.207C225.716 307.207 225.497 307.116 225.315 306.935C225.139 306.753 225.051 306.537 225.051 306.287C225.051 306.031 225.139 305.815 225.315 305.639C225.497 305.457 225.716 305.366 225.972 305.366C226.222 305.366 226.438 305.457 226.619 305.639C226.801 305.815 226.892 306.031 226.892 306.287C226.892 306.452 226.849 306.605 226.764 306.747C226.685 306.889 226.574 307.003 226.432 307.088C226.295 307.168 226.142 307.207 225.972 307.207ZM225.972 298.037C225.716 298.037 225.497 297.946 225.315 297.764C225.139 297.582 225.051 297.366 225.051 297.116C225.051 296.861 225.139 296.645 225.315 296.469C225.497 296.287 225.716 296.196 225.972 296.196C226.222 296.196 226.438 296.287 226.619 296.469C226.801 296.645 226.892 296.861 226.892 297.116C226.892 297.281 226.849 297.435 226.764 297.577C226.685 297.719 226.574 297.832 226.432 297.918C226.295 297.997 226.142 298.037 225.972 298.037Z" fill="black"/>
<path d="M195.196 319.545V337H194.156V319.545H195.196ZM204.605 337.273C203.423 337.273 202.395 336.98 201.52 336.395C200.645 335.81 199.969 335.009 199.491 333.991C199.014 332.974 198.776 331.815 198.776 330.514C198.776 329.207 199.014 328.043 199.491 327.02C199.974 325.997 200.636 325.19 201.477 324.599C202.318 324.009 203.278 323.713 204.358 323.713C205.091 323.713 205.784 323.861 206.438 324.156C207.097 324.446 207.676 324.866 208.176 325.418C208.682 325.969 209.077 326.634 209.361 327.412C209.651 328.19 209.795 329.065 209.795 330.037V330.685H199.432V329.739H208.756C208.756 328.79 208.563 327.935 208.176 327.173C207.79 326.412 207.264 325.807 206.599 325.358C205.935 324.909 205.188 324.685 204.358 324.685C203.489 324.685 202.713 324.929 202.031 325.418C201.355 325.901 200.818 326.554 200.42 327.378C200.028 328.202 199.824 329.122 199.807 330.139V330.565C199.807 331.656 199.997 332.636 200.378 333.506C200.764 334.369 201.315 335.054 202.031 335.56C202.747 336.06 203.605 336.31 204.605 336.31C205.321 336.31 205.932 336.19 206.438 335.952C206.949 335.707 207.366 335.412 207.69 335.065C208.014 334.719 208.259 334.384 208.423 334.06L209.369 334.443C209.17 334.881 208.861 335.318 208.44 335.756C208.026 336.187 207.497 336.548 206.855 336.838C206.219 337.128 205.469 337.273 204.605 337.273ZM214.415 328.511V337H213.375V323.909H214.389V325.98H214.491C214.798 325.304 215.29 324.761 215.966 324.352C216.642 323.943 217.446 323.739 218.378 323.739C219.259 323.739 220.031 323.926 220.696 324.301C221.366 324.676 221.889 325.21 222.264 325.903C222.645 326.591 222.835 327.412 222.835 328.366V337H221.795V328.409C221.795 327.295 221.463 326.401 220.798 325.724C220.139 325.043 219.267 324.702 218.182 324.702C217.455 324.702 216.807 324.861 216.239 325.179C215.67 325.497 215.224 325.943 214.901 326.517C214.577 327.085 214.415 327.75 214.415 328.511ZM228.128 336.207C227.872 336.207 227.653 336.116 227.472 335.935C227.295 335.753 227.207 335.537 227.207 335.287C227.207 335.031 227.295 334.815 227.472 334.639C227.653 334.457 227.872 334.366 228.128 334.366C228.378 334.366 228.594 334.457 228.776 334.639C228.957 334.815 229.048 335.031 229.048 335.287C229.048 335.452 229.006 335.605 228.92 335.747C228.841 335.889 228.73 336.003 228.588 336.088C228.452 336.168 228.298 336.207 228.128 336.207ZM228.128 327.037C227.872 327.037 227.653 326.946 227.472 326.764C227.295 326.582 227.207 326.366 227.207 326.116C227.207 325.861 227.295 325.645 227.472 325.469C227.653 325.287 227.872 325.196 228.128 325.196C228.378 325.196 228.594 325.287 228.776 325.469C228.957 325.645 229.048 325.861 229.048 326.116C229.048 326.281 229.006 326.435 228.92 326.577C228.841 326.719 228.73 326.832 228.588 326.918C228.452 326.997 228.298 327.037 228.128 327.037ZM244.724 319.545V337H243.658V320.67H243.556L239.636 323.27V322.128L243.522 319.545H244.724ZM254.966 319.545V337H253.901V320.67H253.798L249.878 323.27V322.128L253.764 319.545H254.966Z" fill="black"/>
<path d="M199.065 366.273C197.952 366.273 196.972 365.98 196.125 365.395C195.278 364.804 194.616 363.997 194.139 362.974C193.668 361.952 193.432 360.793 193.432 359.497C193.432 358.202 193.67 357.043 194.148 356.02C194.625 354.997 195.287 354.19 196.134 353.599C196.98 353.009 197.955 352.713 199.057 352.713C199.886 352.713 200.642 352.884 201.324 353.224C202.011 353.565 202.58 354.04 203.028 354.648C203.483 355.256 203.773 355.96 203.898 356.761H202.841C202.67 355.875 202.244 355.142 201.562 354.562C200.886 353.977 200.054 353.685 199.065 353.685C198.179 353.685 197.389 353.935 196.696 354.435C196.003 354.929 195.457 355.614 195.06 356.489C194.662 357.358 194.463 358.355 194.463 359.48C194.463 360.588 194.656 361.582 195.043 362.463C195.429 363.338 195.969 364.031 196.662 364.543C197.355 365.054 198.156 365.31 199.065 365.31C199.707 365.31 200.293 365.182 200.821 364.926C201.355 364.67 201.801 364.307 202.159 363.835C202.517 363.364 202.753 362.812 202.866 362.182H203.923C203.798 362.989 203.514 363.699 203.071 364.312C202.628 364.926 202.062 365.406 201.375 365.753C200.688 366.099 199.918 366.273 199.065 366.273ZM210.938 366.281C210.182 366.281 209.489 366.131 208.858 365.83C208.233 365.528 207.73 365.088 207.349 364.509C206.974 363.929 206.787 363.224 206.787 362.395C206.787 361.849 206.884 361.369 207.077 360.955C207.27 360.54 207.568 360.182 207.972 359.881C208.375 359.58 208.892 359.332 209.523 359.139C210.153 358.94 210.906 358.787 211.781 358.679C212.446 358.599 213.04 358.523 213.562 358.449C214.085 358.369 214.494 358.247 214.79 358.082C215.091 357.918 215.241 357.668 215.241 357.332V356.787C215.241 355.832 214.94 355.074 214.338 354.511C213.736 353.949 212.906 353.668 211.849 353.668C210.912 353.668 210.122 353.875 209.48 354.29C208.844 354.699 208.398 355.227 208.142 355.875L207.162 355.509C207.412 354.884 207.773 354.364 208.244 353.949C208.722 353.534 209.267 353.224 209.881 353.02C210.5 352.815 211.148 352.713 211.824 352.713C212.409 352.713 212.966 352.795 213.494 352.96C214.028 353.125 214.503 353.375 214.918 353.71C215.338 354.045 215.67 354.474 215.915 354.997C216.159 355.514 216.281 356.134 216.281 356.855V366H215.241V363.639H215.165C214.938 364.128 214.625 364.574 214.227 364.977C213.835 365.375 213.361 365.693 212.804 365.932C212.253 366.165 211.631 366.281 210.938 366.281ZM211.04 365.318C211.858 365.318 212.582 365.119 213.213 364.722C213.849 364.318 214.347 363.767 214.705 363.068C215.063 362.369 215.241 361.577 215.241 360.69V358.764C215.111 358.878 214.92 358.98 214.67 359.071C214.426 359.156 214.148 359.233 213.835 359.301C213.528 359.364 213.205 359.42 212.864 359.472C212.528 359.517 212.202 359.56 211.884 359.599C210.929 359.713 210.151 359.889 209.548 360.128C208.952 360.361 208.514 360.668 208.236 361.048C207.963 361.429 207.827 361.889 207.827 362.429C207.827 363.321 208.134 364.026 208.747 364.543C209.361 365.06 210.125 365.318 211.04 365.318ZM220.641 370.909V352.909H221.655V355.832H221.783C221.987 355.27 222.274 354.753 222.643 354.281C223.018 353.81 223.482 353.432 224.033 353.148C224.589 352.858 225.243 352.713 225.993 352.713C227.05 352.713 227.97 353.003 228.754 353.582C229.538 354.162 230.146 354.963 230.578 355.986C231.01 357.003 231.226 358.17 231.226 359.489C231.226 360.807 231.007 361.977 230.57 363C230.138 364.017 229.53 364.818 228.746 365.403C227.967 365.983 227.055 366.273 226.01 366.273C225.266 366.273 224.612 366.131 224.05 365.847C223.493 365.562 223.024 365.185 222.643 364.713C222.268 364.236 221.982 363.713 221.783 363.145H221.68V370.909H220.641ZM221.663 359.48C221.663 360.594 221.834 361.591 222.175 362.472C222.516 363.347 223.004 364.04 223.641 364.551C224.277 365.057 225.036 365.31 225.916 365.31C226.808 365.31 227.572 365.054 228.209 364.543C228.851 364.026 229.339 363.327 229.675 362.446C230.016 361.565 230.186 360.577 230.186 359.48C230.186 358.384 230.018 357.398 229.683 356.523C229.348 355.648 228.862 354.957 228.226 354.452C227.589 353.94 226.82 353.685 225.916 353.685C225.024 353.685 224.26 353.937 223.624 354.443C222.993 354.943 222.507 355.631 222.166 356.506C221.831 357.375 221.663 358.366 221.663 359.48ZM235.792 365.207C235.536 365.207 235.317 365.116 235.136 364.935C234.96 364.753 234.871 364.537 234.871 364.287C234.871 364.031 234.96 363.815 235.136 363.639C235.317 363.457 235.536 363.366 235.792 363.366C236.042 363.366 236.258 363.457 236.44 363.639C236.621 363.815 236.712 364.031 236.712 364.287C236.712 364.452 236.67 364.605 236.585 364.747C236.505 364.889 236.394 365.003 236.252 365.088C236.116 365.168 235.962 365.207 235.792 365.207ZM235.792 356.037C235.536 356.037 235.317 355.946 235.136 355.764C234.96 355.582 234.871 355.366 234.871 355.116C234.871 354.861 234.96 354.645 235.136 354.469C235.317 354.287 235.536 354.196 235.792 354.196C236.042 354.196 236.258 354.287 236.44 354.469C236.621 354.645 236.712 354.861 236.712 355.116C236.712 355.281 236.67 355.435 236.585 355.577C236.505 355.719 236.394 355.832 236.252 355.918C236.116 355.997 235.962 356.037 235.792 356.037ZM252.388 348.545V366H251.322V349.67H251.22L247.3 352.27V351.128L251.186 348.545H252.388ZM263.141 366.239C261.977 366.239 260.977 365.881 260.141 365.165C259.306 364.449 258.664 363.423 258.215 362.088C257.772 360.747 257.55 359.142 257.55 357.273C257.55 355.409 257.775 353.807 258.224 352.466C258.673 351.125 259.312 350.097 260.141 349.381C260.977 348.665 261.977 348.307 263.141 348.307C264.306 348.307 265.303 348.665 266.133 349.381C266.968 350.097 267.61 351.125 268.059 352.466C268.508 353.807 268.732 355.409 268.732 357.273C268.732 359.142 268.508 360.747 268.059 362.088C267.616 363.423 266.977 364.449 266.141 365.165C265.306 365.881 264.306 366.239 263.141 366.239ZM263.141 365.25C264.556 365.25 265.667 364.548 266.474 363.145C267.281 361.736 267.684 359.778 267.684 357.273C267.684 355.602 267.499 354.17 267.13 352.977C266.766 351.784 266.246 350.872 265.57 350.241C264.894 349.605 264.085 349.287 263.141 349.287C261.727 349.287 260.616 349.991 259.809 351.401C259.002 352.81 258.599 354.767 258.599 357.273C258.599 358.943 258.781 360.375 259.144 361.568C259.508 362.756 260.028 363.668 260.704 364.304C261.386 364.935 262.198 365.25 263.141 365.25ZM277.602 366.239C276.438 366.239 275.438 365.881 274.602 365.165C273.767 364.449 273.125 363.423 272.676 362.088C272.233 360.747 272.011 359.142 272.011 357.273C272.011 355.409 272.236 353.807 272.685 352.466C273.134 351.125 273.773 350.097 274.602 349.381C275.438 348.665 276.438 348.307 277.602 348.307C278.767 348.307 279.764 348.665 280.594 349.381C281.429 350.097 282.071 351.125 282.52 352.466C282.969 353.807 283.193 355.409 283.193 357.273C283.193 359.142 282.969 360.747 282.52 362.088C282.077 363.423 281.438 364.449 280.602 365.165C279.767 365.881 278.767 366.239 277.602 366.239ZM277.602 365.25C279.017 365.25 280.128 364.548 280.935 363.145C281.741 361.736 282.145 359.778 282.145 357.273C282.145 355.602 281.96 354.17 281.591 352.977C281.227 351.784 280.707 350.872 280.031 350.241C279.355 349.605 278.545 349.287 277.602 349.287C276.188 349.287 275.077 349.991 274.27 351.401C273.463 352.81 273.06 354.767 273.06 357.273C273.06 358.943 273.241 360.375 273.605 361.568C273.969 362.756 274.489 363.668 275.165 364.304C275.847 364.935 276.659 365.25 277.602 365.25Z" fill="black"/>
<path d="M598.881 197.473C599.142 196.986 598.96 196.38 598.473 196.119L590.543 191.862C590.057 191.601 589.45 191.784 589.189 192.27C588.928 192.757 589.111 193.363 589.597 193.624L596.646 197.408L592.862 204.457C592.601 204.943 592.784 205.55 593.27 205.811C593.757 206.072 594.363 205.889 594.624 205.403L598.881 197.473ZM243.289 304.957L598.289 197.957L597.711 196.043L242.711 303.043L243.289 304.957Z" fill="black"/>
<path d="M24.7071 55.2929C24.3166 54.9024 23.6834 54.9024 23.2929 55.2929L16.9289 61.6569C16.5384 62.0474 16.5384 62.6805 16.9289 63.0711C17.3195 63.4616 17.9526 63.4616 18.3432 63.0711L24 57.4142L29.6569 63.0711C30.0474 63.4616 30.6806 63.4616 31.0711 63.0711C31.4616 62.6805 31.4616 62.0474 31.0711 61.6569L24.7071 55.2929ZM25 330L25 56L23 56L23 330L25 330Z" fill="black"/>
<path d="M10.56 19.896H22.8V21.576H10.56V19.896ZM9.504 38.736H23.016V40.416H9.504V38.736ZM12.24 33L13.8 32.64C14.4 34.248 14.952 36.36 15.12 37.728L13.464 38.16C13.344 36.768 12.816 34.632 12.24 33ZM19.224 32.496L21.048 32.904C20.424 34.728 19.704 36.96 19.08 38.304L17.568 37.896C18.168 36.504 18.888 34.128 19.224 32.496ZM13.224 25.824V30.048H20.04V25.824H13.224ZM11.52 24.216H21.792V31.656H11.52V24.216ZM5.448 22.92H7.176V27.648C7.176 31.632 6.456 37.2 2.112 40.848C1.896 40.464 1.224 39.792 0.888 39.576C4.968 36.144 5.448 31.296 5.448 27.624V22.92ZM3.264 21.984H10.344V23.64H3.264V21.984ZM1.032 28.488H10.632V30.168H1.032V28.488ZM6.648 31.608C7.416 32.328 10.152 35.472 10.776 36.24L9.6 37.728C8.784 36.432 6.504 33.624 5.568 32.592L6.648 31.608ZM3.456 18.96L5.184 19.272C4.608 22.392 3.624 25.416 2.328 27.408C1.992 27.144 1.2 26.712 0.768 26.544C2.088 24.696 2.976 21.84 3.456 18.96ZM35.904 20.496C33.816 23.16 29.736 26.304 25.536 28.344C25.32 27.912 24.84 27.24 24.456 26.856C28.728 24.912 32.88 21.624 34.872 18.792H36.72C39.408 22.008 43.752 25.032 47.616 26.568C47.184 27.024 46.752 27.648 46.44 28.176C42.672 26.424 38.256 23.304 35.904 20.496ZM31.176 25.032H41.016V26.664H31.176V25.032ZM27.984 28.824H34.704V37.056H27.984V35.448H33.048V30.408H27.984V28.824ZM36.768 28.8H43.896V30.408H38.472V40.968H36.768V28.8ZM43.32 28.8H45.072V36.336C45.072 37.224 44.88 37.752 44.184 38.016C43.512 38.304 42.384 38.328 40.56 38.328C40.512 37.824 40.248 37.128 40.032 36.672C41.376 36.72 42.528 36.72 42.888 36.696C43.224 36.672 43.32 36.6 43.32 36.288V28.8ZM27.24 28.824H28.872V39.096H27.24V28.824Z" fill="black"/>
<path d="M1.248 351.36H22.728V352.968H1.248V351.36ZM6.48 344.352H19.632V345.816H6.48V344.352ZM6.48 347.832H19.632V349.296H6.48V347.832ZM2.4 360.096C5.16 359.712 9.528 358.968 13.632 358.296L13.704 359.88C9.864 360.576 5.736 361.272 2.856 361.776L2.4 360.096ZM12.096 351.792C13.776 356.304 17.568 359.328 23.112 360.408C22.728 360.768 22.224 361.488 21.984 361.992C16.176 360.648 12.408 357.36 10.464 352.224L12.096 351.792ZM20.208 353.184L21.648 354.168C19.848 355.512 17.448 356.904 15.576 357.792L14.352 356.832C16.176 355.92 18.72 354.36 20.208 353.184ZM5.496 340.8H20.4V342.336H7.32V352.032H5.496V340.8ZM5.472 351.864H7.32V360.12L5.472 360.336V351.864ZM26.664 341.904H45.432V343.464H26.664V341.904ZM27.624 345.432H44.496V346.944H27.624V345.432ZM25.248 349.056H46.728V350.64H25.248V349.056ZM25.656 353.064H46.344V354.648H25.656V353.064ZM40.512 350.424H42.336V359.664C42.336 360.72 42.096 361.248 41.328 361.536C40.512 361.824 39.192 361.824 37.176 361.824C37.08 361.32 36.792 360.6 36.552 360.072C38.16 360.12 39.576 360.12 39.984 360.096C40.416 360.096 40.512 359.976 40.512 359.64V350.424ZM34.68 339.816L36.648 340.032C35.352 349.992 32.88 356.736 26.592 360.84C26.304 360.456 25.488 359.712 25.008 359.376C31.248 355.752 33.552 349.248 34.68 339.816ZM31.656 356.544L33.144 355.608C34.32 356.688 35.76 358.224 36.456 359.208L34.896 360.264C34.248 359.256 32.832 357.672 31.656 356.544Z" fill="black"/>
<path d="M64.1154 337V323.909H66.5614V326.04H66.7234C66.9961 325.318 67.4421 324.756 68.0614 324.352C68.6808 323.943 69.4222 323.739 70.2859 323.739C71.1609 323.739 71.8938 323.943 72.4847 324.352C73.0813 324.761 73.5217 325.324 73.8058 326.04H73.9421C74.2546 325.341 74.7518 324.784 75.4336 324.369C76.1154 323.949 76.9279 323.739 77.8711 323.739C79.0586 323.739 80.0273 324.111 80.7773 324.855C81.533 325.599 81.9109 326.722 81.9109 328.222V337H79.3626V328.46C79.3626 327.574 79.1211 326.932 78.6381 326.534C78.1552 326.136 77.5785 325.938 76.908 325.938C76.0785 325.938 75.4336 326.193 74.9734 326.705C74.5131 327.21 74.283 327.861 74.283 328.656V337H71.7433V328.298C71.7433 327.588 71.5217 327.017 71.0785 326.585C70.6353 326.153 70.0586 325.938 69.3484 325.938C68.8654 325.938 68.4194 326.065 68.0103 326.321C67.6069 326.571 67.2802 326.92 67.0302 327.369C66.7859 327.818 66.6637 328.338 66.6637 328.929V337H64.1154ZM89.136 337.29C88.3065 337.29 87.5565 337.136 86.886 336.83C86.2156 336.517 85.6843 336.065 85.2923 335.474C84.9059 334.884 84.7127 334.159 84.7127 333.301C84.7127 332.562 84.8548 331.955 85.1388 331.477C85.4229 331 85.8065 330.622 86.2894 330.344C86.7724 330.065 87.3121 329.855 87.9087 329.713C88.5053 329.571 89.1133 329.463 89.7326 329.389C90.5167 329.298 91.1531 329.224 91.6417 329.168C92.1303 329.105 92.4854 329.006 92.707 328.869C92.9286 328.733 93.0394 328.511 93.0394 328.205V328.145C93.0394 327.401 92.8292 326.824 92.4087 326.415C91.994 326.006 91.3746 325.801 90.5508 325.801C89.6928 325.801 89.0167 325.991 88.5224 326.372C88.0337 326.747 87.6957 327.165 87.5082 327.625L85.1133 327.08C85.3974 326.284 85.8121 325.642 86.3576 325.153C86.9087 324.659 87.5423 324.301 88.2582 324.08C88.9741 323.852 89.7269 323.739 90.5167 323.739C91.0394 323.739 91.5934 323.801 92.1786 323.926C92.7695 324.045 93.3207 324.267 93.832 324.591C94.3491 324.915 94.7724 325.378 95.1019 325.98C95.4315 326.577 95.5962 327.352 95.5962 328.307V337H93.1076V335.21H93.0053C92.8406 335.54 92.5934 335.864 92.2638 336.182C91.9343 336.5 91.511 336.764 90.994 336.974C90.4769 337.185 89.8576 337.29 89.136 337.29ZM89.69 335.244C90.3945 335.244 90.9968 335.105 91.4968 334.827C92.0025 334.548 92.386 334.185 92.6474 333.736C92.9144 333.281 93.0479 332.795 93.0479 332.278V330.591C92.957 330.682 92.7809 330.767 92.5195 330.847C92.2638 330.92 91.9712 330.986 91.6417 331.043C91.3121 331.094 90.9911 331.142 90.6786 331.188C90.3661 331.227 90.1048 331.261 89.8945 331.29C89.4002 331.352 88.9485 331.457 88.5394 331.605C88.136 331.753 87.8121 331.966 87.5678 332.244C87.3292 332.517 87.2099 332.881 87.2099 333.335C87.2099 333.966 87.4428 334.443 87.9087 334.767C88.3746 335.085 88.9684 335.244 89.69 335.244ZM98.9904 337V323.909H101.539V337H98.9904ZM100.277 321.889C99.8342 321.889 99.4535 321.741 99.1353 321.446C98.8228 321.145 98.6665 320.787 98.6665 320.372C98.6665 319.952 98.8228 319.594 99.1353 319.298C99.4535 318.997 99.8342 318.847 100.277 318.847C100.721 318.847 101.098 318.997 101.411 319.298C101.729 319.594 101.888 319.952 101.888 320.372C101.888 320.787 101.729 321.145 101.411 321.446C101.098 321.741 100.721 321.889 100.277 321.889ZM107.515 329.227V337H104.967V323.909H107.413V326.04H107.575C107.876 325.347 108.348 324.79 108.99 324.369C109.637 323.949 110.453 323.739 111.436 323.739C112.328 323.739 113.109 323.926 113.779 324.301C114.45 324.67 114.97 325.222 115.339 325.955C115.708 326.687 115.893 327.594 115.893 328.673V337H113.345V328.98C113.345 328.031 113.098 327.29 112.603 326.756C112.109 326.216 111.43 325.946 110.566 325.946C109.975 325.946 109.45 326.074 108.99 326.33C108.535 326.585 108.174 326.96 107.907 327.455C107.646 327.943 107.515 328.534 107.515 329.227Z" fill="black"/>
<path d="M144.917 304.105L142.608 304.514C142.511 304.219 142.358 303.937 142.147 303.67C141.943 303.403 141.664 303.185 141.312 303.014C140.96 302.844 140.52 302.759 139.991 302.759C139.27 302.759 138.667 302.92 138.184 303.244C137.701 303.562 137.46 303.974 137.46 304.48C137.46 304.918 137.622 305.27 137.946 305.537C138.27 305.804 138.792 306.023 139.514 306.193L141.593 306.67C142.798 306.949 143.696 307.378 144.287 307.957C144.877 308.537 145.173 309.29 145.173 310.216C145.173 311 144.946 311.699 144.491 312.312C144.042 312.92 143.414 313.398 142.608 313.744C141.806 314.091 140.877 314.264 139.821 314.264C138.355 314.264 137.159 313.952 136.233 313.327C135.306 312.696 134.738 311.801 134.528 310.642L136.991 310.267C137.145 310.909 137.46 311.395 137.937 311.724C138.414 312.048 139.037 312.21 139.804 312.21C140.639 312.21 141.306 312.037 141.806 311.69C142.306 311.338 142.556 310.909 142.556 310.403C142.556 309.994 142.403 309.651 142.096 309.372C141.795 309.094 141.332 308.884 140.707 308.741L138.491 308.256C137.27 307.977 136.366 307.534 135.781 306.926C135.201 306.318 134.912 305.548 134.912 304.616C134.912 303.844 135.127 303.168 135.559 302.588C135.991 302.009 136.588 301.557 137.349 301.233C138.11 300.903 138.983 300.739 139.966 300.739C141.38 300.739 142.494 301.045 143.306 301.659C144.119 302.267 144.656 303.082 144.917 304.105ZM154.563 296.545V314H151.921V299.188H151.819L147.642 301.915V299.392L151.998 296.545H154.563Z" fill="black"/>
<path d="M142.73 357.105L140.42 357.514C140.324 357.219 140.17 356.937 139.96 356.67C139.755 356.403 139.477 356.185 139.125 356.014C138.772 355.844 138.332 355.759 137.804 355.759C137.082 355.759 136.48 355.92 135.997 356.244C135.514 356.562 135.272 356.974 135.272 357.48C135.272 357.918 135.434 358.27 135.758 358.537C136.082 358.804 136.605 359.023 137.326 359.193L139.406 359.67C140.61 359.949 141.508 360.378 142.099 360.957C142.69 361.537 142.985 362.29 142.985 363.216C142.985 364 142.758 364.699 142.304 365.312C141.855 365.92 141.227 366.398 140.42 366.744C139.619 367.091 138.69 367.264 137.633 367.264C136.167 367.264 134.971 366.952 134.045 366.327C133.119 365.696 132.551 364.801 132.341 363.642L134.804 363.267C134.957 363.909 135.272 364.395 135.75 364.724C136.227 365.048 136.849 365.21 137.616 365.21C138.451 365.21 139.119 365.037 139.619 364.69C140.119 364.338 140.369 363.909 140.369 363.403C140.369 362.994 140.216 362.651 139.909 362.372C139.608 362.094 139.145 361.884 138.52 361.741L136.304 361.256C135.082 360.977 134.179 360.534 133.593 359.926C133.014 359.318 132.724 358.548 132.724 357.616C132.724 356.844 132.94 356.168 133.372 355.588C133.804 355.009 134.4 354.557 135.162 354.233C135.923 353.903 136.795 353.739 137.778 353.739C139.193 353.739 140.306 354.045 141.119 354.659C141.931 355.267 142.468 356.082 142.73 357.105ZM145.753 367V365.091L151.659 358.972C152.29 358.307 152.81 357.724 153.219 357.224C153.634 356.719 153.944 356.239 154.148 355.784C154.353 355.33 154.455 354.847 154.455 354.335C154.455 353.756 154.319 353.256 154.046 352.835C153.773 352.409 153.401 352.082 152.929 351.855C152.458 351.622 151.926 351.506 151.336 351.506C150.711 351.506 150.165 351.634 149.699 351.889C149.233 352.145 148.875 352.506 148.625 352.972C148.375 353.437 148.25 353.983 148.25 354.608H145.736C145.736 353.545 145.98 352.616 146.469 351.821C146.958 351.026 147.628 350.409 148.48 349.972C149.333 349.528 150.301 349.307 151.387 349.307C152.483 349.307 153.449 349.526 154.284 349.963C155.125 350.395 155.782 350.986 156.253 351.736C156.725 352.48 156.961 353.321 156.961 354.259C156.961 354.906 156.838 355.54 156.594 356.159C156.355 356.778 155.938 357.469 155.341 358.23C154.745 358.986 153.915 359.903 152.853 360.983L149.384 364.614V364.741H157.242V367H145.753Z" fill="black"/>
<path d="M718 329V331H720V329H718ZM719.414 210.586C718.633 209.805 717.367 209.805 716.586 210.586L703.858 223.314C703.077 224.095 703.077 225.361 703.858 226.142C704.639 226.923 705.905 226.923 706.686 226.142L718 214.828L729.314 226.142C730.095 226.923 731.361 226.923 732.142 226.142C732.923 225.361 732.923 224.095 732.142 223.314L719.414 210.586ZM347 331H718V327H347V331ZM720 329V212H716V329H720Z" fill="#FF0000"/>
<path d="M144.293 341.707C144.683 342.098 145.317 342.098 145.707 341.707L152.071 335.343C152.462 334.953 152.462 334.319 152.071 333.929C151.681 333.538 151.047 333.538 150.657 333.929L145 339.586L139.343 333.929C138.953 333.538 138.319 333.538 137.929 333.929C137.538 334.319 137.538 334.953 137.929 335.343L144.293 341.707ZM144 325L144 341L146 341L146 325L144 325Z" fill="#0500FF"/>
<path d="M503.464 291.184H513.808V292.84H503.464V291.184ZM515.512 298.024H525.16V299.752H515.512V298.024ZM520.72 299.152H522.496V311.944H520.72V299.152ZM514.816 292.216L517.072 292.816C517.048 292.984 516.928 293.08 516.592 293.128V298.624C516.592 302.512 516.088 308.008 512.488 311.872C512.224 311.488 511.576 310.888 511.144 310.672C514.48 307.12 514.816 302.296 514.816 298.624V292.216ZM504.352 295.336H506.056V301.816C506.056 304.888 505.768 309.136 503.92 311.968C503.632 311.632 502.888 311.08 502.504 310.864C504.184 308.272 504.352 304.576 504.352 301.816V295.336ZM523.096 290.128L524.68 291.496C522.304 292.648 518.824 293.632 515.824 294.328C515.728 293.92 515.44 293.272 515.2 292.864C518.056 292.192 521.296 291.16 523.096 290.128ZM505.336 295.336H513.208V302.824H505.336V301.192H511.456V296.992H505.336V295.336ZM527.512 292.96H548.536V294.664H527.512V292.96ZM533.368 301.528H544.648V303.088H533.368V301.528ZM532.096 297.448H544.36V299.056H533.872V311.92H532.096V297.448ZM543.952 297.448H545.704V309.688C545.704 310.744 545.488 311.296 544.672 311.584C543.904 311.872 542.56 311.872 540.496 311.872C540.424 311.368 540.16 310.624 539.896 310.12C541.504 310.192 542.968 310.168 543.4 310.168C543.808 310.144 543.952 310.024 543.952 309.664V297.448ZM535.36 289.84L537.184 290.272C535.552 295.552 532.672 300.88 528.088 304.096C527.848 303.688 527.296 303.064 526.936 302.704C531.232 299.752 534.064 294.664 535.36 289.84ZM533.368 305.584H544.648V307.144H533.368V305.584ZM561.952 292.264H572.272V293.824H561.952V292.264ZM562.672 303.328H572.176V304.6H562.672V303.328ZM562.696 306.472H572.2V307.72H562.696V306.472ZM562.528 309.664H573.04V311.08H562.528V309.664ZM559.312 296.344H573.016V297.928H559.312V296.344ZM567.664 297.952L569.488 298.336C568.936 299.368 568.336 300.448 567.856 301.168L566.344 300.832C566.824 300.016 567.376 298.792 567.664 297.952ZM566.536 301.048H568.168V310.312H566.536V301.048ZM563.248 300.16H572.632V301.528H563.248V311.896H561.568V301.384L562.72 300.16H563.248ZM562.336 289.744L564.016 290.128C563.296 292.432 562.12 294.712 560.848 296.2C560.536 295.936 559.816 295.48 559.384 295.288C560.68 293.896 561.736 291.832 562.336 289.744ZM564.928 292.888L566.608 293.296C565.144 298.144 562.624 302.32 559.48 305.008C559.24 304.672 558.592 304 558.208 303.688C561.304 301.264 563.656 297.376 564.928 292.888ZM551.224 295.048H559.024V296.752H551.224V295.048ZM554.608 289.84H556.264V311.896H554.608V289.84ZM554.56 296.056L555.664 296.44C554.92 300.232 553.336 304.96 551.656 307.36C551.464 306.904 551.032 306.208 550.744 305.824C552.328 303.664 553.888 299.488 554.56 296.056ZM556.096 297.328C556.648 297.952 558.736 300.736 559.192 301.408L558.208 302.752C557.632 301.624 555.928 298.96 555.28 298.072L556.096 297.328Z" fill="#FF0000"/>
<rect x="56" y="279" width="295" height="101" fill="#FF0000" fill-opacity="0.2"/>
</svg>
