<svg width="938" height="384" viewBox="0 0 938 384" fill="none" xmlns="http://www.w3.org/2000/svg">
<ellipse cx="705.5" cy="193" rx="232.5" ry="135" fill="#D9D9D9"/>
<rect x="542" y="208" width="265" height="49" fill="white"/>
<path d="M550.196 233.511V242H549.156V224.545H550.196V230.98H550.298C550.605 230.298 551.094 229.756 551.764 229.352C552.44 228.943 553.25 228.739 554.193 228.739C555.074 228.739 555.849 228.926 556.52 229.301C557.19 229.67 557.713 230.202 558.088 230.895C558.469 231.582 558.659 232.406 558.659 233.366V242H557.628V233.409C557.628 232.29 557.295 231.392 556.631 230.716C555.966 230.04 555.088 229.702 553.997 229.702C553.264 229.702 552.611 229.861 552.037 230.179C551.463 230.497 551.011 230.943 550.682 231.517C550.358 232.085 550.196 232.75 550.196 233.511ZM568.066 242.273C566.884 242.273 565.856 241.98 564.981 241.395C564.106 240.81 563.43 240.009 562.952 238.991C562.475 237.974 562.237 236.815 562.237 235.514C562.237 234.207 562.475 233.043 562.952 232.02C563.435 230.997 564.097 230.19 564.938 229.599C565.779 229.009 566.739 228.713 567.819 228.713C568.552 228.713 569.245 228.861 569.898 229.156C570.558 229.446 571.137 229.866 571.637 230.418C572.143 230.969 572.538 231.634 572.822 232.412C573.112 233.19 573.256 234.065 573.256 235.037V235.685H562.893V234.739H572.217C572.217 233.79 572.023 232.935 571.637 232.173C571.251 231.412 570.725 230.807 570.06 230.358C569.396 229.909 568.648 229.685 567.819 229.685C566.95 229.685 566.174 229.929 565.492 230.418C564.816 230.901 564.279 231.554 563.881 232.378C563.489 233.202 563.285 234.122 563.268 235.139V235.565C563.268 236.656 563.458 237.636 563.839 238.506C564.225 239.369 564.776 240.054 565.492 240.56C566.208 241.06 567.066 241.31 568.066 241.31C568.782 241.31 569.393 241.19 569.898 240.952C570.41 240.707 570.827 240.412 571.151 240.065C571.475 239.719 571.719 239.384 571.884 239.06L572.83 239.443C572.631 239.881 572.322 240.318 571.901 240.756C571.487 241.187 570.958 241.548 570.316 241.838C569.68 242.128 568.93 242.273 568.066 242.273ZM577.876 224.545V242H576.836V224.545H577.876ZM583.219 224.545V242H582.18V224.545H583.219ZM592.39 242.273C591.31 242.273 590.35 241.983 589.509 241.403C588.668 240.818 588.006 240.014 587.523 238.991C587.04 237.969 586.799 236.804 586.799 235.497C586.799 234.185 587.04 233.02 587.523 232.003C588.006 230.98 588.668 230.176 589.509 229.591C590.35 229.006 591.31 228.713 592.39 228.713C593.469 228.713 594.43 229.006 595.271 229.591C596.112 230.176 596.773 230.98 597.256 232.003C597.739 233.026 597.981 234.19 597.981 235.497C597.981 236.804 597.739 237.969 597.256 238.991C596.773 240.014 596.112 240.818 595.271 241.403C594.43 241.983 593.469 242.273 592.39 242.273ZM592.39 241.31C593.305 241.31 594.103 241.051 594.785 240.534C595.472 240.017 596.004 239.318 596.379 238.438C596.759 237.557 596.95 236.577 596.95 235.497C596.95 234.418 596.759 233.44 596.379 232.565C595.998 231.685 595.467 230.986 594.785 230.469C594.103 229.946 593.305 229.685 592.39 229.685C591.475 229.685 590.677 229.946 589.995 230.469C589.313 230.986 588.782 231.685 588.401 232.565C588.021 233.44 587.83 234.418 587.83 235.497C587.83 236.577 588.018 237.557 588.393 238.438C588.773 239.318 589.305 240.017 589.987 240.534C590.674 241.051 591.475 241.31 592.39 241.31ZM611.168 242L607.247 228.909H608.338L611.713 240.474H611.807L615.19 228.909H616.273L619.648 240.466H619.733L623.108 228.909H624.199L620.278 242H619.119L615.778 230.605H615.668L612.327 242H611.168ZM631.859 242.273C630.779 242.273 629.819 241.983 628.978 241.403C628.137 240.818 627.475 240.014 626.992 238.991C626.509 237.969 626.268 236.804 626.268 235.497C626.268 234.185 626.509 233.02 626.992 232.003C627.475 230.98 628.137 230.176 628.978 229.591C629.819 229.006 630.779 228.713 631.859 228.713C632.938 228.713 633.898 229.006 634.739 229.591C635.58 230.176 636.242 230.98 636.725 232.003C637.208 233.026 637.45 234.19 637.45 235.497C637.45 236.804 637.208 237.969 636.725 238.991C636.242 240.014 635.58 240.818 634.739 241.403C633.898 241.983 632.938 242.273 631.859 242.273ZM631.859 241.31C632.773 241.31 633.572 241.051 634.254 240.534C634.941 240.017 635.472 239.318 635.847 238.438C636.228 237.557 636.418 236.577 636.418 235.497C636.418 234.418 636.228 233.44 635.847 232.565C635.467 231.685 634.935 230.986 634.254 230.469C633.572 229.946 632.773 229.685 631.859 229.685C630.944 229.685 630.146 229.946 629.464 230.469C628.782 230.986 628.251 231.685 627.87 232.565C627.489 233.44 627.299 234.418 627.299 235.497C627.299 236.577 627.487 237.557 627.862 238.438C628.242 239.318 628.773 240.017 629.455 240.534C630.143 241.051 630.944 241.31 631.859 241.31ZM641.031 242V228.909H642.045V230.955H642.139C642.423 230.284 642.903 229.747 643.58 229.344C644.256 228.935 645.026 228.73 645.889 228.73C645.98 228.73 646.071 228.73 646.162 228.73C646.253 228.73 646.338 228.733 646.418 228.739V229.787C646.349 229.781 646.267 229.773 646.17 229.761C646.08 229.744 645.966 229.736 645.83 229.736C645.102 229.736 644.455 229.892 643.886 230.205C643.324 230.517 642.881 230.949 642.557 231.5C642.233 232.045 642.071 232.67 642.071 233.375V242H641.031ZM650.251 224.545V242H649.211V224.545H650.251ZM659.046 242.273C657.995 242.273 657.077 241.983 656.293 241.403C655.509 240.824 654.901 240.026 654.469 239.009C654.043 237.986 653.83 236.812 653.83 235.489C653.83 234.176 654.046 233.011 654.478 231.994C654.915 230.972 655.526 230.17 656.31 229.591C657.094 229.006 658.009 228.713 659.055 228.713C659.805 228.713 660.455 228.858 661.006 229.148C661.563 229.432 662.029 229.81 662.404 230.281C662.785 230.753 663.075 231.27 663.273 231.832H663.376V224.545H664.407V242H663.401V239.145H663.273C663.063 239.707 662.771 240.227 662.396 240.705C662.021 241.176 661.555 241.557 660.998 241.847C660.441 242.131 659.79 242.273 659.046 242.273ZM659.14 241.31C660.026 241.31 660.785 241.057 661.415 240.551C662.052 240.04 662.538 239.347 662.873 238.472C663.214 237.591 663.384 236.594 663.384 235.48C663.384 234.366 663.214 233.375 662.873 232.506C662.538 231.631 662.052 230.943 661.415 230.443C660.785 229.937 660.026 229.685 659.14 229.685C658.242 229.685 657.472 229.94 656.83 230.452C656.194 230.957 655.705 231.648 655.364 232.523C655.029 233.398 654.862 234.384 654.862 235.48C654.862 236.577 655.029 237.565 655.364 238.446C655.705 239.327 656.194 240.026 656.83 240.543C657.472 241.054 658.242 241.31 659.14 241.31Z" fill="black"/>
<path d="M643.47 103V85.5455H647.161V92.7472H654.652V85.5455H658.334V103H654.652V95.7898H647.161V103H643.47ZM661.376 103V85.5455H673.138V88.5881H665.067V92.7472H672.533V95.7898H665.067V99.9574H673.172V103H661.376ZM679.08 103H675.126L681.151 85.5455H685.907L691.924 103H687.969L683.597 89.5341H683.461L679.08 103ZM678.833 96.1392H688.174V99.0199H678.833V96.1392ZM694.025 103V85.5455H700.911C702.235 85.5455 703.363 85.7983 704.295 86.304C705.227 86.804 705.937 87.5 706.425 88.392C706.92 89.2784 707.167 90.3011 707.167 91.4602C707.167 92.6193 706.917 93.642 706.417 94.5284C705.917 95.4148 705.192 96.1051 704.244 96.5994C703.3 97.0937 702.158 97.3409 700.817 97.3409H696.428V94.3835H700.221C700.931 94.3835 701.516 94.2614 701.977 94.017C702.442 93.767 702.789 93.4233 703.016 92.9858C703.249 92.5426 703.366 92.0341 703.366 91.4602C703.366 90.8807 703.249 90.375 703.016 89.9432C702.789 89.5057 702.442 89.1676 701.977 88.929C701.511 88.6847 700.92 88.5625 700.204 88.5625H697.715V103H694.025ZM709.535 92.92H717.335V95.416H709.535V92.92ZM711.359 88.936H717.455V91.336H711.359V88.936ZM711.503 94.384H714.047V105.112H711.503V94.384ZM716.063 92.92H718.559V99.592C718.559 100.672 718.415 101.392 717.719 101.8C717.023 102.208 716.159 102.232 714.959 102.232C714.911 101.488 714.647 100.48 714.335 99.808C714.983 99.832 715.583 99.832 715.799 99.808C716.015 99.808 716.063 99.736 716.063 99.544V92.92ZM718.775 83.56H731.039V85.984H718.775V83.56ZM722.231 93.184V94.72H727.583V93.184H722.231ZM722.231 96.688V98.224H727.583V96.688H722.231ZM722.231 89.704V91.216H727.583V89.704H722.231ZM719.591 87.592H730.343V100.336H719.591V87.592ZM723.455 84.88L726.743 85.24C726.287 86.752 725.783 88.264 725.375 89.296L722.879 88.84C723.119 87.688 723.383 86.056 723.455 84.88ZM721.943 100.36L724.295 101.896C722.975 103.168 720.695 104.512 718.823 105.232C718.367 104.704 717.527 103.84 716.903 103.36C718.775 102.688 720.887 101.392 721.943 100.36ZM725.423 101.968L727.559 100.528C728.903 101.392 730.727 102.712 731.663 103.624L729.407 105.232C728.567 104.344 726.791 102.928 725.423 101.968ZM712.871 82.624H714.455V83.176H715.295V83.944C714.287 86.056 712.655 88.96 709.871 91.528C709.559 90.88 708.815 89.776 708.287 89.344C710.543 87.376 712.055 84.76 712.871 82.624ZM713.087 82.624H715.151C716.735 83.896 718.823 85.816 719.783 87.184L718.007 89.728C717.119 88.336 715.151 86.008 713.615 84.808H713.087V82.624ZM732.887 88.36H739.559V91.072H732.887V88.36ZM735.047 82.96H737.711V99.04H735.047V82.96ZM732.671 99.4C734.351 98.656 736.919 97.36 739.367 96.064L740.207 98.608C738.071 99.88 735.719 101.224 733.751 102.28L732.671 99.4ZM739.919 85.936H755.063V88.528H739.919V85.936ZM739.175 99.88C741.287 99.496 744.455 98.776 747.503 98.08L747.767 100.48C745.031 101.224 742.127 101.992 739.847 102.568L739.175 99.88ZM747.575 82.648H750.311C750.143 92.296 751.463 102.448 753.047 102.448C753.359 102.448 753.575 101.584 753.623 99.448C754.175 100.096 754.991 100.696 755.567 101.008C755.183 104.224 754.487 105.16 752.663 105.16C748.487 105.16 747.623 93.4 747.575 82.648ZM750.767 84.016L752.375 82.624C753.311 83.296 754.487 84.28 755.039 84.976L753.335 86.536C752.807 85.816 751.703 84.76 750.767 84.016ZM752.159 90.112L754.727 90.592C753.215 97 750.431 101.968 746.183 105.016C745.775 104.536 744.695 103.6 744.119 103.192C748.343 100.528 750.911 95.968 752.159 90.112ZM742.727 92.344V95.272H744.575V92.344H742.727ZM740.615 90.136H746.807V97.504H740.615V90.136Z" fill="black"/>
<rect x="142" y="1" width="181" height="383" fill="#D9D9D9"/>
<path d="M178.31 18.5653C178.242 17.8778 177.949 17.3437 177.432 16.9631C176.915 16.5824 176.213 16.392 175.327 16.392C174.725 16.392 174.216 16.4773 173.801 16.6477C173.387 16.8125 173.069 17.0426 172.847 17.3381C172.631 17.6335 172.523 17.9688 172.523 18.3438C172.512 18.6562 172.577 18.929 172.719 19.1619C172.867 19.3949 173.069 19.5966 173.324 19.767C173.58 19.9318 173.875 20.0767 174.211 20.2017C174.546 20.321 174.904 20.4233 175.284 20.5085L176.853 20.8835C177.614 21.054 178.313 21.2812 178.949 21.5653C179.586 21.8494 180.137 22.1989 180.603 22.6136C181.069 23.0284 181.429 23.517 181.685 24.0795C181.946 24.642 182.08 25.2869 182.086 26.0142C182.08 27.0824 181.807 28.0085 181.267 28.7926C180.733 29.571 179.961 30.1761 178.949 30.608C177.944 31.0341 176.73 31.2472 175.31 31.2472C173.901 31.2472 172.674 31.0312 171.628 30.5994C170.588 30.1676 169.776 29.5284 169.191 28.6818C168.611 27.8295 168.307 26.7756 168.279 25.5199H171.85C171.89 26.1051 172.057 26.5937 172.353 26.9858C172.654 27.3722 173.054 27.6648 173.554 27.8636C174.06 28.0568 174.631 28.1534 175.267 28.1534C175.892 28.1534 176.435 28.0625 176.895 27.8807C177.361 27.6989 177.722 27.446 177.978 27.1222C178.233 26.7983 178.361 26.4261 178.361 26.0057C178.361 25.6136 178.245 25.2841 178.012 25.017C177.784 24.75 177.449 24.5227 177.006 24.3352C176.569 24.1477 176.032 23.9773 175.395 23.8239L173.495 23.3466C172.023 22.9886 170.861 22.429 170.009 21.6676C169.157 20.9062 168.733 19.8807 168.739 18.5909C168.733 17.5341 169.015 16.6108 169.583 15.821C170.157 15.0312 170.944 14.4148 171.944 13.9716C172.944 13.5284 174.08 13.3068 175.353 13.3068C176.648 13.3068 177.779 13.5284 178.745 13.9716C179.716 14.4148 180.472 15.0312 181.012 15.821C181.551 16.6108 181.83 17.5256 181.847 18.5653H178.31ZM183.903 16.5881V13.5455H198.238V16.5881H192.895V31H189.247V16.5881H183.903ZM201.475 31H197.52L203.546 13.5455H208.301L214.319 31H210.364L205.992 17.5341H205.855L201.475 31ZM201.228 24.1392H210.569V27.0199H201.228V24.1392ZM231 19.6562H227.267C227.199 19.1733 227.059 18.7443 226.849 18.3693C226.639 17.9886 226.369 17.6648 226.039 17.3977C225.71 17.1307 225.329 16.9261 224.897 16.7841C224.471 16.642 224.008 16.571 223.508 16.571C222.605 16.571 221.818 16.7955 221.147 17.2443C220.477 17.6875 219.957 18.3352 219.588 19.1875C219.218 20.0341 219.034 21.0625 219.034 22.2727C219.034 23.517 219.218 24.5625 219.588 25.4091C219.963 26.2557 220.485 26.8949 221.156 27.3267C221.826 27.7585 222.602 27.9744 223.483 27.9744C223.977 27.9744 224.434 27.9091 224.855 27.7784C225.281 27.6477 225.659 27.4574 225.988 27.2074C226.318 26.9517 226.591 26.642 226.806 26.2784C227.028 25.9148 227.181 25.5 227.267 25.0341L231 25.0511C230.903 25.8523 230.662 26.625 230.275 27.3693C229.895 28.108 229.38 28.7699 228.733 29.3551C228.091 29.9347 227.324 30.3949 226.431 30.7358C225.545 31.071 224.542 31.2386 223.423 31.2386C221.866 31.2386 220.474 30.8864 219.247 30.1818C218.025 29.4773 217.059 28.4574 216.349 27.1222C215.645 25.7869 215.292 24.1705 215.292 22.2727C215.292 20.3693 215.65 18.75 216.366 17.4148C217.082 16.0795 218.054 15.0625 219.281 14.3636C220.508 13.6591 221.889 13.3068 223.423 13.3068C224.434 13.3068 225.372 13.4489 226.235 13.733C227.105 14.017 227.875 14.4318 228.545 14.9773C229.216 15.517 229.761 16.179 230.181 16.9631C230.608 17.7472 230.88 18.6449 231 19.6562ZM233.646 31V13.5455H237.336V21.2415H237.566L243.848 13.5455H248.271L241.794 21.3608L248.348 31H243.933L239.152 23.8239L237.336 26.0398V31H233.646ZM250.164 20.92H257.964V23.416H250.164V20.92ZM251.988 16.936H258.084V19.336H251.988V16.936ZM252.132 22.384H254.676V33.112H252.132V22.384ZM256.692 20.92H259.188V27.592C259.188 28.672 259.044 29.392 258.348 29.8C257.652 30.208 256.788 30.232 255.588 30.232C255.54 29.488 255.276 28.48 254.964 27.808C255.612 27.832 256.212 27.832 256.428 27.808C256.644 27.808 256.692 27.736 256.692 27.544V20.92ZM259.404 11.56H271.668V13.984H259.404V11.56ZM262.86 21.184V22.72H268.212V21.184H262.86ZM262.86 24.688V26.224H268.212V24.688H262.86ZM262.86 17.704V19.216H268.212V17.704H262.86ZM260.22 15.592H270.972V28.336H260.22V15.592ZM264.084 12.88L267.372 13.24C266.916 14.752 266.412 16.264 266.004 17.296L263.508 16.84C263.748 15.688 264.012 14.056 264.084 12.88ZM262.572 28.36L264.924 29.896C263.604 31.168 261.324 32.512 259.452 33.232C258.996 32.704 258.156 31.84 257.532 31.36C259.404 30.688 261.516 29.392 262.572 28.36ZM266.052 29.968L268.188 28.528C269.532 29.392 271.356 30.712 272.292 31.624L270.036 33.232C269.196 32.344 267.42 30.928 266.052 29.968ZM253.5 10.624H255.084V11.176H255.924V11.944C254.916 14.056 253.284 16.96 250.5 19.528C250.188 18.88 249.444 17.776 248.916 17.344C251.172 15.376 252.684 12.76 253.5 10.624ZM253.716 10.624H255.78C257.364 11.896 259.452 13.816 260.412 15.184L258.636 17.728C257.748 16.336 255.78 14.008 254.244 12.808H253.716V10.624ZM273.516 16.36H280.188V19.072H273.516V16.36ZM275.676 10.96H278.34V27.04H275.676V10.96ZM273.3 27.4C274.98 26.656 277.548 25.36 279.996 24.064L280.836 26.608C278.7 27.88 276.348 29.224 274.38 30.28L273.3 27.4ZM280.548 13.936H295.692V16.528H280.548V13.936ZM279.804 27.88C281.916 27.496 285.084 26.776 288.132 26.08L288.396 28.48C285.66 29.224 282.756 29.992 280.476 30.568L279.804 27.88ZM288.204 10.648H290.94C290.772 20.296 292.092 30.448 293.676 30.448C293.988 30.448 294.204 29.584 294.252 27.448C294.804 28.096 295.62 28.696 296.196 29.008C295.812 32.224 295.116 33.16 293.292 33.16C289.116 33.16 288.252 21.4 288.204 10.648ZM291.396 12.016L293.004 10.624C293.94 11.296 295.116 12.28 295.668 12.976L293.964 14.536C293.436 13.816 292.332 12.76 291.396 12.016ZM292.788 18.112L295.356 18.592C293.844 25 291.06 29.968 286.812 33.016C286.404 32.536 285.324 31.6 284.748 31.192C288.972 28.528 291.54 23.968 292.788 18.112ZM283.356 20.344V23.272H285.204V20.344H283.356ZM281.244 18.136H287.436V25.504H281.244V18.136Z" fill="black"/>
<rect x="152.5" y="197.5" width="160" height="87" fill="white" stroke="black"/>
<path d="M160.156 224.909V206.909H161.17V209.832H161.298C161.503 209.27 161.79 208.753 162.159 208.281C162.534 207.81 162.997 207.432 163.548 207.148C164.105 206.858 164.759 206.713 165.509 206.713C166.565 206.713 167.486 207.003 168.27 207.582C169.054 208.162 169.662 208.963 170.094 209.986C170.526 211.003 170.741 212.17 170.741 213.489C170.741 214.807 170.523 215.977 170.085 217C169.653 218.017 169.045 218.818 168.261 219.403C167.483 219.983 166.571 220.273 165.526 220.273C164.781 220.273 164.128 220.131 163.565 219.847C163.009 219.562 162.54 219.185 162.159 218.713C161.784 218.236 161.497 217.713 161.298 217.145H161.196V224.909H160.156ZM161.179 213.48C161.179 214.594 161.349 215.591 161.69 216.472C162.031 217.347 162.52 218.04 163.156 218.551C163.793 219.057 164.551 219.31 165.432 219.31C166.324 219.31 167.088 219.054 167.724 218.543C168.366 218.026 168.855 217.327 169.19 216.446C169.531 215.565 169.702 214.577 169.702 213.48C169.702 212.384 169.534 211.398 169.199 210.523C168.864 209.648 168.378 208.957 167.741 208.452C167.105 207.94 166.335 207.685 165.432 207.685C164.54 207.685 163.776 207.937 163.139 208.443C162.509 208.943 162.023 209.631 161.682 210.506C161.347 211.375 161.179 212.366 161.179 213.48ZM178.964 206.909V207.838H173.245V206.909H178.964ZM175.18 203.773H176.211V216.906C176.211 217.44 176.313 217.878 176.518 218.219C176.728 218.554 177.001 218.804 177.336 218.969C177.677 219.128 178.04 219.207 178.427 219.207C178.614 219.207 178.776 219.193 178.913 219.165C179.055 219.136 179.188 219.099 179.313 219.054L179.569 220C179.41 220.057 179.234 220.105 179.04 220.145C178.847 220.19 178.62 220.213 178.359 220.213C177.813 220.213 177.296 220.091 176.808 219.847C176.325 219.602 175.933 219.247 175.631 218.781C175.33 218.315 175.18 217.753 175.18 217.094V203.773ZM182.82 220V206.909H183.835V208.955H183.928C184.212 208.284 184.692 207.747 185.369 207.344C186.045 206.935 186.815 206.73 187.678 206.73C187.769 206.73 187.86 206.73 187.951 206.73C188.042 206.73 188.127 206.733 188.207 206.739V207.787C188.138 207.781 188.056 207.773 187.96 207.761C187.869 207.744 187.755 207.736 187.619 207.736C186.891 207.736 186.244 207.892 185.675 208.205C185.113 208.517 184.67 208.949 184.346 209.5C184.022 210.045 183.86 210.67 183.86 211.375V220H182.82ZM191.972 219.207C191.716 219.207 191.497 219.116 191.315 218.935C191.139 218.753 191.051 218.537 191.051 218.287C191.051 218.031 191.139 217.815 191.315 217.639C191.497 217.457 191.716 217.366 191.972 217.366C192.222 217.366 192.438 217.457 192.619 217.639C192.801 217.815 192.892 218.031 192.892 218.287C192.892 218.452 192.849 218.605 192.764 218.747C192.685 218.889 192.574 219.003 192.432 219.088C192.295 219.168 192.142 219.207 191.972 219.207ZM191.972 210.037C191.716 210.037 191.497 209.946 191.315 209.764C191.139 209.582 191.051 209.366 191.051 209.116C191.051 208.861 191.139 208.645 191.315 208.469C191.497 208.287 191.716 208.196 191.972 208.196C192.222 208.196 192.438 208.287 192.619 208.469C192.801 208.645 192.892 208.861 192.892 209.116C192.892 209.281 192.849 209.435 192.764 209.577C192.685 209.719 192.574 209.832 192.432 209.918C192.295 209.997 192.142 210.037 191.972 210.037Z" fill="black"/>
<path d="M161.196 231.545V249H160.156V231.545H161.196ZM170.605 249.273C169.423 249.273 168.395 248.98 167.52 248.395C166.645 247.81 165.969 247.009 165.491 245.991C165.014 244.974 164.776 243.815 164.776 242.514C164.776 241.207 165.014 240.043 165.491 239.02C165.974 237.997 166.636 237.19 167.477 236.599C168.318 236.009 169.278 235.713 170.358 235.713C171.091 235.713 171.784 235.861 172.438 236.156C173.097 236.446 173.676 236.866 174.176 237.418C174.682 237.969 175.077 238.634 175.361 239.412C175.651 240.19 175.795 241.065 175.795 242.037V242.685H165.432V241.739H174.756C174.756 240.79 174.563 239.935 174.176 239.173C173.79 238.412 173.264 237.807 172.599 237.358C171.935 236.909 171.188 236.685 170.358 236.685C169.489 236.685 168.713 236.929 168.031 237.418C167.355 237.901 166.818 238.554 166.42 239.378C166.028 240.202 165.824 241.122 165.807 242.139V242.565C165.807 243.656 165.997 244.636 166.378 245.506C166.764 246.369 167.315 247.054 168.031 247.56C168.747 248.06 169.605 248.31 170.605 248.31C171.321 248.31 171.932 248.19 172.438 247.952C172.949 247.707 173.366 247.412 173.69 247.065C174.014 246.719 174.259 246.384 174.423 246.06L175.369 246.443C175.17 246.881 174.861 247.318 174.44 247.756C174.026 248.187 173.497 248.548 172.855 248.838C172.219 249.128 171.469 249.273 170.605 249.273ZM180.415 240.511V249H179.375V235.909H180.389V237.98H180.491C180.798 237.304 181.29 236.761 181.966 236.352C182.642 235.943 183.446 235.739 184.378 235.739C185.259 235.739 186.031 235.926 186.696 236.301C187.366 236.676 187.889 237.21 188.264 237.903C188.645 238.591 188.835 239.412 188.835 240.366V249H187.795V240.409C187.795 239.295 187.463 238.401 186.798 237.724C186.139 237.043 185.267 236.702 184.182 236.702C183.455 236.702 182.807 236.861 182.239 237.179C181.67 237.497 181.224 237.943 180.901 238.517C180.577 239.085 180.415 239.75 180.415 240.511ZM194.128 248.207C193.872 248.207 193.653 248.116 193.472 247.935C193.295 247.753 193.207 247.537 193.207 247.287C193.207 247.031 193.295 246.815 193.472 246.639C193.653 246.457 193.872 246.366 194.128 246.366C194.378 246.366 194.594 246.457 194.776 246.639C194.957 246.815 195.048 247.031 195.048 247.287C195.048 247.452 195.006 247.605 194.92 247.747C194.841 247.889 194.73 248.003 194.588 248.088C194.452 248.168 194.298 248.207 194.128 248.207ZM194.128 239.037C193.872 239.037 193.653 238.946 193.472 238.764C193.295 238.582 193.207 238.366 193.207 238.116C193.207 237.861 193.295 237.645 193.472 237.469C193.653 237.287 193.872 237.196 194.128 237.196C194.378 237.196 194.594 237.287 194.776 237.469C194.957 237.645 195.048 237.861 195.048 238.116C195.048 238.281 195.006 238.435 194.92 238.577C194.841 238.719 194.73 238.832 194.588 238.918C194.452 238.997 194.298 239.037 194.128 239.037ZM210.724 231.545V249H209.658V232.67H209.556L205.636 235.27V234.128L209.522 231.545H210.724ZM220.966 231.545V249H219.901V232.67H219.798L215.878 235.27V234.128L219.764 231.545H220.966Z" fill="black"/>
<path d="M542.677 226.736C543.083 226.362 543.11 225.73 542.736 225.323L536.645 218.698C536.271 218.291 535.639 218.264 535.232 218.638C534.826 219.012 534.799 219.645 535.173 220.051L540.587 225.941L534.698 231.355C534.291 231.729 534.264 232.361 534.638 232.768C535.012 233.174 535.645 233.201 536.051 232.827L542.677 226.736ZM208.958 212.999L541.958 226.999L542.042 225.001L209.042 211.001L208.958 212.999Z" fill="black"/>
<rect x="152.5" y="285.5" width="160" height="87" fill="white" stroke="black"/>
<path d="M160.156 312.909V294.909H161.17V297.832H161.298C161.503 297.27 161.79 296.753 162.159 296.281C162.534 295.81 162.997 295.432 163.548 295.148C164.105 294.858 164.759 294.713 165.509 294.713C166.565 294.713 167.486 295.003 168.27 295.582C169.054 296.162 169.662 296.963 170.094 297.986C170.526 299.003 170.741 300.17 170.741 301.489C170.741 302.807 170.523 303.977 170.085 305C169.653 306.017 169.045 306.818 168.261 307.403C167.483 307.983 166.571 308.273 165.526 308.273C164.781 308.273 164.128 308.131 163.565 307.847C163.009 307.562 162.54 307.185 162.159 306.713C161.784 306.236 161.497 305.713 161.298 305.145H161.196V312.909H160.156ZM161.179 301.48C161.179 302.594 161.349 303.591 161.69 304.472C162.031 305.347 162.52 306.04 163.156 306.551C163.793 307.057 164.551 307.31 165.432 307.31C166.324 307.31 167.088 307.054 167.724 306.543C168.366 306.026 168.855 305.327 169.19 304.446C169.531 303.565 169.702 302.577 169.702 301.48C169.702 300.384 169.534 299.398 169.199 298.523C168.864 297.648 168.378 296.957 167.741 296.452C167.105 295.94 166.335 295.685 165.432 295.685C164.54 295.685 163.776 295.937 163.139 296.443C162.509 296.943 162.023 297.631 161.682 298.506C161.347 299.375 161.179 300.366 161.179 301.48ZM178.964 294.909V295.838H173.245V294.909H178.964ZM175.18 291.773H176.211V304.906C176.211 305.44 176.313 305.878 176.518 306.219C176.728 306.554 177.001 306.804 177.336 306.969C177.677 307.128 178.04 307.207 178.427 307.207C178.614 307.207 178.776 307.193 178.913 307.165C179.055 307.136 179.188 307.099 179.313 307.054L179.569 308C179.41 308.057 179.234 308.105 179.04 308.145C178.847 308.19 178.62 308.213 178.359 308.213C177.813 308.213 177.296 308.091 176.808 307.847C176.325 307.602 175.933 307.247 175.631 306.781C175.33 306.315 175.18 305.753 175.18 305.094V291.773ZM182.82 308V294.909H183.835V296.955H183.928C184.212 296.284 184.692 295.747 185.369 295.344C186.045 294.935 186.815 294.73 187.678 294.73C187.769 294.73 187.86 294.73 187.951 294.73C188.042 294.73 188.127 294.733 188.207 294.739V295.787C188.138 295.781 188.056 295.773 187.96 295.761C187.869 295.744 187.755 295.736 187.619 295.736C186.891 295.736 186.244 295.892 185.675 296.205C185.113 296.517 184.67 296.949 184.346 297.5C184.022 298.045 183.86 298.67 183.86 299.375V308H182.82ZM191.972 307.207C191.716 307.207 191.497 307.116 191.315 306.935C191.139 306.753 191.051 306.537 191.051 306.287C191.051 306.031 191.139 305.815 191.315 305.639C191.497 305.457 191.716 305.366 191.972 305.366C192.222 305.366 192.438 305.457 192.619 305.639C192.801 305.815 192.892 306.031 192.892 306.287C192.892 306.452 192.849 306.605 192.764 306.747C192.685 306.889 192.574 307.003 192.432 307.088C192.295 307.168 192.142 307.207 191.972 307.207ZM191.972 298.037C191.716 298.037 191.497 297.946 191.315 297.764C191.139 297.582 191.051 297.366 191.051 297.116C191.051 296.861 191.139 296.645 191.315 296.469C191.497 296.287 191.716 296.196 191.972 296.196C192.222 296.196 192.438 296.287 192.619 296.469C192.801 296.645 192.892 296.861 192.892 297.116C192.892 297.281 192.849 297.435 192.764 297.577C192.685 297.719 192.574 297.832 192.432 297.918C192.295 297.997 192.142 298.037 191.972 298.037Z" fill="black"/>
<path d="M161.196 319.545V337H160.156V319.545H161.196ZM170.605 337.273C169.423 337.273 168.395 336.98 167.52 336.395C166.645 335.81 165.969 335.009 165.491 333.991C165.014 332.974 164.776 331.815 164.776 330.514C164.776 329.207 165.014 328.043 165.491 327.02C165.974 325.997 166.636 325.19 167.477 324.599C168.318 324.009 169.278 323.713 170.358 323.713C171.091 323.713 171.784 323.861 172.438 324.156C173.097 324.446 173.676 324.866 174.176 325.418C174.682 325.969 175.077 326.634 175.361 327.412C175.651 328.19 175.795 329.065 175.795 330.037V330.685H165.432V329.739H174.756C174.756 328.79 174.563 327.935 174.176 327.173C173.79 326.412 173.264 325.807 172.599 325.358C171.935 324.909 171.188 324.685 170.358 324.685C169.489 324.685 168.713 324.929 168.031 325.418C167.355 325.901 166.818 326.554 166.42 327.378C166.028 328.202 165.824 329.122 165.807 330.139V330.565C165.807 331.656 165.997 332.636 166.378 333.506C166.764 334.369 167.315 335.054 168.031 335.56C168.747 336.06 169.605 336.31 170.605 336.31C171.321 336.31 171.932 336.19 172.438 335.952C172.949 335.707 173.366 335.412 173.69 335.065C174.014 334.719 174.259 334.384 174.423 334.06L175.369 334.443C175.17 334.881 174.861 335.318 174.44 335.756C174.026 336.187 173.497 336.548 172.855 336.838C172.219 337.128 171.469 337.273 170.605 337.273ZM180.415 328.511V337H179.375V323.909H180.389V325.98H180.491C180.798 325.304 181.29 324.761 181.966 324.352C182.642 323.943 183.446 323.739 184.378 323.739C185.259 323.739 186.031 323.926 186.696 324.301C187.366 324.676 187.889 325.21 188.264 325.903C188.645 326.591 188.835 327.412 188.835 328.366V337H187.795V328.409C187.795 327.295 187.463 326.401 186.798 325.724C186.139 325.043 185.267 324.702 184.182 324.702C183.455 324.702 182.807 324.861 182.239 325.179C181.67 325.497 181.224 325.943 180.901 326.517C180.577 327.085 180.415 327.75 180.415 328.511ZM194.128 336.207C193.872 336.207 193.653 336.116 193.472 335.935C193.295 335.753 193.207 335.537 193.207 335.287C193.207 335.031 193.295 334.815 193.472 334.639C193.653 334.457 193.872 334.366 194.128 334.366C194.378 334.366 194.594 334.457 194.776 334.639C194.957 334.815 195.048 335.031 195.048 335.287C195.048 335.452 195.006 335.605 194.92 335.747C194.841 335.889 194.73 336.003 194.588 336.088C194.452 336.168 194.298 336.207 194.128 336.207ZM194.128 327.037C193.872 327.037 193.653 326.946 193.472 326.764C193.295 326.582 193.207 326.366 193.207 326.116C193.207 325.861 193.295 325.645 193.472 325.469C193.653 325.287 193.872 325.196 194.128 325.196C194.378 325.196 194.594 325.287 194.776 325.469C194.957 325.645 195.048 325.861 195.048 326.116C195.048 326.281 195.006 326.435 194.92 326.577C194.841 326.719 194.73 326.832 194.588 326.918C194.452 326.997 194.298 327.037 194.128 327.037ZM210.724 319.545V337H209.658V320.67H209.556L205.636 323.27V322.128L209.522 319.545H210.724ZM220.966 319.545V337H219.901V320.67H219.798L215.878 323.27V322.128L219.764 319.545H220.966Z" fill="black"/>
<path d="M165.065 366.273C163.952 366.273 162.972 365.98 162.125 365.395C161.278 364.804 160.616 363.997 160.139 362.974C159.668 361.952 159.432 360.793 159.432 359.497C159.432 358.202 159.67 357.043 160.148 356.02C160.625 354.997 161.287 354.19 162.134 353.599C162.98 353.009 163.955 352.713 165.057 352.713C165.886 352.713 166.642 352.884 167.324 353.224C168.011 353.565 168.58 354.04 169.028 354.648C169.483 355.256 169.773 355.96 169.898 356.761H168.841C168.67 355.875 168.244 355.142 167.562 354.562C166.886 353.977 166.054 353.685 165.065 353.685C164.179 353.685 163.389 353.935 162.696 354.435C162.003 354.929 161.457 355.614 161.06 356.489C160.662 357.358 160.463 358.355 160.463 359.48C160.463 360.588 160.656 361.582 161.043 362.463C161.429 363.338 161.969 364.031 162.662 364.543C163.355 365.054 164.156 365.31 165.065 365.31C165.707 365.31 166.293 365.182 166.821 364.926C167.355 364.67 167.801 364.307 168.159 363.835C168.517 363.364 168.753 362.812 168.866 362.182H169.923C169.798 362.989 169.514 363.699 169.071 364.312C168.628 364.926 168.062 365.406 167.375 365.753C166.688 366.099 165.918 366.273 165.065 366.273ZM176.938 366.281C176.182 366.281 175.489 366.131 174.858 365.83C174.233 365.528 173.73 365.088 173.349 364.509C172.974 363.929 172.787 363.224 172.787 362.395C172.787 361.849 172.884 361.369 173.077 360.955C173.27 360.54 173.568 360.182 173.972 359.881C174.375 359.58 174.892 359.332 175.523 359.139C176.153 358.94 176.906 358.787 177.781 358.679C178.446 358.599 179.04 358.523 179.562 358.449C180.085 358.369 180.494 358.247 180.79 358.082C181.091 357.918 181.241 357.668 181.241 357.332V356.787C181.241 355.832 180.94 355.074 180.338 354.511C179.736 353.949 178.906 353.668 177.849 353.668C176.912 353.668 176.122 353.875 175.48 354.29C174.844 354.699 174.398 355.227 174.142 355.875L173.162 355.509C173.412 354.884 173.773 354.364 174.244 353.949C174.722 353.534 175.267 353.224 175.881 353.02C176.5 352.815 177.148 352.713 177.824 352.713C178.409 352.713 178.966 352.795 179.494 352.96C180.028 353.125 180.503 353.375 180.918 353.71C181.338 354.045 181.67 354.474 181.915 354.997C182.159 355.514 182.281 356.134 182.281 356.855V366H181.241V363.639H181.165C180.938 364.128 180.625 364.574 180.227 364.977C179.835 365.375 179.361 365.693 178.804 365.932C178.253 366.165 177.631 366.281 176.938 366.281ZM177.04 365.318C177.858 365.318 178.582 365.119 179.213 364.722C179.849 364.318 180.347 363.767 180.705 363.068C181.063 362.369 181.241 361.577 181.241 360.69V358.764C181.111 358.878 180.92 358.98 180.67 359.071C180.426 359.156 180.148 359.233 179.835 359.301C179.528 359.364 179.205 359.42 178.864 359.472C178.528 359.517 178.202 359.56 177.884 359.599C176.929 359.713 176.151 359.889 175.548 360.128C174.952 360.361 174.514 360.668 174.236 361.048C173.963 361.429 173.827 361.889 173.827 362.429C173.827 363.321 174.134 364.026 174.747 364.543C175.361 365.06 176.125 365.318 177.04 365.318ZM186.641 370.909V352.909H187.655V355.832H187.783C187.987 355.27 188.274 354.753 188.643 354.281C189.018 353.81 189.482 353.432 190.033 353.148C190.589 352.858 191.243 352.713 191.993 352.713C193.05 352.713 193.97 353.003 194.754 353.582C195.538 354.162 196.146 354.963 196.578 355.986C197.01 357.003 197.226 358.17 197.226 359.489C197.226 360.807 197.007 361.977 196.57 363C196.138 364.017 195.53 364.818 194.746 365.403C193.967 365.983 193.055 366.273 192.01 366.273C191.266 366.273 190.612 366.131 190.05 365.847C189.493 365.562 189.024 365.185 188.643 364.713C188.268 364.236 187.982 363.713 187.783 363.145H187.68V370.909H186.641ZM187.663 359.48C187.663 360.594 187.834 361.591 188.175 362.472C188.516 363.347 189.004 364.04 189.641 364.551C190.277 365.057 191.036 365.31 191.916 365.31C192.808 365.31 193.572 365.054 194.209 364.543C194.851 364.026 195.339 363.327 195.675 362.446C196.016 361.565 196.186 360.577 196.186 359.48C196.186 358.384 196.018 357.398 195.683 356.523C195.348 355.648 194.862 354.957 194.226 354.452C193.589 353.94 192.82 353.685 191.916 353.685C191.024 353.685 190.26 353.937 189.624 354.443C188.993 354.943 188.507 355.631 188.166 356.506C187.831 357.375 187.663 358.366 187.663 359.48ZM201.792 365.207C201.536 365.207 201.317 365.116 201.136 364.935C200.96 364.753 200.871 364.537 200.871 364.287C200.871 364.031 200.96 363.815 201.136 363.639C201.317 363.457 201.536 363.366 201.792 363.366C202.042 363.366 202.258 363.457 202.44 363.639C202.621 363.815 202.712 364.031 202.712 364.287C202.712 364.452 202.67 364.605 202.585 364.747C202.505 364.889 202.394 365.003 202.252 365.088C202.116 365.168 201.962 365.207 201.792 365.207ZM201.792 356.037C201.536 356.037 201.317 355.946 201.136 355.764C200.96 355.582 200.871 355.366 200.871 355.116C200.871 354.861 200.96 354.645 201.136 354.469C201.317 354.287 201.536 354.196 201.792 354.196C202.042 354.196 202.258 354.287 202.44 354.469C202.621 354.645 202.712 354.861 202.712 355.116C202.712 355.281 202.67 355.435 202.585 355.577C202.505 355.719 202.394 355.832 202.252 355.918C202.116 355.997 201.962 356.037 201.792 356.037ZM218.388 348.545V366H217.322V349.67H217.22L213.3 352.27V351.128L217.186 348.545H218.388ZM229.141 366.239C227.977 366.239 226.977 365.881 226.141 365.165C225.306 364.449 224.664 363.423 224.215 362.088C223.772 360.747 223.55 359.142 223.55 357.273C223.55 355.409 223.775 353.807 224.224 352.466C224.673 351.125 225.312 350.097 226.141 349.381C226.977 348.665 227.977 348.307 229.141 348.307C230.306 348.307 231.303 348.665 232.133 349.381C232.968 350.097 233.61 351.125 234.059 352.466C234.508 353.807 234.732 355.409 234.732 357.273C234.732 359.142 234.508 360.747 234.059 362.088C233.616 363.423 232.977 364.449 232.141 365.165C231.306 365.881 230.306 366.239 229.141 366.239ZM229.141 365.25C230.556 365.25 231.667 364.548 232.474 363.145C233.281 361.736 233.684 359.778 233.684 357.273C233.684 355.602 233.499 354.17 233.13 352.977C232.766 351.784 232.246 350.872 231.57 350.241C230.894 349.605 230.085 349.287 229.141 349.287C227.727 349.287 226.616 349.991 225.809 351.401C225.002 352.81 224.599 354.767 224.599 357.273C224.599 358.943 224.781 360.375 225.144 361.568C225.508 362.756 226.028 363.668 226.704 364.304C227.386 364.935 228.198 365.25 229.141 365.25ZM243.602 366.239C242.438 366.239 241.438 365.881 240.602 365.165C239.767 364.449 239.125 363.423 238.676 362.088C238.233 360.747 238.011 359.142 238.011 357.273C238.011 355.409 238.236 353.807 238.685 352.466C239.134 351.125 239.773 350.097 240.602 349.381C241.438 348.665 242.438 348.307 243.602 348.307C244.767 348.307 245.764 348.665 246.594 349.381C247.429 350.097 248.071 351.125 248.52 352.466C248.969 353.807 249.193 355.409 249.193 357.273C249.193 359.142 248.969 360.747 248.52 362.088C248.077 363.423 247.438 364.449 246.602 365.165C245.767 365.881 244.767 366.239 243.602 366.239ZM243.602 365.25C245.017 365.25 246.128 364.548 246.935 363.145C247.741 361.736 248.145 359.778 248.145 357.273C248.145 355.602 247.96 354.17 247.591 352.977C247.227 351.784 246.707 350.872 246.031 350.241C245.355 349.605 244.545 349.287 243.602 349.287C242.188 349.287 241.077 349.991 240.27 351.401C239.463 352.81 239.06 354.767 239.06 357.273C239.06 358.943 239.241 360.375 239.605 361.568C239.969 362.756 240.489 363.668 241.165 364.304C241.847 364.935 242.659 365.25 243.602 365.25Z" fill="black"/>
<path d="M542.816 243.578C543.135 243.127 543.028 242.503 542.578 242.184L535.231 236.985C534.78 236.666 534.156 236.772 533.837 237.223C533.518 237.674 533.625 238.298 534.076 238.617L540.606 243.239L535.985 249.769C535.666 250.22 535.772 250.844 536.223 251.163C536.674 251.482 537.298 251.375 537.617 250.924L542.816 243.578ZM209.169 300.986L542.169 243.986L541.831 242.014L208.831 299.014L209.169 300.986Z" fill="black"/>
<path d="M24.7071 54.2929C24.3166 53.9024 23.6834 53.9024 23.2929 54.2929L16.9289 60.6569C16.5384 61.0474 16.5384 61.6805 16.9289 62.0711C17.3195 62.4616 17.9526 62.4616 18.3432 62.0711L24 56.4142L29.6569 62.0711C30.0474 62.4616 30.6806 62.4616 31.0711 62.0711C31.4616 61.6805 31.4616 61.0474 31.0711 60.6569L24.7071 54.2929ZM25 329L25 55L23 55L23 329L25 329Z" fill="black"/>
<path d="M10.56 17.896H22.8V19.576H10.56V17.896ZM9.504 36.736H23.016V38.416H9.504V36.736ZM12.24 31L13.8 30.64C14.4 32.248 14.952 34.36 15.12 35.728L13.464 36.16C13.344 34.768 12.816 32.632 12.24 31ZM19.224 30.496L21.048 30.904C20.424 32.728 19.704 34.96 19.08 36.304L17.568 35.896C18.168 34.504 18.888 32.128 19.224 30.496ZM13.224 23.824V28.048H20.04V23.824H13.224ZM11.52 22.216H21.792V29.656H11.52V22.216ZM5.448 20.92H7.176V25.648C7.176 29.632 6.456 35.2 2.112 38.848C1.896 38.464 1.224 37.792 0.888 37.576C4.968 34.144 5.448 29.296 5.448 25.624V20.92ZM3.264 19.984H10.344V21.64H3.264V19.984ZM1.032 26.488H10.632V28.168H1.032V26.488ZM6.648 29.608C7.416 30.328 10.152 33.472 10.776 34.24L9.6 35.728C8.784 34.432 6.504 31.624 5.568 30.592L6.648 29.608ZM3.456 16.96L5.184 17.272C4.608 20.392 3.624 23.416 2.328 25.408C1.992 25.144 1.2 24.712 0.768 24.544C2.088 22.696 2.976 19.84 3.456 16.96ZM35.904 18.496C33.816 21.16 29.736 24.304 25.536 26.344C25.32 25.912 24.84 25.24 24.456 24.856C28.728 22.912 32.88 19.624 34.872 16.792H36.72C39.408 20.008 43.752 23.032 47.616 24.568C47.184 25.024 46.752 25.648 46.44 26.176C42.672 24.424 38.256 21.304 35.904 18.496ZM31.176 23.032H41.016V24.664H31.176V23.032ZM27.984 26.824H34.704V35.056H27.984V33.448H33.048V28.408H27.984V26.824ZM36.768 26.8H43.896V28.408H38.472V38.968H36.768V26.8ZM43.32 26.8H45.072V34.336C45.072 35.224 44.88 35.752 44.184 36.016C43.512 36.304 42.384 36.328 40.56 36.328C40.512 35.824 40.248 35.128 40.032 34.672C41.376 34.72 42.528 34.72 42.888 34.696C43.224 34.672 43.32 34.6 43.32 34.288V26.8ZM27.24 26.824H28.872V37.096H27.24V26.824Z" fill="black"/>
<path d="M1.248 356.36H22.728V357.968H1.248V356.36ZM6.48 349.352H19.632V350.816H6.48V349.352ZM6.48 352.832H19.632V354.296H6.48V352.832ZM2.4 365.096C5.16 364.712 9.528 363.968 13.632 363.296L13.704 364.88C9.864 365.576 5.736 366.272 2.856 366.776L2.4 365.096ZM12.096 356.792C13.776 361.304 17.568 364.328 23.112 365.408C22.728 365.768 22.224 366.488 21.984 366.992C16.176 365.648 12.408 362.36 10.464 357.224L12.096 356.792ZM20.208 358.184L21.648 359.168C19.848 360.512 17.448 361.904 15.576 362.792L14.352 361.832C16.176 360.92 18.72 359.36 20.208 358.184ZM5.496 345.8H20.4V347.336H7.32V357.032H5.496V345.8ZM5.472 356.864H7.32V365.12L5.472 365.336V356.864ZM26.664 346.904H45.432V348.464H26.664V346.904ZM27.624 350.432H44.496V351.944H27.624V350.432ZM25.248 354.056H46.728V355.64H25.248V354.056ZM25.656 358.064H46.344V359.648H25.656V358.064ZM40.512 355.424H42.336V364.664C42.336 365.72 42.096 366.248 41.328 366.536C40.512 366.824 39.192 366.824 37.176 366.824C37.08 366.32 36.792 365.6 36.552 365.072C38.16 365.12 39.576 365.12 39.984 365.096C40.416 365.096 40.512 364.976 40.512 364.64V355.424ZM34.68 344.816L36.648 345.032C35.352 354.992 32.88 361.736 26.592 365.84C26.304 365.456 25.488 364.712 25.008 364.376C31.248 360.752 33.552 354.248 34.68 344.816ZM31.656 361.544L33.144 360.608C34.32 361.688 35.76 363.224 36.456 364.208L34.896 365.264C34.248 364.256 32.832 362.672 31.656 361.544Z" fill="black"/>
<path d="M124.115 327.909L127.004 333.006L129.919 327.909H132.706L128.624 334.455L132.74 341H129.953L127.004 336.108L124.064 341H121.268L125.342 334.455L121.32 327.909H124.115Z" fill="black"/>
<path d="M131.013 237.909V239.955H123.616V237.909H131.013ZM125.644 251V236.392C125.644 235.574 125.823 234.895 126.181 234.355C126.539 233.81 127.013 233.403 127.604 233.136C128.195 232.864 128.837 232.727 129.531 232.727C130.042 232.727 130.479 232.77 130.843 232.855C131.207 232.935 131.477 233.009 131.653 233.077L131.056 235.139C130.937 235.105 130.783 235.065 130.596 235.02C130.408 234.969 130.181 234.943 129.914 234.943C129.295 234.943 128.852 235.097 128.585 235.403C128.323 235.71 128.192 236.153 128.192 236.733V251H125.644Z" fill="black"/>
<path d="M582 329V331H584V329H582ZM583.414 262.086C582.633 261.305 581.367 261.305 580.586 262.086L567.858 274.814C567.077 275.595 567.077 276.861 567.858 277.642C568.639 278.423 569.905 278.423 570.686 277.642L582 266.328L593.314 277.642C594.095 278.423 595.361 278.423 596.142 277.642C596.923 276.861 596.923 275.595 596.142 274.814L583.414 262.086ZM313 331H582V327H313V331ZM584 329V263.5H580V329H584Z" fill="#FF0000"/>
<path d="M448.464 348.184H458.808V349.84H448.464V348.184ZM460.512 355.024H470.16V356.752H460.512V355.024ZM465.72 356.152H467.496V368.944H465.72V356.152ZM459.816 349.216L462.072 349.816C462.048 349.984 461.928 350.08 461.592 350.128V355.624C461.592 359.512 461.088 365.008 457.488 368.872C457.224 368.488 456.576 367.888 456.144 367.672C459.48 364.12 459.816 359.296 459.816 355.624V349.216ZM449.352 352.336H451.056V358.816C451.056 361.888 450.768 366.136 448.92 368.968C448.632 368.632 447.888 368.08 447.504 367.864C449.184 365.272 449.352 361.576 449.352 358.816V352.336ZM468.096 347.128L469.68 348.496C467.304 349.648 463.824 350.632 460.824 351.328C460.728 350.92 460.44 350.272 460.2 349.864C463.056 349.192 466.296 348.16 468.096 347.128ZM450.336 352.336H458.208V359.824H450.336V358.192H456.456V353.992H450.336V352.336ZM472.512 349.96H493.536V351.664H472.512V349.96ZM478.368 358.528H489.648V360.088H478.368V358.528ZM477.096 354.448H489.36V356.056H478.872V368.92H477.096V354.448ZM488.952 354.448H490.704V366.688C490.704 367.744 490.488 368.296 489.672 368.584C488.904 368.872 487.56 368.872 485.496 368.872C485.424 368.368 485.16 367.624 484.896 367.12C486.504 367.192 487.968 367.168 488.4 367.168C488.808 367.144 488.952 367.024 488.952 366.664V354.448ZM480.36 346.84L482.184 347.272C480.552 352.552 477.672 357.88 473.088 361.096C472.848 360.688 472.296 360.064 471.936 359.704C476.232 356.752 479.064 351.664 480.36 346.84ZM478.368 362.584H489.648V364.144H478.368V362.584ZM506.952 349.264H517.272V350.824H506.952V349.264ZM507.672 360.328H517.176V361.6H507.672V360.328ZM507.696 363.472H517.2V364.72H507.696V363.472ZM507.528 366.664H518.04V368.08H507.528V366.664ZM504.312 353.344H518.016V354.928H504.312V353.344ZM512.664 354.952L514.488 355.336C513.936 356.368 513.336 357.448 512.856 358.168L511.344 357.832C511.824 357.016 512.376 355.792 512.664 354.952ZM511.536 358.048H513.168V367.312H511.536V358.048ZM508.248 357.16H517.632V358.528H508.248V368.896H506.568V358.384L507.72 357.16H508.248ZM507.336 346.744L509.016 347.128C508.296 349.432 507.12 351.712 505.848 353.2C505.536 352.936 504.816 352.48 504.384 352.288C505.68 350.896 506.736 348.832 507.336 346.744ZM509.928 349.888L511.608 350.296C510.144 355.144 507.624 359.32 504.48 362.008C504.24 361.672 503.592 361 503.208 360.688C506.304 358.264 508.656 354.376 509.928 349.888ZM496.224 352.048H504.024V353.752H496.224V352.048ZM499.608 346.84H501.264V368.896H499.608V346.84ZM499.56 353.056L500.664 353.44C499.92 357.232 498.336 361.96 496.656 364.36C496.464 363.904 496.032 363.208 495.744 362.824C497.328 360.664 498.888 356.488 499.56 353.056ZM501.096 354.328C501.648 354.952 503.736 357.736 504.192 358.408L503.208 359.752C502.632 358.624 500.928 355.96 500.28 355.072L501.096 354.328Z" fill="#FF0000"/>
<path d="M108.194 323.187L107.278 323.589L107.278 323.589L108.194 323.187ZM112.137 333.932C112.651 334.132 113.231 333.878 113.432 333.363L116.702 324.979C116.903 324.464 116.649 323.884 116.134 323.684C115.619 323.483 115.04 323.737 114.839 324.252L111.932 331.705L104.479 328.798C103.964 328.597 103.384 328.851 103.184 329.366C102.983 329.881 103.237 330.46 103.752 330.661L112.137 333.932ZM107.278 323.589L111.584 333.402L113.416 332.598L109.11 322.785L107.278 323.589ZM111.635 246.498C97.9631 270.027 96.3443 298.669 107.278 323.589L109.11 322.785C98.4323 298.45 100.013 270.48 113.365 247.502L111.635 246.498Z" fill="#FF0000"/>
<path d="M56.784 279.84L58.728 280.392C57.648 282 56.304 283.848 55.224 285.048L53.76 284.496C54.792 283.248 56.088 281.256 56.784 279.84ZM62.544 281.712L63.936 280.848C66.12 282.216 68.784 284.304 70.08 285.792L68.568 286.776C67.344 285.312 64.752 283.152 62.544 281.712ZM50.16 284.016C54.408 283.944 61.224 283.8 67.56 283.608L67.488 285.12C61.344 285.36 54.744 285.576 50.376 285.672L50.16 284.016ZM49.248 287.64H70.776V289.2H49.248V287.64ZM60.696 290.352L62.112 291.048C60.312 292.416 57.456 293.568 55.032 294.24C54.792 293.904 54.36 293.424 53.976 293.136C56.28 292.56 59.16 291.48 60.696 290.352ZM63.192 293.136L64.632 293.832C62.304 295.752 58.416 297.168 54.864 297.984C54.648 297.6 54.24 297.024 53.856 296.688C57.24 296.016 61.128 294.72 63.192 293.136ZM66.312 295.848L67.872 296.592C64.944 299.64 59.448 301.272 53.352 302.064C53.16 301.608 52.824 300.984 52.488 300.576C58.32 299.928 63.672 298.464 66.312 295.848ZM57.768 284.832L59.544 285.288C57.624 289.992 54.072 293.304 49.752 295.344C49.512 295.008 48.84 294.288 48.432 293.952C52.728 292.176 56.112 289.08 57.768 284.832ZM63.816 287.976C65.352 290.4 68.424 292.704 71.304 293.808C70.896 294.144 70.368 294.816 70.104 295.224C67.152 293.904 64.032 291.336 62.304 288.576L63.816 287.976ZM74.208 280.896H75.912V295.848H74.208V280.896ZM75.12 280.896H81.216V294.648H75.12V292.992H79.536V282.504H75.12V280.896ZM75.096 286.704H80.4V288.312H75.096V286.704ZM82.248 280.848H93V282.456H82.248V280.848ZM92.424 280.848H94.152C94.152 280.848 94.152 281.304 94.128 281.544C93.888 285.024 93.672 286.464 93.144 287.016C92.784 287.4 92.352 287.52 91.728 287.568C91.176 287.616 90.12 287.616 89.016 287.568C88.968 287.112 88.8 286.488 88.56 286.056C89.592 286.152 90.576 286.176 90.96 286.176C91.32 286.176 91.536 286.128 91.704 285.96C92.064 285.6 92.256 284.376 92.424 281.088V280.848ZM86.424 281.352H88.224C87.792 284.856 86.616 287.16 82.488 288.408C82.32 288 81.864 287.376 81.48 287.064C85.152 286.056 86.112 284.184 86.424 281.352ZM84.672 290.256V293.904H91.68V290.256H84.672ZM82.968 288.744H93.456V295.416H82.968V288.744ZM80.16 297.024L81.816 296.832C82.128 298.392 82.392 300.384 82.416 301.584L80.64 301.848C80.64 300.624 80.448 298.584 80.16 297.024ZM85.296 296.952L86.976 296.64C87.624 298.128 88.272 300.144 88.512 301.392L86.736 301.776C86.52 300.552 85.92 298.488 85.296 296.952ZM90.192 296.808L91.8 296.16C92.952 297.72 94.344 299.856 94.944 301.2L93.216 301.968C92.664 300.624 91.32 298.416 90.192 296.808ZM76.176 296.328L77.88 296.808C77.04 298.608 75.84 300.672 74.736 302.04L73.008 301.296C74.112 300.072 75.36 298.08 76.176 296.328Z" fill="#FF0000"/>
</svg>
