<svg width="938" height="384" viewBox="0 0 938 384" fill="none" xmlns="http://www.w3.org/2000/svg">
<ellipse cx="705.5" cy="193" rx="232.5" ry="135" fill="#D9D9D9"/>
<rect x="570" y="159" width="265" height="49" fill="white"/>
<path d="M578.196 184.511V193H577.156V175.545H578.196V181.98H578.298C578.605 181.298 579.094 180.756 579.764 180.352C580.44 179.943 581.25 179.739 582.193 179.739C583.074 179.739 583.849 179.926 584.52 180.301C585.19 180.67 585.713 181.202 586.088 181.895C586.469 182.582 586.659 183.406 586.659 184.366V193H585.628V184.409C585.628 183.29 585.295 182.392 584.631 181.716C583.966 181.04 583.088 180.702 581.997 180.702C581.264 180.702 580.611 180.861 580.037 181.179C579.463 181.497 579.011 181.943 578.682 182.517C578.358 183.085 578.196 183.75 578.196 184.511ZM596.066 193.273C594.884 193.273 593.856 192.98 592.981 192.395C592.106 191.81 591.43 191.009 590.952 189.991C590.475 188.974 590.237 187.815 590.237 186.514C590.237 185.207 590.475 184.043 590.952 183.02C591.435 181.997 592.097 181.19 592.938 180.599C593.779 180.009 594.739 179.713 595.819 179.713C596.552 179.713 597.245 179.861 597.898 180.156C598.558 180.446 599.137 180.866 599.637 181.418C600.143 181.969 600.538 182.634 600.822 183.412C601.112 184.19 601.256 185.065 601.256 186.037V186.685H590.893V185.739H600.217C600.217 184.79 600.023 183.935 599.637 183.173C599.251 182.412 598.725 181.807 598.06 181.358C597.396 180.909 596.648 180.685 595.819 180.685C594.95 180.685 594.174 180.929 593.492 181.418C592.816 181.901 592.279 182.554 591.881 183.378C591.489 184.202 591.285 185.122 591.268 186.139V186.565C591.268 187.656 591.458 188.636 591.839 189.506C592.225 190.369 592.776 191.054 593.492 191.56C594.208 192.06 595.066 192.31 596.066 192.31C596.782 192.31 597.393 192.19 597.898 191.952C598.41 191.707 598.827 191.412 599.151 191.065C599.475 190.719 599.719 190.384 599.884 190.06L600.83 190.443C600.631 190.881 600.322 191.318 599.901 191.756C599.487 192.187 598.958 192.548 598.316 192.838C597.68 193.128 596.93 193.273 596.066 193.273ZM605.876 175.545V193H604.836V175.545H605.876ZM611.219 175.545V193H610.18V175.545H611.219ZM620.39 193.273C619.31 193.273 618.35 192.983 617.509 192.403C616.668 191.818 616.006 191.014 615.523 189.991C615.04 188.969 614.799 187.804 614.799 186.497C614.799 185.185 615.04 184.02 615.523 183.003C616.006 181.98 616.668 181.176 617.509 180.591C618.35 180.006 619.31 179.713 620.39 179.713C621.469 179.713 622.43 180.006 623.271 180.591C624.112 181.176 624.773 181.98 625.256 183.003C625.739 184.026 625.981 185.19 625.981 186.497C625.981 187.804 625.739 188.969 625.256 189.991C624.773 191.014 624.112 191.818 623.271 192.403C622.43 192.983 621.469 193.273 620.39 193.273ZM620.39 192.31C621.305 192.31 622.103 192.051 622.785 191.534C623.472 191.017 624.004 190.318 624.379 189.438C624.759 188.557 624.95 187.577 624.95 186.497C624.95 185.418 624.759 184.44 624.379 183.565C623.998 182.685 623.467 181.986 622.785 181.469C622.103 180.946 621.305 180.685 620.39 180.685C619.475 180.685 618.677 180.946 617.995 181.469C617.313 181.986 616.782 182.685 616.401 183.565C616.021 184.44 615.83 185.418 615.83 186.497C615.83 187.577 616.018 188.557 616.393 189.438C616.773 190.318 617.305 191.017 617.987 191.534C618.674 192.051 619.475 192.31 620.39 192.31ZM639.168 193L635.247 179.909H636.338L639.713 191.474H639.807L643.19 179.909H644.273L647.648 191.466H647.733L651.108 179.909H652.199L648.278 193H647.119L643.778 181.605H643.668L640.327 193H639.168ZM659.859 193.273C658.779 193.273 657.819 192.983 656.978 192.403C656.137 191.818 655.475 191.014 654.992 189.991C654.509 188.969 654.268 187.804 654.268 186.497C654.268 185.185 654.509 184.02 654.992 183.003C655.475 181.98 656.137 181.176 656.978 180.591C657.819 180.006 658.779 179.713 659.859 179.713C660.938 179.713 661.898 180.006 662.739 180.591C663.58 181.176 664.242 181.98 664.725 183.003C665.208 184.026 665.45 185.19 665.45 186.497C665.45 187.804 665.208 188.969 664.725 189.991C664.242 191.014 663.58 191.818 662.739 192.403C661.898 192.983 660.938 193.273 659.859 193.273ZM659.859 192.31C660.773 192.31 661.572 192.051 662.254 191.534C662.941 191.017 663.472 190.318 663.847 189.438C664.228 188.557 664.418 187.577 664.418 186.497C664.418 185.418 664.228 184.44 663.847 183.565C663.467 182.685 662.935 181.986 662.254 181.469C661.572 180.946 660.773 180.685 659.859 180.685C658.944 180.685 658.146 180.946 657.464 181.469C656.782 181.986 656.251 182.685 655.87 183.565C655.489 184.44 655.299 185.418 655.299 186.497C655.299 187.577 655.487 188.557 655.862 189.438C656.242 190.318 656.773 191.017 657.455 191.534C658.143 192.051 658.944 192.31 659.859 192.31ZM669.031 193V179.909H670.045V181.955H670.139C670.423 181.284 670.903 180.747 671.58 180.344C672.256 179.935 673.026 179.73 673.889 179.73C673.98 179.73 674.071 179.73 674.162 179.73C674.253 179.73 674.338 179.733 674.418 179.739V180.787C674.349 180.781 674.267 180.773 674.17 180.761C674.08 180.744 673.966 180.736 673.83 180.736C673.102 180.736 672.455 180.892 671.886 181.205C671.324 181.517 670.881 181.949 670.557 182.5C670.233 183.045 670.071 183.67 670.071 184.375V193H669.031ZM678.251 175.545V193H677.211V175.545H678.251ZM687.046 193.273C685.995 193.273 685.077 192.983 684.293 192.403C683.509 191.824 682.901 191.026 682.469 190.009C682.043 188.986 681.83 187.812 681.83 186.489C681.83 185.176 682.046 184.011 682.478 182.994C682.915 181.972 683.526 181.17 684.31 180.591C685.094 180.006 686.009 179.713 687.055 179.713C687.805 179.713 688.455 179.858 689.006 180.148C689.563 180.432 690.029 180.81 690.404 181.281C690.785 181.753 691.075 182.27 691.273 182.832H691.376V175.545H692.407V193H691.401V190.145H691.273C691.063 190.707 690.771 191.227 690.396 191.705C690.021 192.176 689.555 192.557 688.998 192.847C688.441 193.131 687.79 193.273 687.046 193.273ZM687.14 192.31C688.026 192.31 688.785 192.057 689.415 191.551C690.052 191.04 690.538 190.347 690.873 189.472C691.214 188.591 691.384 187.594 691.384 186.48C691.384 185.366 691.214 184.375 690.873 183.506C690.538 182.631 690.052 181.943 689.415 181.443C688.785 180.937 688.026 180.685 687.14 180.685C686.242 180.685 685.472 180.94 684.83 181.452C684.194 181.957 683.705 182.648 683.364 183.523C683.029 184.398 682.862 185.384 682.862 186.48C682.862 187.577 683.029 188.565 683.364 189.446C683.705 190.327 684.194 191.026 684.83 191.543C685.472 192.054 686.242 192.31 687.14 192.31Z" fill="black"/>
<path d="M643.47 103V85.5455H647.161V92.7472H654.652V85.5455H658.334V103H654.652V95.7898H647.161V103H643.47ZM661.376 103V85.5455H673.138V88.5881H665.067V92.7472H672.533V95.7898H665.067V99.9574H673.172V103H661.376ZM679.08 103H675.126L681.151 85.5455H685.907L691.924 103H687.969L683.597 89.5341H683.461L679.08 103ZM678.833 96.1392H688.174V99.0199H678.833V96.1392ZM694.025 103V85.5455H700.911C702.235 85.5455 703.363 85.7983 704.295 86.304C705.227 86.804 705.937 87.5 706.425 88.392C706.92 89.2784 707.167 90.3011 707.167 91.4602C707.167 92.6193 706.917 93.642 706.417 94.5284C705.917 95.4148 705.192 96.1051 704.244 96.5994C703.3 97.0937 702.158 97.3409 700.817 97.3409H696.428V94.3835H700.221C700.931 94.3835 701.516 94.2614 701.977 94.017C702.442 93.767 702.789 93.4233 703.016 92.9858C703.249 92.5426 703.366 92.0341 703.366 91.4602C703.366 90.8807 703.249 90.375 703.016 89.9432C702.789 89.5057 702.442 89.1676 701.977 88.929C701.511 88.6847 700.92 88.5625 700.204 88.5625H697.715V103H694.025ZM709.535 92.92H717.335V95.416H709.535V92.92ZM711.359 88.936H717.455V91.336H711.359V88.936ZM711.503 94.384H714.047V105.112H711.503V94.384ZM716.063 92.92H718.559V99.592C718.559 100.672 718.415 101.392 717.719 101.8C717.023 102.208 716.159 102.232 714.959 102.232C714.911 101.488 714.647 100.48 714.335 99.808C714.983 99.832 715.583 99.832 715.799 99.808C716.015 99.808 716.063 99.736 716.063 99.544V92.92ZM718.775 83.56H731.039V85.984H718.775V83.56ZM722.231 93.184V94.72H727.583V93.184H722.231ZM722.231 96.688V98.224H727.583V96.688H722.231ZM722.231 89.704V91.216H727.583V89.704H722.231ZM719.591 87.592H730.343V100.336H719.591V87.592ZM723.455 84.88L726.743 85.24C726.287 86.752 725.783 88.264 725.375 89.296L722.879 88.84C723.119 87.688 723.383 86.056 723.455 84.88ZM721.943 100.36L724.295 101.896C722.975 103.168 720.695 104.512 718.823 105.232C718.367 104.704 717.527 103.84 716.903 103.36C718.775 102.688 720.887 101.392 721.943 100.36ZM725.423 101.968L727.559 100.528C728.903 101.392 730.727 102.712 731.663 103.624L729.407 105.232C728.567 104.344 726.791 102.928 725.423 101.968ZM712.871 82.624H714.455V83.176H715.295V83.944C714.287 86.056 712.655 88.96 709.871 91.528C709.559 90.88 708.815 89.776 708.287 89.344C710.543 87.376 712.055 84.76 712.871 82.624ZM713.087 82.624H715.151C716.735 83.896 718.823 85.816 719.783 87.184L718.007 89.728C717.119 88.336 715.151 86.008 713.615 84.808H713.087V82.624ZM732.887 88.36H739.559V91.072H732.887V88.36ZM735.047 82.96H737.711V99.04H735.047V82.96ZM732.671 99.4C734.351 98.656 736.919 97.36 739.367 96.064L740.207 98.608C738.071 99.88 735.719 101.224 733.751 102.28L732.671 99.4ZM739.919 85.936H755.063V88.528H739.919V85.936ZM739.175 99.88C741.287 99.496 744.455 98.776 747.503 98.08L747.767 100.48C745.031 101.224 742.127 101.992 739.847 102.568L739.175 99.88ZM747.575 82.648H750.311C750.143 92.296 751.463 102.448 753.047 102.448C753.359 102.448 753.575 101.584 753.623 99.448C754.175 100.096 754.991 100.696 755.567 101.008C755.183 104.224 754.487 105.16 752.663 105.16C748.487 105.16 747.623 93.4 747.575 82.648ZM750.767 84.016L752.375 82.624C753.311 83.296 754.487 84.28 755.039 84.976L753.335 86.536C752.807 85.816 751.703 84.76 750.767 84.016ZM752.159 90.112L754.727 90.592C753.215 97 750.431 101.968 746.183 105.016C745.775 104.536 744.695 103.6 744.119 103.192C748.343 100.528 750.911 95.968 752.159 90.112ZM742.727 92.344V95.272H744.575V92.344H742.727ZM740.615 90.136H746.807V97.504H740.615V90.136Z" fill="black"/>
<rect x="142" y="1" width="181" height="383" fill="#D9D9D9"/>
<path d="M178.31 18.5653C178.242 17.8778 177.949 17.3437 177.432 16.9631C176.915 16.5824 176.213 16.392 175.327 16.392C174.725 16.392 174.216 16.4773 173.801 16.6477C173.387 16.8125 173.069 17.0426 172.847 17.3381C172.631 17.6335 172.523 17.9688 172.523 18.3438C172.512 18.6562 172.577 18.929 172.719 19.1619C172.867 19.3949 173.069 19.5966 173.324 19.767C173.58 19.9318 173.875 20.0767 174.211 20.2017C174.546 20.321 174.904 20.4233 175.284 20.5085L176.853 20.8835C177.614 21.054 178.313 21.2812 178.949 21.5653C179.586 21.8494 180.137 22.1989 180.603 22.6136C181.069 23.0284 181.429 23.517 181.685 24.0795C181.946 24.642 182.08 25.2869 182.086 26.0142C182.08 27.0824 181.807 28.0085 181.267 28.7926C180.733 29.571 179.961 30.1761 178.949 30.608C177.944 31.0341 176.73 31.2472 175.31 31.2472C173.901 31.2472 172.674 31.0312 171.628 30.5994C170.588 30.1676 169.776 29.5284 169.191 28.6818C168.611 27.8295 168.307 26.7756 168.279 25.5199H171.85C171.89 26.1051 172.057 26.5937 172.353 26.9858C172.654 27.3722 173.054 27.6648 173.554 27.8636C174.06 28.0568 174.631 28.1534 175.267 28.1534C175.892 28.1534 176.435 28.0625 176.895 27.8807C177.361 27.6989 177.722 27.446 177.978 27.1222C178.233 26.7983 178.361 26.4261 178.361 26.0057C178.361 25.6136 178.245 25.2841 178.012 25.017C177.784 24.75 177.449 24.5227 177.006 24.3352C176.569 24.1477 176.032 23.9773 175.395 23.8239L173.495 23.3466C172.023 22.9886 170.861 22.429 170.009 21.6676C169.157 20.9062 168.733 19.8807 168.739 18.5909C168.733 17.5341 169.015 16.6108 169.583 15.821C170.157 15.0312 170.944 14.4148 171.944 13.9716C172.944 13.5284 174.08 13.3068 175.353 13.3068C176.648 13.3068 177.779 13.5284 178.745 13.9716C179.716 14.4148 180.472 15.0312 181.012 15.821C181.551 16.6108 181.83 17.5256 181.847 18.5653H178.31ZM183.903 16.5881V13.5455H198.238V16.5881H192.895V31H189.247V16.5881H183.903ZM201.475 31H197.52L203.546 13.5455H208.301L214.319 31H210.364L205.992 17.5341H205.855L201.475 31ZM201.228 24.1392H210.569V27.0199H201.228V24.1392ZM231 19.6562H227.267C227.199 19.1733 227.059 18.7443 226.849 18.3693C226.639 17.9886 226.369 17.6648 226.039 17.3977C225.71 17.1307 225.329 16.9261 224.897 16.7841C224.471 16.642 224.008 16.571 223.508 16.571C222.605 16.571 221.818 16.7955 221.147 17.2443C220.477 17.6875 219.957 18.3352 219.588 19.1875C219.218 20.0341 219.034 21.0625 219.034 22.2727C219.034 23.517 219.218 24.5625 219.588 25.4091C219.963 26.2557 220.485 26.8949 221.156 27.3267C221.826 27.7585 222.602 27.9744 223.483 27.9744C223.977 27.9744 224.434 27.9091 224.855 27.7784C225.281 27.6477 225.659 27.4574 225.988 27.2074C226.318 26.9517 226.591 26.642 226.806 26.2784C227.028 25.9148 227.181 25.5 227.267 25.0341L231 25.0511C230.903 25.8523 230.662 26.625 230.275 27.3693C229.895 28.108 229.38 28.7699 228.733 29.3551C228.091 29.9347 227.324 30.3949 226.431 30.7358C225.545 31.071 224.542 31.2386 223.423 31.2386C221.866 31.2386 220.474 30.8864 219.247 30.1818C218.025 29.4773 217.059 28.4574 216.349 27.1222C215.645 25.7869 215.292 24.1705 215.292 22.2727C215.292 20.3693 215.65 18.75 216.366 17.4148C217.082 16.0795 218.054 15.0625 219.281 14.3636C220.508 13.6591 221.889 13.3068 223.423 13.3068C224.434 13.3068 225.372 13.4489 226.235 13.733C227.105 14.017 227.875 14.4318 228.545 14.9773C229.216 15.517 229.761 16.179 230.181 16.9631C230.608 17.7472 230.88 18.6449 231 19.6562ZM233.646 31V13.5455H237.336V21.2415H237.566L243.848 13.5455H248.271L241.794 21.3608L248.348 31H243.933L239.152 23.8239L237.336 26.0398V31H233.646ZM250.164 20.92H257.964V23.416H250.164V20.92ZM251.988 16.936H258.084V19.336H251.988V16.936ZM252.132 22.384H254.676V33.112H252.132V22.384ZM256.692 20.92H259.188V27.592C259.188 28.672 259.044 29.392 258.348 29.8C257.652 30.208 256.788 30.232 255.588 30.232C255.54 29.488 255.276 28.48 254.964 27.808C255.612 27.832 256.212 27.832 256.428 27.808C256.644 27.808 256.692 27.736 256.692 27.544V20.92ZM259.404 11.56H271.668V13.984H259.404V11.56ZM262.86 21.184V22.72H268.212V21.184H262.86ZM262.86 24.688V26.224H268.212V24.688H262.86ZM262.86 17.704V19.216H268.212V17.704H262.86ZM260.22 15.592H270.972V28.336H260.22V15.592ZM264.084 12.88L267.372 13.24C266.916 14.752 266.412 16.264 266.004 17.296L263.508 16.84C263.748 15.688 264.012 14.056 264.084 12.88ZM262.572 28.36L264.924 29.896C263.604 31.168 261.324 32.512 259.452 33.232C258.996 32.704 258.156 31.84 257.532 31.36C259.404 30.688 261.516 29.392 262.572 28.36ZM266.052 29.968L268.188 28.528C269.532 29.392 271.356 30.712 272.292 31.624L270.036 33.232C269.196 32.344 267.42 30.928 266.052 29.968ZM253.5 10.624H255.084V11.176H255.924V11.944C254.916 14.056 253.284 16.96 250.5 19.528C250.188 18.88 249.444 17.776 248.916 17.344C251.172 15.376 252.684 12.76 253.5 10.624ZM253.716 10.624H255.78C257.364 11.896 259.452 13.816 260.412 15.184L258.636 17.728C257.748 16.336 255.78 14.008 254.244 12.808H253.716V10.624ZM273.516 16.36H280.188V19.072H273.516V16.36ZM275.676 10.96H278.34V27.04H275.676V10.96ZM273.3 27.4C274.98 26.656 277.548 25.36 279.996 24.064L280.836 26.608C278.7 27.88 276.348 29.224 274.38 30.28L273.3 27.4ZM280.548 13.936H295.692V16.528H280.548V13.936ZM279.804 27.88C281.916 27.496 285.084 26.776 288.132 26.08L288.396 28.48C285.66 29.224 282.756 29.992 280.476 30.568L279.804 27.88ZM288.204 10.648H290.94C290.772 20.296 292.092 30.448 293.676 30.448C293.988 30.448 294.204 29.584 294.252 27.448C294.804 28.096 295.62 28.696 296.196 29.008C295.812 32.224 295.116 33.16 293.292 33.16C289.116 33.16 288.252 21.4 288.204 10.648ZM291.396 12.016L293.004 10.624C293.94 11.296 295.116 12.28 295.668 12.976L293.964 14.536C293.436 13.816 292.332 12.76 291.396 12.016ZM292.788 18.112L295.356 18.592C293.844 25 291.06 29.968 286.812 33.016C286.404 32.536 285.324 31.6 284.748 31.192C288.972 28.528 291.54 23.968 292.788 18.112ZM283.356 20.344V23.272H285.204V20.344H283.356ZM281.244 18.136H287.436V25.504H281.244V18.136Z" fill="black"/>
<rect x="152.5" y="197.5" width="160" height="87" fill="white" stroke="black"/>
<path d="M160.156 224.909V206.909H161.17V209.832H161.298C161.503 209.27 161.79 208.753 162.159 208.281C162.534 207.81 162.997 207.432 163.548 207.148C164.105 206.858 164.759 206.713 165.509 206.713C166.565 206.713 167.486 207.003 168.27 207.582C169.054 208.162 169.662 208.963 170.094 209.986C170.526 211.003 170.741 212.17 170.741 213.489C170.741 214.807 170.523 215.977 170.085 217C169.653 218.017 169.045 218.818 168.261 219.403C167.483 219.983 166.571 220.273 165.526 220.273C164.781 220.273 164.128 220.131 163.565 219.847C163.009 219.562 162.54 219.185 162.159 218.713C161.784 218.236 161.497 217.713 161.298 217.145H161.196V224.909H160.156ZM161.179 213.48C161.179 214.594 161.349 215.591 161.69 216.472C162.031 217.347 162.52 218.04 163.156 218.551C163.793 219.057 164.551 219.31 165.432 219.31C166.324 219.31 167.088 219.054 167.724 218.543C168.366 218.026 168.855 217.327 169.19 216.446C169.531 215.565 169.702 214.577 169.702 213.48C169.702 212.384 169.534 211.398 169.199 210.523C168.864 209.648 168.378 208.957 167.741 208.452C167.105 207.94 166.335 207.685 165.432 207.685C164.54 207.685 163.776 207.937 163.139 208.443C162.509 208.943 162.023 209.631 161.682 210.506C161.347 211.375 161.179 212.366 161.179 213.48ZM178.964 206.909V207.838H173.245V206.909H178.964ZM175.18 203.773H176.211V216.906C176.211 217.44 176.313 217.878 176.518 218.219C176.728 218.554 177.001 218.804 177.336 218.969C177.677 219.128 178.04 219.207 178.427 219.207C178.614 219.207 178.776 219.193 178.913 219.165C179.055 219.136 179.188 219.099 179.313 219.054L179.569 220C179.41 220.057 179.234 220.105 179.04 220.145C178.847 220.19 178.62 220.213 178.359 220.213C177.813 220.213 177.296 220.091 176.808 219.847C176.325 219.602 175.933 219.247 175.631 218.781C175.33 218.315 175.18 217.753 175.18 217.094V203.773ZM182.82 220V206.909H183.835V208.955H183.928C184.212 208.284 184.692 207.747 185.369 207.344C186.045 206.935 186.815 206.73 187.678 206.73C187.769 206.73 187.86 206.73 187.951 206.73C188.042 206.73 188.127 206.733 188.207 206.739V207.787C188.138 207.781 188.056 207.773 187.96 207.761C187.869 207.744 187.755 207.736 187.619 207.736C186.891 207.736 186.244 207.892 185.675 208.205C185.113 208.517 184.67 208.949 184.346 209.5C184.022 210.045 183.86 210.67 183.86 211.375V220H182.82ZM191.972 219.207C191.716 219.207 191.497 219.116 191.315 218.935C191.139 218.753 191.051 218.537 191.051 218.287C191.051 218.031 191.139 217.815 191.315 217.639C191.497 217.457 191.716 217.366 191.972 217.366C192.222 217.366 192.438 217.457 192.619 217.639C192.801 217.815 192.892 218.031 192.892 218.287C192.892 218.452 192.849 218.605 192.764 218.747C192.685 218.889 192.574 219.003 192.432 219.088C192.295 219.168 192.142 219.207 191.972 219.207ZM191.972 210.037C191.716 210.037 191.497 209.946 191.315 209.764C191.139 209.582 191.051 209.366 191.051 209.116C191.051 208.861 191.139 208.645 191.315 208.469C191.497 208.287 191.716 208.196 191.972 208.196C192.222 208.196 192.438 208.287 192.619 208.469C192.801 208.645 192.892 208.861 192.892 209.116C192.892 209.281 192.849 209.435 192.764 209.577C192.685 209.719 192.574 209.832 192.432 209.918C192.295 209.997 192.142 210.037 191.972 210.037Z" fill="black"/>
<path d="M161.196 231.545V249H160.156V231.545H161.196ZM170.605 249.273C169.423 249.273 168.395 248.98 167.52 248.395C166.645 247.81 165.969 247.009 165.491 245.991C165.014 244.974 164.776 243.815 164.776 242.514C164.776 241.207 165.014 240.043 165.491 239.02C165.974 237.997 166.636 237.19 167.477 236.599C168.318 236.009 169.278 235.713 170.358 235.713C171.091 235.713 171.784 235.861 172.438 236.156C173.097 236.446 173.676 236.866 174.176 237.418C174.682 237.969 175.077 238.634 175.361 239.412C175.651 240.19 175.795 241.065 175.795 242.037V242.685H165.432V241.739H174.756C174.756 240.79 174.563 239.935 174.176 239.173C173.79 238.412 173.264 237.807 172.599 237.358C171.935 236.909 171.188 236.685 170.358 236.685C169.489 236.685 168.713 236.929 168.031 237.418C167.355 237.901 166.818 238.554 166.42 239.378C166.028 240.202 165.824 241.122 165.807 242.139V242.565C165.807 243.656 165.997 244.636 166.378 245.506C166.764 246.369 167.315 247.054 168.031 247.56C168.747 248.06 169.605 248.31 170.605 248.31C171.321 248.31 171.932 248.19 172.438 247.952C172.949 247.707 173.366 247.412 173.69 247.065C174.014 246.719 174.259 246.384 174.423 246.06L175.369 246.443C175.17 246.881 174.861 247.318 174.44 247.756C174.026 248.187 173.497 248.548 172.855 248.838C172.219 249.128 171.469 249.273 170.605 249.273ZM180.415 240.511V249H179.375V235.909H180.389V237.98H180.491C180.798 237.304 181.29 236.761 181.966 236.352C182.642 235.943 183.446 235.739 184.378 235.739C185.259 235.739 186.031 235.926 186.696 236.301C187.366 236.676 187.889 237.21 188.264 237.903C188.645 238.591 188.835 239.412 188.835 240.366V249H187.795V240.409C187.795 239.295 187.463 238.401 186.798 237.724C186.139 237.043 185.267 236.702 184.182 236.702C183.455 236.702 182.807 236.861 182.239 237.179C181.67 237.497 181.224 237.943 180.901 238.517C180.577 239.085 180.415 239.75 180.415 240.511ZM194.128 248.207C193.872 248.207 193.653 248.116 193.472 247.935C193.295 247.753 193.207 247.537 193.207 247.287C193.207 247.031 193.295 246.815 193.472 246.639C193.653 246.457 193.872 246.366 194.128 246.366C194.378 246.366 194.594 246.457 194.776 246.639C194.957 246.815 195.048 247.031 195.048 247.287C195.048 247.452 195.006 247.605 194.92 247.747C194.841 247.889 194.73 248.003 194.588 248.088C194.452 248.168 194.298 248.207 194.128 248.207ZM194.128 239.037C193.872 239.037 193.653 238.946 193.472 238.764C193.295 238.582 193.207 238.366 193.207 238.116C193.207 237.861 193.295 237.645 193.472 237.469C193.653 237.287 193.872 237.196 194.128 237.196C194.378 237.196 194.594 237.287 194.776 237.469C194.957 237.645 195.048 237.861 195.048 238.116C195.048 238.281 195.006 238.435 194.92 238.577C194.841 238.719 194.73 238.832 194.588 238.918C194.452 238.997 194.298 239.037 194.128 239.037ZM210.724 231.545V249H209.658V232.67H209.556L205.636 235.27V234.128L209.522 231.545H210.724ZM220.966 231.545V249H219.901V232.67H219.798L215.878 235.27V234.128L219.764 231.545H220.966Z" fill="black"/>
<path d="M165.065 278.273C163.952 278.273 162.972 277.98 162.125 277.395C161.278 276.804 160.616 275.997 160.139 274.974C159.668 273.952 159.432 272.793 159.432 271.497C159.432 270.202 159.67 269.043 160.148 268.02C160.625 266.997 161.287 266.19 162.134 265.599C162.98 265.009 163.955 264.713 165.057 264.713C165.886 264.713 166.642 264.884 167.324 265.224C168.011 265.565 168.58 266.04 169.028 266.648C169.483 267.256 169.773 267.96 169.898 268.761H168.841C168.67 267.875 168.244 267.142 167.562 266.562C166.886 265.977 166.054 265.685 165.065 265.685C164.179 265.685 163.389 265.935 162.696 266.435C162.003 266.929 161.457 267.614 161.06 268.489C160.662 269.358 160.463 270.355 160.463 271.48C160.463 272.588 160.656 273.582 161.043 274.463C161.429 275.338 161.969 276.031 162.662 276.543C163.355 277.054 164.156 277.31 165.065 277.31C165.707 277.31 166.293 277.182 166.821 276.926C167.355 276.67 167.801 276.307 168.159 275.835C168.517 275.364 168.753 274.812 168.866 274.182H169.923C169.798 274.989 169.514 275.699 169.071 276.312C168.628 276.926 168.062 277.406 167.375 277.753C166.688 278.099 165.918 278.273 165.065 278.273ZM176.938 278.281C176.182 278.281 175.489 278.131 174.858 277.83C174.233 277.528 173.73 277.088 173.349 276.509C172.974 275.929 172.787 275.224 172.787 274.395C172.787 273.849 172.884 273.369 173.077 272.955C173.27 272.54 173.568 272.182 173.972 271.881C174.375 271.58 174.892 271.332 175.523 271.139C176.153 270.94 176.906 270.787 177.781 270.679C178.446 270.599 179.04 270.523 179.562 270.449C180.085 270.369 180.494 270.247 180.79 270.082C181.091 269.918 181.241 269.668 181.241 269.332V268.787C181.241 267.832 180.94 267.074 180.338 266.511C179.736 265.949 178.906 265.668 177.849 265.668C176.912 265.668 176.122 265.875 175.48 266.29C174.844 266.699 174.398 267.227 174.142 267.875L173.162 267.509C173.412 266.884 173.773 266.364 174.244 265.949C174.722 265.534 175.267 265.224 175.881 265.02C176.5 264.815 177.148 264.713 177.824 264.713C178.409 264.713 178.966 264.795 179.494 264.96C180.028 265.125 180.503 265.375 180.918 265.71C181.338 266.045 181.67 266.474 181.915 266.997C182.159 267.514 182.281 268.134 182.281 268.855V278H181.241V275.639H181.165C180.938 276.128 180.625 276.574 180.227 276.977C179.835 277.375 179.361 277.693 178.804 277.932C178.253 278.165 177.631 278.281 176.938 278.281ZM177.04 277.318C177.858 277.318 178.582 277.119 179.213 276.722C179.849 276.318 180.347 275.767 180.705 275.068C181.063 274.369 181.241 273.577 181.241 272.69V270.764C181.111 270.878 180.92 270.98 180.67 271.071C180.426 271.156 180.148 271.233 179.835 271.301C179.528 271.364 179.205 271.42 178.864 271.472C178.528 271.517 178.202 271.56 177.884 271.599C176.929 271.713 176.151 271.889 175.548 272.128C174.952 272.361 174.514 272.668 174.236 273.048C173.963 273.429 173.827 273.889 173.827 274.429C173.827 275.321 174.134 276.026 174.747 276.543C175.361 277.06 176.125 277.318 177.04 277.318ZM186.641 282.909V264.909H187.655V267.832H187.783C187.987 267.27 188.274 266.753 188.643 266.281C189.018 265.81 189.482 265.432 190.033 265.148C190.589 264.858 191.243 264.713 191.993 264.713C193.05 264.713 193.97 265.003 194.754 265.582C195.538 266.162 196.146 266.963 196.578 267.986C197.01 269.003 197.226 270.17 197.226 271.489C197.226 272.807 197.007 273.977 196.57 275C196.138 276.017 195.53 276.818 194.746 277.403C193.967 277.983 193.055 278.273 192.01 278.273C191.266 278.273 190.612 278.131 190.05 277.847C189.493 277.562 189.024 277.185 188.643 276.713C188.268 276.236 187.982 275.713 187.783 275.145H187.68V282.909H186.641ZM187.663 271.48C187.663 272.594 187.834 273.591 188.175 274.472C188.516 275.347 189.004 276.04 189.641 276.551C190.277 277.057 191.036 277.31 191.916 277.31C192.808 277.31 193.572 277.054 194.209 276.543C194.851 276.026 195.339 275.327 195.675 274.446C196.016 273.565 196.186 272.577 196.186 271.48C196.186 270.384 196.018 269.398 195.683 268.523C195.348 267.648 194.862 266.957 194.226 266.452C193.589 265.94 192.82 265.685 191.916 265.685C191.024 265.685 190.26 265.937 189.624 266.443C188.993 266.943 188.507 267.631 188.166 268.506C187.831 269.375 187.663 270.366 187.663 271.48ZM201.792 277.207C201.536 277.207 201.317 277.116 201.136 276.935C200.96 276.753 200.871 276.537 200.871 276.287C200.871 276.031 200.96 275.815 201.136 275.639C201.317 275.457 201.536 275.366 201.792 275.366C202.042 275.366 202.258 275.457 202.44 275.639C202.621 275.815 202.712 276.031 202.712 276.287C202.712 276.452 202.67 276.605 202.585 276.747C202.505 276.889 202.394 277.003 202.252 277.088C202.116 277.168 201.962 277.207 201.792 277.207ZM201.792 268.037C201.536 268.037 201.317 267.946 201.136 267.764C200.96 267.582 200.871 267.366 200.871 267.116C200.871 266.861 200.96 266.645 201.136 266.469C201.317 266.287 201.536 266.196 201.792 266.196C202.042 266.196 202.258 266.287 202.44 266.469C202.621 266.645 202.712 266.861 202.712 267.116C202.712 267.281 202.67 267.435 202.585 267.577C202.505 267.719 202.394 267.832 202.252 267.918C202.116 267.997 201.962 268.037 201.792 268.037ZM218.388 260.545V278H217.322V261.67H217.22L213.3 264.27V263.128L217.186 260.545H218.388ZM229.141 278.239C227.977 278.239 226.977 277.881 226.141 277.165C225.306 276.449 224.664 275.423 224.215 274.088C223.772 272.747 223.55 271.142 223.55 269.273C223.55 267.409 223.775 265.807 224.224 264.466C224.673 263.125 225.312 262.097 226.141 261.381C226.977 260.665 227.977 260.307 229.141 260.307C230.306 260.307 231.303 260.665 232.133 261.381C232.968 262.097 233.61 263.125 234.059 264.466C234.508 265.807 234.732 267.409 234.732 269.273C234.732 271.142 234.508 272.747 234.059 274.088C233.616 275.423 232.977 276.449 232.141 277.165C231.306 277.881 230.306 278.239 229.141 278.239ZM229.141 277.25C230.556 277.25 231.667 276.548 232.474 275.145C233.281 273.736 233.684 271.778 233.684 269.273C233.684 267.602 233.499 266.17 233.13 264.977C232.766 263.784 232.246 262.872 231.57 262.241C230.894 261.605 230.085 261.287 229.141 261.287C227.727 261.287 226.616 261.991 225.809 263.401C225.002 264.81 224.599 266.767 224.599 269.273C224.599 270.943 224.781 272.375 225.144 273.568C225.508 274.756 226.028 275.668 226.704 276.304C227.386 276.935 228.198 277.25 229.141 277.25ZM243.602 278.239C242.438 278.239 241.438 277.881 240.602 277.165C239.767 276.449 239.125 275.423 238.676 274.088C238.233 272.747 238.011 271.142 238.011 269.273C238.011 267.409 238.236 265.807 238.685 264.466C239.134 263.125 239.773 262.097 240.602 261.381C241.438 260.665 242.438 260.307 243.602 260.307C244.767 260.307 245.764 260.665 246.594 261.381C247.429 262.097 248.071 263.125 248.52 264.466C248.969 265.807 249.193 267.409 249.193 269.273C249.193 271.142 248.969 272.747 248.52 274.088C248.077 275.423 247.438 276.449 246.602 277.165C245.767 277.881 244.767 278.239 243.602 278.239ZM243.602 277.25C245.017 277.25 246.128 276.548 246.935 275.145C247.741 273.736 248.145 271.778 248.145 269.273C248.145 267.602 247.96 266.17 247.591 264.977C247.227 263.784 246.707 262.872 246.031 262.241C245.355 261.605 244.545 261.287 243.602 261.287C242.188 261.287 241.077 261.991 240.27 263.401C239.463 264.81 239.06 266.767 239.06 269.273C239.06 270.943 239.241 272.375 239.605 273.568C239.969 274.756 240.489 275.668 241.165 276.304C241.847 276.935 242.659 277.25 243.602 277.25Z" fill="black"/>
<rect x="152.5" y="285.5" width="160" height="87" fill="white" stroke="black"/>
<path d="M160.156 312.909V294.909H161.17V297.832H161.298C161.503 297.27 161.79 296.753 162.159 296.281C162.534 295.81 162.997 295.432 163.548 295.148C164.105 294.858 164.759 294.713 165.509 294.713C166.565 294.713 167.486 295.003 168.27 295.582C169.054 296.162 169.662 296.963 170.094 297.986C170.526 299.003 170.741 300.17 170.741 301.489C170.741 302.807 170.523 303.977 170.085 305C169.653 306.017 169.045 306.818 168.261 307.403C167.483 307.983 166.571 308.273 165.526 308.273C164.781 308.273 164.128 308.131 163.565 307.847C163.009 307.562 162.54 307.185 162.159 306.713C161.784 306.236 161.497 305.713 161.298 305.145H161.196V312.909H160.156ZM161.179 301.48C161.179 302.594 161.349 303.591 161.69 304.472C162.031 305.347 162.52 306.04 163.156 306.551C163.793 307.057 164.551 307.31 165.432 307.31C166.324 307.31 167.088 307.054 167.724 306.543C168.366 306.026 168.855 305.327 169.19 304.446C169.531 303.565 169.702 302.577 169.702 301.48C169.702 300.384 169.534 299.398 169.199 298.523C168.864 297.648 168.378 296.957 167.741 296.452C167.105 295.94 166.335 295.685 165.432 295.685C164.54 295.685 163.776 295.937 163.139 296.443C162.509 296.943 162.023 297.631 161.682 298.506C161.347 299.375 161.179 300.366 161.179 301.48ZM178.964 294.909V295.838H173.245V294.909H178.964ZM175.18 291.773H176.211V304.906C176.211 305.44 176.313 305.878 176.518 306.219C176.728 306.554 177.001 306.804 177.336 306.969C177.677 307.128 178.04 307.207 178.427 307.207C178.614 307.207 178.776 307.193 178.913 307.165C179.055 307.136 179.188 307.099 179.313 307.054L179.569 308C179.41 308.057 179.234 308.105 179.04 308.145C178.847 308.19 178.62 308.213 178.359 308.213C177.813 308.213 177.296 308.091 176.808 307.847C176.325 307.602 175.933 307.247 175.631 306.781C175.33 306.315 175.18 305.753 175.18 305.094V291.773ZM182.82 308V294.909H183.835V296.955H183.928C184.212 296.284 184.692 295.747 185.369 295.344C186.045 294.935 186.815 294.73 187.678 294.73C187.769 294.73 187.86 294.73 187.951 294.73C188.042 294.73 188.127 294.733 188.207 294.739V295.787C188.138 295.781 188.056 295.773 187.96 295.761C187.869 295.744 187.755 295.736 187.619 295.736C186.891 295.736 186.244 295.892 185.675 296.205C185.113 296.517 184.67 296.949 184.346 297.5C184.022 298.045 183.86 298.67 183.86 299.375V308H182.82ZM191.972 307.207C191.716 307.207 191.497 307.116 191.315 306.935C191.139 306.753 191.051 306.537 191.051 306.287C191.051 306.031 191.139 305.815 191.315 305.639C191.497 305.457 191.716 305.366 191.972 305.366C192.222 305.366 192.438 305.457 192.619 305.639C192.801 305.815 192.892 306.031 192.892 306.287C192.892 306.452 192.849 306.605 192.764 306.747C192.685 306.889 192.574 307.003 192.432 307.088C192.295 307.168 192.142 307.207 191.972 307.207ZM191.972 298.037C191.716 298.037 191.497 297.946 191.315 297.764C191.139 297.582 191.051 297.366 191.051 297.116C191.051 296.861 191.139 296.645 191.315 296.469C191.497 296.287 191.716 296.196 191.972 296.196C192.222 296.196 192.438 296.287 192.619 296.469C192.801 296.645 192.892 296.861 192.892 297.116C192.892 297.281 192.849 297.435 192.764 297.577C192.685 297.719 192.574 297.832 192.432 297.918C192.295 297.997 192.142 298.037 191.972 298.037Z" fill="black"/>
<path d="M161.196 319.545V337H160.156V319.545H161.196ZM170.605 337.273C169.423 337.273 168.395 336.98 167.52 336.395C166.645 335.81 165.969 335.009 165.491 333.991C165.014 332.974 164.776 331.815 164.776 330.514C164.776 329.207 165.014 328.043 165.491 327.02C165.974 325.997 166.636 325.19 167.477 324.599C168.318 324.009 169.278 323.713 170.358 323.713C171.091 323.713 171.784 323.861 172.438 324.156C173.097 324.446 173.676 324.866 174.176 325.418C174.682 325.969 175.077 326.634 175.361 327.412C175.651 328.19 175.795 329.065 175.795 330.037V330.685H165.432V329.739H174.756C174.756 328.79 174.563 327.935 174.176 327.173C173.79 326.412 173.264 325.807 172.599 325.358C171.935 324.909 171.188 324.685 170.358 324.685C169.489 324.685 168.713 324.929 168.031 325.418C167.355 325.901 166.818 326.554 166.42 327.378C166.028 328.202 165.824 329.122 165.807 330.139V330.565C165.807 331.656 165.997 332.636 166.378 333.506C166.764 334.369 167.315 335.054 168.031 335.56C168.747 336.06 169.605 336.31 170.605 336.31C171.321 336.31 171.932 336.19 172.438 335.952C172.949 335.707 173.366 335.412 173.69 335.065C174.014 334.719 174.259 334.384 174.423 334.06L175.369 334.443C175.17 334.881 174.861 335.318 174.44 335.756C174.026 336.187 173.497 336.548 172.855 336.838C172.219 337.128 171.469 337.273 170.605 337.273ZM180.415 328.511V337H179.375V323.909H180.389V325.98H180.491C180.798 325.304 181.29 324.761 181.966 324.352C182.642 323.943 183.446 323.739 184.378 323.739C185.259 323.739 186.031 323.926 186.696 324.301C187.366 324.676 187.889 325.21 188.264 325.903C188.645 326.591 188.835 327.412 188.835 328.366V337H187.795V328.409C187.795 327.295 187.463 326.401 186.798 325.724C186.139 325.043 185.267 324.702 184.182 324.702C183.455 324.702 182.807 324.861 182.239 325.179C181.67 325.497 181.224 325.943 180.901 326.517C180.577 327.085 180.415 327.75 180.415 328.511ZM194.128 336.207C193.872 336.207 193.653 336.116 193.472 335.935C193.295 335.753 193.207 335.537 193.207 335.287C193.207 335.031 193.295 334.815 193.472 334.639C193.653 334.457 193.872 334.366 194.128 334.366C194.378 334.366 194.594 334.457 194.776 334.639C194.957 334.815 195.048 335.031 195.048 335.287C195.048 335.452 195.006 335.605 194.92 335.747C194.841 335.889 194.73 336.003 194.588 336.088C194.452 336.168 194.298 336.207 194.128 336.207ZM194.128 327.037C193.872 327.037 193.653 326.946 193.472 326.764C193.295 326.582 193.207 326.366 193.207 326.116C193.207 325.861 193.295 325.645 193.472 325.469C193.653 325.287 193.872 325.196 194.128 325.196C194.378 325.196 194.594 325.287 194.776 325.469C194.957 325.645 195.048 325.861 195.048 326.116C195.048 326.281 195.006 326.435 194.92 326.577C194.841 326.719 194.73 326.832 194.588 326.918C194.452 326.997 194.298 327.037 194.128 327.037ZM210.724 319.545V337H209.658V320.67H209.556L205.636 323.27V322.128L209.522 319.545H210.724ZM220.966 319.545V337H219.901V320.67H219.798L215.878 323.27V322.128L219.764 319.545H220.966Z" fill="black"/>
<path d="M165.065 366.273C163.952 366.273 162.972 365.98 162.125 365.395C161.278 364.804 160.616 363.997 160.139 362.974C159.668 361.952 159.432 360.793 159.432 359.497C159.432 358.202 159.67 357.043 160.148 356.02C160.625 354.997 161.287 354.19 162.134 353.599C162.98 353.009 163.955 352.713 165.057 352.713C165.886 352.713 166.642 352.884 167.324 353.224C168.011 353.565 168.58 354.04 169.028 354.648C169.483 355.256 169.773 355.96 169.898 356.761H168.841C168.67 355.875 168.244 355.142 167.562 354.562C166.886 353.977 166.054 353.685 165.065 353.685C164.179 353.685 163.389 353.935 162.696 354.435C162.003 354.929 161.457 355.614 161.06 356.489C160.662 357.358 160.463 358.355 160.463 359.48C160.463 360.588 160.656 361.582 161.043 362.463C161.429 363.338 161.969 364.031 162.662 364.543C163.355 365.054 164.156 365.31 165.065 365.31C165.707 365.31 166.293 365.182 166.821 364.926C167.355 364.67 167.801 364.307 168.159 363.835C168.517 363.364 168.753 362.812 168.866 362.182H169.923C169.798 362.989 169.514 363.699 169.071 364.312C168.628 364.926 168.062 365.406 167.375 365.753C166.688 366.099 165.918 366.273 165.065 366.273ZM176.938 366.281C176.182 366.281 175.489 366.131 174.858 365.83C174.233 365.528 173.73 365.088 173.349 364.509C172.974 363.929 172.787 363.224 172.787 362.395C172.787 361.849 172.884 361.369 173.077 360.955C173.27 360.54 173.568 360.182 173.972 359.881C174.375 359.58 174.892 359.332 175.523 359.139C176.153 358.94 176.906 358.787 177.781 358.679C178.446 358.599 179.04 358.523 179.562 358.449C180.085 358.369 180.494 358.247 180.79 358.082C181.091 357.918 181.241 357.668 181.241 357.332V356.787C181.241 355.832 180.94 355.074 180.338 354.511C179.736 353.949 178.906 353.668 177.849 353.668C176.912 353.668 176.122 353.875 175.48 354.29C174.844 354.699 174.398 355.227 174.142 355.875L173.162 355.509C173.412 354.884 173.773 354.364 174.244 353.949C174.722 353.534 175.267 353.224 175.881 353.02C176.5 352.815 177.148 352.713 177.824 352.713C178.409 352.713 178.966 352.795 179.494 352.96C180.028 353.125 180.503 353.375 180.918 353.71C181.338 354.045 181.67 354.474 181.915 354.997C182.159 355.514 182.281 356.134 182.281 356.855V366H181.241V363.639H181.165C180.938 364.128 180.625 364.574 180.227 364.977C179.835 365.375 179.361 365.693 178.804 365.932C178.253 366.165 177.631 366.281 176.938 366.281ZM177.04 365.318C177.858 365.318 178.582 365.119 179.213 364.722C179.849 364.318 180.347 363.767 180.705 363.068C181.063 362.369 181.241 361.577 181.241 360.69V358.764C181.111 358.878 180.92 358.98 180.67 359.071C180.426 359.156 180.148 359.233 179.835 359.301C179.528 359.364 179.205 359.42 178.864 359.472C178.528 359.517 178.202 359.56 177.884 359.599C176.929 359.713 176.151 359.889 175.548 360.128C174.952 360.361 174.514 360.668 174.236 361.048C173.963 361.429 173.827 361.889 173.827 362.429C173.827 363.321 174.134 364.026 174.747 364.543C175.361 365.06 176.125 365.318 177.04 365.318ZM186.641 370.909V352.909H187.655V355.832H187.783C187.987 355.27 188.274 354.753 188.643 354.281C189.018 353.81 189.482 353.432 190.033 353.148C190.589 352.858 191.243 352.713 191.993 352.713C193.05 352.713 193.97 353.003 194.754 353.582C195.538 354.162 196.146 354.963 196.578 355.986C197.01 357.003 197.226 358.17 197.226 359.489C197.226 360.807 197.007 361.977 196.57 363C196.138 364.017 195.53 364.818 194.746 365.403C193.967 365.983 193.055 366.273 192.01 366.273C191.266 366.273 190.612 366.131 190.05 365.847C189.493 365.562 189.024 365.185 188.643 364.713C188.268 364.236 187.982 363.713 187.783 363.145H187.68V370.909H186.641ZM187.663 359.48C187.663 360.594 187.834 361.591 188.175 362.472C188.516 363.347 189.004 364.04 189.641 364.551C190.277 365.057 191.036 365.31 191.916 365.31C192.808 365.31 193.572 365.054 194.209 364.543C194.851 364.026 195.339 363.327 195.675 362.446C196.016 361.565 196.186 360.577 196.186 359.48C196.186 358.384 196.018 357.398 195.683 356.523C195.348 355.648 194.862 354.957 194.226 354.452C193.589 353.94 192.82 353.685 191.916 353.685C191.024 353.685 190.26 353.937 189.624 354.443C188.993 354.943 188.507 355.631 188.166 356.506C187.831 357.375 187.663 358.366 187.663 359.48ZM201.792 365.207C201.536 365.207 201.317 365.116 201.136 364.935C200.96 364.753 200.871 364.537 200.871 364.287C200.871 364.031 200.96 363.815 201.136 363.639C201.317 363.457 201.536 363.366 201.792 363.366C202.042 363.366 202.258 363.457 202.44 363.639C202.621 363.815 202.712 364.031 202.712 364.287C202.712 364.452 202.67 364.605 202.585 364.747C202.505 364.889 202.394 365.003 202.252 365.088C202.116 365.168 201.962 365.207 201.792 365.207ZM201.792 356.037C201.536 356.037 201.317 355.946 201.136 355.764C200.96 355.582 200.871 355.366 200.871 355.116C200.871 354.861 200.96 354.645 201.136 354.469C201.317 354.287 201.536 354.196 201.792 354.196C202.042 354.196 202.258 354.287 202.44 354.469C202.621 354.645 202.712 354.861 202.712 355.116C202.712 355.281 202.67 355.435 202.585 355.577C202.505 355.719 202.394 355.832 202.252 355.918C202.116 355.997 201.962 356.037 201.792 356.037ZM218.388 348.545V366H217.322V349.67H217.22L213.3 352.27V351.128L217.186 348.545H218.388ZM229.141 366.239C227.977 366.239 226.977 365.881 226.141 365.165C225.306 364.449 224.664 363.423 224.215 362.088C223.772 360.747 223.55 359.142 223.55 357.273C223.55 355.409 223.775 353.807 224.224 352.466C224.673 351.125 225.312 350.097 226.141 349.381C226.977 348.665 227.977 348.307 229.141 348.307C230.306 348.307 231.303 348.665 232.133 349.381C232.968 350.097 233.61 351.125 234.059 352.466C234.508 353.807 234.732 355.409 234.732 357.273C234.732 359.142 234.508 360.747 234.059 362.088C233.616 363.423 232.977 364.449 232.141 365.165C231.306 365.881 230.306 366.239 229.141 366.239ZM229.141 365.25C230.556 365.25 231.667 364.548 232.474 363.145C233.281 361.736 233.684 359.778 233.684 357.273C233.684 355.602 233.499 354.17 233.13 352.977C232.766 351.784 232.246 350.872 231.57 350.241C230.894 349.605 230.085 349.287 229.141 349.287C227.727 349.287 226.616 349.991 225.809 351.401C225.002 352.81 224.599 354.767 224.599 357.273C224.599 358.943 224.781 360.375 225.144 361.568C225.508 362.756 226.028 363.668 226.704 364.304C227.386 364.935 228.198 365.25 229.141 365.25ZM243.602 366.239C242.438 366.239 241.438 365.881 240.602 365.165C239.767 364.449 239.125 363.423 238.676 362.088C238.233 360.747 238.011 359.142 238.011 357.273C238.011 355.409 238.236 353.807 238.685 352.466C239.134 351.125 239.773 350.097 240.602 349.381C241.438 348.665 242.438 348.307 243.602 348.307C244.767 348.307 245.764 348.665 246.594 349.381C247.429 350.097 248.071 351.125 248.52 352.466C248.969 353.807 249.193 355.409 249.193 357.273C249.193 359.142 248.969 360.747 248.52 362.088C248.077 363.423 247.438 364.449 246.602 365.165C245.767 365.881 244.767 366.239 243.602 366.239ZM243.602 365.25C245.017 365.25 246.128 364.548 246.935 363.145C247.741 361.736 248.145 359.778 248.145 357.273C248.145 355.602 247.96 354.17 247.591 352.977C247.227 351.784 246.707 350.872 246.031 350.241C245.355 349.605 244.545 349.287 243.602 349.287C242.188 349.287 241.077 349.991 240.27 351.401C239.463 352.81 239.06 354.767 239.06 357.273C239.06 358.943 239.241 360.375 239.605 361.568C239.969 362.756 240.489 363.668 241.165 364.304C241.847 364.935 242.659 365.25 243.602 365.25Z" fill="black"/>
<path d="M564.881 197.473C565.142 196.986 564.96 196.38 564.473 196.119L556.543 191.862C556.057 191.601 555.45 191.784 555.189 192.27C554.928 192.757 555.111 193.363 555.597 193.624L562.646 197.408L558.862 204.457C558.601 204.943 558.784 205.55 559.27 205.811C559.757 206.072 560.363 205.889 560.624 205.403L564.881 197.473ZM209.289 304.957L564.289 197.957L563.711 196.043L208.711 303.043L209.289 304.957Z" fill="black"/>
<path d="M564.784 171.621C565.127 171.189 565.054 170.56 564.621 170.216L557.569 164.625C557.136 164.281 556.508 164.354 556.164 164.787C555.821 165.22 555.894 165.849 556.327 166.192L562.595 171.162L557.625 177.431C557.282 177.864 557.354 178.493 557.787 178.836C558.22 179.179 558.849 179.106 559.192 178.673L564.784 171.621ZM209.115 212.993L564.115 171.993L563.885 170.007L208.885 211.007L209.115 212.993Z" fill="black"/>
<path d="M24.7071 54.2929C24.3166 53.9024 23.6834 53.9024 23.2929 54.2929L16.9289 60.6569C16.5384 61.0474 16.5384 61.6805 16.9289 62.0711C17.3195 62.4616 17.9526 62.4616 18.3432 62.0711L24 56.4142L29.6569 62.0711C30.0474 62.4616 30.6806 62.4616 31.0711 62.0711C31.4616 61.6805 31.4616 61.0474 31.0711 60.6569L24.7071 54.2929ZM25 329L25 55L23 55L23 329L25 329Z" fill="black"/>
<path d="M10.56 17.896H22.8V19.576H10.56V17.896ZM9.504 36.736H23.016V38.416H9.504V36.736ZM12.24 31L13.8 30.64C14.4 32.248 14.952 34.36 15.12 35.728L13.464 36.16C13.344 34.768 12.816 32.632 12.24 31ZM19.224 30.496L21.048 30.904C20.424 32.728 19.704 34.96 19.08 36.304L17.568 35.896C18.168 34.504 18.888 32.128 19.224 30.496ZM13.224 23.824V28.048H20.04V23.824H13.224ZM11.52 22.216H21.792V29.656H11.52V22.216ZM5.448 20.92H7.176V25.648C7.176 29.632 6.456 35.2 2.112 38.848C1.896 38.464 1.224 37.792 0.888 37.576C4.968 34.144 5.448 29.296 5.448 25.624V20.92ZM3.264 19.984H10.344V21.64H3.264V19.984ZM1.032 26.488H10.632V28.168H1.032V26.488ZM6.648 29.608C7.416 30.328 10.152 33.472 10.776 34.24L9.6 35.728C8.784 34.432 6.504 31.624 5.568 30.592L6.648 29.608ZM3.456 16.96L5.184 17.272C4.608 20.392 3.624 23.416 2.328 25.408C1.992 25.144 1.2 24.712 0.768 24.544C2.088 22.696 2.976 19.84 3.456 16.96ZM35.904 18.496C33.816 21.16 29.736 24.304 25.536 26.344C25.32 25.912 24.84 25.24 24.456 24.856C28.728 22.912 32.88 19.624 34.872 16.792H36.72C39.408 20.008 43.752 23.032 47.616 24.568C47.184 25.024 46.752 25.648 46.44 26.176C42.672 24.424 38.256 21.304 35.904 18.496ZM31.176 23.032H41.016V24.664H31.176V23.032ZM27.984 26.824H34.704V35.056H27.984V33.448H33.048V28.408H27.984V26.824ZM36.768 26.8H43.896V28.408H38.472V38.968H36.768V26.8ZM43.32 26.8H45.072V34.336C45.072 35.224 44.88 35.752 44.184 36.016C43.512 36.304 42.384 36.328 40.56 36.328C40.512 35.824 40.248 35.128 40.032 34.672C41.376 34.72 42.528 34.72 42.888 34.696C43.224 34.672 43.32 34.6 43.32 34.288V26.8ZM27.24 26.824H28.872V37.096H27.24V26.824Z" fill="black"/>
<path d="M1.248 356.36H22.728V357.968H1.248V356.36ZM6.48 349.352H19.632V350.816H6.48V349.352ZM6.48 352.832H19.632V354.296H6.48V352.832ZM2.4 365.096C5.16 364.712 9.528 363.968 13.632 363.296L13.704 364.88C9.864 365.576 5.736 366.272 2.856 366.776L2.4 365.096ZM12.096 356.792C13.776 361.304 17.568 364.328 23.112 365.408C22.728 365.768 22.224 366.488 21.984 366.992C16.176 365.648 12.408 362.36 10.464 357.224L12.096 356.792ZM20.208 358.184L21.648 359.168C19.848 360.512 17.448 361.904 15.576 362.792L14.352 361.832C16.176 360.92 18.72 359.36 20.208 358.184ZM5.496 345.8H20.4V347.336H7.32V357.032H5.496V345.8ZM5.472 356.864H7.32V365.12L5.472 365.336V356.864ZM26.664 346.904H45.432V348.464H26.664V346.904ZM27.624 350.432H44.496V351.944H27.624V350.432ZM25.248 354.056H46.728V355.64H25.248V354.056ZM25.656 358.064H46.344V359.648H25.656V358.064ZM40.512 355.424H42.336V364.664C42.336 365.72 42.096 366.248 41.328 366.536C40.512 366.824 39.192 366.824 37.176 366.824C37.08 366.32 36.792 365.6 36.552 365.072C38.16 365.12 39.576 365.12 39.984 365.096C40.416 365.096 40.512 364.976 40.512 364.64V355.424ZM34.68 344.816L36.648 345.032C35.352 354.992 32.88 361.736 26.592 365.84C26.304 365.456 25.488 364.712 25.008 364.376C31.248 360.752 33.552 354.248 34.68 344.816ZM31.656 361.544L33.144 360.608C34.32 361.688 35.76 363.224 36.456 364.208L34.896 365.264C34.248 364.256 32.832 362.672 31.656 361.544Z" fill="black"/>
<path d="M124.115 327.909L127.004 333.006L129.919 327.909H132.706L128.624 334.455L132.74 341H129.953L127.004 336.108L124.064 341H121.268L125.342 334.455L121.32 327.909H124.115Z" fill="black"/>
<path d="M132.589 241.105L130.279 241.514C130.183 241.219 130.029 240.937 129.819 240.67C129.615 240.403 129.336 240.185 128.984 240.014C128.632 239.844 128.191 239.759 127.663 239.759C126.941 239.759 126.339 239.92 125.856 240.244C125.373 240.562 125.132 240.974 125.132 241.48C125.132 241.918 125.294 242.27 125.618 242.537C125.941 242.804 126.464 243.023 127.186 243.193L129.265 243.67C130.47 243.949 131.368 244.378 131.958 244.957C132.549 245.537 132.845 246.29 132.845 247.216C132.845 248 132.618 248.699 132.163 249.312C131.714 249.92 131.086 250.398 130.279 250.744C129.478 251.091 128.549 251.264 127.493 251.264C126.027 251.264 124.831 250.952 123.904 250.327C122.978 249.696 122.41 248.801 122.2 247.642L124.663 247.267C124.816 247.909 125.132 248.395 125.609 248.724C126.086 249.048 126.708 249.21 127.475 249.21C128.311 249.21 128.978 249.037 129.478 248.69C129.978 248.338 130.228 247.909 130.228 247.403C130.228 246.994 130.075 246.651 129.768 246.372C129.467 246.094 129.004 245.884 128.379 245.741L126.163 245.256C124.941 244.977 124.038 244.534 123.453 243.926C122.873 243.318 122.583 242.548 122.583 241.616C122.583 240.844 122.799 240.168 123.231 239.588C123.663 239.009 124.26 238.557 125.021 238.233C125.782 237.903 126.654 237.739 127.637 237.739C129.052 237.739 130.166 238.045 130.978 238.659C131.791 239.267 132.328 240.082 132.589 241.105Z" fill="black"/>
<path d="M684 329V331H686V329H684ZM685.414 210.586C684.633 209.805 683.367 209.805 682.586 210.586L669.858 223.314C669.077 224.095 669.077 225.361 669.858 226.142C670.639 226.923 671.905 226.923 672.686 226.142L684 214.828L695.314 226.142C696.095 226.923 697.361 226.923 698.142 226.142C698.923 225.361 698.923 224.095 698.142 223.314L685.414 210.586ZM313 331H684V327H313V331ZM686 329V212H682V329H686Z" fill="#FF0000"/>
<path d="M625 245V247H627V245H625ZM626.414 210.586C625.633 209.805 624.367 209.805 623.586 210.586L610.858 223.314C610.077 224.095 610.077 225.361 610.858 226.142C611.639 226.923 612.905 226.923 613.686 226.142L625 214.828L636.314 226.142C637.095 226.923 638.361 226.923 639.142 226.142C639.923 225.361 639.923 224.095 639.142 223.314L626.414 210.586ZM313 247H625V243H313V247ZM627 245V212H623V245H627Z" fill="#FF0000"/>
<path d="M486.464 279.184H496.808V280.84H486.464V279.184ZM498.512 286.024H508.16V287.752H498.512V286.024ZM503.72 287.152H505.496V299.944H503.72V287.152ZM497.816 280.216L500.072 280.816C500.048 280.984 499.928 281.08 499.592 281.128V286.624C499.592 290.512 499.088 296.008 495.488 299.872C495.224 299.488 494.576 298.888 494.144 298.672C497.48 295.12 497.816 290.296 497.816 286.624V280.216ZM487.352 283.336H489.056V289.816C489.056 292.888 488.768 297.136 486.92 299.968C486.632 299.632 485.888 299.08 485.504 298.864C487.184 296.272 487.352 292.576 487.352 289.816V283.336ZM506.096 278.128L507.68 279.496C505.304 280.648 501.824 281.632 498.824 282.328C498.728 281.92 498.44 281.272 498.2 280.864C501.056 280.192 504.296 279.16 506.096 278.128ZM488.336 283.336H496.208V290.824H488.336V289.192H494.456V284.992H488.336V283.336ZM510.512 280.96H531.536V282.664H510.512V280.96ZM516.368 289.528H527.648V291.088H516.368V289.528ZM515.096 285.448H527.36V287.056H516.872V299.92H515.096V285.448ZM526.952 285.448H528.704V297.688C528.704 298.744 528.488 299.296 527.672 299.584C526.904 299.872 525.56 299.872 523.496 299.872C523.424 299.368 523.16 298.624 522.896 298.12C524.504 298.192 525.968 298.168 526.4 298.168C526.808 298.144 526.952 298.024 526.952 297.664V285.448ZM518.36 277.84L520.184 278.272C518.552 283.552 515.672 288.88 511.088 292.096C510.848 291.688 510.296 291.064 509.936 290.704C514.232 287.752 517.064 282.664 518.36 277.84ZM516.368 293.584H527.648V295.144H516.368V293.584ZM544.952 280.264H555.272V281.824H544.952V280.264ZM545.672 291.328H555.176V292.6H545.672V291.328ZM545.696 294.472H555.2V295.72H545.696V294.472ZM545.528 297.664H556.04V299.08H545.528V297.664ZM542.312 284.344H556.016V285.928H542.312V284.344ZM550.664 285.952L552.488 286.336C551.936 287.368 551.336 288.448 550.856 289.168L549.344 288.832C549.824 288.016 550.376 286.792 550.664 285.952ZM549.536 289.048H551.168V298.312H549.536V289.048ZM546.248 288.16H555.632V289.528H546.248V299.896H544.568V289.384L545.72 288.16H546.248ZM545.336 277.744L547.016 278.128C546.296 280.432 545.12 282.712 543.848 284.2C543.536 283.936 542.816 283.48 542.384 283.288C543.68 281.896 544.736 279.832 545.336 277.744ZM547.928 280.888L549.608 281.296C548.144 286.144 545.624 290.32 542.48 293.008C542.24 292.672 541.592 292 541.208 291.688C544.304 289.264 546.656 285.376 547.928 280.888ZM534.224 283.048H542.024V284.752H534.224V283.048ZM537.608 277.84H539.264V299.896H537.608V277.84ZM537.56 284.056L538.664 284.44C537.92 288.232 536.336 292.96 534.656 295.36C534.464 294.904 534.032 294.208 533.744 293.824C535.328 291.664 536.888 287.488 537.56 284.056ZM539.096 285.328C539.648 285.952 541.736 288.736 542.192 289.408L541.208 290.752C540.632 289.624 538.928 286.96 538.28 286.072L539.096 285.328ZM567.176 279.376C567.08 279.808 566.984 280.336 566.888 280.792C566.72 281.656 566.408 283.624 566.072 285.112C565.256 288.496 563.552 294.472 560.84 298.84L558.872 298.072C561.608 294.4 563.528 287.992 564.176 285.064C564.632 283.144 564.944 280.984 564.944 279.136L567.176 279.376ZM575.432 282.136C576.92 284.08 579.008 288.448 579.824 290.656L577.952 291.544C577.256 289.096 575.36 284.92 573.68 282.928L575.432 282.136ZM558.536 284.632C559.28 284.68 559.904 284.656 560.672 284.632C562.472 284.584 567.344 284.056 568.976 284.056C571.112 284.056 572.864 284.872 572.864 288.112C572.864 290.968 572.48 294.784 571.472 296.776C570.728 298.384 569.528 298.792 567.968 298.792C567.056 298.792 565.904 298.624 565.16 298.432L564.824 296.44C565.832 296.752 567.104 296.92 567.776 296.92C568.664 296.92 569.384 296.728 569.864 295.696C570.632 294.064 571.016 290.944 571.016 288.352C571.016 286.144 570.008 285.736 568.472 285.736C566.864 285.736 562.352 286.288 560.888 286.432C560.336 286.504 559.352 286.624 558.728 286.72L558.536 284.632ZM575.696 278.656C576.296 279.52 577.16 280.984 577.664 281.968L576.368 282.544C575.888 281.56 575.072 280.12 574.4 279.208L575.696 278.656ZM578.336 277.696C578.984 278.584 579.896 280.096 580.376 280.984L579.056 281.56C578.552 280.504 577.76 279.136 577.064 278.248L578.336 277.696ZM596.408 277.864L598.208 278.176C596.816 280.504 594.656 282.808 591.416 284.584C591.176 284.2 590.648 283.624 590.264 283.36C593.264 281.848 595.352 279.712 596.408 277.864ZM595.832 279.952H601.664V281.44H594.776L595.832 279.952ZM601.04 279.952H601.376L601.688 279.856L602.84 280.408C600.944 285.448 596.456 288.304 591.632 289.696C591.464 289.264 591.008 288.592 590.696 288.232C595.136 287.152 599.456 284.44 601.04 280.24V279.952ZM593.336 283.144L594.488 282.232C595.808 283 597.368 284.2 598.136 285.088L596.936 286.096C596.216 285.232 594.632 283.96 593.336 283.144ZM597.68 286.888L599.504 287.2C597.968 289.816 595.472 292.384 591.728 294.304C591.488 293.896 590.96 293.32 590.576 293.056C594.104 291.4 596.504 289 597.68 286.888ZM597.008 289.168H602.744V290.704H595.928L597.008 289.168ZM602.216 289.168H602.576L602.912 289.096L604.064 289.6C602.024 295.672 596.912 298.624 591.104 299.944C590.912 299.488 590.504 298.792 590.192 298.408C595.616 297.376 600.512 294.592 602.216 289.456V289.168ZM593.864 292.768L595.088 291.76C596.624 292.6 598.424 293.944 599.288 294.928L598.016 296.056C597.176 295.048 595.4 293.68 593.864 292.768ZM586.088 279.832H587.84V299.872H586.088V279.832ZM582.152 284.608H590.864V286.312H582.152V284.608ZM586.184 285.256L587.312 285.736C586.352 289.12 584.432 293.32 582.584 295.552C582.416 295.048 581.984 294.304 581.672 293.896C583.4 291.976 585.32 288.232 586.184 285.256ZM589.64 278.2L590.912 279.592C588.704 280.48 585.344 281.152 582.56 281.536C582.464 281.128 582.224 280.552 582.008 280.144C584.72 279.688 587.888 279.016 589.64 278.2ZM587.768 287.704C588.368 288.232 590.624 290.512 591.104 291.112L590.048 292.528C589.472 291.544 587.672 289.264 586.928 288.424L587.768 287.704ZM606.656 293.536H617.6V294.904H606.656V293.536ZM606.008 281.968H617.984V283.36H606.008V281.968ZM611.216 279.784H612.872V297.448H611.216V279.784ZM605.984 297.496C608.912 297.232 613.4 296.8 617.696 296.344L617.72 297.76C613.64 298.24 609.296 298.744 606.248 299.056L605.984 297.496ZM608.216 289.048V290.824H615.992V289.048H608.216ZM608.216 286.12V287.848H615.992V286.12H608.216ZM606.704 284.872H617.528V292.072H606.704V284.872ZM616.664 278.08L617.576 279.472C614.744 280.096 610.28 280.504 606.68 280.624C606.608 280.24 606.44 279.64 606.248 279.28C609.824 279.088 614.192 278.656 616.664 278.08ZM617.816 283.456H626.48V285.136H617.816V283.456ZM625.784 283.456H627.512C627.512 283.456 627.488 284.128 627.488 284.368C627.224 294.496 626.984 297.856 626.192 298.888C625.76 299.512 625.28 299.728 624.56 299.8C623.888 299.872 622.736 299.872 621.632 299.8C621.584 299.296 621.392 298.552 621.104 298.072C622.28 298.168 623.336 298.192 623.816 298.192C624.2 298.192 624.44 298.12 624.656 297.808C625.256 297.064 625.52 293.608 625.784 283.888V283.456ZM620.72 278.152H622.448C622.424 287.704 622.4 295.768 616.664 300.064C616.376 299.632 615.752 299.056 615.32 298.768C620.816 294.832 620.696 287.224 620.72 278.152Z" fill="#FF0000"/>
<path d="M434 280H463V314H434V280Z" fill="#23D706"/>
<path d="M448.5 254L479.244 284H417.756L448.5 254Z" fill="#23D706"/>
</svg>
