<svg width="546" height="299" viewBox="0 0 546 299" fill="none" xmlns="http://www.w3.org/2000/svg">
<path d="M545.707 248.707C546.098 248.317 546.098 247.683 545.707 247.293L539.343 240.929C538.953 240.538 538.319 240.538 537.929 240.929C537.538 241.319 537.538 241.953 537.929 242.343L543.586 248L537.929 253.657C537.538 254.047 537.538 254.681 537.929 255.071C538.319 255.462 538.953 255.462 539.343 255.071L545.707 248.707ZM0 249H545V247H0L0 249Z" fill="black"/>
<mask id="path-2-inside-1_30_13" fill="white">
<path d="M50 87H137V248H50V87Z"/>
</mask>
<path d="M50 87H137V248H50V87Z" fill="#FF0000" fill-opacity="0.5"/>
<path d="M137 87H139V85H137V87ZM50 89H137V85H50V89ZM135 87V248H139V87H135Z" fill="black" mask="url(#path-2-inside-1_30_13)"/>
<mask id="path-4-inside-2_30_13" fill="white">
<path d="M224 87H311V248H224V87Z"/>
</mask>
<path d="M224 87H311V248H224V87Z" fill="#FF0000" fill-opacity="0.5"/>
<path d="M224 87V85H222V87H224ZM311 87H313V85H311V87ZM224 89H311V85H224V89ZM309 87V248H313V87H309ZM226 248V87H222V248H226Z" fill="black" mask="url(#path-4-inside-2_30_13)"/>
<mask id="path-6-inside-3_30_13" fill="white">
<path d="M398 87H485V248H398V87Z"/>
</mask>
<path d="M398 87H485V248H398V87Z" fill="#FF0000" fill-opacity="0.5"/>
<path d="M398 87V85H396V87H398ZM485 87H487V85H485V87ZM398 89H485V85H398V89ZM483 87V248H487V87H483ZM400 248V87H396V248H400Z" fill="black" mask="url(#path-6-inside-3_30_13)"/>
<path d="M50 43L60 48.7735L60 37.2265L50 43ZM224 43L214 37.2265L214 48.7735L224 43ZM59 44L215 44L215 42L59 42L59 44Z" fill="black"/>
<path d="M50.7071 0.292893C50.3166 -0.0976311 49.6834 -0.0976311 49.2929 0.292893L42.9289 6.65685C42.5384 7.04738 42.5384 7.68054 42.9289 8.07107C43.3194 8.46159 43.9526 8.46159 44.3431 8.07107L50 2.41421L55.6568 8.07107C56.0474 8.46159 56.6805 8.46159 57.0711 8.07107C57.4616 7.68054 57.4616 7.04738 57.0711 6.65685L50.7071 0.292893ZM51 299L51 1L49 1L49 299L51 299Z" fill="black"/>
<path d="M94.6602 28.5909V26.4602L102.203 14.5455H103.882V17.6818H102.816L97.4215 26.2216V26.358H107.76V28.5909H94.6602ZM102.936 32V27.9432L102.953 26.9716V14.5455H105.45V32H102.936ZM110.363 28.5909V26.4602L117.906 14.5455H119.585V17.6818H118.52L113.125 26.2216V26.358H123.463V28.5909H110.363ZM118.639 32V27.9432L118.656 26.9716V14.5455H121.153V32H118.639ZM132.51 32.2898C131.163 32.2841 130.012 31.929 129.058 31.2244C128.103 30.5199 127.373 29.4943 126.868 28.1477C126.362 26.8011 126.109 25.179 126.109 23.2812C126.109 21.3892 126.362 19.7727 126.868 18.4318C127.379 17.0909 128.112 16.0682 129.066 15.3636C130.027 14.6591 131.174 14.3068 132.51 14.3068C133.845 14.3068 134.99 14.6619 135.944 15.3722C136.899 16.0767 137.629 17.0994 138.135 18.4403C138.646 19.7756 138.902 21.3892 138.902 23.2812C138.902 25.1847 138.649 26.8097 138.143 28.1562C137.637 29.4972 136.907 30.5227 135.953 31.233C134.998 31.9375 133.85 32.2898 132.51 32.2898ZM132.51 30.0142C133.691 30.0142 134.615 29.4375 135.279 28.2841C135.95 27.1307 136.285 25.4631 136.285 23.2812C136.285 21.8324 136.132 20.608 135.825 19.608C135.524 18.6023 135.089 17.8409 134.521 17.3239C133.958 16.8011 133.288 16.5398 132.51 16.5398C131.333 16.5398 130.41 17.1193 129.74 18.2784C129.069 19.4375 128.731 21.1051 128.725 23.2812C128.725 24.7358 128.876 25.9659 129.177 26.9716C129.484 27.9716 129.919 28.7301 130.481 29.2472C131.044 29.7585 131.72 30.0142 132.51 30.0142ZM148.515 32V14.5455H151.149V22.1307H159.85V14.5455H162.493V32H159.85V24.3892H151.149V32H148.515ZM165.85 32V30.2528L172.941 21.2443V21.125H166.081V18.9091H176.12V20.767L169.302 29.6648V29.7841H176.359V32H165.85Z" fill="black"/>
</svg>
